<?xml version="1.0" encoding="UTF-8"?><svg id="Layer_1" xmlns="http://www.w3.org/2000/svg" viewBox="0 0 850.48 285.24"><g><path d="M119.27,65.06v30.95h27.59v19.87h-27.59v48.7c0,7.8,.86,13.28,2.6,16.4,1.73,3.15,4.35,5.27,7.84,6.4,9.47,2.93,14.71,4.38,15.67,4.38v15.48h-22.99c-18.25,0-27.39-13.26-27.39-39.73v-51.62h-18.81v-14.65l18.81-5.22,4.6-30.95h19.66Z"/><path d="M169.01,108.96c4.18-5.57,9.4-9.26,15.68-11.08,6.27-1.67,13.35-2.52,21.23-2.52s13.65,.14,17.34,.41c3.71,.28,7.42,.88,11.2,1.8,3.76,.92,6.76,2.27,8.99,4.05,2.23,1.83,4.25,4.2,6.05,7.13,3.49,5.29,5.24,14.14,5.24,26.54,0,17.99-10.05,26.99-30.12,26.99h-39.5c0,10.87,1.81,17.89,5.44,21.1,1.95,1.81,4.21,2.99,6.79,3.55,2.58,.56,10,.83,22.27,.83s23.27-.75,33.02-2.29v16.93c-11.41,3.9-29.82,5.85-55.19,5.85-13.92,0-23.51-4.21-28.74-12.63-5.22-8.45-7.84-23.13-7.84-44.1s2.72-35.17,8.15-42.56Zm61.47,25.5c0-8.37-1.16-13.66-3.44-15.89-2.31-2.22-7.79-3.36-16.43-3.36-10.99,0-17.62,1.27-19.86,3.79-2.91,3.2-4.6,6.92-5,11.17-.43,4.25-.64,8.66-.64,13.28h34.7c7.11,0,10.67-3.01,10.67-8.99Z"/><path d="M277.51,191.85c-2.08-4.1-3.77-9.54-5.01-16.3-1.25-6.77-1.88-15.26-1.88-25.5s.87-19.21,2.61-26.86c1.74-7.68,4.34-13.49,7.83-17.45,3.48-3.98,7.29-6.74,11.39-8.28,4.12-1.53,9.02-2.29,14.74-2.29,18.68,0,35.33,2.09,49.98,6.28v15.45c-15.62-.84-27.05-1.25-34.29-1.25s-11.53,.06-12.87,.22c-1.32,.12-2.82,.43-4.49,.93-1.68,.49-2.96,1.22-3.88,2.21-.9,.96-1.83,2.31-2.81,4.06-.98,1.77-1.75,3.93-2.31,6.58-1.11,6-1.66,13.73-1.66,23.21s.69,16.75,2.09,21.85c1.39,5.08,3.44,8.49,6.17,10.24,2.71,1.76,6.85,2.63,12.43,2.63,11.16,0,23.26-.5,36.37-1.48l6.68-.43v15.91c-7.24,3.06-14.77,4.93-22.57,5.64-2.51,.14-4.38,.28-5.65,.41-1.26,.15-3.24,.25-5.95,.31-2.71,.09-4.56,.16-5.54,.22-.98,.07-2.96,.1-5.95,.1h-8.48c-2.65,0-5.67-.44-9.08-1.35-3.42-.91-6.73-2.62-9.93-5.11-3.21-2.52-5.86-5.83-7.95-9.95Z"/><path d="M447.06,131.75c0-11.29-4.89-16.94-14.63-16.94-6.41,0-11.78,.79-16.1,2.42-4.31,1.6-9.62,4.29-15.88,8.06v81.94h-24.26V96.22h18.81l5.44,12.32c.41-.27,1.92-1.27,4.49-3.02,2.58-1.75,5.15-3.33,7.74-4.81,2.58-1.47,6.16-2.91,10.76-4.28,4.59-1.41,9.34-2.12,14.21-2.12,11.56,0,20.06,3.54,25.51,10.58,5.44,7.03,8.16,16.05,8.16,27.07v75.26h-24.26v-75.48h0Z"/><path d="M497.43,195.62c-3.9-4.52-6.68-10.17-8.36-16.94-1.67-6.76-2.5-16.48-2.5-29.15s1.65-23.22,4.9-31.56c3.29-8.38,8.44-14.25,15.47-17.68,7.05-3.42,16.99-5.12,29.81-5.12,18.94,0,32.01,4.17,39.19,12.54,7.17,8.36,10.77,23.23,10.77,44.64s-3.6,36.04-10.77,44c-7.18,7.94-20.25,11.91-39.19,11.91-9.62,0-17.61-.96-23.93-2.91-6.36-1.96-11.48-5.18-15.39-9.72Zm15.79-67.31c-.9,2.85-1.52,6.26-1.88,10.23-.35,3.98-.51,8.75-.51,14.32s.19,10.26,.62,14.02c.41,3.76,1.17,6.88,2.2,9.4,1.04,2.52,2.19,4.55,3.45,6.06,1.26,1.54,2.93,2.72,5.01,3.56,3.49,1.12,7.83,1.69,13.09,1.69s9.02-.18,11.39-.53c2.37-.34,4.73-1.11,7.1-2.3,2.38-1.18,4.12-3.04,5.22-5.53,2.37-5.58,3.56-12.77,3.56-21.55s-.18-15.15-.52-19.13c-.36-3.97-.97-7.38-1.89-10.23-.9-2.86-1.9-5.1-3.03-6.7-1.12-1.6-2.71-2.83-4.81-3.64-3.33-1.39-7.64-2.13-12.94-2.22-5.3-.06-9.07,.04-11.31,.32-2.23,.29-4.42,.87-6.58,1.8-2.17,.9-3.85,2.14-5.03,3.74-1.17,1.6-2.22,3.84-3.14,6.7Z"/><path d="M700.44,125.07v82.16h-24.25v-74.85c0-5.43-1.36-9.64-4.07-12.64-2.72-2.99-6.74-4.5-12.02-4.5s-10.01,.77-14.12,2.31c-4.11,1.53-9.29,4.25-15.57,8.14v81.54h-24.24V96.22h18.81l5.43,12.54c.29-.29,1.45-1.09,3.46-2.4,2.01-1.34,3.23-2.14,3.65-2.42,.42-.26,1.52-.93,3.35-1.98,1.81-1.04,3.07-1.74,3.76-2.09,.7-.35,1.88-.92,3.56-1.68,1.66-.76,3.06-1.26,4.18-1.46,1.11-.2,2.52-.51,4.18-.95,2.64-.69,6.75-1.02,12.34-1.02s10.93,1.3,16.1,3.97c5.15,2.63,8.92,6.34,11.3,11.08,13.09-10.04,26.96-15.05,41.59-15.05,11,0,19.37,3.44,25.1,10.34,5.71,6.9,8.57,16.06,8.57,27.49v74.64h-24.24v-74.85c0-5.43-1.35-9.64-3.99-12.64-2.63-2.99-6.24-4.5-10.77-4.5s-8.53,.35-12.02,1.04c-7.1,1.15-13.8,4.05-20.07,8.8Z"/></g><path d="M143.97,285.24c-35.02,0-79.02-4.2-108.53-36.92C16.8,227.67-1.97,195.7,.17,115.42,.86,89.43,2.99,10.31,108.32,2.46c22.05-1.63,61.07-2.46,115.96-2.46,79.51,0,169.68,1.73,200.29,2.68,51.26,1.57,212.08,9.26,287.59,18.23,63.7,7.55,103.92,22.63,119.58,44.84,13.94,19.72,19.85,45.87,18.57,82.26-1.42,40.99-6.55,62.18-20.34,83.93-12.06,18.99-37.1,30.75-74.43,34.95-38.56,4.32-214.52,12.24-268.41,13.45-64.35,1.45-271.59,4.6-341.31,4.91h-1.84ZM224.28,11.34c-54.61,0-93.34,.8-115.12,2.43C23.91,20.1,12.59,75,11.5,115.73c-2.03,76.28,15.22,105.99,32.36,124.99,26.51,29.4,67.43,33.18,100.11,33.18h1.79c69.68-.31,276.79-3.46,341.11-4.91,59.65-1.33,231.25-9.32,267.4-13.38,33.75-3.79,55.99-13.8,66.11-29.76,12.56-19.8,17.24-39.54,18.6-78.25,1.17-33.78-4.08-57.72-16.52-75.33-13.53-19.18-52.15-33.06-111.66-40.11-75.16-8.92-235.48-16.61-286.6-18.16-30.53-.94-120.54-2.68-199.94-2.68Z"/></svg>