<?xml version="1.0" encoding="utf-8"?>
<!-- Generator: Adobe Illustrator 26.3.1, SVG Export Plug-In . SVG Version: 6.00 Build 0)  -->
<svg version="1.1" id="Capa_1" xmlns="http://www.w3.org/2000/svg" xmlns:xlink="http://www.w3.org/1999/xlink" x="0px" y="0px"
	 viewBox="0 0 200 200" style="enable-background:new 0 0 200 200;" xml:space="preserve">
<style type="text/css">
	.st0{fill:#FFFFFF;stroke:#010202;stroke-width:2;}
	.st1{fill:none;stroke:#010202;stroke-width:2;}
	.st2{fill:#FEE386;fill-opacity:0.3;}
	.st3{opacity:0.8;fill:#AFDDED;fill-opacity:0.46;enable-background:new    ;}
	.st4{fill:#D50C53;fill-opacity:0.15;}
	.st5{fill:#FFFFFF;}
	.st6{fill:#FFFFFF;stroke:#010202;stroke-width:2;stroke-miterlimit:10;}
	.st7{fill:#221F20;}
	.st8{fill:#E52421;}
	.st9{fill:#121111;}
	.st10{opacity:0.8;fill:none;stroke:#8B8B8B;enable-background:new    ;}
	.st11{fill:#66C7F0;}
	.st12{fill:#221F20;fill-opacity:0.7;}
	.st13{fill:#294896;}
	.st14{fill:#219BD7;}
	.st15{fill:#DDDDDD;}
	.st16{fill:#212120;}
	.st17{fill:#878889;}
	.st18{fill:#FFFFFF;stroke:#DDDDDD;stroke-width:2;stroke-linecap:round;stroke-linejoin:round;stroke-miterlimit:10;}
	.st19{fill:#FBBC1D;}
	.st20{fill:#029CCC;}
	.st21{fill:#EFEFEF;stroke:#DDDDDD;stroke-width:2;stroke-linecap:round;stroke-linejoin:round;stroke-miterlimit:10;}
	.st22{fill:#EB576A;}
	.st23{fill:#343434;}
	.st24{fill:#39514C;}
	.st25{fill:#5FB45E;}
	.st26{fill:#5E5D5C;}
	.st27{fill:#D7D6D8;}
	.st28{fill:#FFFFFF;stroke:#000000;stroke-miterlimit:10;}
	.st29{opacity:0.35;fill:url(#SVGID_1_);}
	.st30{fill:none;stroke:#231F20;stroke-width:0.75;stroke-linejoin:round;stroke-miterlimit:10;}
	.st31{opacity:0.35;fill:url(#SVGID_00000117676393161243250070000013289985842839901112_);}
	.st32{fill:none;stroke:#231F20;stroke-linejoin:round;stroke-miterlimit:10;}
	.st33{opacity:0.4;}
	.st34{fill:#706F6F;}
	.st35{fill:#FAFAFA;}
	.st36{fill:#020203;}
	.st37{opacity:0.35;fill:url(#SVGID_00000066482772709918186930000008502876405573561733_);}
	.st38{fill:#EF7A79;fill-opacity:5.000000e-02;}
	.st39{fill:#EF7A79;}
	.st40{opacity:0.4;fill:#00A0CD;}
	.st41{opacity:0.8;fill:#009BCC;enable-background:new    ;}
	.st42{clip-path:url(#SVGID_00000064335824728988589270000002733148364045253511_);}
	.st43{opacity:0.8;fill:#019CCB;fill-opacity:0.4;enable-background:new    ;}
	.st44{enable-background:new    ;}
	.st45{fill:#FFFFFF;enable-background:new    ;}
	.st46{stroke:#FFFFFF;stroke-width:0.25;stroke-miterlimit:10;}
	.st47{fill:#EFEFEF;}
	.st48{fill:#1B1514;}
	.st49{fill:#DAE8C3;}
	
		.st50{opacity:0.8;fill:none;stroke:#595958;stroke-width:2;stroke-linecap:round;stroke-linejoin:round;stroke-miterlimit:10;stroke-opacity:0.7;enable-background:new    ;}
	.st51{fill:#595958;}
	.st52{fill:#E7207C;fill-opacity:5.000000e-02;}
	.st53{fill:#EEC6D5;}
	.st54{fill:none;stroke:#020203;stroke-opacity:0.2;}
	.st55{opacity:0.8;fill:#029CCC;enable-background:new    ;}
	.st56{fill:none;stroke:#020203;stroke-width:0.2152;stroke-linecap:round;stroke-linejoin:round;stroke-miterlimit:10;}
	.st57{fill:none;stroke:#020203;stroke-width:0.2813;stroke-linecap:round;stroke-linejoin:round;stroke-miterlimit:10;}
	.st58{fill:#049839;}
	.st59{fill:#F8E508;}
	.st60{fill:#2655A2;fill-opacity:0.8;}
	.st61{fill:#FFFFFF;stroke:#979797;stroke-width:0.4222;stroke-linecap:round;stroke-linejoin:round;stroke-miterlimit:10;}
	.st62{fill:#979797;}
	.st63{fill:#F9AF2E;}
	.st64{fill:#FFFFFF;stroke:#DDDDDD;stroke-width:0.332;stroke-linecap:round;stroke-linejoin:round;stroke-miterlimit:10;}
	.st65{fill:none;stroke:#1B1514;stroke-width:0.229;stroke-linecap:round;stroke-linejoin:round;stroke-miterlimit:10;}
	.st66{fill:#FFFFFF;stroke:#979797;stroke-width:0.154;stroke-linecap:round;stroke-linejoin:round;stroke-miterlimit:10;}
	.st67{fill:#FFFFFF;stroke:#979797;stroke-width:0.2272;stroke-linecap:round;stroke-linejoin:round;stroke-miterlimit:10;}
	.st68{fill:#F9AF2D;}
	.st69{fill:#9BC76A;}
	.st70{fill:#7B62A7;enable-background:new    ;}
	.st71{fill:none;stroke:#979797;stroke-width:0.1552;stroke-linecap:round;stroke-linejoin:round;stroke-miterlimit:10;}
	.st72{fill:#E94079;}
</style>
<path class="st0" d="M181.4,93.8c0,25.6-3.8,45.7-13.7,59.4c-9.9,13.7-26.2,21.1-51.6,21.1c-25.4,0-51.1-7.5-70.3-21.3
	c-19.2-13.8-32.1-34-32.1-59.4c0-25.4,12.8-42.6,32-53.5c19.2-11,44.9-15.6,70.4-15.6c12.8,0,22.1,1.2,29.1,3.8
	c7.1,2.5,11.9,6.4,15.8,11.9c3.9,5.5,6.8,12.5,9.8,21.5c1.2,3.6,2.5,7.5,3.8,11.8C176.6,79.5,178.8,86.3,181.4,93.8z"/>
<path class="st2" d="M187.9,86.3c-1.6-7.1-5.7-13.1-11.1-18c-18.4-17-42.2-27.4-65.8-31.6c-19-3.4-44.7,7.3-58.6,24.1
	c-15.5,19.1-10.7,52.9,3.1,70.6c18.7,24.1,40.9,34.1,68.3,19.2c12.9-6.3,21.6-13.9,35.2-17.1c11.7-2.7,25.2-19,28.5-31.7
	C189,96.2,189,91.1,187.9,86.3z"/>
<path class="st5" d="M154.1,122.9c-3.1-5.5-7.5-10.2-12.9-13.5l-12.4-7.2l0.7-0.7c2.4-2.4,3.7-6,3.7-10.6c0-11.5-8.2-25.5-18.2-31.2
	l-14.4-8.3c-5-2.9-9.8-3.4-13.5-1.2c-0.3,0.2-0.5,0.3-0.8,0.5L79,54.3l-0.1,0.2h-0.3l-0.8,0.3c-0.3,0.2-0.7,0.5-1,0.7
	c-3,2.3-4.6,6.3-4.6,11.5c0,10.7,7.4,24.1,16.7,30.4l0.3,0.2v11.6c0,0.3,0.2,0.6,0.5,0.8c0.3,0.1,0.5,0.2,0.9,0l0.7-0.3l7.9-3.9
	l2.1-1.1l1.6,1l-0.7,0.7c-2.4,2.4-3.7,6-3.7,10.6c0.2,6.2,2,12.4,5.3,17.7c3.1,5.6,7.5,10.2,12.9,13.5l4.4,2.5l10.4,17.8
	c0.1,0.1,0.1,0.2,0.1,0.2l0.2,0.1c0.1,0,0.1,0.1,0.2,0.1c0.3,0.1,0.4,0.1,0.6,0c0,0,0.1,0,0.1-0.1h0.1l9.1-4.6
	c0.3-0.2,0.5-0.5,0.5-0.8v-4.9l0.5-0.2c2-0.7,3.7-2,5-3.7l0.2-0.3h0.8c2.6,0,4.8-0.9,6.6-2.4c2.6-2.4,4-6.1,4-10.9
	C159.2,134.4,157.4,128.3,154.1,122.9z"/>
<path class="st7" d="M160.5,141.7c-0.2-6.4-2.1-12.6-5.4-18.1c-3.1-5.6-7.7-10.4-13.2-13.8l-12.7-7.3l0.7-0.7
	c2.5-2.4,3.7-6.2,3.7-10.9c0-11.7-8.3-26-18.6-31.9l-14.7-8.5c-5.1-2.9-10-3.4-13.8-1.3c-0.3,0.2-0.5,0.3-0.8,0.5l-7.6,3.7l-0.1,0.2
	h-0.3L77.1,54c-0.3,0.2-0.7,0.5-1,0.7c-3,2.3-4.7,6.5-4.7,11.6c0,11.1,7.6,24.7,17.1,31l0.3,0.2v11.8c0,0.3,0.2,0.6,0.5,0.8
	c0.3,0.1,0.5,0.2,0.9,0l0.7-0.3l8.1-4l2.2-1.2l1.7,1l-0.7,0.7c-2.5,2.4-3.7,6.2-3.7,10.9c0.2,6.4,2.1,12.6,5.4,18.1
	c3.1,5.7,7.7,10.4,13.2,13.8l4.5,2.5l10.6,18.2c0.1,0.1,0.1,0.2,0.1,0.2l0.2,0.1c0.1,0,0.1,0.1,0.2,0.1c0.3,0.1,0.4,0.1,0.6,0
	c0,0,0.1,0,0.1-0.1h0.1l9.3-4.7c0.3-0.2,0.5-0.5,0.5-0.8v-5l0.5-0.2c2.1-0.7,3.8-2.1,5.1-3.8l0.2-0.3h0.8c2.7,0,4.9-0.9,6.8-2.4
	C159.1,150.5,160.5,146.7,160.5,141.7z M87,51.2l0.5-0.4c3.1-1.8,7.5-1.3,12,1.3l14.7,8.5c9.7,5.6,17.7,19.3,17.7,30.3
	c0,5.1-1.7,9-4.7,10.8l-0.1,0.1c-0.1,0.1-0.2,0.1-0.5,0.3c-0.1,0-0.1,0.1-0.4,0.2l-3.6,1.8l0.7-1.7c0.8-2.2,1.2-4.3,1.1-6.6
	c0-11.7-8.3-26-18.6-31.9L91,55.3c-1.6-1-3.2-1.7-5.1-2.2l-2-0.5L87,51.2z M101,102.4c-0.3-0.2-0.6-0.2-0.9,0l-9.4,5.4V97.1
	c0-0.3-0.2-0.6-0.4-0.8c-9.4-5.8-17.1-19.2-17.1-29.9c0-4.6,1.4-8.3,4-10.3c0.3-0.2,0.6-0.4,0.7-0.5l0.8-0.4
	c1.6-0.7,3.1-0.9,4.7-0.7c2.4,0.3,4.5,1.1,6.6,2.3l14.7,8.5c9.7,5.6,17.7,19.3,17.7,30.3c0.1,2.6-0.5,5.3-1.7,7.5
	c-0.5,1-1.3,1.9-2.1,2.5c-0.3,0.3-0.6,0.5-1,0.7l-0.1,0.2c-0.1,0.1-0.3,0.2-0.5,0.2c-0.3,0.1-0.6,0.3-0.9,0.4
	c-0.4,0.1-0.7,0.2-1.1,0.3c-0.1,0-0.1,0-0.3,0.1c-0.7,0.1-1.5,0.1-2.4,0.1c-0.2,0-0.5,0-0.7-0.1l-0.5-0.1c-0.4-0.1-0.7-0.1-1.1-0.3
	L110,107l-0.3-0.1c-0.1,0-0.2,0-0.3-0.1c-0.4-0.1-0.9-0.3-1.4-0.5c-0.2-0.1-0.5-0.2-0.8-0.4c-0.5-0.2-1-0.5-1.6-0.8L101,102.4z
	 M141.3,164.2l-7.7,3.8v-9.3l1,0.4c0.5,0.2,1.1,0.4,1.8,0.6l0.2,0.1c0.7,0.2,1.2,0.2,1.7,0.3h0.2c0.7,0.1,1.3,0.1,1.9,0.1h0.9v0.7
	L141.3,164.2L141.3,164.2z M149.2,148.5c-0.2,2-0.8,3.8-1.7,5.5c-1.2,2.2-3.1,3.6-5.5,4.1c-3,0.4-6.2-0.2-8.8-1.8
	c-0.3-0.2-0.6-0.2-0.9,0c-0.3,0.2-0.5,0.5-0.5,0.8v9l-9-15.6c-0.1-0.1-0.2-0.3-0.3-0.3l-4.7-2.6c-5.2-3.2-9.5-7.8-12.6-13.2
	c-3.1-5.2-4.9-11.2-5.2-17.2c0-4.6,1.4-8.2,3.9-10.3l0.4-0.3l0.4,0.3c0.6,0.3,1.1,0.6,1.6,0.8c0.3,0.2,0.7,0.3,0.9,0.4
	c0.5,0.2,1,0.4,1.5,0.6c0.1,0.1,0.3,0.1,0.4,0.1c0.2,0.1,0.3,0.1,0.4,0.1c0.4,0.1,0.9,0.2,1.2,0.3l0.7,0.1c0.3,0,0.6,0.1,0.8,0.1
	c1,0.1,1.9,0.1,2.7-0.1c0.2,0,0.4,0,0.5-0.1c0.5-0.1,0.9-0.2,1.4-0.3c0.4-0.1,0.7-0.3,1-0.4l0.4-0.2l13.5,7.7
	c5.2,3.2,9.5,7.8,12.6,13.2c3.1,5.2,4.9,11.2,5.2,17.2C149.3,147.2,149.3,147.9,149.2,148.5z M155.2,151.6c-1.2,1.1-2.7,1.7-4.2,2
	l-1.2,0.2l0.4-1.2c0.2-0.6,0.4-1.1,0.5-1.7l0.1-0.4c0.1-0.5,0.2-1,0.3-1.6l0.1-0.6c0.1-0.8,0.1-1.4,0.1-2
	c-0.2-6.4-2.1-12.6-5.4-18.1c-3.1-5.7-7.7-10.4-13.2-13.8l-12.7-7.3l7.1-3.3c0.1-0.1,0.2-0.1,0.3-0.1l0.4-0.2l13.5,7.7
	c5.2,3.2,9.5,7.8,12.6,13.2c3.1,5.2,4.9,11.2,5.2,17.2C158.7,146.1,157.5,149.6,155.2,151.6z"/>
<path class="st7" d="M136.6,142.2l-24.5-14.1c-0.1-0.1-0.3-0.1-0.3-0.1s0,0-0.1,0c0,0-0.1,0.1-0.1,0.4c0,0.6,0.5,1.5,1,1.8
	l24.5,14.1c0.2,0.1,0.3,0.1,0.4,0.1c0.1,0,0.1-0.2,0.1-0.4C137.6,143.3,137.1,142.5,136.6,142.2z"/>
<path class="st7" d="M136.6,133.3l-24.5-14c-0.1-0.1-0.2-0.1-0.3-0.1c0,0,0,0-0.1,0c0,0-0.1,0.2-0.1,0.4c0,0.6,0.5,1.5,1,1.8
	l24.6,14c0.2,0.1,0.4,0.1,0.4,0.1s0.1-0.1,0.1-0.3C137.7,134.4,137.2,133.7,136.6,133.3z"/>
<path class="st7" d="M110.7,94c0.1,0,0.1-0.2,0.1-0.4c0-0.6-0.5-1.5-1.1-1.8l-24.5-14c-0.1-0.1-0.2-0.1-0.3-0.1c0,0,0,0-0.1,0
	c0,0-0.1,0.1-0.1,0.4c0,0.6,0.5,1.5,1,1.8L110.2,94C110.5,94,110.6,94,110.7,94z"/>
<path class="st7" d="M85.9,71l24.5,14.1c0.2,0.1,0.4,0.1,0.4,0.1s0.1-0.1,0.1-0.3c0-0.6-0.5-1.5-1.1-1.8L85.4,69
	c-0.1-0.1-0.2-0.1-0.3-0.1c0,0,0,0-0.1,0c0,0-0.1,0.2-0.1,0.4C84.9,70,85.4,70.7,85.9,71z"/>
</svg>
