<?xml version="1.0" encoding="utf-8"?>
<!-- Generator: Adobe Illustrator 26.3.1, SVG Export Plug-In . SVG Version: 6.00 Build 0)  -->
<svg version="1.1" id="Capa_1" xmlns="http://www.w3.org/2000/svg" xmlns:xlink="http://www.w3.org/1999/xlink" x="0px" y="0px"
	 viewBox="0 0 200 200" style="enable-background:new 0 0 200 200;" xml:space="preserve">
<style type="text/css">
	.st0{fill:#FFFFFF;stroke:#010202;stroke-width:2;}
	.st1{fill:none;stroke:#010202;stroke-width:2;}
	.st2{fill:#FEE386;fill-opacity:0.3;}
	.st3{opacity:0.8;fill:#AFDDED;fill-opacity:0.46;enable-background:new    ;}
	.st4{fill:#D50C53;fill-opacity:0.15;}
	.st5{fill:#FFFFFF;}
	.st6{fill:#FFFFFF;stroke:#010202;stroke-width:2;stroke-miterlimit:10;}
	.st7{fill:#221F20;}
	.st8{fill:#E52421;}
	.st9{fill:#121111;}
	.st10{opacity:0.8;fill:none;stroke:#8B8B8B;enable-background:new    ;}
	.st11{fill:#66C7F0;}
	.st12{fill:#221F20;fill-opacity:0.7;}
	.st13{fill:#294896;}
	.st14{fill:#219BD7;}
	.st15{fill:#DDDDDD;}
	.st16{fill:#212120;}
	.st17{fill:#878889;}
	.st18{fill:#FFFFFF;stroke:#DDDDDD;stroke-width:2;stroke-linecap:round;stroke-linejoin:round;stroke-miterlimit:10;}
	.st19{fill:#FBBC1D;}
	.st20{fill:#029CCC;}
	.st21{fill:#EFEFEF;stroke:#DDDDDD;stroke-width:2;stroke-linecap:round;stroke-linejoin:round;stroke-miterlimit:10;}
	.st22{fill:#EB576A;}
	.st23{fill:#343434;}
	.st24{fill:#39514C;}
	.st25{fill:#5FB45E;}
	.st26{fill:#5E5D5C;}
	.st27{fill:#D7D6D8;}
	.st28{fill:#FFFFFF;stroke:#000000;stroke-miterlimit:10;}
	.st29{opacity:0.35;fill:url(#SVGID_1_);}
	.st30{fill:none;stroke:#231F20;stroke-width:0.75;stroke-linejoin:round;stroke-miterlimit:10;}
	.st31{opacity:0.35;fill:url(#SVGID_00000055677256677063590460000008155013804697071513_);}
	.st32{fill:none;stroke:#231F20;stroke-linejoin:round;stroke-miterlimit:10;}
	.st33{opacity:0.4;}
	.st34{fill:#706F6F;}
	.st35{fill:#FAFAFA;}
	.st36{fill:#020203;}
	.st37{opacity:0.35;fill:url(#SVGID_00000015332849157873060800000007674358665937806753_);}
	.st38{fill:#EF7A79;fill-opacity:5.000000e-02;}
	.st39{fill:#EF7A79;}
	.st40{opacity:0.4;fill:#00A0CD;}
	.st41{opacity:0.8;fill:#009BCC;enable-background:new    ;}
	.st42{clip-path:url(#SVGID_00000165212782407980401110000002205618000249717142_);}
	.st43{opacity:0.8;fill:#019CCB;fill-opacity:0.4;enable-background:new    ;}
	.st44{enable-background:new    ;}
	.st45{fill:#FFFFFF;enable-background:new    ;}
	.st46{stroke:#FFFFFF;stroke-width:0.25;stroke-miterlimit:10;}
	.st47{fill:#EFEFEF;}
	.st48{fill:#1B1514;}
	.st49{fill:#DAE8C3;}
	
		.st50{opacity:0.8;fill:none;stroke:#595958;stroke-width:2;stroke-linecap:round;stroke-linejoin:round;stroke-miterlimit:10;stroke-opacity:0.7;enable-background:new    ;}
	.st51{fill:#595958;}
	.st52{fill:#E7207C;fill-opacity:5.000000e-02;}
	.st53{fill:#EEC6D5;}
	.st54{fill:none;stroke:#020203;stroke-opacity:0.2;}
	.st55{opacity:0.8;fill:#029CCC;enable-background:new    ;}
	.st56{fill:none;stroke:#020203;stroke-width:0.2152;stroke-linecap:round;stroke-linejoin:round;stroke-miterlimit:10;}
	.st57{fill:none;stroke:#020203;stroke-width:0.2813;stroke-linecap:round;stroke-linejoin:round;stroke-miterlimit:10;}
	.st58{fill:#049839;}
	.st59{fill:#F8E508;}
	.st60{fill:#2655A2;fill-opacity:0.8;}
	.st61{fill:#FFFFFF;stroke:#979797;stroke-width:0.4222;stroke-linecap:round;stroke-linejoin:round;stroke-miterlimit:10;}
	.st62{fill:#979797;}
	.st63{fill:#F9AF2E;}
	.st64{fill:#FFFFFF;stroke:#DDDDDD;stroke-width:0.332;stroke-linecap:round;stroke-linejoin:round;stroke-miterlimit:10;}
	.st65{fill:none;stroke:#1B1514;stroke-width:0.229;stroke-linecap:round;stroke-linejoin:round;stroke-miterlimit:10;}
	.st66{fill:#FFFFFF;stroke:#979797;stroke-width:0.154;stroke-linecap:round;stroke-linejoin:round;stroke-miterlimit:10;}
	.st67{fill:#FFFFFF;stroke:#979797;stroke-width:0.2272;stroke-linecap:round;stroke-linejoin:round;stroke-miterlimit:10;}
	.st68{fill:#F9AF2D;}
	.st69{fill:#9BC76A;}
	.st70{fill:#7B62A7;enable-background:new    ;}
	.st71{fill:none;stroke:#979797;stroke-width:0.1552;stroke-linecap:round;stroke-linejoin:round;stroke-miterlimit:10;}
	.st72{fill:#E94079;}
</style>
<path class="st1" d="M161.3,41.4c16.7,23.4,27,47.8,27.3,70.6c0.3,22.7-9.2,43.7-32.4,60.3c-30.5,12.9-57.9,20.3-81,17.1
	c-23-3.2-41.9-16.8-55.3-46.5c-8.8-29.4-6-49,4.6-65.4c10.7-16.6,29.4-30,52.9-46.8c11.4-8.2,24.1-16.9,38-18
	C129.3,11.6,144.6,18.1,161.3,41.4z"/>
<path class="st3" d="M121.9,181.8c22,5.7,35-8.1,38.9-12.3c4.2-4.4,23.8-27.2,11-61.8C159.7,75,125.3,49.8,98.2,47.2
	c-24.8-2.3-47.4,13.9-45.9,45.4C54,131.8,91.7,173.9,121.9,181.8z"/>
<path class="st6" d="M139.4,98.4c2.9-13.7,0.7-26-7.9-36.9c-4.7-6-11-10-18.1-12.1c-3.7-1.1-7.8-1.4-11.7-1.4c-2.4,0-4.9,1-7.1,2
	C84.2,55,77,62.8,73.1,73.7c-0.4,1.3-0.3,1.9,1.1,2.3c3,0.9,6,2,9,3.1c0.4,0.1,0.8,0.3,1.2,0.5c-2.1,6.4-4.1,12.8-6.1,19.2
	c-0.8,2.7-1.7,5.3-2.6,8c-0.2,0.5-0.8,1-1.3,1.1c-1.5,0.4-3.1,0.6-4.6,0.7c-0.6,0.1-1.4,0.1-1.9-0.2c-8.7-3.6-13.9-10.2-14.3-19.7
	c-0.7-15.4,5.5-28.2,16.4-38.7c8.2-7.8,18.1-12.3,29.3-13.8c5.2-0.7,10.3-1.6,15.5-1c15.4,1.8,27,9.5,35,22.6
	c5.7,9.5,8.1,20,7.6,31.1c-0.6,13-4.8,24.6-13.4,34.5c-7.5,8.6-17,13.8-28.2,15.7c-5.7,1-11.5,2-17.4,1.5c-5.5-0.4-10.8-1.6-15.8-4
	c-2.6-1.3-3.4-2.8-3.2-5.7c0.3-4.4,3.2-7.5,7.5-8.3c1.5-0.3,3.1-0.6,4.6-0.8c1-0.1,2.1-0.1,2.9,0.2c5.7,2.4,11.7,3,17.7,3.1
	c0.4,0,0.8,0,1.3,0c2.3,0.2,2.3,0.2,3-2c2.7-8.4,5.3-16.7,8-25.1c0.4-1.1,0.7-1.9,2.1-1.8c0.8,0,1.7-0.2,2.5-0.4
	c1.8-0.5,3.6-0.3,5.3,0.4C135.8,97.3,137.5,97.7,139.4,98.4z M125.5,98.1c-0.2,0.7-0.4,1.2-0.6,1.7c-2.8,8.7-5.5,17.4-8.3,26.1
	c-0.7,2.1-1,2.4-3.3,2.2c-4.2-0.3-8.3-0.6-12.5-0.9c-4.3-0.3-8.5-1-12.5-2.5c-3-1.2-4.5-0.8-6.3,1.9c-2.8,4.1-3,7.8,2.7,10.1
	c19.1,7.4,40.9,1.3,53.6-15.2c7-9.1,10.6-19.4,11.2-30.7c0.6-12.1-1.9-23.5-8.9-33.5c-10.4-15-24.9-21.9-43.1-19.6
	C84.1,39.4,73.3,46.3,65,57c-7,9.1-10.9,19.4-10.6,31c0.2,8.3,4.3,14.4,11.5,18.4c0.6,0.4,1.4,0.6,2.2,1c2.8-8.8,5.5-17.4,8.3-26.2
	C73.2,80.1,70.1,79,67,78c-2.1-0.7-2.3-1.2-1.6-3.2c2-5.7,4.9-10.9,9.1-15.3c16.4-17.4,37.8-15.2,51.6-4.7
	c13.2,9.9,18.9,28.9,13.8,45.5c-0.7,2.3-1.1,2.5-3.5,1.7C132.9,100.7,129.3,99.4,125.5,98.1z"/>
<path class="st6" d="M125.5,98.1c3.7,1.3,7.3,2.5,10.9,3.8c2.3,0.8,2.8,0.6,3.5-1.7c5.1-16.5-0.7-35.5-13.8-45.5
	C112.3,44.3,90.9,42,74.5,59.4c-4.2,4.4-7.1,9.6-9.1,15.3c-0.7,2.1-0.5,2.5,1.6,3.2c3.1,1.1,6.2,2.1,9.5,3.3
	c-2.8,8.7-5.5,17.3-8.3,26.2c-0.8-0.4-1.6-0.6-2.2-1c-7.2-4-11.3-10.2-11.5-18.4c-0.3-11.6,3.6-21.9,10.6-31
	c8.3-10.8,19.1-17.6,32.6-19.3c18.2-2.3,32.7,4.6,43.1,19.6c7,10,9.5,21.4,8.9,33.5c-0.6,11.4-4.2,21.7-11.2,30.7
	c-12.7,16.5-34.4,22.5-53.6,15.2c-5.7-2.2-5.5-5.9-2.7-10.1c1.8-2.7,3.3-3,6.3-1.9c4,1.6,8.2,2.3,12.5,2.5c4.2,0.2,8.3,0.6,12.5,0.9
	c2.3,0.2,2.6-0.1,3.3-2.2c2.8-8.7,5.5-17.4,8.3-26.1C125.2,99.3,125.3,98.9,125.5,98.1z"/>
</svg>
