<?xml version="1.0" encoding="utf-8"?>
<!-- Generator: Adobe Illustrator 26.3.1, SVG Export Plug-In . SVG Version: 6.00 Build 0)  -->
<svg version="1.1" id="Capa_1" xmlns="http://www.w3.org/2000/svg" xmlns:xlink="http://www.w3.org/1999/xlink" x="0px" y="0px"
	 viewBox="0 0 200 200" style="enable-background:new 0 0 200 200;" xml:space="preserve">
<style type="text/css">
	.st0{fill:#FFFFFF;stroke:#010202;stroke-width:2;}
	.st1{fill:none;stroke:#010202;stroke-width:2;}
	.st2{fill:#FEE386;fill-opacity:0.3;}
	.st3{opacity:0.8;fill:#AFDDED;fill-opacity:0.46;enable-background:new    ;}
	.st4{fill:#D50C53;fill-opacity:0.15;}
	.st5{fill:#FFFFFF;}
	.st6{fill:#FFFFFF;stroke:#010202;stroke-width:2;stroke-miterlimit:10;}
	.st7{fill:#221F20;}
	.st8{fill:#E52421;}
	.st9{fill:#121111;}
	.st10{opacity:0.8;fill:none;stroke:#8B8B8B;enable-background:new    ;}
	.st11{fill:#66C7F0;}
	.st12{fill:#221F20;fill-opacity:0.7;}
	.st13{fill:#294896;}
	.st14{fill:#219BD7;}
	.st15{fill:#DDDDDD;}
	.st16{fill:#212120;}
	.st17{fill:#878889;}
	.st18{fill:#FFFFFF;stroke:#DDDDDD;stroke-width:2;stroke-linecap:round;stroke-linejoin:round;stroke-miterlimit:10;}
	.st19{fill:#FBBC1D;}
	.st20{fill:#029CCC;}
	.st21{fill:#EFEFEF;stroke:#DDDDDD;stroke-width:2;stroke-linecap:round;stroke-linejoin:round;stroke-miterlimit:10;}
	.st22{fill:#EB576A;}
	.st23{fill:#343434;}
	.st24{fill:#39514C;}
	.st25{fill:#5FB45E;}
	.st26{fill:#5E5D5C;}
	.st27{fill:#D7D6D8;}
	.st28{fill:#FFFFFF;stroke:#000000;stroke-miterlimit:10;}
	.st29{opacity:0.35;fill:url(#SVGID_1_);}
	.st30{fill:none;stroke:#231F20;stroke-width:0.75;stroke-linejoin:round;stroke-miterlimit:10;}
	.st31{opacity:0.35;fill:url(#SVGID_00000019671326782330549670000008980512773791816847_);}
	.st32{fill:none;stroke:#231F20;stroke-linejoin:round;stroke-miterlimit:10;}
	.st33{opacity:0.4;}
	.st34{fill:#706F6F;}
	.st35{fill:#FAFAFA;}
	.st36{fill:#020203;}
	.st37{opacity:0.35;fill:url(#SVGID_00000108282958137362691620000010536160413667962522_);}
	.st38{fill:#EF7A79;fill-opacity:5.000000e-02;}
	.st39{fill:#EF7A79;}
	.st40{opacity:0.4;fill:#00A0CD;}
	.st41{opacity:0.8;fill:#009BCC;enable-background:new    ;}
	.st42{clip-path:url(#SVGID_00000029041445847159239950000008384607086437340547_);}
	.st43{opacity:0.8;fill:#019CCB;fill-opacity:0.4;enable-background:new    ;}
	.st44{enable-background:new    ;}
	.st45{fill:#FFFFFF;enable-background:new    ;}
	.st46{stroke:#FFFFFF;stroke-width:0.25;stroke-miterlimit:10;}
	.st47{fill:#EFEFEF;}
	.st48{fill:#1B1514;}
	.st49{fill:#DAE8C3;}
	
		.st50{opacity:0.8;fill:none;stroke:#595958;stroke-width:2;stroke-linecap:round;stroke-linejoin:round;stroke-miterlimit:10;stroke-opacity:0.7;enable-background:new    ;}
	.st51{fill:#595958;}
	.st52{fill:#E7207C;fill-opacity:5.000000e-02;}
	.st53{fill:#EEC6D5;}
	.st54{fill:none;stroke:#020203;stroke-opacity:0.2;}
	.st55{opacity:0.8;fill:#029CCC;enable-background:new    ;}
	.st56{fill:none;stroke:#020203;stroke-width:0.2152;stroke-linecap:round;stroke-linejoin:round;stroke-miterlimit:10;}
	.st57{fill:none;stroke:#020203;stroke-width:0.2813;stroke-linecap:round;stroke-linejoin:round;stroke-miterlimit:10;}
	.st58{fill:#049839;}
	.st59{fill:#F8E508;}
	.st60{fill:#2655A2;fill-opacity:0.8;}
	.st61{fill:#FFFFFF;stroke:#979797;stroke-width:0.4222;stroke-linecap:round;stroke-linejoin:round;stroke-miterlimit:10;}
	.st62{fill:#979797;}
	.st63{fill:#F9AF2E;}
	.st64{fill:#FFFFFF;stroke:#DDDDDD;stroke-width:0.332;stroke-linecap:round;stroke-linejoin:round;stroke-miterlimit:10;}
	.st65{fill:none;stroke:#1B1514;stroke-width:0.229;stroke-linecap:round;stroke-linejoin:round;stroke-miterlimit:10;}
	.st66{fill:#FFFFFF;stroke:#979797;stroke-width:0.154;stroke-linecap:round;stroke-linejoin:round;stroke-miterlimit:10;}
	.st67{fill:#FFFFFF;stroke:#979797;stroke-width:0.2272;stroke-linecap:round;stroke-linejoin:round;stroke-miterlimit:10;}
	.st68{fill:#F9AF2D;}
	.st69{fill:#9BC76A;}
	.st70{fill:#7B62A7;enable-background:new    ;}
	.st71{fill:none;stroke:#979797;stroke-width:0.1552;stroke-linecap:round;stroke-linejoin:round;stroke-miterlimit:10;}
	.st72{fill:#E94079;}
</style>
<path class="st0" d="M181.7,90.1c0,25.1-11.2,42.4-28.7,53.5c-17.6,11.1-41.4,15.9-66.7,15.9c-25.3,0-43.5-4.8-55.4-15.8
	c-11.9-11-17.6-28.3-17.6-53.6c0-25,14.9-41.4,36.3-51.6c21.4-10.2,49.1-14.1,74.4-14.1c25.3,0,39.6,3.9,47.7,13.9
	c4,5,6.6,11.6,8.1,20.1C181.2,67,181.7,77.4,181.7,90.1z"/>
<path class="st4" d="M115.2,37.9c-24.4,3-39.1,21.6-43.7,27.3c-4.7,5.9-27,35.9-13.2,64.8c13,27.2,50.9,38.4,81.1,30.2
	c27.6-7.4,53-32.1,51.9-62.4C190.1,60.2,148.8,33.8,115.2,37.9z"/>
<path class="st5" d="M132.1,63.8L120,56.7c0.2-0.1,0.3-0.2,0.5-0.2c0.1,0,0.2-0.1,0.3-0.1c0.2-0.1,0.4-0.2,0.6-0.2
	c0.1,0,0.2-0.1,0.2-0.1c0.2-0.1,0.5-0.2,0.8-0.2c0.1,0,0.1,0,0.2-0.1c0.2-0.1,0.4-0.2,0.7-0.2c0.2,0,0.2-0.1,0.4-0.1
	c0.1,0,0.2-0.1,0.2-0.1c0.2,0,0.2-0.1,0.4-0.1c0.1,0,0.2,0,0.2-0.1c0.2,0,0.3-0.1,0.5-0.1c0.1,0,0.2,0,0.2,0c0.2,0,0.4-0.1,0.7-0.1
	c0.3-0.1,0.7-0.1,1-0.2c0.1,0,0.2,0,0.2,0c0.3,0,0.7-0.1,0.9-0.1c0.1,0,0.1,0,0.2,0c0.2,0,0.5,0,0.7,0c0.1,0,0.1,0,0.2,0
	c0.2,0,0.6,0,0.8,0c0.1,0,0.2,0,0.2,0c0.2,0,0.4,0,0.7,0.1c0.1,0,0.1,0,0.2,0c0.2,0,0.5,0.1,0.7,0.1c0.1,0,0.1,0,0.2,0
	c0.2,0,0.4,0.1,0.6,0.1c0.1,0,0.2,0,0.2,0.1c0.2,0.1,0.5,0.1,0.7,0.2c0,0,0,0,0.1,0c0.2,0.1,0.4,0.2,0.7,0.2c0.1,0,0.2,0.1,0.2,0.1
	c0.2,0.1,0.4,0.2,0.6,0.2c0.1,0,0.1,0,0.2,0.1c0.2,0.1,0.4,0.2,0.7,0.3c0.1,0,0.1,0.1,0.2,0.1c0.2,0.1,0.3,0.2,0.5,0.2
	c0.1,0.1,0.2,0.1,0.2,0.2l-14.7-8.5c-0.1,0-0.1-0.1-0.2-0.1c0,0-0.1,0-0.1-0.1c-0.2-0.1-0.3-0.2-0.5-0.2c-0.1,0-0.1-0.1-0.2-0.1
	c-0.2-0.1-0.4-0.2-0.7-0.3H120c-0.2-0.1-0.3-0.2-0.6-0.2c-0.1,0-0.2-0.1-0.2-0.1c-0.2-0.1-0.4-0.2-0.7-0.2c0,0,0,0-0.1,0
	c-0.2-0.1-0.5-0.2-0.7-0.2c-0.1,0-0.2,0-0.2-0.1c-0.2-0.1-0.4-0.1-0.6-0.1H117c0,0,0,0-0.1,0c-0.2-0.1-0.5-0.1-0.7-0.1
	c-0.1,0-0.1,0-0.2,0c-0.2,0-0.4-0.1-0.7-0.1h-0.1h-0.1c-0.2,0-0.6,0-0.8,0c-0.1,0-0.1,0-0.2,0c-0.2,0-0.5,0-0.7,0h-0.1
	c0,0,0,0-0.1,0c-0.3,0-0.6,0-0.9,0.1c-0.1,0-0.2,0-0.2,0c-0.3,0-0.7,0.1-1,0.2c-0.2,0-0.4,0.1-0.7,0.1c-0.1,0-0.2,0-0.2,0
	c-0.2,0-0.3,0.1-0.5,0.1c-0.1,0-0.2,0-0.2,0.1c-0.2,0-0.2,0.1-0.4,0.1c-0.1,0-0.2,0.1-0.2,0.1c-0.1,0-0.2,0.1-0.3,0.1h-0.1
	c-0.2,0.1-0.4,0.1-0.7,0.2c-0.1,0-0.1,0-0.2,0.1c-0.2,0.1-0.5,0.2-0.8,0.2c-0.1,0-0.2,0.1-0.2,0.1c-0.2,0.1-0.4,0.2-0.6,0.2
	c-0.2,0-0.3,0-0.4,0c-0.2,0.1-0.3,0.2-0.5,0.2c-0.1,0-0.1,0.1-0.2,0.1c-0.1,0-0.1,0-0.2,0.1c-0.2,0.1-0.5,0.2-0.7,0.3
	c-0.1,0-0.1,0.1-0.2,0.1c-0.3,0.2-0.6,0.2-0.9,0.4c-0.1,0-0.2,0.1-0.2,0.1c-0.2,0.1-0.5,0.2-0.7,0.3c-0.1,0.1-0.2,0.1-0.2,0.2
	c-0.3,0.2-0.6,0.3-0.9,0.5c-0.4,0.2-0.7,0.4-1.1,0.7c-0.1,0.1-0.2,0.1-0.2,0.2c-0.3,0.2-0.7,0.5-1.1,0.7c-0.1,0-0.2,0.1-0.2,0.1
	c-0.3,0.2-0.7,0.5-1.1,0.7c0,0-0.1,0-0.1,0.1c-0.3,0.2-0.7,0.5-1.1,0.8c-0.1,0.1-0.1,0.1-0.2,0.2c-0.3,0.2-0.7,0.6-1.1,0.8
	c-0.1,0.1-0.2,0.1-0.2,0.2c-0.3,0.3-0.7,0.6-1.1,0.9l-0.1,0.1c-0.3,0.3-0.7,0.6-1,0.9c-0.1,0.1-0.1,0.1-0.2,0.2
	c-0.3,0.3-0.7,0.7-1,1l-0.1,0.1c-0.1,0.1-0.1,0.1-0.2,0.2c-0.2,0.2-0.3,0.3-0.5,0.5c-0.1,0.1-0.2,0.2-0.2,0.2
	c-0.2,0.2-0.4,0.4-0.6,0.7c-0.1,0.1-0.1,0.1-0.2,0.2c-0.2,0.2-0.5,0.5-0.7,0.8c-0.1,0.1-0.2,0.2-0.2,0.2c-0.2,0.2-0.3,0.4-0.5,0.6
	l-0.1,0.1l-0.1,0.1c-0.3,0.4-0.7,0.8-1.1,1.2c-0.1,0.1-0.1,0.1-0.2,0.2c-0.3,0.4-0.7,0.8-1.1,1.3c0,0,0,0-0.1,0.1
	c0,0-0.1,0.1-0.1,0.2c-0.2,0.4-0.6,0.7-0.8,1.1c0,0,0,0.1-0.1,0.1c-0.3,0.4-0.6,0.8-0.8,1.1c0,0.1-0.1,0.1-0.1,0.2l-0.1,0.1
	c-0.2,0.3-0.5,0.7-0.7,1.1c0,0.1-0.1,0.1-0.1,0.2c-0.2,0.3-0.4,0.7-0.7,1c0,0.1-0.1,0.1-0.1,0.2c0,0,0,0.1-0.1,0.1
	c-0.2,0.3-0.4,0.7-0.7,1.1c-0.1,0.1-0.1,0.2-0.2,0.2c-0.2,0.3-0.3,0.6-0.6,0.9c0,0.1-0.1,0.1-0.1,0.2c0,0,0,0.1-0.1,0.1
	c-0.2,0.3-0.4,0.7-0.6,1.1c0,0.1-0.1,0.1-0.1,0.2c-0.2,0.3-0.3,0.7-0.5,1c0,0.1-0.1,0.1-0.1,0.2c0,0.1-0.1,0.1-0.1,0.2
	c-0.2,0.3-0.3,0.7-0.5,1c0,0,0,0.1-0.1,0.1c-0.2,0.3-0.3,0.7-0.6,1.1c0,0,0,0.1-0.1,0.1c0,0.1-0.1,0.1-0.1,0.2
	c-0.1,0.2-0.2,0.5-0.3,0.7c0,0.1-0.1,0.2-0.1,0.2c-0.2,0.4-0.3,0.7-0.5,1.1v0.1c0,0.1-0.1,0.1-0.1,0.2c-0.2,0.3-0.2,0.7-0.4,1
	c0,0.1-0.1,0.2-0.1,0.3c-0.2,0.3-0.4,0.7-0.6,1.1c0,0,0,0.1-0.1,0.1c-0.1,0.4-0.2,0.8-0.4,1.1c0,0.1-0.1,0.2-0.1,0.3
	c-0.2,0.4-0.2,0.8-0.4,1.2c0,0,0,0,0,0.1v0.1c-0.2,0.4-0.2,0.8-0.4,1.2c0,0.1-0.1,0.2-0.1,0.2c-0.2,0.4-0.2,0.8-0.4,1.3v0.1
	c0,0.1,0,0.1,0,0.2c-0.2,0.5-0.2,1-0.4,1.5c0,0.1,0,0.2-0.1,0.2c-0.1,0.5-0.2,1-0.3,1.5c0,0.1,0,0.2-0.1,0.2
	c-0.1,0.2-0.1,0.5-0.2,0.7c0,0,0,0.1,0,0.2c0,0.2-0.1,0.4-0.1,0.6c0,0.2-0.1,0.2-0.1,0.4c0,0.2-0.1,0.4-0.1,0.6c0,0.2,0,0.2-0.1,0.4
	c0,0.2-0.1,0.4-0.1,0.6c0,0.1,0,0.2,0,0.2c0,0.1,0,0.1,0,0.2c-0.1,0.4-0.1,0.8-0.2,1.2c0,0.1,0,0.1,0,0.2c0,0.4-0.1,0.7-0.1,1.1
	c0,0.1,0,0.2,0,0.2c0,0.4-0.1,0.8-0.1,1.2c0,0.1,0,0.2,0,0.2c0,0.4,0,0.8,0,1.2c0,9,3.3,15.4,8.4,18.4l14.7,8.5
	c-4.3-2.5-7.2-7.3-8.1-14.1l12.1,7.1c0.1,0,0.1,0.1,0.2,0.1c0,0,0.1,0,0.1,0.1c0.2,0.1,0.2,0.2,0.4,0.2c0.1,0,0.1,0.1,0.2,0.1
	c0.2,0.1,0.3,0.2,0.5,0.2h0.1c0.2,0.1,0.3,0.1,0.4,0.2c0.1,0,0.1,0,0.2,0.1c0.2,0.1,0.3,0.1,0.5,0.2c0.2,0.1,0.4,0.1,0.6,0.2
	c0.1,0,0.1,0,0.2,0c0.2,0,0.3,0.1,0.5,0.1h0.1c0.2,0,0.4,0.1,0.6,0.1c0.1,0,0.1,0,0.2,0c0.2,0,0.3,0,0.5,0.1h0.1c0,0,0,0,0.1,0
	c0.2,0,0.4,0,0.7,0c0.1,0,0.1,0,0.2,0c0.2,0,0.4,0,0.6,0h0.1c0,0,0,0,0.1,0c0.2,0,0.5,0,0.7-0.1c0.1,0,0.1,0,0.2,0
	c0.2,0,0.5-0.1,0.8-0.1c0.3-0.1,0.7-0.1,1-0.2h0.1c0.3-0.1,0.7-0.2,0.9-0.2h0.1h0.1c0.2-0.1,0.3-0.1,0.5-0.2h0.1
	c0.2-0.1,0.4-0.2,0.7-0.2c0.1,0,0.1-0.1,0.2-0.1c0.2-0.1,0.3-0.1,0.5-0.2c0.1,0,0.2-0.1,0.2-0.1c0.2-0.1,0.2-0.1,0.4-0.2
	c0.1,0,0.1,0,0.2-0.1c0,0,0.1,0,0.1-0.1c0.2-0.1,0.4-0.2,0.6-0.2c0,0,0.1,0,0.1-0.1c0.2-0.1,0.5-0.2,0.7-0.3c0.1,0,0.2-0.1,0.2-0.1
	c0.2-0.1,0.4-0.2,0.6-0.3c0.1,0,0.2-0.1,0.2-0.1c0.2-0.2,0.5-0.2,0.7-0.4c0.4-0.2,0.7-0.4,1.1-0.7c0.1-0.1,0.2-0.2,0.3-0.2
	c0.2-0.2,0.5-0.3,0.7-0.5c0.2-0.1,0.2-0.2,0.4-0.2c0.2-0.2,0.5-0.3,0.7-0.5c0.2-0.1,0.2-0.2,0.4-0.3c0.2-0.2,0.5-0.3,0.7-0.6
	c0.1-0.1,0.2-0.2,0.3-0.3c0.2-0.2,0.6-0.5,0.8-0.7c0.1-0.1,0.2-0.1,0.2-0.2c0.3-0.3,0.7-0.6,1-0.9c0.1-0.1,0.2-0.2,0.2-0.2
	c0.2-0.2,0.4-0.3,0.6-0.6l0.1-0.1c0.3-0.3,0.7-0.7,1.1-1.1c0.1-0.1,0.1-0.1,0.2-0.2c0.4-0.4,0.7-0.8,1.1-1.2l0.1-0.1
	c0.2-0.2,0.3-0.3,0.4-0.5c0.2-0.2,0.3-0.3,0.4-0.5c0.2-0.2,0.3-0.4,0.5-0.7c0.2-0.2,0.2-0.3,0.4-0.5l0.1-0.1
	c0.2-0.3,0.6-0.7,0.8-1.1c0-0.1,0.1-0.1,0.1-0.2c0.2-0.3,0.4-0.6,0.7-0.9c0-0.1,0.1-0.1,0.1-0.2c0.1-0.1,0.2-0.2,0.2-0.3
	c0.2-0.2,0.4-0.6,0.6-0.8c0.1-0.2,0.2-0.2,0.2-0.4c0.1-0.1,0.2-0.2,0.2-0.2c0.2-0.2,0.2-0.4,0.4-0.7c0.1-0.1,0.1-0.2,0.2-0.2
	c0.2-0.3,0.4-0.7,0.7-1.1c0-0.1,0.1-0.1,0.1-0.2c0.1-0.1,0.1-0.2,0.2-0.3c0.2-0.3,0.3-0.7,0.6-1c0.1-0.1,0.1-0.2,0.2-0.3
	c0-0.1,0.1-0.2,0.1-0.2c0.2-0.3,0.3-0.7,0.5-1c0,0,0-0.1,0.1-0.1c0.2-0.2,0.2-0.6,0.4-0.8c0.1-0.1,0.1-0.2,0.2-0.3
	c0.1-0.1,0.1-0.2,0.2-0.3c0.2-0.3,0.3-0.7,0.5-1.1c0-0.1,0.1-0.2,0.1-0.2v-0.1c0.2-0.4,0.3-0.8,0.5-1.2c0.1-0.1,0.1-0.2,0.2-0.3
	c0.1-0.2,0.2-0.4,0.2-0.6c0.1-0.2,0.1-0.2,0.2-0.4c0.1-0.2,0.1-0.2,0.2-0.4c0.2-0.3,0.2-0.7,0.4-1.1c0-0.1,0.1-0.2,0.1-0.2
	c0,0,0,0,0-0.1c0.2-0.4,0.2-0.8,0.4-1.3c0-0.1,0.1-0.2,0.1-0.3c0.1-0.2,0.2-0.5,0.2-0.7c0-0.1,0-0.2,0.1-0.2
	c0.1-0.2,0.1-0.4,0.2-0.6c0.1-0.2,0.2-0.5,0.2-0.8c0.1-0.2,0.1-0.4,0.2-0.6c0-0.2,0.1-0.2,0.1-0.4c0-0.2,0.1-0.4,0.1-0.6
	c0-0.1,0-0.1,0-0.2c0.1-0.4,0.2-0.8,0.2-1.2c0-0.1,0-0.2,0-0.2c0.1-0.3,0.1-0.7,0.2-1c0-0.1,0-0.2,0-0.2c0-0.2,0-0.2,0.1-0.4
	c0-0.3,0.1-0.6,0.1-0.9c0-0.2,0-0.3,0-0.5c0-0.3,0-0.6,0.1-0.9c0-0.2,0-0.2,0-0.4c0-0.4,0-0.8,0-1.2
	C138.8,71.3,136.3,66.2,132.1,63.8z M124.2,71.3c0,0.2,0,0.2,0,0.4c0,0.3,0,0.6-0.1,0.9c0,0.2,0,0.3,0,0.5c0,0.3-0.1,0.6-0.1,0.9
	c0,0.2,0,0.2-0.1,0.4c-0.1,0.4-0.1,0.8-0.2,1.2c0,0.1,0,0.2,0,0.2c-0.1,0.4-0.2,0.8-0.2,1.2c0,0.1,0,0.1,0,0.2
	c-0.1,0.3-0.2,0.7-0.2,1c-0.1,0.2-0.1,0.4-0.2,0.6c-0.1,0.2-0.2,0.5-0.2,0.8c-0.1,0.2-0.1,0.4-0.2,0.6c-0.1,0.3-0.2,0.7-0.2,1
	c0,0.1-0.1,0.2-0.1,0.3c-0.2,0.4-0.2,0.9-0.4,1.3c0,0.1-0.1,0.2-0.1,0.2c-0.2,0.3-0.2,0.7-0.4,1.1c-0.1,0.2-0.1,0.2-0.2,0.4
	c-0.1,0.3-0.2,0.7-0.4,1c-0.1,0.1-0.1,0.2-0.2,0.3c-0.2,0.4-0.3,0.8-0.5,1.2c0,0.1-0.1,0.2-0.1,0.2c-0.2,0.3-0.3,0.7-0.5,1.1
	c-0.1,0.1-0.1,0.2-0.2,0.3c-0.2,0.4-0.4,0.7-0.6,1.1c0,0,0,0.1-0.1,0.1c-0.2,0.4-0.4,0.8-0.7,1.2c-0.1,0.1-0.1,0.2-0.2,0.3
	c-0.2,0.3-0.3,0.7-0.6,1c-0.1,0.1-0.1,0.2-0.2,0.3c-0.2,0.4-0.5,0.8-0.7,1.2c-0.1,0.1-0.1,0.2-0.2,0.2c-0.2,0.3-0.4,0.7-0.6,1
	c-0.1,0.2-0.2,0.2-0.2,0.4c-0.2,0.2-0.4,0.6-0.6,0.8c-0.1,0.1-0.2,0.2-0.2,0.3c-0.2,0.3-0.5,0.7-0.7,1c0,0.1-0.1,0.1-0.1,0.2
	c-0.2,0.4-0.6,0.7-0.9,1.1c-0.2,0.2-0.2,0.3-0.4,0.5c-0.2,0.2-0.3,0.4-0.5,0.7c-0.2,0.2-0.3,0.3-0.4,0.5c-0.2,0.2-0.3,0.4-0.5,0.6
	c-0.4,0.4-0.7,0.8-1.1,1.2c-0.1,0.1-0.1,0.1-0.2,0.2c-0.3,0.3-0.7,0.7-1.1,1.1c-0.2,0.2-0.5,0.4-0.7,0.7c-0.1,0.1-0.2,0.2-0.2,0.2
	c-0.3,0.3-0.7,0.7-1,0.9c-0.1,0.1-0.2,0.1-0.2,0.2c-0.2,0.2-0.6,0.5-0.8,0.7c-0.1,0.1-0.2,0.2-0.3,0.3c-0.2,0.2-0.5,0.3-0.7,0.6
	c-0.2,0.1-0.2,0.2-0.4,0.3c-0.2,0.2-0.5,0.3-0.7,0.5c-0.2,0.1-0.2,0.2-0.4,0.2c-0.2,0.2-0.5,0.3-0.7,0.5c-0.1,0.1-0.2,0.2-0.3,0.2
	c-0.3,0.2-0.7,0.5-1.1,0.7c-0.2,0.2-0.5,0.2-0.7,0.4c-0.1,0-0.2,0.1-0.2,0.1c-0.2,0.1-0.4,0.2-0.6,0.3c-0.1,0-0.2,0.1-0.2,0.1
	c-0.2,0.1-0.5,0.2-0.7,0.3c0,0-0.1,0-0.1,0.1c-0.2,0.1-0.4,0.2-0.6,0.2c-0.1,0-0.2,0.1-0.2,0.1c-0.2,0.1-0.2,0.1-0.4,0.2
	c-0.1,0-0.2,0.1-0.2,0.1c-0.2,0.1-0.3,0.1-0.5,0.2c-0.1,0-0.1,0.1-0.2,0.1c-0.2,0.1-0.4,0.2-0.7,0.2h-0.1c-0.2,0.1-0.3,0.1-0.5,0.2
	c-0.1,0-0.1,0-0.2,0c-0.3,0.1-0.7,0.2-0.9,0.2h-0.1c-0.3,0.1-0.7,0.2-1,0.2c-0.2,0-0.5,0.1-0.8,0.1c-0.1,0-0.1,0-0.2,0
	c-0.2,0-0.5,0.1-0.7,0.1c-0.1,0-0.1,0-0.2,0c-0.2,0-0.4,0-0.6,0c-0.1,0-0.1,0-0.2,0c-0.2,0-0.4,0-0.7,0c-0.1,0-0.1,0-0.2,0
	c-0.2,0-0.3,0-0.5-0.1c-0.1,0-0.1,0-0.2,0c-0.2,0-0.4-0.1-0.6-0.1c-0.1,0-0.1,0-0.2,0c-0.2,0-0.3-0.1-0.5-0.1c-0.1,0-0.1,0-0.2,0
	c-0.2-0.1-0.4-0.1-0.6-0.2c0,0,0,0-0.1,0c-0.2-1.2-0.2-2.6-0.2-4c0-0.4,0-0.8,0-1.2c0-0.1,0-0.2,0-0.2c0-0.4,0-0.8,0.1-1.2
	c0-0.1,0-0.2,0-0.2c0-0.4,0.1-0.7,0.1-1.1c0-0.1,0-0.1,0-0.2c0.1-0.4,0.1-0.8,0.2-1.2c0-0.1,0-0.2,0.1-0.3c0-0.2,0.1-0.4,0.1-0.6
	c0-0.2,0-0.2,0.1-0.4c0-0.2,0.1-0.4,0.1-0.6c0-0.2,0.1-0.2,0.1-0.4c0-0.2,0.1-0.4,0.1-0.6c0-0.1,0.1-0.2,0.1-0.3
	c0.1-0.2,0.1-0.5,0.2-0.7c0-0.1,0-0.2,0.1-0.2c0.1-0.5,0.2-1,0.3-1.5c0-0.1,0-0.2,0.1-0.2c0.1-0.5,0.2-1,0.4-1.5
	c0-0.1,0.1-0.2,0.1-0.2c0.1-0.4,0.2-0.8,0.4-1.3c0-0.1,0.1-0.2,0.1-0.2c0.2-0.4,0.2-0.8,0.4-1.2c0-0.1,0-0.1,0.1-0.2
	c0.2-0.4,0.2-0.8,0.4-1.2c0-0.1,0.1-0.2,0.1-0.3c0.2-0.3,0.2-0.7,0.4-1.1c0-0.1,0-0.1,0.1-0.2c0.2-0.4,0.3-0.7,0.5-1.1
	c0-0.1,0.1-0.2,0.1-0.3c0.2-0.3,0.2-0.7,0.4-1c0-0.1,0.1-0.2,0.1-0.2c0.2-0.4,0.3-0.7,0.5-1.1c0-0.1,0.1-0.2,0.1-0.2
	c0.2-0.3,0.2-0.6,0.4-0.9c0.1-0.1,0.1-0.2,0.2-0.3c0.2-0.3,0.3-0.7,0.6-1.1c0,0,0-0.1,0.1-0.1c0.2-0.3,0.3-0.7,0.5-1
	c0.1-0.1,0.1-0.2,0.2-0.3c0.2-0.3,0.3-0.7,0.5-1c0-0.1,0.1-0.1,0.1-0.2c0.2-0.3,0.4-0.7,0.6-1.1c0.1-0.1,0.1-0.2,0.2-0.2
	c0.2-0.3,0.3-0.6,0.6-0.9c0.1-0.1,0.1-0.2,0.2-0.2c0.2-0.3,0.4-0.7,0.7-1.1c0.1-0.1,0.1-0.2,0.2-0.2c0.2-0.3,0.4-0.7,0.7-1
	c0-0.1,0.1-0.2,0.1-0.2c0.2-0.3,0.5-0.7,0.7-1.1c0.1-0.1,0.1-0.2,0.2-0.2c0.2-0.4,0.6-0.8,0.8-1.1c0,0,0-0.1,0.1-0.1
	c0.2-0.4,0.6-0.7,0.8-1.1c0.1-0.1,0.1-0.1,0.2-0.2c0.3-0.4,0.7-0.9,1.1-1.3c0.1-0.1,0.1-0.1,0.2-0.2c0.3-0.4,0.7-0.8,1.1-1.2
	c0.1-0.1,0.2-0.2,0.2-0.2c0.2-0.2,0.3-0.4,0.5-0.6c0.1-0.1,0.2-0.2,0.2-0.2c0.2-0.2,0.5-0.5,0.7-0.8c0.1-0.1,0.1-0.1,0.2-0.2
	c0.2-0.2,0.4-0.4,0.6-0.7c0.1-0.1,0.2-0.2,0.2-0.2c0.2-0.2,0.3-0.3,0.5-0.5c0.1-0.1,0.2-0.2,0.2-0.2c0.3-0.3,0.7-0.7,1-1
	c0.1-0.1,0.1-0.1,0.2-0.2c0.3-0.3,0.7-0.6,1-0.9l0.1-0.1c0.3-0.3,0.7-0.6,1.1-0.9c0.1-0.1,0.2-0.1,0.2-0.2c0.3-0.2,0.7-0.6,1.1-0.8
	c0.1-0.1,0.1-0.1,0.2-0.2c0.3-0.2,0.7-0.5,1.1-0.8c0,0,0.1,0,0.1-0.1c0.3-0.2,0.7-0.5,1.1-0.7c0.1-0.1,0.2-0.1,0.2-0.2
	c0.3-0.2,0.7-0.5,1.1-0.7c0.1-0.1,0.2-0.1,0.2-0.2c0.4-0.2,0.7-0.5,1.1-0.7c0.3-0.2,0.6-0.3,0.9-0.5c0.1-0.1,0.2-0.1,0.2-0.2
	c0.2-0.2,0.5-0.2,0.7-0.3c0.1,0,0.2-0.1,0.2-0.1c0.3-0.2,0.6-0.3,0.9-0.4c0.1,0,0.1-0.1,0.2-0.1c0.2-0.1,0.5-0.2,0.7-0.3
	c2.8,2.8,4.6,7.2,4.6,13.1C124.3,70.5,124.3,70.9,124.2,71.3z"/>
<path class="st8" d="M97.3,174.1c0,0,2.4,3.3,7.5,3.3c5.2,0,7.2-3.3,7.2-3.3v-36.7H97.3V174.1z"/>
<path class="st5" d="M104.7,177c-4.1,0-6.5-2.1-7-2.7V138h13.9v36.4C111.1,175,109,177,104.7,177z"/>
<path class="st9" d="M111,138.5v35.7c-0.6,0.7-2.5,2.3-6.2,2.3c-3.6,0-5.7-1.7-6.5-2.4v-35.6H111z M112.1,137.3h-15v37.2
	c0,0,2.5,3,7.6,3c5.2,0,7.4-3,7.4-3V137.3z"/>
<path class="st5" d="M104.6,141.2c-1.9,0-3.7-0.5-5-1.2c-1.2-0.7-1.9-1.6-1.9-2.6c0-0.9,0.7-1.9,1.9-2.6c1.3-0.8,3.1-1.2,5-1.2
	c1.9,0,3.7,0.5,5,1.2c1.2,0.7,1.9,1.6,1.9,2.6c0,1-0.7,1.9-1.9,2.6C108.3,140.7,106.5,141.2,104.6,141.2z"/>
<path class="st9" d="M104.7,134.1c1.8,0,3.5,0.4,4.7,1.1c1,0.6,1.6,1.4,1.6,2.1c0,0.8-0.6,1.5-1.7,2.1c-1.2,0.7-3,1.1-4.7,1.1
	c-1.8,0-3.5-0.4-4.7-1.1c-1-0.6-1.6-1.4-1.6-2.1c0-0.8,0.6-1.5,1.7-2.1C101.2,134.6,102.8,134.1,104.7,134.1z M104.7,133
	c-1.9,0-3.8,0.5-5.3,1.3c-3,1.7-3,4.4,0,6.2c1.4,0.8,3.4,1.3,5.3,1.3c1.9,0,3.8-0.5,5.3-1.3c2.9-1.7,3-4.4,0-6.2
	C108.5,133.5,106.6,133,104.7,133z"/>
<path class="st5" d="M104.7,138.3c-2.1,0-3.4-1-3.8-1.4v-16.7h7.5v16.7C108,137.3,106.9,138.3,104.7,138.3z"/>
<path class="st7" d="M107.8,120.8v15.8c-0.4,0.4-1.4,1.1-3.1,1.1c-1.7,0-2.7-0.7-3.2-1.1v-15.8H107.8z M108.9,119.7h-8.6v17.4
	c0,0,1.4,1.8,4.3,1.8c3,0,4.3-1.8,4.3-1.8V119.7z"/>
<path class="st5" d="M104.6,121.6c-1.1,0-2.1-0.2-2.7-0.7c-0.6-0.4-1-0.8-1-1.3c0-0.5,0.4-0.9,1-1.3c0.7-0.4,1.8-0.7,2.7-0.7
	c1.1,0,2.1,0.2,2.7,0.7c0.6,0.4,1,0.8,1,1.3c0,0.5-0.4,0.9-1,1.3C106.7,121.3,105.7,121.6,104.6,121.6z"/>
<path class="st9" d="M104.7,118.3c0.9,0,1.8,0.2,2.4,0.5c0.5,0.3,0.7,0.6,0.7,0.8c0,0.2-0.3,0.5-0.7,0.8c-0.6,0.4-1.5,0.6-2.4,0.6
	c-0.9,0-1.8-0.2-2.4-0.6c-0.5-0.3-0.7-0.6-0.7-0.8c0-0.2,0.2-0.5,0.7-0.8C102.8,118.5,103.7,118.3,104.7,118.3z M104.7,117.2
	c-1.1,0-2.2,0.2-3,0.8c-1.7,1-1.7,2.5,0,3.5c0.8,0.5,1.9,0.8,3,0.8c1.1,0,2.2-0.2,3-0.8c1.7-1,1.7-2.5,0-3.5
	C106.8,117.4,105.7,117.2,104.7,117.2z"/>
<path class="st7" d="M93.7,122.8l-13.7-8c-5.3-3-8.2-9.3-8.2-17.7c0-0.4,0-0.8,0-1.1v-0.2c0-0.4,0-0.8,0.1-1.1v-0.2
	c0-0.4,0.1-0.7,0.1-1.1v-0.2c0-0.4,0.1-0.8,0.2-1.1l0.2-1.4c0-0.2,0.1-0.4,0.1-0.5l0.2-1.3c0.1-0.2,0.1-0.5,0.2-0.6l0.1-0.2
	c0.1-0.5,0.2-1,0.3-1.4l0.1-0.2c0.1-0.5,0.2-0.9,0.4-1.4v-0.2l0.6,0.1l-0.5-0.2c0.1-0.4,0.2-0.8,0.4-1.2l0.1-0.2
	c0.2-0.4,0.2-0.8,0.4-1.1l0.4,0.1l-0.5-0.2c0.2-0.5,0.3-0.8,0.4-1.1l0.1-0.3c0.2-0.3,0.2-0.7,0.4-1l0.1-0.1c0.2-0.4,0.3-0.8,0.5-1.1
	l0.1-0.3c0.2-0.3,0.2-0.6,0.4-0.9l0.1-0.2c0.2-0.4,0.3-0.8,0.5-1.1l0.1-0.2c0.2-0.3,0.2-0.5,0.4-0.8l0.1-0.2l0.5,0.2l-0.4-0.2
	c0.2-0.4,0.3-0.7,0.5-1.1v-0.1c0.2-0.4,0.3-0.7,0.5-1l0.1-0.2c0.2-0.4,0.4-0.6,0.5-0.9l0.1-0.1c0.2-0.4,0.4-0.8,0.6-1.1l0.2-0.2
	c0.2-0.3,0.3-0.6,0.5-0.8l0.2-0.2c0.2-0.3,0.4-0.7,0.6-1l0.2-0.2c0.2-0.3,0.4-0.6,0.6-0.9l0.1-0.2c0.2-0.3,0.5-0.7,0.7-1l0.2-0.2
	c0.3-0.4,0.5-0.8,0.8-1.1l0.1-0.1c0.2-0.4,0.5-0.7,0.8-1.1l0.2-0.2c0.3-0.5,0.7-0.8,1-1.2l0.2-0.2c0.3-0.4,0.7-0.8,1-1.1l0.2-0.2
	c0.2-0.2,0.4-0.4,0.5-0.6l0.2-0.2c0.2-0.2,0.5-0.5,0.7-0.8l0.2-0.2c0.2-0.2,0.4-0.4,0.5-0.6l0.2-0.2c0.2-0.2,0.4-0.4,0.5-0.5
	l0.2-0.2c0.3-0.3,0.6-0.6,1-0.9l0.2-0.2c0.3-0.3,0.6-0.5,0.9-0.8l0.1-0.1c0.3-0.3,0.6-0.5,1-0.8l0.2-0.2c0.3-0.3,0.7-0.5,1-0.8
	l0.2-0.2c0.3-0.2,0.7-0.5,1-0.8c0.4-0.3,0.8-0.5,1.1-0.8l0.2-0.2c0.3-0.2,0.7-0.5,1-0.7l0.2-0.2c0.4-0.2,0.7-0.5,1.1-0.6
	c0.3-0.2,0.6-0.3,0.8-0.5l0.1-0.1c0.2-0.2,0.5-0.2,0.7-0.3l0.2-0.1c0.3-0.2,0.5-0.3,0.8-0.4h0.1c0.3-0.2,0.5-0.2,0.8-0.3l0.2-0.1
	c0.2-0.1,0.4-0.2,0.5-0.2l0.3-0.2c0.2-0.1,0.4-0.2,0.5-0.2l0.2-0.1c0.2-0.1,0.5-0.2,0.8-0.2h0.1c0.2-0.1,0.5-0.2,0.6-0.2h0.1
	l1.1-0.3c0.2,0,0.3-0.1,0.5-0.1l0.2-0.1c0.2,0,0.4-0.1,0.6-0.1h0.1c0.3-0.1,0.6-0.1,0.9-0.1h0.2c0.3,0,0.6-0.1,0.9-0.1h0.2
	c0.3,0,0.5,0,0.8,0l0.1-0.2c0.2,0,0.5,0,0.8,0h0.2c0.2,0,0.5,0,0.7,0.1h0.2c0.2,0,0.5,0.1,0.8,0.1h0.2c0.2,0.1,0.4,0.1,0.6,0.2
	l0.2,0.1c0.2,0.1,0.5,0.1,0.7,0.2c0.2,0.2,0.5,0.2,0.6,0.3l0.2,0.1c0.2,0.1,0.4,0.2,0.5,0.2h0.1c0.2,0.1,0.5,0.2,0.7,0.3l0.1,0.1
	c0.2,0.1,0.4,0.2,0.5,0.3l0.2,0.2l13.7,8l-0.6,1l-0.2-0.2c-0.2-0.1-0.3-0.2-0.5-0.2l-0.2-0.1c-0.2-0.1-0.4-0.2-0.6-0.2v-0.1
	l-0.1-0.1l-0.1,0.1c-0.2-0.1-0.3-0.2-0.5-0.2l-0.2-0.1c-0.2-0.1-0.4-0.2-0.5-0.2c-0.2-0.1-0.5-0.2-0.7-0.2H128
	c-0.2-0.1-0.4-0.1-0.6-0.2h-0.2c-0.2-0.1-0.5-0.1-0.7-0.1h-0.1c-0.2,0-0.5-0.1-0.6-0.1h-0.2c-0.2,0-0.5,0-0.8,0h-0.2
	c-0.2,0-0.5,0-0.7,0h-0.2c-0.3,0-0.5,0-0.8,0.1H123c-0.3,0-0.6,0.1-0.9,0.2c-0.2,0-0.4,0.1-0.6,0.1l-1.8,0.4
	c-0.2,0.1-0.4,0.1-0.5,0.2l-0.3-0.5l0.2,0.5c-0.2,0.1-0.5,0.2-0.7,0.2l0.1-0.1c-0.1,0-0.1,0-0.2,0.1l10.4,6
	c4.2,2.4,6.6,7.5,6.6,14.2c0,0.4,0,0.8,0,1.2v0.4c0,0.3,0,0.5-0.1,0.8v0.5c0,0.3-0.1,0.5-0.1,0.8l-0.1,0.6c-0.1,0.3-0.1,0.6-0.2,0.9
	v0.2c-0.1,0.4-0.2,0.8-0.2,1.2v0.2c0,0.2-0.1,0.4-0.1,0.5l-0.1,0.4c-0.1,0.2-0.1,0.4-0.2,0.5c-0.1,0.2-0.2,0.5-0.2,0.8
	c-0.1,0.2-0.1,0.4-0.2,0.5l-0.4,1.2c-0.2,0.4-0.2,0.8-0.4,1.2l-0.1,0.2c-0.2,0.4-0.2,0.7-0.4,1.1L132,92c-0.2,0.4-0.3,0.8-0.5,1.1
	L131,93l0.5,0.2l-0.3,0.2c-0.2,0.3-0.3,0.7-0.5,1l-0.3,0.6c-0.2,0.2-0.2,0.5-0.4,0.8V96c-0.2,0.3-0.3,0.6-0.5,0.9l-0.3,0.5
	c-0.2,0.3-0.3,0.6-0.5,0.9l-0.2,0.4c-0.2,0.3-0.4,0.7-0.6,1l-0.2,0.2c-0.2,0.2-0.2,0.5-0.4,0.6l-0.4,0.6c-0.2,0.3-0.4,0.5-0.5,0.8
	l-0.3,0.5c-0.2,0.3-0.4,0.5-0.6,0.8l-0.1,0.2c-0.2,0.3-0.5,0.7-0.8,1l-0.1,0.1l-0.5,0.5c-0.2,0.2-0.3,0.4-0.5,0.5
	c-0.1,0.2-0.2,0.2-0.3,0.4l-0.2,0.3c-0.1,0.1-0.2,0.2-0.3,0.3l-0.1,0.1c-0.4,0.5-0.8,0.8-1.1,1.2l-0.1,0.1c-0.4,0.4-0.7,0.8-1.1,1.1
	v0.2c-0.2,0.2-0.3,0.3-0.5,0.5l-0.4,0.3c-0.3,0.3-0.6,0.6-1,0.8l-0.2,0.2c-0.2,0.2-0.5,0.5-0.8,0.7l-0.4,0.3
	c-0.2,0.2-0.5,0.4-0.7,0.5l-0.4,0.3c-0.2,0.2-0.5,0.3-0.7,0.5l-0.4,0.3c-0.2,0.2-0.5,0.3-0.7,0.5l-0.3,0.2c-0.4,0.2-0.7,0.5-1.1,0.6
	c-0.2,0.2-0.5,0.2-0.7,0.4l-0.2,0.1c-0.2,0.1-0.4,0.2-0.5,0.3l-0.2,0.1c-0.2,0.1-0.5,0.2-0.7,0.3h-0.1c-0.2,0.1-0.5,0.2-0.6,0.3
	l-0.2,0.1c-0.2,0.1-0.3,0.2-0.5,0.2l-0.1,0.1c-0.2,0.1-0.3,0.1-0.5,0.2l-0.2,0.1c-0.2,0.1-0.4,0.2-0.6,0.2h-0.1
	c-0.2,0.1-0.4,0.1-0.5,0.2h-0.2c-0.3,0.1-0.6,0.2-0.9,0.2c-0.4,0.1-0.6,0.2-0.9,0.2h-0.1h-0.1c-0.2,0-0.5,0.1-0.7,0.1h-0.2
	c-0.2,0-0.5,0.1-0.7,0.1H104c-0.2,0-0.4,0-0.6,0h-0.2c-0.2,0-0.5,0-0.6,0h-0.2c-0.2,0-0.4,0-0.5-0.1h-0.2c-0.2,0-0.4-0.1-0.6-0.1
	h-0.1c-0.2,0-0.3-0.1-0.5-0.1h-0.2c-0.2-0.1-0.4-0.1-0.5-0.2c-0.2-0.1-0.4-0.2-0.5-0.2l-0.2-0.1c-0.2-0.1-0.3-0.1-0.5-0.2l0.2-0.5
	l-0.2,0.5c-0.2-0.1-0.4-0.2-0.5-0.2l-0.1-0.2c-0.2-0.1-0.3-0.2-0.5-0.2l-0.2-0.2l-10.4-6c0.9,5.4,3.4,9.4,7.1,11.6L93.7,122.8z
	 M75,82.3l0.5,0.2c-0.2,0.5-0.2,0.8-0.4,1.1L75,83.9c-0.2,0.4-0.2,0.8-0.3,1.1l-0.1,0.3c-0.2,0.5-0.2,0.9-0.4,1.4v0.2
	c-0.2,0.5-0.2,1-0.3,1.4l-0.1,0.2c-0.1,0.2-0.1,0.5-0.2,0.7l-0.2,1.2c0,0.2-0.1,0.4-0.1,0.5L73.3,92l-0.6,0.1l0.5,0.1
	c-0.1,0.4-0.1,0.8-0.2,1.1v0.1C73,93.8,73,94.1,73,94.5v0.2c0,0.4-0.1,0.8-0.1,1.1v0.2c0,0.4,0,0.8,0,1.1c0,8,2.7,13.9,7.5,16.8
	l8.9,5.2c-1.9-2.5-3.1-5.9-3.7-9.8l-0.2-1.1c-0.1-1-0.2-2-0.2-3c0-0.4,0-0.8,0-1.1v-0.2c0-0.4,0-0.8,0.1-1.1v-0.2
	c0-0.4,0.1-0.8,0.1-1.1v-0.2c0.1-0.4,0.1-0.8,0.2-1.1l0.5-3c0.1-0.2,0.1-0.5,0.2-0.7l0.1-0.2c0.1-0.5,0.2-0.9,0.3-1.4l0.1-0.2
	c0.1-0.5,0.2-0.9,0.4-1.4l0.1-0.2c0.1-0.4,0.2-0.8,0.4-1.2l0.1-0.2c0.2-0.5,0.2-0.8,0.4-1.2l0.1-0.2c0.2-0.4,0.2-0.8,0.4-1.1
	l0.1-0.3c0.2-0.3,0.2-0.7,0.4-1l0.1-0.2c0.2-0.4,0.3-0.7,0.5-1.1l0.1-0.3c0.2-0.3,0.2-0.6,0.4-0.9l0.1-0.2c0.2-0.4,0.3-0.7,0.5-1.1
	l0.1-0.2c0.2-0.3,0.2-0.5,0.4-0.8l0.2-0.3c0.2-0.4,0.3-0.7,0.5-1.1l0.1-0.1c0.2-0.3,0.3-0.6,0.5-0.9l0.2-0.3
	c0.2-0.3,0.3-0.6,0.5-0.9l0.1-0.2c0.2-0.3,0.4-0.7,0.6-1l0.2-0.2c0.2-0.3,0.3-0.6,0.5-0.8l0.2-0.2c0.2-0.3,0.4-0.7,0.6-1l0.2-0.2
	c0.2-0.3,0.4-0.6,0.6-0.9l0.1-0.2c0.2-0.4,0.5-0.7,0.7-1l0.2-0.2c0.2-0.4,0.5-0.8,0.8-1.1l0.1-0.1c0.2-0.4,0.5-0.7,0.8-1.1l0.2-0.2
	c0.3-0.4,0.6-0.8,1-1.2l0.2-0.2c0.3-0.4,0.7-0.8,1-1.1l0.2-0.2c0.2-0.2,0.3-0.4,0.5-0.5l0.2-0.2c0.2-0.2,0.5-0.5,0.7-0.8l0.1-0.1
	c0.2-0.2,0.5-0.5,0.6-0.6l0.9-0.9c0.3-0.3,0.6-0.6,0.9-0.9l0.2-0.2c0.3-0.3,0.6-0.5,0.9-0.8l0.1-0.1c0.3-0.3,0.6-0.5,1-0.8l0.2-0.2
	c0.3-0.2,0.6-0.5,1-0.8l0.2-0.1c0.4-0.3,0.7-0.5,1.1-0.8l0.1-0.1c0.3-0.2,0.7-0.5,1-0.7l0.2-0.1c0.4-0.2,0.7-0.5,1.1-0.7l0.2-0.1
	c0.4-0.2,0.8-0.5,1.1-0.7c0.3-0.2,0.6-0.3,0.8-0.5l0.2-0.2c0.2-0.2,0.5-0.2,0.7-0.3l0.2-0.1c0.3-0.2,0.5-0.3,0.8-0.4h0.1l1.1-0.5
	c0.2-0.1,0.3-0.2,0.5-0.2l0.3-0.1c0.2-0.1,0.4-0.2,0.5-0.2l0.2-0.1c0.2-0.1,0.5-0.2,0.8-0.2h0.1c0.2-0.1,0.5-0.2,0.7-0.2l1.3-0.3
	c0.2,0,0.3-0.1,0.4-0.1l0.2-0.1c0.2,0,0.4-0.1,0.6-0.1c0.3-0.1,0.6-0.1,0.9-0.2h0.2c0.3,0,0.6-0.1,0.9-0.1h0.1c0.3,0,0.5,0,0.8,0
	h0.2c0.3,0,0.5,0,0.8,0h0.2c0.3,0,0.5,0,0.7,0.1h0.2h0.1l-9.2-5.3c-0.2-0.1-0.3-0.2-0.5-0.2l-0.2-0.1c-0.1-0.5-0.3-0.5-0.5-0.6
	l-0.2-0.1c-0.2-0.1-0.3-0.2-0.5-0.2l-0.2-0.1c-0.2-0.1-0.4-0.2-0.5-0.2h-0.1c-0.2-0.1-0.4-0.1-0.6-0.2l-0.2-0.1
	c-0.2-0.1-0.4-0.1-0.5-0.1v-0.6l-0.1,0.5c-0.3-0.1-0.5-0.1-0.7-0.1h-0.1c-0.2,0-0.5-0.1-0.6-0.1l-0.3-0.6v0.5c-0.3,0-0.5,0-0.8,0
	h-0.1c-0.3,0-0.5,0-0.7,0l-0.2-0.5v0.5c-0.3,0-0.6,0.1-0.9,0.1h-0.2c-0.3,0-0.6,0.1-0.9,0.2h-0.1c-0.2,0-0.4,0.1-0.5,0.1h-0.2
	c-0.1,0.1-0.2,0.1-0.3,0.2l-1.1,0.3c-0.2,0.1-0.5,0.2-0.6,0.2l-0.2,0.1c-0.2,0.1-0.5,0.2-0.7,0.2h-0.2c-0.2,0.1-0.4,0.2-0.5,0.2
	l-0.2,0.2c-0.2,0.1-0.4,0.2-0.5,0.2l-0.2,0.1c-0.3,0.2-0.5,0.2-0.8,0.3h-0.1c-0.3,0.2-0.6,0.3-0.9,0.4l-0.2,0.2
	c-0.2,0.1-0.5,0.2-0.6,0.3l-0.2,0.2c-0.3,0.2-0.6,0.3-0.8,0.5c-0.4,0.2-0.7,0.4-1.1,0.6l-0.2,0.2c-0.3,0.2-0.7,0.5-1,0.6l-0.2,0.2
	c-0.3,0.2-0.7,0.5-1,0.7c-0.4,0.3-0.7,0.5-1,0.8l-0.2,0.2c-0.3,0.2-0.6,0.5-0.9,0.8l-0.2,0.2c-0.3,0.2-0.6,0.5-0.9,0.8l-0.5-0.4
	l0.4,0.5c-0.3,0.2-0.6,0.5-0.9,0.8L91.6,57c-0.3,0.3-0.6,0.6-0.9,0.8L90.6,58c-0.2,0.2-0.4,0.4-0.5,0.5l-0.2,0.2
	c-0.2,0.2-0.4,0.4-0.5,0.6l-0.2,0.2c-0.2,0.2-0.5,0.5-0.7,0.7l-0.2,0.2c-0.2,0.2-0.3,0.4-0.5,0.5l-0.2,0.2c-0.3,0.4-0.7,0.8-1,1.1
	l-0.1,0.1c-0.4,0.5-0.7,0.8-1,1.2l-0.5-0.2l0.5,0.3l-0.1,0.1c-0.2,0.3-0.5,0.7-0.8,1.1l-0.5-0.3l0.5,0.3c-0.2,0.4-0.5,0.7-0.8,1.1
	l-0.1,0.2L83.3,66l0.5,0.3c-0.2,0.3-0.5,0.7-0.7,1L83,67.4c-0.2,0.3-0.4,0.6-0.6,0.9l-0.2,0.2c-0.2,0.3-0.5,0.7-0.6,1l-0.1,0.2
	c-0.2,0.3-0.4,0.6-0.5,0.9l-0.1,0.2l-0.5-0.2l0.5,0.3c-0.2,0.3-0.4,0.7-0.5,1l-0.1,0.2c-0.2,0.3-0.3,0.6-0.5,0.9l-0.2,0.2
	c-0.2,0.4-0.4,0.7-0.5,1l-0.6-0.3l0.5,0.2c-0.2,0.3-0.3,0.7-0.5,1l-0.1,0.3c-0.2,0.3-0.2,0.5-0.4,0.8l-0.1,0.2
	c-0.2,0.4-0.3,0.7-0.5,1l-0.1,0.2c-0.2,0.4-0.3,0.6-0.4,0.9l-0.1,0.3c-0.2,0.3-0.4,0.7-0.5,1v0.2c-0.2,0.3-0.2,0.7-0.4,1l-0.1,0.2
	c-0.2,0.4-0.2,0.8-0.4,1.1L75,82.3z M102.6,116.6c0.2,0,0.5,0,0.6,0l0.1,0.5v-0.6c0.2,0,0.4,0,0.5,0l0.1,0.5v-0.5
	c0.2,0,0.5,0,0.7-0.1h0.1c0.2,0,0.5-0.1,0.7-0.1h0.2c0.2-0.1,0.5-0.1,0.8-0.2c0.4-0.1,0.6-0.2,0.9-0.2l0.2,0.5l-0.2-0.5
	c0.2-0.1,0.3-0.1,0.5-0.2l0.3,0.5l-0.2-0.5c0.2-0.1,0.4-0.2,0.5-0.2l0.2-0.1c0.2-0.1,0.3-0.1,0.4-0.2l0.6-0.2l0.3,0.5l-0.2-0.5
	l0.3,0.5l-0.1-0.5c0.2-0.1,0.4-0.2,0.5-0.2l0.4,0.5l-0.2-0.5c0.2-0.1,0.5-0.2,0.7-0.3l0.2-0.1c0.2-0.1,0.4-0.2,0.5-0.3l0.2-0.1
	c0.2-0.2,0.5-0.2,0.7-0.4c0.3-0.2,0.7-0.4,1-0.6l0.3-0.2c0.2-0.2,0.5-0.3,0.7-0.5l0.4-0.2c0.2-0.2,0.5-0.3,0.6-0.5l0.4-0.3
	c0.2-0.2,0.5-0.3,0.6-0.5l0.3-0.3c0.2-0.2,0.5-0.5,0.8-0.6l0.2-0.2c0.3-0.3,0.6-0.5,0.9-0.8l0.4-0.3c0.2-0.2,0.3-0.3,0.5-0.4
	l0.1-0.2c0.3-0.3,0.6-0.6,1-1l0.2-0.2c0.4-0.4,0.7-0.8,1.1-1.1l0.5,0.3l-0.6-0.3c0.1-0.1,0.2-0.2,0.2-0.3l0.2-0.3
	c0.1-0.2,0.2-0.2,0.3-0.4c0.2-0.2,0.3-0.4,0.5-0.5l0.5-0.5l0.5,0.3l-0.5-0.4c0.2-0.3,0.5-0.6,0.8-1l0.1-0.2c0.2-0.3,0.4-0.5,0.6-0.8
	l0.3-0.5c0.2-0.2,0.4-0.5,0.5-0.8l0.4-0.6c0.2-0.2,0.2-0.4,0.4-0.6l0.2-0.2c0.2-0.3,0.4-0.7,0.6-1l0.2-0.4c0.2-0.3,0.3-0.6,0.5-0.9
	l0.3-0.5c0.2-0.3,0.3-0.6,0.5-0.9l0.5,0.2l-0.5-0.2c0.2-0.2,0.2-0.5,0.4-0.8l0.3-0.6c0.2-0.3,0.3-0.6,0.5-1l0.2-0.3
	c0.2-0.4,0.3-0.8,0.5-1.1l0.6-1.6c0.2-0.3,0.2-0.7,0.4-1l0.1-0.2c0.2-0.5,0.3-0.8,0.4-1.2l0.4-1.2c0.1-0.2,0.1-0.4,0.2-0.5
	c0.1-0.2,0.2-0.5,0.2-0.8c0.1-0.2,0.1-0.4,0.2-0.5l0.1-0.4c0-0.2,0.1-0.4,0.1-0.5h0.6l-0.5-0.1c0.1-0.4,0.2-0.8,0.2-1.1v-0.2
	c0.1-0.3,0.1-0.6,0.2-0.9l0.1-0.5c0-0.3,0.1-0.5,0.1-0.8v-0.4c0-0.3,0-0.5,0.1-0.8v-0.4c0-0.4,0-0.8,0-1.1c0-6.3-2.1-11-6-13.3
	l-9.4-5.5c1.8,2.7,2.7,6.4,2.7,10.8c0,0.4,0,0.8,0,1.2v0.4c0,0.3,0,0.5-0.1,0.8v0.5c0,0.3-0.1,0.5-0.1,0.8l-0.1,0.4
	c-0.1,0.4-0.1,0.8-0.2,1.1v0.2c-0.1,0.4-0.2,0.8-0.2,1.2V76c-0.1,0.3-0.2,0.6-0.2,0.9l-0.2,0.5c-0.1,0.2-0.2,0.5-0.2,0.8l-0.2,0.5
	c-0.1,0.3-0.2,0.6-0.2,0.9l-0.2,0.3c-0.2,0.4-0.2,0.8-0.4,1.2l-0.1,0.2c-0.2,0.4-0.2,0.7-0.4,1.1l-0.2,0.4c-0.2,0.3-0.2,0.6-0.4,0.9
	l-0.2,0.3c-0.2,0.4-0.3,0.8-0.5,1.2v0.2c-0.2,0.3-0.3,0.7-0.5,1l-0.2,0.4c-0.2,0.4-0.4,0.7-0.5,1.1l-0.1,0.1
	c-0.2,0.4-0.4,0.8-0.6,1.1l-0.2,0.3c-0.2,0.3-0.3,0.6-0.5,0.9l-0.1,0.3c-0.2,0.4-0.5,0.8-0.7,1.1l-0.2,0.2c-0.2,0.3-0.4,0.6-0.5,0.9
	l-0.2,0.4c-0.2,0.3-0.4,0.5-0.5,0.8l-0.2,0.3c-0.2,0.3-0.5,0.6-0.7,1l-0.1,0.2c-0.3,0.4-0.5,0.7-0.8,1.1c-0.1,0.1-0.2,0.2-0.2,0.3
	l-0.2,0.2c-0.2,0.2-0.3,0.4-0.5,0.5c-0.1,0.2-0.2,0.2-0.3,0.4l-0.1,0.1c-0.2,0.2-0.3,0.4-0.5,0.6c-0.4,0.4-0.7,0.8-1.1,1.2l-0.1,0.1
	c-0.4,0.4-0.7,0.8-1.1,1.1c-0.2,0.2-0.5,0.5-0.7,0.6l-0.2,0.2c-0.3,0.3-0.6,0.6-1,0.8l-0.2,0.2c-0.2,0.2-0.5,0.5-0.8,0.7l-0.4,0.3
	c-0.2,0.2-0.5,0.4-0.7,0.5l-0.4,0.3c-0.2,0.2-0.5,0.3-0.7,0.5l-0.4,0.3c-0.2,0.2-0.5,0.3-0.7,0.5l-0.3,0.2c-0.4,0.2-0.7,0.5-1.1,0.6
	c-0.2,0.2-0.5,0.2-0.7,0.4l-0.2,0.1c-0.2,0.1-0.4,0.2-0.5,0.3l-0.2,0.1c-0.2,0.1-0.5,0.2-0.7,0.3l-0.2,0.1c-0.2,0.1-0.4,0.2-0.6,0.2
	l-0.2,0.1c-0.2,0.1-0.2,0.1-0.4,0.2l-0.2,0.1c-0.2,0.1-0.3,0.1-0.5,0.2l-0.2,0.1c-0.2,0.1-0.4,0.2-0.6,0.2h-0.2
	c-0.2,0.1-0.3,0.1-0.5,0.2h-0.1c-0.4,0.1-0.6,0.2-0.9,0.2h-0.1c-0.3,0.1-0.6,0.2-0.9,0.2c-0.2,0.1-0.5,0.1-0.8,0.1H91
	c-0.2,0-0.5,0.1-0.7,0.1h-0.2c-0.2,0-0.4,0-0.6,0h-0.2c-0.2,0-0.5,0-0.6,0h-0.1c-0.1,0-0.2,0-0.2,0l9.6,5.6l-0.2,0.5l0.3-0.5
	c0.2,0.1,0.2,0.2,0.4,0.2l0.1,0.1c0.2,0.1,0.3,0.2,0.5,0.2l-0.2,0.5l0.2-0.5c0.2,0.1,0.2,0.1,0.4,0.2l0.2,0.1
	c0.2,0.1,0.3,0.1,0.5,0.2c0.2,0.1,0.4,0.1,0.5,0.2h0.1c0.2,0.1,0.3,0.1,0.5,0.1v0.6l0.1-0.5c0.2,0,0.4,0.1,0.5,0.1h0.1
	c0.2,0,0.3,0,0.5,0.1l0.1,0.6L102.6,116.6z M87.7,108.5c0.2,0,0.4,0.1,0.5,0.1h0.1c0.2,0,0.4,0,0.5,0.1H89c0.2,0,0.4,0,0.6,0
	l0.1,0.5v-0.6c0.2,0,0.4,0,0.5,0l0.2,0.5v-0.5c0.2,0,0.5,0,0.7-0.1h0.2c0.2,0,0.5-0.1,0.7-0.1c0.3-0.1,0.6-0.1,0.8-0.2
	c0.4-0.1,0.6-0.2,0.9-0.2h0.2c0.2-0.1,0.3-0.1,0.5-0.2l0.3,0.5l-0.2-0.5c0.2-0.1,0.4-0.2,0.5-0.2H95c0.2-0.1,0.3-0.2,0.5-0.2
	l0.8-0.3c0.2-0.1,0.4-0.2,0.5-0.2l0.4,0.5l-0.2-0.5c0.2-0.1,0.5-0.2,0.7-0.3l0.2-0.1c0.2-0.1,0.3-0.2,0.5-0.2l0.2-0.1
	c0.2-0.2,0.5-0.2,0.7-0.4c0.3-0.2,0.7-0.4,1-0.6l0.3-0.2c0.2-0.2,0.5-0.3,0.7-0.5l0.3-0.2c0.2-0.2,0.5-0.3,0.7-0.5l0.4-0.3
	c0.2-0.2,0.5-0.3,0.6-0.5l0.3-0.3c0.2-0.2,0.5-0.5,0.8-0.6l0.2-0.2c0.3-0.3,0.6-0.5,0.9-0.8l0.2-0.2c0.2-0.2,0.5-0.4,0.6-0.6
	c0.3-0.3,0.6-0.7,1-1l0.2-0.2c0.4-0.4,0.7-0.8,1.1-1.1c0.2-0.2,0.3-0.3,0.5-0.5l0.2-0.2c0.1-0.2,0.2-0.2,0.3-0.4
	c0.2-0.2,0.3-0.4,0.5-0.5l0.2-0.2c0.1-0.1,0.2-0.2,0.2-0.3c0.3-0.4,0.5-0.7,0.8-1.1l0.1-0.2c0.2-0.3,0.5-0.6,0.7-0.9l0.2-0.3
	c0.2-0.2,0.4-0.5,0.5-0.8l0.2-0.4c0.2-0.3,0.4-0.6,0.5-0.9l0.2-0.2c0.2-0.4,0.5-0.8,0.7-1.1l0.2-0.2c0.2-0.3,0.3-0.6,0.5-0.9
	l0.2-0.3c0.2-0.4,0.4-0.8,0.6-1.1l0.1-0.1c0.2-0.4,0.4-0.7,0.5-1.1l0.2-0.3c0.2-0.4,0.3-0.7,0.5-1l0.1-0.2c0.2-0.4,0.3-0.8,0.5-1.1
	l0.2-0.3c0.2-0.3,0.2-0.6,0.4-0.9l0.2-0.4c0.2-0.3,0.2-0.7,0.4-1l0.1-0.2c0.2-0.4,0.2-0.8,0.4-1.2l0.1-0.3c0.1-0.3,0.2-0.6,0.2-0.9
	l0.2-0.5c0.1-0.2,0.2-0.5,0.2-0.8l0.2-0.5c0.1-0.3,0.2-0.6,0.2-0.9v-0.1c0.1-0.5,0.2-0.8,0.2-1.2v-0.2c0.1-0.4,0.1-0.8,0.2-1.1
	l0.1-0.4c0-0.3,0.1-0.5,0.1-0.8v-0.4c0-0.3,0-0.5,0.1-0.8v-0.4c0-0.4,0-0.8,0-1.1c0-5-1.4-9-3.8-11.6c-0.1,0.1-0.2,0.1-0.3,0.2h-0.1
	c-0.3,0.2-0.6,0.3-0.9,0.4l-0.2,0.1c-0.3,0.2-0.5,0.2-0.7,0.4l-0.2,0.2c-0.3,0.2-0.5,0.3-0.8,0.5c-0.4,0.2-0.7,0.4-1.1,0.6l-0.2,0.1
	c-0.3,0.2-0.7,0.5-1,0.6l-0.2,0.2c-0.3,0.2-0.7,0.5-1,0.7l-0.1,0.1c-0.3,0.2-0.6,0.5-1,0.7l-0.2,0.2c-0.3,0.2-0.6,0.5-0.9,0.8
	l-0.5,0.2c-0.3,0.2-0.6,0.5-0.9,0.8l-0.5-0.4l0.4,0.5c-0.3,0.2-0.6,0.5-0.9,0.8l-0.2,0.1c-0.3,0.3-0.6,0.6-0.9,0.8l-0.9,0.9
	c-0.2,0.2-0.4,0.4-0.5,0.6l-0.2,0.2c-0.2,0.2-0.5,0.5-0.7,0.7l-0.2,0.2c-0.2,0.2-0.3,0.4-0.5,0.5l-0.2,0.2c-0.3,0.4-0.7,0.8-1,1.1
	l-0.1,0.2c-0.4,0.5-0.7,0.8-1,1.2l-0.2,0.2c-0.2,0.3-0.5,0.7-0.8,1.1l-0.5-0.3l0.5,0.3c-0.2,0.4-0.5,0.7-0.8,1.1l-0.2,0.2
	c-0.2,0.3-0.5,0.7-0.7,1l-0.2,0.2c-0.2,0.3-0.4,0.6-0.6,0.9l-0.2,0.2c-0.2,0.3-0.4,0.7-0.6,1l-0.1,0.2c-0.2,0.3-0.4,0.6-0.5,0.9
	l-0.2,0.2c-0.2,0.3-0.4,0.7-0.5,1v0.1c-0.2,0.3-0.4,0.6-0.5,0.9l-0.2,0.3c-0.2,0.3-0.3,0.6-0.5,0.9v0.1c-0.2,0.4-0.4,0.7-0.5,1.1
	l-0.2,0.3c-0.2,0.3-0.2,0.5-0.4,0.8l-0.1,0.2c-0.2,0.3-0.3,0.7-0.5,1l-0.1,0.2c-0.2,0.3-0.2,0.6-0.4,0.9l-0.2,0.2
	c-0.2,0.4-0.3,0.7-0.5,1.1v0.2c-0.2,0.3-0.2,0.7-0.4,1l-0.1,0.2c-0.2,0.4-0.2,0.8-0.4,1.1l-0.1,0.2c-0.2,0.4-0.2,0.8-0.4,1.1
	l-0.1,0.2c-0.2,0.4-0.2,0.8-0.4,1.1l-0.1,0.2c-0.2,0.5-0.2,0.9-0.4,1.4v0.1c-0.2,0.5-0.2,1-0.3,1.4l-0.1,0.2
	c-0.1,0.2-0.1,0.5-0.2,0.6l-0.5,3c-0.1,0.4-0.1,0.8-0.2,1.1v0.2c0,0.4-0.1,0.7-0.1,1.1v0.2c0,0.4-0.1,0.8-0.1,1.1v0.2
	c0,0.4,0,0.8,0,1.1c0,1.1,0.1,2.2,0.2,3.3c0.1,0,0.2,0,0.2,0.1h0.1c0.2,0.1,0.3,0.1,0.5,0.1v0.6L87.7,108.5z"/>
<path class="st5" d="M112.9,58.6c14.9-8.5,26.9-1.7,27,15.4c0.1,17.1-12,37.8-26.7,46.4c-14.9,8.5-26.9,1.7-27-15.4
	C86.1,88,98,67.3,112.9,58.6z M113.1,114.3c11.9-6.9,21.5-23.5,21.4-37.1c-0.1-13.6-9.7-19.1-21.6-12.3C101,71.8,91.4,88.4,91.5,102
	C91.5,115.6,101.2,121.1,113.1,114.3z"/>
<path class="st7" d="M101,124.7c-2.7,0-5.1-0.6-7.3-1.9c-5.3-3-8.2-9.3-8.2-17.8c-0.1-17.2,12.1-38.2,27-46.9
	c7.4-4.3,14.3-5,19.7-1.9c5.3,3,8.2,9.3,8.2,17.8c0.1,17.2-12.1,38.2-27,46.9C109,123.4,104.8,124.7,101,124.7z M112.9,58.6l0.3,0.5
	C98.5,67.6,86.6,88.2,86.7,105c0,8,2.7,13.9,7.6,16.8c4.9,2.8,11.5,2.1,18.5-1.9c14.6-8.5,26.5-29,26.4-45.9c0-8-2.7-13.9-7.6-16.8
	c-4.9-2.8-11.5-2.1-18.5,1.9L112.9,58.6z M103.4,117.8c-2.1,0-4.1-0.5-5.9-1.5c-4.3-2.4-6.6-7.5-6.6-14.3c0-13.8,9.8-30.6,21.7-37.6
	c5.9-3.4,11.6-4,15.8-1.5c4.3,2.4,6.6,7.5,6.6,14.3c0,13.8-9.8,30.6-21.7,37.6C109.9,116.8,106.5,117.8,103.4,117.8z M122.6,62.5
	c-2.8,0-6,1-9.4,2.9c-11.7,6.8-21.2,23.2-21.1,36.6c0,6.3,2.1,11.1,6,13.3c3.9,2.2,9.1,1.7,14.7-1.5c11.7-6.8,21.2-23.2,21.1-36.6
	c0-6.3-2.1-11.1-6-13.3C126.3,62.9,124.5,62.5,122.6,62.5z"/>
</svg>
