<?xml version="1.0" encoding="utf-8"?>
<!-- Generator: Adobe Illustrator 26.3.1, SVG Export Plug-In . SVG Version: 6.00 Build 0)  -->
<svg version="1.1" id="Capa_1" xmlns="http://www.w3.org/2000/svg" xmlns:xlink="http://www.w3.org/1999/xlink" x="0px" y="0px"
	 viewBox="0 0 600 600" style="enable-background:new 0 0 600 600;" xml:space="preserve">
<style type="text/css">
	.st0{fill:#FFFFFF;stroke:#010202;stroke-width:2;}
	.st1{fill:none;stroke:#010202;stroke-width:2;}
	.st2{fill:#FEE386;fill-opacity:0.3;}
	.st3{opacity:0.8;fill:#AFDDED;fill-opacity:0.46;enable-background:new    ;}
	.st4{fill:#D50C53;fill-opacity:0.15;}
	.st5{fill:#FFFFFF;}
	.st6{fill:#FFFFFF;stroke:#010202;stroke-width:2;stroke-miterlimit:10;}
	.st7{fill:#221F20;}
	.st8{fill:#E52421;}
	.st9{fill:#121111;}
	.st10{opacity:0.8;fill:none;stroke:#8B8B8B;enable-background:new    ;}
	.st11{fill:#66C7F0;}
	.st12{fill:#221F20;fill-opacity:0.7;}
	.st13{fill:#294896;}
	.st14{fill:#219BD7;}
	.st15{fill:#DDDDDD;}
	.st16{fill:#212120;}
	.st17{fill:#878889;}
	.st18{fill:#FFFFFF;stroke:#DDDDDD;stroke-width:2;stroke-linecap:round;stroke-linejoin:round;stroke-miterlimit:10;}
	.st19{fill:#FBBC1D;}
	.st20{fill:#029CCC;}
	.st21{fill:#EFEFEF;stroke:#DDDDDD;stroke-width:2;stroke-linecap:round;stroke-linejoin:round;stroke-miterlimit:10;}
	.st22{fill:#EB576A;}
	.st23{fill:#343434;}
	.st24{fill:#39514C;}
	.st25{fill:#5FB45E;}
	.st26{fill:#5E5D5C;}
	.st27{fill:#D7D6D8;}
	.st28{fill:#FFFFFF;stroke:#000000;stroke-miterlimit:10;}
	.st29{opacity:0.35;fill:url(#SVGID_1_);}
	.st30{fill:none;stroke:#231F20;stroke-width:0.75;stroke-linejoin:round;stroke-miterlimit:10;}
	.st31{opacity:0.35;fill:url(#SVGID_00000059993657126420692590000014583146733104170907_);}
	.st32{fill:none;stroke:#231F20;stroke-linejoin:round;stroke-miterlimit:10;}
	.st33{opacity:0.4;}
	.st34{fill:#706F6F;}
	.st35{fill:#FAFAFA;}
	.st36{fill:#020203;}
	.st37{opacity:0.35;fill:url(#SVGID_00000106844786652892365640000011650761349877292984_);}
	.st38{fill:#EF7A79;fill-opacity:5.000000e-02;}
	.st39{fill:#EF7A79;}
	.st40{opacity:0.4;fill:#00A0CD;}
	.st41{opacity:0.8;fill:#009BCC;enable-background:new    ;}
	.st42{clip-path:url(#SVGID_00000059310841725284266020000007109395385308657044_);}
	.st43{fill:#189BCC;}
	.st44{font-family:'Arial-BoldMT';}
	.st45{font-size:7.0592px;}
	.st46{font-family:'ArialMT';}
	.st47{font-size:9.2653px;}
	.st48{opacity:0.8;fill:#019CCB;fill-opacity:0.4;enable-background:new    ;}
	.st49{enable-background:new    ;}
	.st50{fill:#FFFFFF;enable-background:new    ;}
	.st51{stroke:#FFFFFF;stroke-width:0.25;stroke-miterlimit:10;}
	.st52{fill:#EFEFEF;}
	.st53{fill:#1B1514;}
	.st54{fill:#DAE8C3;}
	.st55{font-family:'MyriadPro-Regular';}
	.st56{font-size:6.405px;}
	
		.st57{opacity:0.8;fill:none;stroke:#595958;stroke-width:2;stroke-linecap:round;stroke-linejoin:round;stroke-miterlimit:10;stroke-opacity:0.7;enable-background:new    ;}
	.st58{fill:#595958;}
	.st59{fill:#E7207C;fill-opacity:5.000000e-02;}
	.st60{fill:#EEC6D5;}
	.st61{fill:none;stroke:#020203;stroke-opacity:0.2;}
	.st62{opacity:0.8;fill:#029CCC;enable-background:new    ;}
	.st63{fill:none;stroke:#020203;stroke-width:0.2152;stroke-linecap:round;stroke-linejoin:round;stroke-miterlimit:10;}
	.st64{fill:none;stroke:#020203;stroke-width:0.2813;stroke-linecap:round;stroke-linejoin:round;stroke-miterlimit:10;}
	.st65{fill:#049839;}
	.st66{fill:#F8E508;}
	.st67{fill:#2655A2;fill-opacity:0.8;}
	.st68{fill:#FFFFFF;stroke:#979797;stroke-width:0.4222;stroke-linecap:round;stroke-linejoin:round;stroke-miterlimit:10;}
	.st69{fill:#979797;}
	.st70{fill:#F9AF2E;}
	.st71{fill:#FFFFFF;stroke:#DDDDDD;stroke-width:0.332;stroke-linecap:round;stroke-linejoin:round;stroke-miterlimit:10;}
	.st72{fill:none;stroke:#1B1514;stroke-width:0.229;stroke-linecap:round;stroke-linejoin:round;stroke-miterlimit:10;}
	.st73{fill:#FFFFFF;stroke:#979797;stroke-width:0.154;stroke-linecap:round;stroke-linejoin:round;stroke-miterlimit:10;}
	.st74{fill:#FFFFFF;stroke:#979797;stroke-width:0.2272;stroke-linecap:round;stroke-linejoin:round;stroke-miterlimit:10;}
	.st75{fill:#F9AF2D;}
	.st76{fill:#9BC76A;}
	.st77{fill:#7B62A7;enable-background:new    ;}
	.st78{fill:none;stroke:#979797;stroke-width:0.1552;stroke-linecap:round;stroke-linejoin:round;stroke-miterlimit:10;}
	.st79{fill:#E94079;}
</style>
<g>
	<g>
		<g>
			<path class="st38" d="M445,349.8c36.9-41,25.9-89.9,22.6-104.8c-3.5-15.6-26.5-44.6-108-65.4c-76.9-19.7-162.9-26.6-199.9,30.5
				c-33.8,52.2-42.2,141.8,19.9,183.8C256.4,446,394.3,406.2,445,349.8z"/>
		</g>
		<rect x="165.1" y="282" class="st40" width="37.6" height="76.5"/>
		<rect x="106.7" y="314.4" class="st40" width="37.6" height="44.1"/>
		
			<image style="overflow:visible;" width="4116" height="1960" xlink:href="2B88F048.png"  transform="matrix(5.052616e-02 0 0 5.052616e-02 363.1143 265.6666)">
		</image>
		
			<image style="overflow:visible;" width="599" height="350" xlink:href="2B88F049.png"  transform="matrix(-0.3369 0 0 0.3369 226.3853 260.0421)">
		</image>
		<g>
			<path class="st41" d="M167.5,299.2c1.9,13.3,8.2,25.2,16.9,35.2c29.9,34.4,70.4,57.7,111.3,69.3c32.9,9.4,79.8-5.9,106.7-34.7
				c30.1-32.6,26.5-95.9,4.7-130.9c-29.5-47.7-67-69.9-117.5-46.9c-23.6,9.5-40,22.1-64.4,25.7c-21.1,3.1-47.1,30.8-54.9,53.9
				C167,280.7,166.2,290.3,167.5,299.2z"/>
		</g>
	</g>
	<g>
		<defs>
			
				<rect id="SVGID_00000085939928710704629990000015944579633791451573_" x="181.7" y="131.6" transform="matrix(1 -2.162129e-03 2.162129e-03 1 -0.6483 0.6392)" width="227.2" height="337.2"/>
		</defs>
		<clipPath id="SVGID_00000075157034802230176120000008862586124712255390_">
			<use xlink:href="#SVGID_00000085939928710704629990000015944579633791451573_"  style="overflow:visible;"/>
		</clipPath>
		<g style="clip-path:url(#SVGID_00000075157034802230176120000008862586124712255390_);">
			
				<image style="overflow:visible;" width="4000" height="2250" xlink:href="../Plantillas bot/Plantillas integracion atom-04.png"  transform="matrix(0.211 -4.562142e-04 4.533509e-04 0.2097 -15.407 46.4636)">
			</image>
			<path class="st5" d="M391.2,304.2l-169.7,0.4c-1.3,0-2.3-1-2.3-2.3l-0.3-117.9c0-1.3,1-2.3,2.3-2.3l169.7-0.4
				c1.3,0,2.3,1,2.3,2.3l0.3,117.9C393.4,303.2,392.4,304.2,391.2,304.2z"/>
			<g>
				<text transform="matrix(1.0063 -2.173637e-03 2.159985e-03 1 226.8779 326.8586)" class="st43 st44 st45">No cumplí los Kms</text>
			</g>
			<g>
				<text transform="matrix(1.0063 -2.173637e-03 2.159985e-03 1 331.4153 326.3291)" class="st43 st44 st45">No, gracias!</text>
			</g>
			<g>
				<text transform="matrix(1.0063 -2.173637e-03 2.159985e-03 1 282.1068 357.1911)" class="st43 st44 st45">Si, por favor!</text>
			</g>
			<g>
				<text transform="matrix(1.0063 -2.173637e-03 2.159985e-03 1 230.5891 391.6336)" class="st46 st47">Si, por favor!</text>
			</g>
			<g>
				<defs>
					
						<rect id="SVGID_00000132048770378770346600000001304220490522746539_" x="225.8" y="199.3" transform="matrix(1 -2.162129e-03 2.162129e-03 1 -0.5114 0.6639)" width="161.9" height="75.2"/>
				</defs>
				<clipPath id="SVGID_00000031208483110914279250000007025529916579327411_">
					<use xlink:href="#SVGID_00000132048770378770346600000001304220490522746539_"  style="overflow:visible;"/>
				</clipPath>
				
					<g transform="matrix(1 -2.328306e-10 2.328306e-10 1 0 0)" style="clip-path:url(#SVGID_00000031208483110914279250000007025529916579327411_);">
					
						<image style="overflow:visible;" width="1366" height="768" xlink:href="2B88F048.jpg"  transform="matrix(0.5151 -1.113753e-03 1.106763e-03 0.5119 52.9377 6.3113)">
					</image>
				</g>
			</g>
			<path class="st5" d="M300.3,332.1h-78.4c-1.3,0-2.3-1-2.3-2.3v-16.4c0-1.3,1-2.3,2.3-2.3h78.4c1.3,0,2.3,1,2.3,2.3v16.4
				C302.6,331.1,301.6,332.1,300.3,332.1z"/>
			<path class="st5" d="M391.3,332.6h-78.4c-1.3,0-2.3-1-2.3-2.3v-16.4c0-1.3,1-2.3,2.3-2.3h78.4c1.3,0,2.3,1,2.3,2.3v16.4
				C393.5,331.6,392.5,332.6,391.3,332.6z"/>
			<path class="st5" d="M393.6,364.4l-170.4,0.4c-1.4,0-2.5-1.1-2.5-2.5l0-19.9c0-1.4,1.1-2.5,2.5-2.5l170.4-0.4
				c1.4,0,2.5,1.1,2.5,2.5l0,19.9C396.1,363.3,395,364.4,393.6,364.4z"/>
		</g>
	</g>
	<g>
		<g>
			<g>
				<g>
					<path class="st22" d="M339.1,467.9l-193,0.9c-2.8,0-5.2-2.3-5.2-5.1l-0.2-37.3c0-2.8,2.3-5.2,5.1-5.2l193-0.9
						c2.8,0,5.2,2.3,5.2,5.1l0.2,37.3C344.2,465.6,341.9,467.9,339.1,467.9z"/>
				</g>
			</g>
		</g>
		<g>
			<g>
				<path class="st5" d="M184.4,443.5c0-3.8,1.1-5,4.1-5c3,0,4.1,1.1,4.1,4.9c0,3.8-1.1,5-4.1,5
					C185.5,448.4,184.4,447.3,184.4,443.5z M190.3,443.5c0-2.5-0.4-3.2-1.9-3.2c-1.4,0-1.9,0.7-1.9,3.3c0,2.5,0.4,3.2,1.9,3.2
					C189.9,446.7,190.3,446,190.3,443.5z"/>
			</g>
			<g>
				<path class="st5" d="M194,450.3l0-8c0-0.4,0.1-0.6,0.5-0.7c0.7-0.2,2.1-0.4,2.9-0.4c2.7,0,3.4,1.5,3.4,3.6c0,2.8-1,3.6-2.7,3.6
					c-0.5,0-1.2,0-1.8-0.3c-0.2-0.1-0.3,0-0.2,0.2c0.1,0.4,0.1,0.5,0.1,1l0,1c0,0.4-0.2,0.7-0.7,0.7l-0.7,0
					C194.3,450.9,194,450.7,194,450.3z M198.7,444.8c0-1.6-0.3-2-1.2-2.1c-0.3,0-0.9,0-1.1,0.1c-0.2,0-0.3,0.1-0.3,0.3l0,3.2
					c0,0.2,0.1,0.3,0.2,0.3c0.4,0.1,0.8,0.1,1.2,0.1C198.3,446.8,198.7,446.5,198.7,444.8z"/>
			</g>
			<g>
				<path class="st5" d="M201.8,444.8c0-2.5,0.9-3.6,3.5-3.6c2.5,0,3.5,1,3.5,3.6c0,2.5-0.9,3.6-3.4,3.6
					C202.8,448.3,201.9,447.3,201.8,444.8z M206.6,444.8c0-1.6-0.3-2.1-1.3-2.1c-1.1,0-1.3,0.5-1.3,2.1c0,1.5,0.3,2,1.3,2
					C206.3,446.8,206.6,446.3,206.6,444.8z"/>
			</g>
			<g>
				<path class="st5" d="M210.2,447.5l0-5.5c0-0.4,0.2-0.6,0.6-0.6l0.4,0c0.3,0,0.5,0.1,0.6,0.4l0,0.1c0.1,0.2,0.2,0.2,0.3,0.1
					c0.7-0.4,1.4-0.6,2.2-0.7c0.4,0,0.7,0.2,0.6,0.7l0,0.6c0,0.4-0.3,0.6-0.6,0.6c-0.3,0-1.1,0.1-1.9,0.3c-0.1,0-0.2,0.1-0.2,0.3
					l0,3.9c0,0.4-0.2,0.6-0.6,0.6l-0.8,0C210.4,448.1,210.2,447.9,210.2,447.5z"/>
			</g>
			<g>
				<path class="st5" d="M216.6,446.3l0-3.4c0-0.2-0.1-0.2-0.2-0.2l-0.3,0c-0.5,0-0.7-0.2-0.7-0.6c0-0.5,0.2-0.7,0.7-0.7l0.3,0
					c0.2,0,0.2-0.1,0.2-0.2l0-1c0-0.4,0.2-0.6,0.6-0.6l0.7,0c0.4,0,0.6,0.2,0.6,0.6l0,1c0,0.2,0.1,0.2,0.2,0.2l1,0
					c0.5,0,0.7,0.2,0.7,0.7c0,0.5-0.2,0.7-0.7,0.7l-1,0c-0.2,0-0.2,0.1-0.2,0.2l0,3c0,0.5,0.2,0.7,0.7,0.7l0.3,0
					c0.5,0,0.7,0.3,0.7,0.7c0,0.5-0.1,0.8-0.5,0.8c-0.5,0.1-1,0.1-1.3,0.1C217.4,448.3,216.6,447.6,216.6,446.3z"/>
			</g>
			<g>
				<path class="st5" d="M221.7,446.4l0-4.4c0-0.4,0.2-0.7,0.7-0.7l0.7,0c0.4,0,0.7,0.2,0.7,0.7l0,3.8c0,0.6,0.2,0.8,0.7,0.8
					c0.5,0,0.9-0.1,1.6-0.4c0.1,0,0.2-0.1,0.2-0.2l0-4c0-0.4,0.2-0.7,0.7-0.7l0.7,0c0.4,0,0.7,0.2,0.7,0.7l0,5.5
					c0,0.4-0.2,0.7-0.7,0.7l-0.4,0c-0.4,0-0.6-0.1-0.7-0.4l0-0.1c0-0.1-0.1-0.2-0.3-0.1c-0.8,0.5-1.7,0.7-2.6,0.7
					C222.3,448.2,221.7,447.6,221.7,446.4z"/>
			</g>
			<g>
				<path class="st5" d="M229.8,447.4l0-5.5c0-0.4,0.2-0.7,0.7-0.7l0.4,0c0.3,0,0.6,0.1,0.6,0.4l0,0.1c0,0.1,0.1,0.2,0.3,0.1
					c0.9-0.5,1.8-0.7,2.6-0.7c1.3,0,2,0.7,2,2.1l0,4.2c0,0.4-0.2,0.7-0.7,0.7l-0.7,0c-0.4,0-0.7-0.2-0.7-0.7l0-3.8
					c0-0.6-0.2-0.8-0.7-0.8c-0.5,0-1,0.1-1.7,0.4c-0.1,0-0.2,0.1-0.2,0.2l0,4c0,0.4-0.2,0.7-0.7,0.7l-0.7,0
					C230.1,448,229.8,447.8,229.8,447.4z"/>
			</g>
			<g>
				<path class="st5" d="M238,439.2c0-0.6,0.5-1.1,1.1-1.1c0.6,0,1.1,0.4,1.1,1.1c0,0.6-0.5,1.1-1.1,1.1
					C238.5,440.2,238,439.8,238,439.2z M238.2,447.3l0-5.5c0-0.4,0.2-0.7,0.7-0.7l0.7,0c0.4,0,0.7,0.2,0.7,0.7l0,5.5
					c0,0.4-0.2,0.7-0.7,0.7l-0.7,0C238.4,448,238.2,447.8,238.2,447.3z"/>
			</g>
			<g>
				<path class="st5" d="M241.6,444.6c0-2.8,1-3.6,2.7-3.6c0.5,0,1.2,0,1.8,0.3c0.2,0.1,0.3,0,0.2-0.2c-0.1-0.4-0.1-0.6-0.1-1.1l0-1
					c0-0.4,0.2-0.7,0.7-0.7l0.7,0c0.4,0,0.7,0.2,0.7,0.7l0,8.1c0,0.4-0.1,0.6-0.5,0.7c-0.7,0.2-2.1,0.4-2.9,0.4
					C242.3,448.2,241.6,446.7,241.6,444.6z M246.1,446.5c0.2,0,0.3-0.1,0.3-0.3l0-3.2c0-0.2-0.1-0.3-0.2-0.3
					c-0.4-0.1-0.8-0.1-1.2-0.1c-0.9,0-1.2,0.3-1.2,2c0,1.6,0.3,2,1.2,2.1C245.3,446.6,245.8,446.6,246.1,446.5z"/>
			</g>
			<g>
				<path class="st5" d="M249.7,446.2l0-0.7c0-1.1,0.8-1.7,2.1-1.7l2.3,0c0.1,0,0.2-0.1,0.2-0.2l0-0.2c0-0.6-0.3-0.8-1.1-0.8
					c-0.5,0-1.4,0-2.3,0.1c-0.4,0-0.7-0.2-0.7-0.6c-0.1-0.5,0.1-0.7,0.6-0.8c1-0.1,2.1-0.2,2.9-0.2c1.8,0,2.7,0.6,2.7,2.5l0,3.8
					c0,0.4-0.3,0.7-0.7,0.7l-0.4,0c-0.3,0-0.5-0.1-0.6-0.4l0-0.1c0-0.1-0.1-0.2-0.2-0.1c-0.5,0.4-1.3,0.7-2.4,0.7
					C250.7,448.1,249.7,447.4,249.7,446.2z M254.1,446.2c0.1,0,0.2-0.1,0.2-0.3l0-0.8c0-0.1-0.1-0.2-0.2-0.2l-1.7,0
					c-0.5,0-0.7,0.3-0.7,0.7l0,0.3c0,0.5,0.2,0.7,0.8,0.7C253,446.6,253.5,446.6,254.1,446.2z"/>
			</g>
			<g>
				<path class="st5" d="M257.6,444.5c0-2.8,1-3.6,2.7-3.6c0.5,0,1.2,0,1.8,0.3c0.2,0.1,0.3,0,0.2-0.2c-0.1-0.4-0.1-0.6-0.1-1.1l0-1
					c0-0.4,0.2-0.7,0.7-0.7l0.7,0c0.4,0,0.7,0.2,0.7,0.7l0,8.1c0,0.4-0.1,0.6-0.5,0.7c-0.7,0.2-2.1,0.4-2.9,0.4
					C258.3,448.1,257.6,446.6,257.6,444.5z M262.1,446.5c0.2,0,0.3-0.1,0.3-0.3l0-3.2c0-0.2-0.1-0.3-0.2-0.3
					c-0.4-0.1-0.8-0.1-1.2-0.1c-0.9,0-1.2,0.3-1.2,2c0,1.6,0.3,2,1.2,2.1C261.3,446.6,261.8,446.5,262.1,446.5z"/>
			</g>
			<g>
				<path class="st5" d="M265.7,444.5c0-2.7,1-3.6,3.5-3.6c2.3,0,3.2,0.8,3.2,2.4c0,1.2-0.5,1.9-1.8,1.9l-2.5,0
					c-0.2,0-0.2,0.1-0.2,0.2c0.1,0.8,0.6,1,1.6,1c0.5,0,1.2-0.1,1.9-0.1c0.4,0,0.7,0.2,0.7,0.6c0.1,0.4-0.1,0.7-0.5,0.8
					c-0.7,0.2-1.7,0.3-2.5,0.3C266.7,448.1,265.8,447,265.7,444.5z M269.9,443.9c0.5,0,0.6-0.2,0.6-0.7c0-0.6-0.3-0.8-1.2-0.8
					c-1.1,0-1.3,0.3-1.4,1.3c0,0.2,0.1,0.2,0.2,0.2L269.9,443.9z"/>
			</g>
			<g>
				<path class="st5" d="M274.2,447.9c-0.4-0.1-0.6-0.3-0.6-0.8c0-0.5,0.3-0.7,0.7-0.6c0.5,0,1.1,0,1.8,0c1.4,0,1.7-0.1,1.7-0.5
					c0-0.4-0.3-0.5-1-0.6l-1.7-0.4c-1.3-0.3-1.6-1-1.6-2.1c0-1.3,0.8-1.9,2.9-1.9c0.8,0,1.7,0.1,2.5,0.1c0.4,0.1,0.6,0.3,0.6,0.7
					c-0.1,0.5-0.3,0.7-0.7,0.7c-0.7,0-1.3,0-2,0c-1,0-1.3,0-1.3,0.5c0,0.4,0.2,0.5,0.9,0.6l1.8,0.4c1.2,0.3,1.7,0.8,1.7,2
					c0,1.6-0.9,2.1-3.1,2.1C276.2,448,275.3,448,274.2,447.9z"/>
			</g>
			<g>
				<path class="st5" d="M284.2,447.2l0-8c0-0.6,0.3-0.9,0.9-0.9l0.9,0c0.5,0,0.9,0.2,1.1,0.7l2.4,4.9c0.2,0.3,0.3,0.7,0.5,1
					c0,0.1,0.1,0.1,0.2,0.1c0.1,0,0.1-0.1,0.1-0.2c0-0.3,0-0.7,0-1l0-4.9c0-0.4,0.2-0.6,0.6-0.6l0.7,0c0.4,0,0.6,0.2,0.6,0.6l0,8
					c0,0.6-0.3,0.9-0.9,0.9l-0.9,0c-0.5,0-0.9-0.2-1.1-0.7l-2.5-5c-0.2-0.3-0.3-0.6-0.4-1c0-0.1-0.1-0.1-0.2-0.1
					c-0.1,0-0.1,0.1-0.1,0.2c0,0.3,0,0.7,0,1.1l0,4.9c0,0.4-0.2,0.6-0.6,0.6l-0.7,0C284.4,447.8,284.2,447.6,284.2,447.2z"/>
			</g>
			<g>
				<path class="st5" d="M294,446.1l0-4.4c0-0.4,0.2-0.7,0.7-0.7l0.7,0c0.4,0,0.7,0.2,0.7,0.7l0,3.8c0,0.6,0.2,0.8,0.7,0.8
					c0.5,0,0.9-0.1,1.6-0.4c0.1,0,0.2-0.1,0.2-0.2l0-4c0-0.4,0.2-0.7,0.7-0.7l0.7,0c0.4,0,0.7,0.2,0.7,0.7l0,5.5
					c0,0.4-0.2,0.7-0.7,0.7l-0.4,0c-0.4,0-0.6-0.1-0.7-0.4l0-0.1c0-0.1-0.1-0.2-0.3-0.1c-0.8,0.5-1.7,0.7-2.6,0.7
					C294.7,447.9,294,447.3,294,446.1z"/>
			</g>
			<g>
				<path class="st5" d="M301.9,444.3c0-2.7,1-3.6,3.5-3.6c2.3,0,3.2,0.8,3.2,2.4c0,1.2-0.5,1.9-1.8,1.9l-2.5,0
					c-0.2,0-0.2,0.1-0.2,0.2c0.1,0.8,0.6,1,1.6,1c0.5,0,1.2-0.1,1.9-0.1c0.4,0,0.7,0.2,0.7,0.6c0.1,0.4-0.1,0.7-0.5,0.8
					c-0.7,0.2-1.7,0.3-2.5,0.3C302.9,447.9,301.9,446.8,301.9,444.3z M306,443.8c0.5,0,0.6-0.2,0.6-0.7c0-0.6-0.3-0.8-1.2-0.8
					c-1.1,0-1.3,0.3-1.4,1.3c0,0.2,0.1,0.2,0.2,0.2L306,443.8z"/>
			</g>
			<g>
				<path class="st5" d="M311.1,446.8l-1.8-5.2c-0.1-0.4,0.1-0.7,0.5-0.7l0.8,0c0.4,0,0.6,0.2,0.7,0.5l1,3.7c0.1,0.3,0.2,0.7,0.3,1
					c0,0.1,0.1,0.2,0.1,0.2c0.1,0,0.1-0.1,0.1-0.2c0.1-0.3,0.2-0.7,0.3-1l1-3.7c0.1-0.4,0.3-0.6,0.7-0.6l0.8,0
					c0.5,0,0.7,0.3,0.5,0.7l-1.7,5.3c-0.2,0.6-0.6,0.8-1.2,0.8l-1,0C311.7,447.7,311.3,447.4,311.1,446.8z"/>
			</g>
			<g>
				<path class="st5" d="M317,445.9l0-0.7c0-1.1,0.8-1.7,2.1-1.7l2.3,0c0.1,0,0.2-0.1,0.2-0.2l0-0.2c0-0.6-0.3-0.8-1.1-0.8
					c-0.5,0-1.4,0-2.3,0.1c-0.4,0-0.7-0.2-0.7-0.6c-0.1-0.5,0.1-0.7,0.6-0.8c1-0.1,2.1-0.2,2.9-0.2c1.8,0,2.7,0.6,2.7,2.5l0,3.8
					c0,0.4-0.3,0.7-0.7,0.7l-0.4,0c-0.3,0-0.5-0.1-0.6-0.4l0-0.1c0-0.1-0.1-0.2-0.2-0.1c-0.5,0.4-1.3,0.7-2.4,0.7
					C318,447.8,317,447.1,317,445.9z M321.4,445.9c0.1,0,0.2-0.1,0.2-0.3l0-0.8c0-0.1-0.1-0.2-0.2-0.2l-1.7,0
					c-0.5,0-0.7,0.3-0.7,0.7l0,0.3c0,0.5,0.2,0.7,0.8,0.7C320.2,446.3,320.8,446.3,321.4,445.9z"/>
			</g>
			<g>
				<path class="st5" d="M325.6,447.6c-0.4-0.1-0.6-0.3-0.6-0.8c0-0.5,0.3-0.7,0.7-0.6c0.5,0,1.1,0,1.8,0c1.4,0,1.7-0.1,1.7-0.5
					c0-0.4-0.3-0.5-1-0.6l-1.7-0.4c-1.3-0.3-1.6-1-1.6-2.1c0-1.3,0.8-1.9,2.9-1.9c0.8,0,1.7,0.1,2.5,0.1c0.4,0.1,0.6,0.3,0.6,0.7
					c0,0.5-0.3,0.7-0.7,0.7c-0.7,0-1.3,0-2,0c-1,0-1.3,0-1.3,0.5c0,0.4,0.2,0.5,0.9,0.6l1.8,0.4c1.2,0.3,1.7,0.8,1.7,2
					c0,1.6-0.9,2.1-3.1,2.1C327.6,447.7,326.6,447.7,325.6,447.6z"/>
			</g>
		</g>
		<g>
			<g>
				<g>
					<path class="st5" d="M171.9,447.9l0-5.5c0-3.9-2.7-7.1-6.4-7.9c0-1-0.9-1.8-1.9-1.8c-1,0-1.9,0.8-1.9,1.9
						c-3.6,0.9-6.3,4.1-6.3,8l0,5.5c-1.4,0-2.5,1.1-2.5,2.5l0,1.7l21.3-0.1l0-1.7C174.3,449,173.2,447.9,171.9,447.9z"/>
				</g>
				<g>
					<path class="st5" d="M163.7,456.2c1.6,0,3-1.1,3.4-2.6l-6.9,0C160.7,455.1,162.1,456.2,163.7,456.2z"/>
				</g>
			</g>
		</g>
	</g>
	<g>
		<circle class="st5" cx="323" cy="127.9" r="27.5"/>
		<path class="st48" d="M335.2,131c2.5-3.7,0.8-6.9,0.3-7.9c-0.5-1.1-3.4-6.1-10.6-6c-6.8,0.1-13.6,4.8-15.8,9.6
			c-2,4.4-0.5,9.6,5.4,11.4C321.6,140.2,331.8,136.1,335.2,131z"/>
		<path class="st36" d="M329.9,102c-2.4-0.6-4.7-0.9-7.1-0.9c-15,0-27.2,12.2-27.2,27.2s12.2,27.2,27.2,27.2
			c15,0,27.2-12.2,27.2-27.2c0-2.5-0.3-4.9-1-7.1l1.5-1.5c0.7,2.7,1.3,5.6,1.3,8.6c0,16-13,29-29,29c-16,0-29-13-29-29s13-29,29-29
			c3,0,5.8,0.5,8.5,1.3L329.9,102z"/>
		<path class="st36" d="M341.5,125.2c0.2,1,0.3,2,0.3,3c0,10.5-8.5,19-19,19c-10.5,0-19-8.5-19-19s8.5-19,19-19c1,0,2,0.1,3,0.2
			c0,0.5,0,1,0.1,1.4l0.1,0.4c-1-0.2-2.1-0.3-3.2-0.3c-9.5,0-17.2,7.7-17.2,17.2s7.7,17.2,17.2,17.2s17.2-7.7,17.2-17.2
			c0-1.1-0.1-2.1-0.3-3.2l0.4,0.1C340.6,125.2,341.1,125.2,341.5,125.2z"/>
		<path class="st36" d="M322.8,120c0.5,0,1.1,0.1,1.6,0.2l-1.7,1.7c-3.5,0-6.3,2.9-6.3,6.2c0,3.6,2.8,6.3,6.3,6.3
			c3.5,0,6.3-2.7,6.2-6.2l1.8-1.7c0.1,0.5,0.2,1.1,0.2,1.6c0,4.5-3.6,8.1-8.1,8.1s-8.1-3.6-8.1-8.1S318.3,120,322.8,120L322.8,120z"
			/>
		<path class="st36" d="M323.4,128.8c-0.4,0.4-0.9,0.4-1.3,0c-0.4-0.4-0.4-0.9,0-1.3l8.7-8.7l-1.4-8.6c-0.2-1.4,0.2-2.9,1.2-3.9
			l5.8-5.7c1-1,2.7-0.5,3,0.8l2.2,8l8,2.2c1.3,0.4,1.8,2,0.8,3l-5.7,5.7c-1,1-2.5,1.5-3.9,1.3l-8.6-1.4L323.4,128.8z"/>
		<path class="st5" d="M337.7,101.8l-5.7,5.7c-0.6,0.6-0.9,1.5-0.8,2.4l1.2,7.3l7.4-7.4L337.7,101.8z"/>
		<path class="st5" d="M341,119.7c0.9,0.1,1.7-0.1,2.3-0.8l5.8-5.7l-7.9-2.2l-7.4,7.4L341,119.7z"/>
		<path class="st5" d="M359,145.6l6-8.3l-1.8-1.5l-30,0.1c0,0-3.6,0.1-2,3c1.6,2.9,13.4,15.2,13.4,15.2l-0.6,6.3l3.5,2.8"/>
		<path class="st36" d="M362.5,134.7c1.4,0,2.5,1.1,2.5,2.5c0,0.6-0.2,1.1-0.5,1.6l-5.5,6.8c-0.2,0.3-0.5,0.3-0.8,0.1
			c-0.2-0.2-0.3-0.5-0.1-0.8l5.5-6.8c0.2-0.3,0.3-0.6,0.3-0.9c0-0.8-0.7-1.4-1.4-1.4h-29.3c-0.8,0-1.4,0.6-1.4,1.4
			c0,0.3,0.1,0.6,0.3,0.9l12.4,15.6c0.1,0.1,0.1,0.2,0.1,0.3v4.9c0,0.5,0.2,1,0.7,1.3l2.9,2.1c0.2,0.2,0.3,0.5,0.1,0.7
			c-0.2,0.2-0.5,0.3-0.8,0.1l-2.9-2.1c-0.7-0.5-1.1-1.3-1.1-2.2v-4.6l-12.3-15.4c-0.4-0.4-0.6-1-0.6-1.6c0-1.4,1.1-2.5,2.5-2.5
			H362.5z"/>
		<circle class="st36" cx="356.7" cy="156.1" r="9.7"/>
		<circle class="st5" cx="356.7" cy="156.1" r="8.6"/>
		<path class="st36" d="M354.8,152.7c-0.5,0.3-0.8,0.6-0.8,1.2c0,0.3,0.2,0.6,0.8,0.8c0.5,0.3,1.2,0.5,2,0.7l0.1,0.1
			c0.8,0.2,1.6,0.4,2.3,0.8c0.6,0.4,1.3,1,1.2,1.9c0.1,1.1-0.5,1.8-1.3,2.2c-0.6,0.3-1.2,0.4-1.9,0.5v1.2c0,0.3-0.2,0.5-0.5,0.5
			c-0.3,0-0.5-0.2-0.5-0.5v-1.2c-0.8-0.1-1.7-0.3-2.4-0.6c-0.1,0-0.3-0.1-0.4-0.1c-0.3-0.1-0.4-0.4-0.4-0.7c0.1-0.3,0.4-0.4,0.7-0.4
			c0.1,0,0.3,0.1,0.4,0.1c1,0.3,1.8,0.5,2.7,0.5c0.6,0.1,1.3,0,1.9-0.3c0.5-0.3,0.8-0.6,0.7-1.2c0-0.4-0.2-0.7-0.7-1
			c-0.5-0.3-1.2-0.5-2-0.7l-0.1,0c-0.7-0.2-1.5-0.4-2.2-0.7c-0.7-0.3-1.3-0.9-1.4-1.8c-0.1-1.1,0.6-1.8,1.4-2.2
			c0.6-0.3,1.2-0.4,1.8-0.5v-1.2c0-0.2,0.2-0.5,0.5-0.5c0.3,0,0.5,0.3,0.5,0.5v1.2c0.7,0.1,1.4,0.2,2,0.3c0.3,0.1,0.5,0.4,0.4,0.6
			c-0.1,0.3-0.4,0.5-0.6,0.3c-0.8-0.1-1.6-0.3-2.3-0.3C356.1,152.3,355.4,152.4,354.8,152.7L354.8,152.7z"/>
	</g>
	<g>
		<g>
			<g class="st49">
				<path class="st50" d="M153.4,105.7c-0.2,0-0.4-0.2-0.4-0.4v-3.3c0-0.2,0.2-0.4,0.4-0.4s0.4,0.2,0.4,0.4v3.3
					C153.7,105.5,153.6,105.7,153.4,105.7z"/>
				<path class="st50" d="M154.9,104h-3.1c-0.2,0-0.4-0.2-0.4-0.4c0-0.2,0.2-0.4,0.4-0.4h3.1c0.2,0,0.4,0.2,0.4,0.4
					C155.3,103.8,155.1,104,154.9,104z"/>
			</g>
			<g class="st49">
				<path class="st50" d="M159,112.7c-0.2,0-0.4-0.2-0.4-0.4V109c0-0.2,0.2-0.4,0.4-0.4s0.4,0.2,0.4,0.4v3.3
					C159.4,112.5,159.2,112.7,159,112.7z"/>
				<path class="st50" d="M160.5,111.1h-3.1c-0.2,0-0.4-0.2-0.4-0.4c0-0.2,0.2-0.4,0.4-0.4h3.1c0.2,0,0.4,0.2,0.4,0.4
					C160.9,110.9,160.8,111.1,160.5,111.1z"/>
			</g>
			<g class="st49">
				<g>
					<path class="st50" d="M118.5,162.1c-0.2,0-0.4-0.2-0.4-0.4v-3.3c0-0.2,0.2-0.4,0.4-0.4c0.2,0,0.4,0.2,0.4,0.4v3.3
						C118.9,161.9,118.7,162.1,118.5,162.1z"/>
					<path class="st50" d="M120,160.4H117c-0.2,0-0.4-0.2-0.4-0.4s0.2-0.4,0.4-0.4h3.1c0.2,0,0.4,0.2,0.4,0.4S120.2,160.4,120,160.4
						z"/>
				</g>
			</g>
			<g class="st49">
				<g>
					<path class="st50" d="M124.2,169.2c-0.2,0-0.4-0.2-0.4-0.4v-3.3c0-0.2,0.2-0.4,0.4-0.4s0.4,0.2,0.4,0.4v3.3
						C124.5,169,124.4,169.2,124.2,169.2z"/>
					<path class="st50" d="M125.7,167.5h-3.1c-0.2,0-0.4-0.2-0.4-0.4s0.2-0.4,0.4-0.4h3.1c0.2,0,0.4,0.2,0.4,0.4
						S125.9,167.5,125.7,167.5z"/>
				</g>
			</g>
		</g>
		<path class="st51" d="M138.2,106.1c-8.5,0-13.1,7.5-13.1,12.9c0,3.1,1.7,8.2,13.1,8.2s13.1-5.2,13.1-8.2
			C151.2,112.8,146.3,106.1,138.2,106.1z"/>
		<path class="st5" d="M138.2,124.9c-4.1,0-10.9-0.8-10.9-5.9c0-4.4,3.8-10.6,10.9-10.6c7.4,0,10.9,6.3,10.9,10.6
			C149.1,124.2,142.2,124.9,138.2,124.9z"/>
		<path class="st51" d="M152.5,128.3c-0.3-0.2-0.7-0.3-1-0.2c-2.9,1-7.9,1.5-13.3,1.5c-5.4,0-10.4-0.6-13.4-1.5
			c-0.6-0.2-1.2,0.2-1.4,0.8c-0.1,0.2-0.1,0.4,0,0.6c1.8,19.8,7.7,33.1,14.7,33.1c7.1,0,13-13.4,14.7-33.3
			C153,128.9,152.8,128.5,152.5,128.3z"/>
		<path class="st5" d="M138.2,160.2c-5.5,0-10.7-12.3-12.4-29.4c3.2,0.8,7.6,1.2,12.4,1.2c4.8,0,9.3-0.4,12.4-1.2
			C148.9,147.9,143.7,160.2,138.2,160.2z"/>
		<g class="st49">
			<g>
				<path class="st51" d="M125,128.2L125,128.2c-0.5-0.3-1.2-0.1-1.5,0.5c-0.3,0.6,0,1.3,0.5,1.6c0.2,0.1,0.3,0.1,0.5,0.1
					c0.4,0,0.8-0.2,1-0.6C125.8,129.2,125.6,128.4,125,128.2z"/>
			</g>
		</g>
		<g class="st49">
			<g>
				<ellipse class="st51" cx="130.6" cy="135.5" rx="1.1" ry="1.2"/>
			</g>
		</g>
		<g class="st49">
			<g>
				<ellipse class="st51" cx="134.9" cy="135.5" rx="1.1" ry="1.2"/>
			</g>
		</g>
		<g class="st49">
			<g>
				<ellipse class="st51" cx="139.3" cy="135.5" rx="1.1" ry="1.2"/>
			</g>
		</g>
		<g class="st49">
			<g>
				<path class="st51" d="M135.7,118.2c-1-1.1-2-1.6-3.1-1.5c-1.7,0.1-2.8,1.4-2.9,1.6c-0.4,0.5-0.3,1.2,0.2,1.7
					c0.2,0.2,0.4,0.3,0.7,0.3c0.3,0,0.6-0.1,0.8-0.4c0,0,0.6-0.7,1.3-0.7c0.5,0,0.9,0.3,1.5,0.8c0.4,0.5,1.1,0.5,1.5,0
					S136.1,118.7,135.7,118.2z"/>
			</g>
		</g>
		<g class="st49">
			<g>
				<path class="st51" d="M146.6,118.2c-0.9-1.1-2-1.6-3.1-1.5c-1.7,0.1-2.8,1.4-2.9,1.6c-0.4,0.5-0.3,1.2,0.1,1.6
					c0.5,0.4,1.1,0.4,1.5-0.1c0,0,0.6-0.7,1.3-0.7c0.5,0,0.9,0.3,1.4,0.8c0.2,0.2,0.5,0.4,0.8,0.4c0.3,0,0.5-0.1,0.8-0.3
					C147,119.4,147,118.7,146.6,118.2z"/>
			</g>
		</g>
		<g class="st49">
			<g>
				<path class="st51" d="M128.9,158.4c-3.4-5.5-6-14.6-7.3-25.4c-0.1-0.6-0.6-1.1-1.2-1c-0.6,0.1-1,0.7-0.9,1.3
					c1.3,11.2,4,20.6,7.6,26.4c0.2,0.3,0.6,0.5,0.9,0.5c0.2,0,0.4-0.1,0.6-0.2C129.1,159.7,129.3,158.9,128.9,158.4z"/>
			</g>
		</g>
		<g class="st49">
			<g>
				<path class="st51" d="M155.9,132c-0.6-0.1-1.1,0.4-1.2,1c-1.3,10.8-3.9,19.8-7.3,25.4c-0.3,0.5-0.2,1.3,0.3,1.6
					c0.2,0.1,0.4,0.2,0.6,0.2c0.4,0,0.7-0.2,0.9-0.5c3.6-5.8,6.3-15.2,7.6-26.4C157,132.7,156.5,132.1,155.9,132z"/>
			</g>
		</g>
	</g>
	<g>
		<g>
			<g>
				<g>
					<path class="st52" d="M399.7,513.7H260.2c-2.4,0-4.3-1.9-4.3-4.3v-26.1c0-2.4,1.9-4.3,4.3-4.3h139.5c2.4,0,4.3,1.9,4.3,4.3
						v26.1C404,511.8,402.1,513.7,399.7,513.7z"/>
					<path class="st52" d="M396.8,514H263c-4.1,0-7.5-3.3-7.5-7.5v-20.4c0-4.1,3.3-7.5,7.5-7.5h133.8c4.1,0,7.5,3.3,7.5,7.5v20.4
						C404.3,510.7,401,514,396.8,514z M396.2,479.3H263.6c-4.1,0-7.5,3.3-7.5,7.5v19.1c0,4.1,3.3,7.5,7.5,7.5h132.6
						c4.1,0,7.5-3.3,7.5-7.5v-19.1C403.7,482.7,400.3,479.3,396.2,479.3z"/>
				</g>
			</g>
		</g>
		<g>
			<g>
				<path class="st23" d="M295.2,498.7v-5.9c0-0.4,0.2-0.6,0.6-0.7c0.6,0,1.1-0.1,2-0.1c2,0,2.6,0.5,2.6,2.3c0,1.8-0.6,2.3-2.4,2.3
					c-0.4,0-0.8,0-1.1-0.1c-0.1,0-0.2,0-0.2,0.2v1.9c0,0.3-0.2,0.5-0.5,0.5h-0.6C295.4,499.2,295.2,499,295.2,498.7z M297.8,495.5
					c0.8,0,1.1-0.2,1.1-1.1c0-0.9-0.2-1.1-1.1-1.1c-0.3,0-0.6,0-0.8,0c-0.2,0-0.2,0.1-0.2,0.2v1.8c0,0.1,0.1,0.2,0.2,0.2H297.8z"/>
			</g>
			<g>
				<path class="st23" d="M301.4,498.7v-4c0-0.3,0.2-0.5,0.5-0.5h0.3c0.2,0,0.4,0.1,0.5,0.3l0,0.1c0,0.1,0.1,0.1,0.2,0.1
					c0.5-0.3,1-0.5,1.6-0.5c0.3,0,0.5,0.2,0.5,0.5l0,0.4c0,0.3-0.2,0.4-0.5,0.4c-0.2,0-0.8,0.1-1.4,0.2c-0.1,0-0.2,0.1-0.2,0.2v2.9
					c0,0.3-0.2,0.5-0.5,0.5h-0.5C301.5,499.2,301.4,499,301.4,498.7z"/>
			</g>
			<g>
				<path class="st23" d="M305.3,496.7c0-1.9,0.7-2.6,2.5-2.6c1.8,0,2.5,0.8,2.5,2.6c0,1.8-0.7,2.6-2.5,2.6
					C306,499.3,305.3,498.6,305.3,496.7z M308.8,496.7c0-1.1-0.2-1.5-1-1.5c-0.8,0-1,0.4-1,1.5c0,1.1,0.2,1.5,1,1.5
					C308.6,498.2,308.8,497.8,308.8,496.7z M307.3,493.5L307.3,493.5c-0.2-0.3-0.1-0.5,0.1-0.6l1.4-1c0.2-0.2,0.4-0.1,0.6,0.1
					l0.2,0.3c0.2,0.2,0.1,0.4-0.2,0.6l-1.5,0.8C307.6,493.7,307.4,493.7,307.3,493.5z"/>
			</g>
			<g>
				<path class="st23" d="M311,498.6l1.1-1.8c0.1-0.1,0.1-0.2,0-0.3l-1-1.7c-0.2-0.4-0.1-0.6,0.3-0.6h0.5c0.3,0,0.5,0.1,0.6,0.4
					l0.7,1.4c0,0.1,0.1,0.1,0.1,0.1c0.1,0,0.1,0,0.1-0.1l0.7-1.4c0.1-0.3,0.3-0.4,0.6-0.4h0.5c0.4,0,0.5,0.3,0.3,0.6l-1,1.7
					c-0.1,0.1-0.1,0.2,0,0.3l1.1,1.8c0.2,0.3,0.1,0.6-0.3,0.6h-0.5c-0.3,0-0.5-0.1-0.6-0.4l-0.8-1.6c0-0.1-0.1-0.1-0.1-0.1
					c-0.1,0-0.1,0-0.1,0.1l-0.8,1.6c-0.1,0.3-0.3,0.4-0.6,0.4h-0.5C311,499.2,310.8,498.9,311,498.6z"/>
			</g>
			<g>
				<path class="st23" d="M316.9,492.7c0-0.4,0.3-0.8,0.8-0.8c0.5,0,0.8,0.3,0.8,0.8c0,0.5-0.3,0.8-0.8,0.8
					C317.3,493.5,316.9,493.2,316.9,492.7z M317,498.7v-4c0-0.3,0.2-0.5,0.5-0.5h0.5c0.3,0,0.5,0.2,0.5,0.5v4c0,0.3-0.2,0.5-0.5,0.5
					h-0.5C317.2,499.2,317,499,317,498.7z"/>
			</g>
			<g>
				<path class="st23" d="M319.7,498.7v-4c0-0.3,0.2-0.5,0.5-0.5h0.2c0.3,0,0.4,0,0.5,0.2l0,0.1c0,0.1,0.1,0.1,0.2,0.1
					c0.6-0.4,1.3-0.5,1.7-0.5c0.5,0,0.9,0.1,1.2,0.5c0.1,0.1,0.1,0.1,0.3,0c0.5-0.4,1.1-0.5,1.7-0.5c0.9,0,1.4,0.5,1.4,1.4v3.2
					c0,0.3-0.2,0.5-0.5,0.5h-0.5c-0.3,0-0.5-0.2-0.5-0.5v-2.8c0-0.4-0.1-0.6-0.5-0.6c-0.2,0-0.5,0-1,0.3c-0.1,0-0.1,0.1-0.1,0.2
					c0,0.1,0,0.2,0,0.3v2.6c0,0.3-0.2,0.5-0.5,0.5h-0.5c-0.3,0-0.5-0.2-0.5-0.5v-2.8c0-0.4-0.2-0.6-0.5-0.6c-0.2,0-0.5,0-1,0.2
					c-0.1,0-0.1,0.1-0.1,0.2v2.9c0,0.3-0.2,0.5-0.5,0.5h-0.5C319.9,499.2,319.7,499,319.7,498.7z"/>
			</g>
			<g>
				<path class="st23" d="M328.4,496.7c0-1.9,0.7-2.6,2.5-2.6c1.8,0,2.5,0.8,2.5,2.6c0,1.8-0.7,2.6-2.5,2.6
					C329,499.3,328.4,498.6,328.4,496.7z M331.9,496.7c0-1.1-0.2-1.5-1-1.5c-0.8,0-1,0.4-1,1.5c0,1.1,0.2,1.5,1,1.5
					C331.6,498.2,331.9,497.8,331.9,496.7z"/>
			</g>
			<g>
				<path class="st23" d="M334.7,499.2c-0.3,0-0.4-0.2-0.4-0.6c0-0.3,0.2-0.5,0.5-0.5c0.4,0,0.8,0,1.3,0c1,0,1.3,0,1.3-0.4
					c0-0.3-0.2-0.4-0.7-0.5l-1.2-0.3c-0.9-0.2-1.2-0.7-1.2-1.5c0-1,0.6-1.4,2.1-1.4c0.6,0,1.3,0,1.8,0.1c0.3,0,0.4,0.2,0.4,0.5
					c0,0.3-0.2,0.5-0.5,0.5c-0.5,0-1,0-1.5,0c-0.8,0-0.9,0-0.9,0.3c0,0.3,0.2,0.4,0.6,0.5l1.3,0.3c0.8,0.2,1.2,0.6,1.2,1.5
					c0,1.2-0.7,1.5-2.3,1.5C336.2,499.3,335.5,499.3,334.7,499.2z"/>
			</g>
			<g>
				<path class="st23" d="M342.2,497.9v-2.5c0-0.1-0.1-0.2-0.2-0.2h-0.2c-0.4,0-0.5-0.2-0.5-0.5c0-0.3,0.2-0.5,0.5-0.5l0.2,0
					c0.1,0,0.2-0.1,0.2-0.2v-0.8c0-0.3,0.2-0.5,0.5-0.5h0.5c0.3,0,0.5,0.2,0.5,0.5v0.7c0,0.1,0.1,0.2,0.2,0.2h0.7
					c0.3,0,0.5,0.2,0.5,0.5c0,0.3-0.1,0.5-0.5,0.5h-0.7c-0.1,0-0.2,0.1-0.2,0.2v2.2c0,0.4,0.1,0.5,0.5,0.5h0.2
					c0.4,0,0.5,0.2,0.5,0.5c0,0.4-0.1,0.6-0.4,0.6c-0.3,0.1-0.7,0.1-0.9,0.1C342.7,499.3,342.2,498.8,342.2,497.9z"/>
			</g>
			<g>
				<path class="st23" d="M345.8,497.9v-3.2c0-0.3,0.2-0.5,0.5-0.5h0.5c0.3,0,0.5,0.2,0.5,0.5v2.8c0,0.5,0.1,0.6,0.5,0.6
					c0.4,0,0.7-0.1,1.2-0.3c0.1,0,0.1-0.1,0.1-0.2v-2.9c0-0.3,0.2-0.5,0.5-0.5h0.5c0.3,0,0.5,0.2,0.5,0.5v4c0,0.3-0.2,0.5-0.5,0.5
					h-0.3c-0.3,0-0.4-0.1-0.5-0.3l0-0.1c0-0.1-0.1-0.1-0.2-0.1c-0.6,0.3-1.3,0.5-1.9,0.5C346.3,499.3,345.8,498.8,345.8,497.9z"/>
			</g>
			<g>
				<path class="st23" d="M351.8,498.7v-4c0-0.3,0.2-0.5,0.5-0.5h0.3c0.2,0,0.4,0.1,0.5,0.3l0,0.1c0,0.1,0.1,0.1,0.2,0.1
					c0.5-0.3,1-0.5,1.6-0.5c0.3,0,0.5,0.2,0.5,0.5l0,0.4c0,0.3-0.2,0.4-0.5,0.4c-0.2,0-0.8,0.1-1.4,0.2c-0.1,0-0.2,0.1-0.2,0.2v2.9
					c0,0.3-0.2,0.5-0.5,0.5h-0.5C351.9,499.2,351.8,499,351.8,498.7z"/>
			</g>
			<g>
				<path class="st23" d="M356.1,498.7v-4c0-0.3,0.2-0.5,0.5-0.5h0.3c0.3,0,0.4,0.1,0.5,0.3l0,0.1c0,0.1,0.1,0.1,0.2,0.1
					c0.6-0.4,1.3-0.5,1.9-0.5c0.9,0,1.4,0.5,1.4,1.5v3.1c0,0.3-0.2,0.5-0.5,0.5h-0.5c-0.3,0-0.5-0.2-0.5-0.5v-2.8
					c0-0.5-0.1-0.6-0.5-0.6c-0.4,0-0.7,0.1-1.3,0.3c-0.1,0-0.1,0.1-0.1,0.2v2.9c0,0.3-0.2,0.5-0.5,0.5h-0.5
					C356.2,499.2,356.1,499,356.1,498.7z"/>
			</g>
			<g>
				<path class="st23" d="M361.9,496.7c0-1.9,0.7-2.6,2.5-2.6c1.8,0,2.5,0.8,2.5,2.6c0,1.8-0.7,2.6-2.5,2.6
					C362.5,499.3,361.9,498.6,361.9,496.7z M365.4,496.7c0-1.1-0.2-1.5-1-1.5c-0.8,0-1,0.4-1,1.5c0,1.1,0.2,1.5,1,1.5
					C365.1,498.2,365.4,497.8,365.4,496.7z"/>
			</g>
			<g>
				<path class="st23" d="M368.2,499.2c-0.3,0-0.4-0.2-0.4-0.6c0-0.3,0.2-0.5,0.5-0.5c0.4,0,0.8,0,1.3,0c1,0,1.3,0,1.3-0.4
					c0-0.3-0.2-0.4-0.7-0.5l-1.2-0.3c-0.9-0.2-1.2-0.7-1.2-1.5c0-1,0.6-1.4,2.1-1.4c0.6,0,1.3,0,1.8,0.1c0.3,0,0.4,0.2,0.4,0.5
					c0,0.3-0.2,0.5-0.5,0.5c-0.5,0-1,0-1.5,0c-0.8,0-0.9,0-0.9,0.3c0,0.3,0.2,0.4,0.6,0.5l1.3,0.3c0.8,0.2,1.2,0.6,1.2,1.5
					c0,1.2-0.7,1.5-2.3,1.5C369.7,499.3,369,499.3,368.2,499.2z"/>
			</g>
		</g>
		<g>
			<g>
				<path class="st23" d="M269.7,503.9c0,1,0.8,1.7,1.7,1.7h12.8c1,0,1.7-0.8,1.7-1.7V494h-16.3V503.9z M281.4,496.7
					c0-0.2,0.2-0.4,0.4-0.4h1.5c0.2,0,0.4,0.2,0.4,0.4v1.5c0,0.2-0.2,0.4-0.4,0.4h-1.5c-0.2,0-0.4-0.2-0.4-0.4V496.7z M281.4,501.4
					c0-0.2,0.2-0.4,0.4-0.4h1.5c0.2,0,0.4,0.2,0.4,0.4v1.5c0,0.2-0.2,0.4-0.4,0.4h-1.5c-0.2,0-0.4-0.2-0.4-0.4V501.4z M276.7,496.7
					c0-0.2,0.2-0.4,0.4-0.4h1.5c0.2,0,0.4,0.2,0.4,0.4v1.5c0,0.2-0.2,0.4-0.4,0.4h-1.5c-0.2,0-0.4-0.2-0.4-0.4V496.7z M276.7,501.4
					c0-0.2,0.2-0.4,0.4-0.4h1.5c0.2,0,0.4,0.2,0.4,0.4v1.5c0,0.2-0.2,0.4-0.4,0.4h-1.5c-0.2,0-0.4-0.2-0.4-0.4V501.4z M272,496.7
					c0-0.2,0.2-0.4,0.4-0.4h1.5c0.2,0,0.4,0.2,0.4,0.4v1.5c0,0.2-0.2,0.4-0.4,0.4h-1.5c-0.2,0-0.4-0.2-0.4-0.4V496.7z M272,501.4
					c0-0.2,0.2-0.4,0.4-0.4h1.5c0.2,0,0.4,0.2,0.4,0.4v1.5c0,0.2-0.2,0.4-0.4,0.4h-1.5c-0.2,0-0.4-0.2-0.4-0.4V501.4z M284.3,489.3
					h-1.7v-1.7c0-0.3-0.3-0.6-0.6-0.6h-1.2c-0.3,0-0.6,0.3-0.6,0.6v1.7h-4.7v-1.7c0-0.3-0.3-0.6-0.6-0.6h-1.2
					c-0.3,0-0.6,0.3-0.6,0.6v1.7h-1.7c-1,0-1.7,0.8-1.7,1.7v1.7H286v-1.7C286,490.1,285.2,489.3,284.3,489.3z"/>
			</g>
		</g>
	</g>
	<g id="XMLID_00000076596780277544356710000017248466670624103612_">
		<g id="XMLID_00000114040590379342394360000010142269299787867787_">
			<g id="XMLID_00000058568234931930899160000004223355232570134713_">
				<path id="XMLID_00000150808164505108092850000014272265508752048274_" class="st5" d="M393.9,458.4l-5.1,0
					c0-0.1-0.1-0.1-0.1-0.2v-3.8l-1.9,0.9c-0.3-0.3-0.6-0.6-0.9-0.9l3.6-2.1c0.7-0.4,0.7-1,0-1.4l-5.7-3.3c-0.7-0.4-1.8-0.4-2.5,0
					l-3.6,2.1c-2.1-0.7-4.3-1.2-6.5-1.6l0-3c0-0.6-0.8-1-1.7-1l-8.1,0c-1,0-1.8,0.4-1.8,1l0,3c-2.3,0.3-4.6,0.9-6.7,1.6l-3.6-2.1
					c-0.7-0.4-1.8-0.4-2.5,0l-5.7,3.3c-0.7,0.4-0.7,1,0,1.4l3.6,2.1c-0.3,0.3-0.6,0.6-0.8,0.8l-2-1.1v4l-5,0c-1,0-1.8,0.4-1.8,1
					l-0.1,4.7c0,0.6,0.8,1,1.7,1l5.1,0c0.6,1.4,1.5,2.7,2.8,3.9l-3.6,2.1c-0.7,0.4-0.7,1,0,1.4l5.7,3.3c0.7,0.4,1.8,0.4,2.5,0
					l3.6-2.1c2,0.7,4.2,1.2,6.5,1.6l0,2.9c0,0.6,0.8,1,1.7,1l8.1,0c1,0,1.8-0.4,1.8-1l0-2.9c2.4-0.3,4.7-0.9,6.8-1.6l3.6,2.1
					c0.7,0.4,1.8,0.4,2.5,0l5.7-3.3c0.7-0.4,0.7-1,0-1.4l-3.6-2.1c1.2-1.2,2.1-2.4,2.7-3.7l5.1,0c1,0,1.8-0.4,1.8-1l0.1-4.7
					C395.6,458.8,394.8,458.4,393.9,458.4z M356.5,456.5c4.9-2.8,12.8-2.8,17.7,0c1.7,1,2.7,2.1,3.3,3.3l-0.8,0.4l-16.4,4.1l-7.2-4
					C353.5,458.9,354.6,457.6,356.5,456.5z"/>
				<path id="XMLID_00000142175086817101992070000017559794216342562201_" class="st53" d="M369.2,479.4
					C369.2,479.4,369.2,479.4,369.2,479.4l-8.1,0c-0.7,0-1.4-0.2-1.8-0.6c-0.2-0.2-0.3-0.5-0.3-0.8l0-2.6c-2.1-0.3-4.2-0.8-6.1-1.5
					l-3.5,2c-0.8,0.5-2,0.5-2.8,0l-5.7-3.3c-0.4-0.3-0.7-0.6-0.7-1c0-0.4,0.3-0.8,0.7-1l3.2-1.8c-1.1-1.1-1.9-2.3-2.4-3.5l-4.9,0
					c-0.7,0-1.4-0.2-1.8-0.6c-0.2-0.2-0.3-0.5-0.3-0.8l0.1-4.7c0-0.8,0.9-1.4,2.1-1.4c0,0,0,0,0,0l4.7,0v-4.3l2.3,1.3
					c0.1-0.1,0.2-0.2,0.3-0.3l-3.2-1.8c-0.4-0.3-0.7-0.6-0.7-1c0-0.4,0.3-0.8,0.7-1l5.7-3.3c0.8-0.5,2-0.5,2.8,0l3.5,2
					c2-0.7,4.1-1.2,6.3-1.5l0-2.7c0-0.8,0.9-1.4,2.1-1.4c0,0,0,0,0,0l8.1,0c0.7,0,1.4,0.2,1.8,0.6c0.2,0.2,0.3,0.5,0.3,0.8l0,2.6
					c2.1,0.3,4.2,0.8,6.1,1.5l3.5-2c0.8-0.5,2-0.5,2.8,0l5.7,3.3c0.4,0.3,0.7,0.6,0.7,1c0,0.4-0.3,0.8-0.7,1l-3.2,1.8
					c0.1,0.1,0.2,0.2,0.3,0.4l2.2-1.1v4.2l4.8,0c0.7,0,1.4,0.2,1.8,0.6c0.2,0.2,0.3,0.5,0.3,0.8l-0.1,4.7c0,0.8-0.9,1.4-2.1,1.4
					c0,0,0,0,0,0l-4.9,0c-0.5,1.2-1.3,2.3-2.3,3.3l3.2,1.8c0.4,0.3,0.7,0.6,0.7,1c0,0.4-0.3,0.8-0.7,1l-5.7,3.3
					c-0.8,0.5-2,0.5-2.8,0l-3.5-2c-2,0.7-4.2,1.2-6.4,1.5l0,2.6C371.3,478.8,370.4,479.4,369.2,479.4z M352.8,473.1l0.2,0.1
					c2,0.7,4.2,1.2,6.4,1.5l0.3,0l0,3.3c0,0.1,0,0.2,0.1,0.2c0.2,0.2,0.7,0.4,1.2,0.4l8.1,0c0,0,0,0,0,0c0.8,0,1.4-0.4,1.4-0.6
					l0-3.2l0.3,0c2.4-0.3,4.7-0.9,6.8-1.6l0.2-0.1l3.8,2.2c0.6,0.3,1.5,0.3,2.1,0l5.7-3.3c0.2-0.1,0.3-0.3,0.3-0.4
					c0-0.1-0.1-0.3-0.3-0.4l-4.1-2.3l0.4-0.3c1.2-1.1,2.1-2.4,2.6-3.6l0.1-0.2l5.4,0c0,0,0,0,0,0c0.8,0,1.4-0.4,1.4-0.6l0.1-4.7
					c0-0.1,0-0.2-0.1-0.2c-0.2-0.2-0.7-0.4-1.2-0.4l-5.4,0l-0.2-0.6v-3.2l-1.6,0.8l-0.2-0.2c-0.3-0.3-0.5-0.6-0.8-0.9l-0.4-0.3
					l4-2.3c0.2-0.1,0.3-0.3,0.3-0.4c0-0.1-0.1-0.3-0.3-0.4l-5.7-3.3c-0.6-0.3-1.5-0.3-2.1,0l-3.8,2.2l-0.2-0.1
					c-2-0.7-4.2-1.2-6.4-1.5l-0.3,0l0-3.3c0-0.1,0-0.2-0.1-0.2c-0.2-0.2-0.7-0.4-1.2-0.4l-8.1,0c0,0,0,0,0,0c-0.8,0-1.4,0.4-1.4,0.6
					l0,3.3l-0.3,0c-2.4,0.3-4.6,0.9-6.7,1.6l-0.2,0.1l-3.7-2.2c-0.6-0.3-1.5-0.3-2.1,0l-5.7,3.3c-0.2,0.1-0.3,0.3-0.3,0.4
					c0,0.1,0.1,0.3,0.3,0.4l4,2.3l-0.4,0.3c-0.3,0.3-0.5,0.5-0.8,0.8l-0.2,0.2l-1.7-0.9v3.7l-5.4,0c0,0,0,0,0,0
					c-0.8,0-1.4,0.4-1.4,0.6l-0.1,4.7c0,0.1,0,0.2,0.1,0.2c0.2,0.2,0.7,0.4,1.2,0.4l5.4,0l0.1,0.2c0.6,1.3,1.5,2.6,2.7,3.8l0.4,0.3
					l-4,2.3c-0.2,0.1-0.3,0.3-0.3,0.4c0,0.1,0.1,0.3,0.3,0.4l5.7,3.3c0.6,0.3,1.5,0.3,2.1,0L352.8,473.1z M360.2,464.7l-7.6-4.2
					l0.1-0.3c0.5-1.5,1.7-2.9,3.6-4l0,0c5-2.9,13.1-2.9,18.1,0c1.7,1,2.9,2.2,3.4,3.5l0.1,0.3l-1.2,0.6L360.2,464.7z M353.5,460.1
					l6.8,3.8l16.2-4l0.4-0.2c-0.6-1.1-1.6-2-3-2.8c-4.8-2.8-12.5-2.8-17.3,0l0,0C355.1,457.7,354,458.9,353.5,460.1z"/>
			</g>
			<g id="XMLID_00000146477668816627626640000001331852772573519523_">
				<polygon id="XMLID_00000178893152116745216570000002564898633106982072_" class="st5" points="340.6,441 340.6,448.3 
					349.3,447.6 348.9,442.3 				"/>
				<path id="XMLID_00000083059650970455585390000008238874977025088667_" class="st53" d="M340.2,448.7v-7.5c0-0.3,0.3-0.5,0.6-0.5
					l8.4,1.3l0.4,5.9L340.2,448.7z M341,441.5v6.4l7.9-0.7l-0.3-4.6L341,441.5z"/>
			</g>
			<path id="XMLID_00000060019442008970362610000002209733443766534071_" class="st53" d="M389.4,450.3c-4.1,0-4.2-0.6-4.3-0.9
				c-0.1-0.4-2-3.6-3.8-6.4l-0.3-0.5l9.3-2v9.7l-0.4,0C389.8,450.3,389.6,450.3,389.4,450.3z M385.8,449.2c0.4,0.2,2.1,0.4,3.8,0.4
				v-8l-7.4,1.6C383.3,444.8,385.6,448.4,385.8,449.2z"/>
			<g id="XMLID_00000100377443622969934870000004853738668648373655_">
				<path id="XMLID_00000095329133870519245010000008430212623378261177_" class="st5" d="M376.9,444.1l-11.6-3.7l-12.9,5.5l0.1,7.5
					l4.5,2.9h0c4.8-2.5,12-2.5,16.7,0h0l5.1-1.4c0,0,0.9-3.1,0.4-5.9L376.9,444.1z"/>
				<path id="XMLID_00000035513598512956298390000008291436655181426321_" class="st53" d="M373.8,456.6l-0.2,0
					c-4.7-2.4-11.7-2.4-16.4,0l-0.2,0h-0.1l-0.1-0.1l-4.7-3l-0.1-7.9l13.3-5.7l11.9,3.8l2.4,5.1c0.5,2.9-0.4,6-0.4,6.1l-0.1,0.2
					L373.8,456.6z M365.3,454c3,0,6,0.6,8.4,1.9l4.8-1.3c0.2-0.7,0.7-3.2,0.4-5.5l-2.2-4.7l-11.3-3.6l-12.6,5.4l0.1,7l4.1,2.7
					C359.4,454.6,362.3,454,365.3,454z"/>
			</g>
			<g id="XMLID_00000062153945955669497640000009699170007350508974_">
				<path id="XMLID_00000122718760746614254790000010439938641441762442_" class="st5" d="M393.9,451l-5.2,1.3c0-0.1,0,5.8,0,5.8
					v6.9l5.1,0c1,0,1.8-0.4,1.8-1l0.1-12C395.6,451.5,394.8,451.1,393.9,451z"/>
				<path id="XMLID_00000121970595516123070140000002167345877561800591_" class="st53" d="M393.8,465.4
					C393.8,465.4,393.8,465.4,393.8,465.4l-5.5,0l0-7.6c0-0.5,0-1.7,0-2.6c0-3.1,0-3.1,0.3-3.2l5.3-1.3c0.7,0,1.4,0.2,1.8,0.6
					c0.2,0.2,0.3,0.5,0.3,0.8l-0.1,12C395.9,464.8,395,465.4,393.8,465.4z M389.1,464.6l4.7,0c0,0,0,0,0,0c0.8,0,1.4-0.4,1.4-0.6
					l0.1-12c0-0.1,0-0.2-0.1-0.2c-0.2-0.2-0.7-0.4-1.2-0.4l-4.9,1.3c0,0.5,0,1.6,0,2.5c0,1.7,0,2.5,0,2.9l0,0V464.6z"/>
			</g>
			<g id="XMLID_00000069372816774353264220000018035977838111611018_">
				<path id="XMLID_00000072270756733624219810000018046669317792789680_" class="st5" d="M336.8,450.9l5.2,1.3c0-0.1,0,5.8,0,5.8
					v6.9l-5.1,0c-1,0-1.8-0.4-1.8-1l-0.1-12C335,451.4,335.8,450.9,336.8,450.9z"/>
				<path id="XMLID_00000104680552739490249300000003038971824333681037_" class="st53" d="M336.8,465.3c-1.2,0-2.1-0.6-2.1-1.4
					l-0.1-12c0-0.3,0.1-0.5,0.3-0.8c0.4-0.4,1-0.6,1.8-0.6l0.1,0l5.2,1.3c0.3,0.1,0.3,0.1,0.3,3.2c0,1,0,2.1,0,2.6l0,0l0,7.6
					L336.8,465.3C336.9,465.3,336.8,465.3,336.8,465.3z M336.7,451.3c-0.5,0-1,0.2-1.2,0.4c-0.1,0.1-0.1,0.2-0.1,0.2l0.1,12
					c0,0.3,0.5,0.6,1.4,0.6c0,0,0,0,0,0l4.8,0l0-6.5c0-0.4,0-1.2,0-2.9c0-1,0-2,0-2.5L336.7,451.3z"/>
			</g>
			<g id="XMLID_00000076578848522377474360000013595007480589226684_">
				<path id="XMLID_00000180334276192670083470000006801302144179900572_" class="st5" d="M359.4,475.1c0,0,0,2.7,0,2.7v0.3
					c0,0.6,0.8,1,1.7,1l8.1,0c1,0,1.8-0.4,1.8-1v0v-10.7l-11.6-0.3V475.1z"/>
				<path id="XMLID_00000095318198727848164700000006517527533596987553_" class="st53" d="M369.2,479.4
					C369.2,479.4,369.2,479.4,369.2,479.4l-8.1,0c-1.2,0-2.1-0.6-2.1-1.4v-0.3c0-0.8,0-1.8,0-2.4l0,0v-8.7l12.3,0.3v11.1
					C371.3,478.8,370.4,479.4,369.2,479.4z M359.7,475.1c0,0.4,0,1.1,0,2.7v0.3c0,0.3,0.5,0.6,1.4,0.6l8.1,0c0,0,0,0,0,0
					c0.8,0,1.4-0.4,1.4-0.6v-10.3l-10.8-0.3L359.7,475.1z"/>
			</g>
			<g id="XMLID_00000104694377781934984410000013407180229108297138_">
				<path id="XMLID_00000076599487790140921950000008619316905988108434_" class="st5" d="M347.1,461.1l-6.5-0.2v3.9
					c0,0,0,6.5,0,6.7l0,0c0,0.3,0.2,0.5,0.5,0.7l5.7,3.3c0.7,0.4,1.8,0.4,2.5,0l3.6-2.1v-10.7L347.1,461.1z"/>
				<path id="XMLID_00000109019099459368331500000002181765955234428349_" class="st53" d="M348,476.3c-0.5,0-1-0.1-1.4-0.3
					l-5.7-3.3c-0.4-0.3-0.7-0.6-0.7-1v-10.5c0-0.3,0.3-0.6,0.6-0.6l6.4,0.2l6.1,1.8v11.2l-3.8,2.2
					C349.1,476.2,348.5,476.3,348,476.3z M340.9,461.3v10.3c0,0.1,0.1,0.3,0.3,0.4l5.7,3.3c0.6,0.3,1.5,0.3,2.1,0l3.4-2v-10.2
					l-5.5-1.7L340.9,461.3z"/>
			</g>
			<g id="XMLID_00000031189383430446150120000003181532867429381535_">
				<path id="XMLID_00000101797268655976571900000013332851458960871859_" class="st5" d="M383.6,461l6.5-0.2v3.9c0,0,0,6.5,0,6.7
					l0,0c0,0.3-0.2,0.5-0.5,0.7l-5.7,3.3c-0.7,0.4-1.8,0.4-2.5,0l-3.6-2.1l0-10.7L383.6,461z"/>
				<path id="XMLID_00000062884475146974805960000007778058420757053067_" class="st53" d="M382.7,476.2c-0.5,0-1-0.1-1.4-0.3
					l-3.8-2.2v-11.2l6.2-1.9l6.2-0.2c0.4,0,0.7,0.3,0.7,0.6v3.7c0,0,0,6.5,0,6.7c0,0.4-0.3,0.8-0.7,1l-5.7,3.3
					C383.7,476.1,383.2,476.2,382.7,476.2z M378.2,473.3l3.4,2c0.6,0.3,1.5,0.3,2.1,0l5.7-3.3c0.2-0.1,0.3-0.3,0.3-0.4
					c0-0.3,0-6.8,0-6.8v-3.6l-6.1,0.1l-5.5,1.7V473.3z"/>
			</g>
			<path id="XMLID_00000133520053384041575540000014226848108365660569_" class="st5" d="M383.8,436.9c-0.7-0.4-1.8-0.4-2.5,0
				l-3.6,2.1c-2.1-0.7-4.3-1.2-6.5-1.6l0-3c0-0.6-0.8-1-1.7-1l-8.1,0c-1,0-1.8,0.4-1.8,1l0,3c-2.3,0.3-4.6,0.9-6.7,1.6l-3.6-2.1
				c-0.7-0.4-1.8-0.4-2.5,0l-5.7,3.3c-0.7,0.4-0.7,1,0,1.4l3.6,2.1c-1.2,1.2-2.1,2.4-2.7,3.7l-5.1,0c-1,0-1.8,0.4-1.8,1l-0.1,4.7
				c0,0.6,0.8,1,1.7,1l5.1,0c0.6,1.4,1.5,2.7,2.8,3.9l-3.6,2.1c-0.7,0.4-0.7,1,0,1.4l5.7,3.3c0.7,0.4,1.8,0.4,2.5,0l3.6-2.1
				c2,0.7,4.2,1.2,6.5,1.6l0,2.9c0,0.6,0.8,1,1.7,1l8.1,0c1,0,1.8-0.4,1.8-1l0-2.9c2.4-0.3,4.7-0.9,6.8-1.6l3.6,2.1
				c0.7,0.4,1.8,0.4,2.5,0l5.7-3.3c0.7-0.4,0.7-1,0-1.4l-3.6-2.1c1.2-1.2,2.1-2.4,2.7-3.7l5.1,0c1,0,1.8-0.4,1.8-1l0.1-4.7
				c0-0.6-0.8-1-1.7-1l-5.1,0c-0.6-1.4-1.5-2.7-2.8-4l3.6-2.1c0.7-0.4,0.7-1,0-1.4L383.8,436.9z M374.2,456
				c-4.9,2.8-12.8,2.8-17.7,0c-4.9-2.8-4.9-7.4,0-10.2c4.9-2.8,12.8-2.8,17.7,0C379,448.6,379,453.2,374.2,456z"/>
			<path id="XMLID_00000119815098648192846900000000359450881485988261_" class="st53" d="M369.2,468.7
				C369.2,468.7,369.2,468.7,369.2,468.7l-8.1,0c-0.7,0-1.4-0.2-1.8-0.6c-0.2-0.2-0.3-0.5-0.3-0.8l0-2.6c-2.1-0.3-4.2-0.8-6.1-1.5
				l-3.5,2c-0.8,0.5-2,0.5-2.8,0l-5.7-3.3c-0.4-0.3-0.7-0.6-0.7-1c0-0.4,0.3-0.8,0.7-1l3.2-1.8c-1.1-1.1-1.9-2.3-2.4-3.5l-4.9,0
				c-0.7,0-1.4-0.2-1.8-0.6c-0.2-0.2-0.3-0.5-0.3-0.8l0.1-4.7c0-0.8,0.9-1.4,2.1-1.4c0,0,0,0,0,0l4.9,0c0.5-1.2,1.3-2.3,2.3-3.3
				l-3.2-1.8c-0.4-0.3-0.7-0.6-0.7-1c0-0.4,0.3-0.8,0.7-1l5.7-3.3c0.8-0.5,2-0.5,2.8,0l3.5,2c2-0.7,4.1-1.2,6.3-1.5l0-2.7
				c0-0.8,0.9-1.4,2.1-1.4c0,0,0,0,0,0l8.1,0c0.7,0,1.4,0.2,1.8,0.6c0.2,0.2,0.3,0.5,0.3,0.8l0,2.6c2.1,0.3,4.2,0.8,6.1,1.5l3.5-2
				c0.8-0.5,2-0.5,2.8,0l5.7,3.3c0.4,0.3,0.7,0.6,0.7,1c0,0.4-0.3,0.8-0.7,1l-3.2,1.8c1.1,1.1,1.9,2.3,2.5,3.5l4.9,0
				c0.7,0,1.4,0.2,1.8,0.6c0.2,0.2,0.3,0.5,0.3,0.8l-0.1,4.7c0,0.8-0.9,1.4-2.1,1.4c0,0,0,0,0,0l-4.9,0c-0.5,1.2-1.3,2.3-2.3,3.3
				l3.2,1.8c0.4,0.3,0.7,0.6,0.7,1c0,0.4-0.3,0.8-0.7,1l-5.7,3.3c-0.8,0.5-2,0.5-2.8,0l-3.5-2c-2,0.7-4.2,1.2-6.4,1.5l0,2.6
				C371.3,468.1,370.4,468.7,369.2,468.7z M352.8,462.4l0.2,0.1c2,0.7,4.2,1.2,6.4,1.5l0.3,0l0,3.3c0,0.1,0,0.2,0.1,0.2
				c0.2,0.2,0.7,0.4,1.2,0.4l8.1,0c0,0,0,0,0,0c0.8,0,1.4-0.4,1.4-0.6l0-3.2l0.3,0c2.4-0.3,4.7-0.9,6.8-1.6l0.2-0.1l3.8,2.2
				c0.6,0.3,1.5,0.3,2.1,0l5.7-3.3c0.2-0.1,0.3-0.3,0.3-0.4c0-0.1-0.1-0.3-0.3-0.4l-4.1-2.3l0.4-0.3c1.2-1.1,2.1-2.4,2.6-3.6
				l0.1-0.2l5.4,0c0,0,0,0,0,0c0.8,0,1.4-0.4,1.4-0.6l0.1-4.7c0-0.1,0-0.2-0.1-0.2c-0.2-0.2-0.7-0.4-1.2-0.4l-5.4,0l-0.1-0.2
				c-0.6-1.4-1.5-2.6-2.7-3.8l-0.4-0.3l4-2.3c0.2-0.1,0.3-0.3,0.3-0.4c0-0.1-0.1-0.3-0.3-0.4l-5.7-3.3c-0.6-0.3-1.5-0.3-2.1,0
				l-3.8,2.2l-0.2-0.1c-2-0.7-4.2-1.2-6.4-1.5l-0.3,0l0-3.3c0-0.1,0-0.2-0.1-0.2c-0.2-0.2-0.7-0.4-1.2-0.4l-8.1,0c0,0,0,0,0,0
				c-0.8,0-1.4,0.4-1.4,0.6l0,3.3l-0.3,0c-2.4,0.3-4.6,0.9-6.7,1.6l-0.2,0.1l-3.7-2.2c-0.6-0.3-1.5-0.3-2.1,0l-5.7,3.3
				c-0.2,0.1-0.3,0.3-0.3,0.4c0,0.1,0.1,0.3,0.3,0.4l4,2.3l-0.4,0.3c-1.2,1.1-2.1,2.4-2.6,3.6l-0.1,0.2l-5.4,0c0,0,0,0,0,0
				c-0.8,0-1.4,0.4-1.4,0.6l-0.1,4.7c0,0.1,0,0.2,0.1,0.2c0.2,0.2,0.7,0.4,1.2,0.4l5.4,0l0.1,0.2c0.6,1.3,1.5,2.6,2.7,3.8l0.4,0.3
				l-4,2.3c-0.2,0.1-0.3,0.3-0.3,0.4c0,0.1,0.1,0.3,0.3,0.4l5.7,3.3c0.6,0.3,1.5,0.3,2.1,0L352.8,462.4z M365.3,458.5
				c-3.3,0-6.5-0.7-9-2.2c-2.5-1.4-3.8-3.4-3.8-5.4c0-2.1,1.4-4,3.8-5.4c5-2.9,13.1-2.9,18.1,0c2.5,1.4,3.8,3.4,3.8,5.4
				c0,2.1-1.4,4-3.8,5.4l0,0C371.9,457.8,368.6,458.5,365.3,458.5z M365.3,444.1c-3.1,0-6.3,0.7-8.7,2.1c-2.2,1.3-3.5,3-3.5,4.8
				c0,1.8,1.2,3.5,3.5,4.8c4.8,2.8,12.5,2.8,17.3,0l0,0c2.2-1.3,3.5-3,3.5-4.8c0-1.8-1.2-3.5-3.5-4.8
				C371.6,444.7,368.5,444.1,365.3,444.1z"/>
			<polygon id="XMLID_00000032643425970035664410000015821388864970474673_" class="st53" points="370.6,464.7 370.6,475.1 
				378.2,473.5 378.2,463.1 			"/>
			<polygon id="XMLID_00000062904340145844354790000008304308190806887305_" class="st53" points="382.8,465.2 382.8,475.9 
				387.4,473.5 390,471.9 390.1,461.3 384.2,464.7 			"/>
			<polygon id="XMLID_00000039821699970187196260000001438866164830550659_" class="st53" points="348.1,465.2 348.1,475.9 
				353.2,473.5 353.2,462.8 			"/>
			<polygon id="XMLID_00000016771276233243930320000001767557568289249979_" class="st53" points="363.8,443.7 363.8,454.4 
				358.6,455.4 357,456.2 353.5,453.9 352.6,450.4 355.6,445.9 			"/>
			<polygon id="XMLID_00000028315038216687594780000000981590161669918601_" class="st53" points="365.7,443.7 365.7,454.2 
				369.2,454.7 369.2,443.9 			"/>
			<path id="XMLID_00000000197532094353834970000016651897668382836653_" class="st53" d="M390,441v6.5c0,0-1.4,0.5-1.9-1.2
				c-0.2-0.6-2.2-2.8-2.2-2.8L390,441z"/>
			
				<rect id="XMLID_00000092434392050133060750000008247289633984294591_" x="341.6" y="454.4" class="st53" width="0.7" height="3.8"/>
			<polygon id="XMLID_00000111160283166444065360000001350442710702321291_" class="st53" points="386.2,457.9 389.1,454.4 
				389.1,459.7 			"/>
		</g>
		<g id="XMLID_00000047761290860253299930000013241615748427817880_">
			<g id="XMLID_00000098207827179994472050000010680586764593968301_">
				<path id="XMLID_00000070835703942258325540000015709583066192776849_" class="st5" d="M342.8,473.2l-3.5,0c0,0,0-0.1-0.1-0.1
					v-2.6l-1.3,0.6c-0.2-0.2-0.4-0.4-0.6-0.6l2.5-1.4c0.5-0.3,0.5-0.7,0-1l-4-2.3c-0.5-0.3-1.2-0.3-1.7,0l-2.5,1.5
					c-1.4-0.5-2.9-0.9-4.5-1.1l0-2.1c0-0.4-0.5-0.7-1.2-0.7l-5.6,0c-0.7,0-1.2,0.3-1.2,0.7l0,2.1c-1.6,0.2-3.2,0.6-4.7,1.1l-2.5-1.4
					c-0.5-0.3-1.2-0.3-1.7,0l-4,2.3c-0.5,0.3-0.5,0.7,0,1l2.5,1.4c-0.2,0.2-0.4,0.4-0.6,0.6l-1.4-0.8v2.8l-3.5,0
					c-0.7,0-1.2,0.3-1.2,0.7l0,3.2c0,0.4,0.5,0.7,1.2,0.7l3.5,0c0.4,1,1,1.9,1.9,2.7l-2.5,1.5c-0.5,0.3-0.5,0.7,0,1l4,2.3
					c0.5,0.3,1.2,0.3,1.7,0l2.5-1.4c1.4,0.5,2.9,0.9,4.5,1.1l0,2c0,0.4,0.5,0.7,1.2,0.7l5.6,0c0.7,0,1.2-0.3,1.2-0.7l0-2
					c1.6-0.2,3.2-0.6,4.7-1.1l2.5,1.5c0.5,0.3,1.2,0.3,1.7,0l4-2.3c0.5-0.3,0.5-0.7,0-1l-2.5-1.5c0.9-0.8,1.5-1.7,1.9-2.6l3.5,0
					c0.7,0,1.2-0.3,1.2-0.7l0-3.2C344.1,473.5,343.5,473.2,342.8,473.2z M316.9,471.9c3.4-2,8.9-2,12.3,0c1.1,0.7,1.9,1.5,2.3,2.3
					l-0.6,0.3l-11.4,2.8l-5-2.8C314.8,473.6,315.6,472.6,316.9,471.9z"/>
				<path id="XMLID_00000090256765475215656760000014211942246175849143_" class="st53" d="M325.7,487.8
					C325.7,487.8,325.7,487.8,325.7,487.8l-5.6,0c-0.5,0-1-0.2-1.2-0.4c-0.2-0.2-0.2-0.3-0.2-0.5l0-1.8c-1.5-0.2-2.9-0.6-4.2-1
					l-2.4,1.4c-0.6,0.3-1.4,0.3-2,0l-4-2.3c-0.3-0.2-0.5-0.4-0.5-0.7c0-0.3,0.2-0.5,0.5-0.7l2.2-1.3c-0.7-0.8-1.3-1.6-1.7-2.4
					l-3.4,0c-0.5,0-1-0.2-1.2-0.4c-0.2-0.2-0.2-0.3-0.2-0.5l0-3.2c0-0.5,0.7-1,1.5-1c0,0,0,0,0,0l3.2,0v-3l1.6,0.9
					c0.1-0.1,0.1-0.1,0.2-0.2l-2.2-1.3c-0.3-0.2-0.5-0.4-0.5-0.7c0-0.3,0.2-0.5,0.5-0.7l4-2.3c0.6-0.3,1.4-0.3,2,0l2.4,1.4
					c1.4-0.5,2.9-0.8,4.4-1.1l0-1.8c0-0.5,0.7-1,1.5-1c0,0,0,0,0,0l5.6,0c0.5,0,1,0.2,1.2,0.4c0.2,0.2,0.2,0.3,0.2,0.5l0,1.8
					c1.5,0.2,2.9,0.6,4.2,1l2.4-1.4c0.6-0.3,1.4-0.3,2,0l4,2.3c0.3,0.2,0.5,0.4,0.5,0.7c0,0.3-0.2,0.5-0.5,0.7l-2.2,1.3
					c0.1,0.1,0.2,0.2,0.2,0.2l1.5-0.7v2.9l3.3,0c0.5,0,1,0.2,1.2,0.4c0.2,0.2,0.2,0.3,0.2,0.5l0,3.2c0,0.5-0.7,0.9-1.5,0.9
					c0,0,0,0,0,0l-3.4,0c-0.4,0.8-0.9,1.6-1.6,2.3l2.2,1.3c0.3,0.2,0.5,0.4,0.5,0.7c0,0.3-0.2,0.5-0.5,0.7l-4,2.3
					c-0.6,0.3-1.4,0.3-2,0l-2.4-1.4c-1.4,0.5-2.9,0.8-4.4,1.1l0,1.8C327.2,487.4,326.5,487.8,325.7,487.8z M314.4,483.4l0.1,0
					c1.4,0.5,2.9,0.8,4.4,1.1l0.2,0l0,2.3c0,0.1,0,0.1,0.1,0.2c0.2,0.2,0.5,0.3,0.9,0.3l5.6,0c0,0,0,0,0,0c0.6,0,0.9-0.3,1-0.4
					l0-2.2l0.2,0c1.7-0.2,3.2-0.6,4.7-1.1l0.1,0l2.6,1.5c0.4,0.2,1.1,0.2,1.5,0l4-2.3c0.1-0.1,0.2-0.2,0.2-0.3
					c0-0.1-0.1-0.2-0.2-0.3l-2.8-1.6l0.2-0.2c0.8-0.8,1.4-1.6,1.8-2.5l0.1-0.2l3.7,0c0,0,0,0,0,0c0.6,0,0.9-0.3,1-0.4l0-3.2
					c0-0.1,0-0.1-0.1-0.2c-0.2-0.2-0.5-0.3-0.9-0.3l-3.7,0l-0.1-0.4v-2.2l-1.1,0.5l-0.1-0.1c-0.2-0.2-0.4-0.4-0.6-0.6l-0.3-0.2
					l2.8-1.6c0.1-0.1,0.2-0.2,0.2-0.3c0-0.1-0.1-0.2-0.2-0.3l-4-2.3c-0.4-0.2-1.1-0.2-1.5,0l-2.6,1.5l-0.1,0
					c-1.4-0.5-2.9-0.8-4.5-1.1l-0.2,0l0-2.3c0-0.1,0-0.1-0.1-0.2c-0.2-0.2-0.5-0.3-0.9-0.3l-5.6,0c0,0,0,0,0,0c-0.6,0-0.9,0.3-1,0.4
					l0,2.3l-0.2,0c-1.6,0.2-3.2,0.6-4.6,1.1l-0.1,0l-2.6-1.5c-0.4-0.2-1.1-0.2-1.5,0l-4,2.3c-0.1,0.1-0.2,0.2-0.2,0.3
					c0,0.1,0.1,0.2,0.2,0.3l2.8,1.6l-0.3,0.2c-0.2,0.2-0.4,0.4-0.5,0.6l-0.1,0.2l-1.2-0.6v2.6l-3.7,0c0,0,0,0,0,0
					c-0.6,0-0.9,0.3-1,0.4l0,3.2c0,0.1,0,0.1,0.1,0.2c0.2,0.2,0.5,0.3,0.9,0.3l3.7,0l0.1,0.2c0.4,0.9,1,1.8,1.9,2.6l0.2,0.2
					l-2.8,1.6c-0.1,0.1-0.2,0.2-0.2,0.3c0,0.1,0.1,0.2,0.2,0.3l4,2.3c0.4,0.2,1.1,0.2,1.5,0L314.4,483.4z M319.5,477.6l-5.3-2.9
					l0.1-0.2c0.3-1.1,1.2-2,2.5-2.8l0,0c3.5-2,9.1-2,12.5,0c1.2,0.7,2,1.5,2.4,2.4l0.1,0.2l-0.8,0.4L319.5,477.6z M314.8,474.4
					l4.7,2.6l11.3-2.8l0.3-0.1c-0.4-0.7-1.1-1.4-2.1-2c-3.3-1.9-8.7-1.9-12,0l0,0C315.9,472.8,315.2,473.6,314.8,474.4z"/>
			</g>
			<g id="XMLID_00000117645378637945924900000010182689412875077769_">
				<polygon id="XMLID_00000142876727120877639740000009413978163824560516_" class="st5" points="305.9,461.2 305.9,466.2 
					311.9,465.7 311.7,462.1 				"/>
				<path id="XMLID_00000048482183427887985640000017016801822229718960_" class="st53" d="M305.6,466.5v-5.2c0-0.2,0.2-0.4,0.4-0.3
					l5.8,0.9l0.3,4.1L305.6,466.5z M306.2,461.5v4.5l5.5-0.5l-0.2-3.2L306.2,461.5z"/>
			</g>
			<path id="XMLID_00000026134394170381589350000007461910812505607578_" class="st53" d="M339.7,467.6c-2.8,0-2.9-0.4-3-0.6
				c-0.1-0.3-1.4-2.5-2.6-4.4l-0.2-0.3l6.5-1.4v6.7l-0.3,0C340,467.6,339.9,467.6,339.7,467.6z M337.3,466.8
				c0.2,0.2,1.5,0.3,2.6,0.2v-5.6l-5.1,1.1C335.5,463.8,337.1,466.3,337.3,466.8z"/>
			<g id="XMLID_00000179639376741109212250000017464566447663504796_">
				<path id="XMLID_00000135658921210635057560000017914925844961242282_" class="st5" d="M331.1,463.3l-8.1-2.6l-9,3.8l0,5.2l3.1,2
					h0c3.3-1.7,8.3-1.7,11.6,0h0l3.6-0.9c0,0,0.6-2.1,0.3-4.1L331.1,463.3z"/>
				<path id="XMLID_00000046330321940022631080000017705064875377791141_" class="st53" d="M328.9,472l-0.2,0
					c-3.2-1.7-8.1-1.7-11.4,0l-0.1,0h-0.1l-0.1,0l-3.2-2.1l0-5.5l9.2-3.9l8.3,2.6l1.7,3.5c0.3,2-0.3,4.1-0.3,4.2l0,0.1L328.9,472z
					 M323.1,470.2c2.1,0,4.2,0.4,5.8,1.3l3.3-0.9c0.1-0.5,0.5-2.2,0.2-3.8l-1.6-3.2l-7.9-2.5l-8.7,3.7l0,4.9l2.9,1.8
					C318.9,470.6,321,470.2,323.1,470.2z"/>
			</g>
			<g id="XMLID_00000183209529260259141840000004815768307996968832_">
				<path id="XMLID_00000164489609530296376370000017585055163569892265_" class="st5" d="M342.8,468.1l-3.6,0.9c0,0,0,4,0,4v4.8
					l3.5,0c0.7,0,1.2-0.3,1.2-0.7l0-8.3C344.1,468.4,343.5,468.1,342.8,468.1z"/>
				<path id="XMLID_00000182521496402563061610000017074745792463067020_" class="st53" d="M342.8,478.1
					C342.8,478.1,342.8,478.1,342.8,478.1l-3.8,0l0-5.2c0-0.4,0-1.1,0-1.8c0-2.2,0-2.2,0.2-2.2l3.7-0.9c0.5,0,1,0.2,1.2,0.4
					c0.2,0.2,0.2,0.3,0.2,0.5l0,8.3C344.3,477.7,343.6,478.1,342.8,478.1z M339.5,477.6l3.3,0c0,0,0,0,0,0c0.6,0,0.9-0.3,1-0.4
					l0-8.3c0-0.1,0-0.1-0.1-0.2c-0.2-0.2-0.5-0.3-0.8-0.3l-3.4,0.9c0,0.3,0,1.1,0,1.8c0,1.2,0,1.8,0,2l0,0V477.6z"/>
			</g>
			<g id="XMLID_00000075845988525738871260000011072323504555478200_">
				<path id="XMLID_00000066493025478869634450000010361398494689275533_" class="st5" d="M303.3,468l3.6,0.9c0,0,0,4,0,4v4.8
					l-3.6,0c-0.7,0-1.2-0.3-1.2-0.7l0-8.3C302.1,468.3,302.6,468,303.3,468z"/>
				<path id="XMLID_00000062893971194511728010000012686368477106254221_" class="st53" d="M303.3,478c-0.8,0-1.5-0.4-1.5-0.9l0-8.3
					c0-0.2,0.1-0.4,0.2-0.5c0.3-0.3,0.7-0.4,1.2-0.4l0.1,0l3.6,0.9c0.2,0,0.2,0,0.2,2.2c0,0.7,0,1.5,0,1.8l0,0l0,5.2L303.3,478
					C303.3,478,303.3,478,303.3,478z M303.2,468.3c-0.3,0-0.7,0.1-0.8,0.3c-0.1,0.1-0.1,0.1-0.1,0.2l0,8.3c0,0.2,0.4,0.4,1,0.4
					c0,0,0,0,0,0l3.3,0l0-4.5c0-0.3,0-0.8,0-2c0-0.7,0-1.4,0-1.8L303.2,468.3z"/>
			</g>
			<g id="XMLID_00000103247301295796220160000002374503953357542321_">
				<path id="XMLID_00000085932158961676335490000010282445228914630536_" class="st5" d="M318.9,484.8c0,0,0,1.9,0,1.9v0.2
					c0,0.4,0.5,0.7,1.2,0.7l5.6,0c0.7,0,1.2-0.3,1.2-0.7v0v-7.4l-8-0.2V484.8z"/>
				<path id="XMLID_00000138572748489937568820000007691853973866603144_" class="st53" d="M325.7,487.8
					C325.7,487.8,325.7,487.8,325.7,487.8l-5.6,0c-0.8,0-1.5-0.4-1.5-0.9v-0.2c0-0.5,0-1.3,0-1.6l0,0v-6l8.5,0.2v7.7
					C327.2,487.4,326.6,487.8,325.7,487.8z M319.1,484.8c0,0.3,0,0.8,0,1.9v0.2c0,0.2,0.4,0.4,0.9,0.4l5.6,0c0,0,0,0,0,0
					c0.6,0,0.9-0.3,1-0.4v-7.2l-7.5-0.2L319.1,484.8z"/>
			</g>
			<g id="XMLID_00000183971817972003981380000004787284215399059646_">
				<path id="XMLID_00000092439451719863492090000007374203322852004515_" class="st5" d="M310.4,475.1l-4.5-0.1v2.7
					c0,0,0,4.5,0,4.7l0,0c0,0.2,0.1,0.4,0.4,0.5l4,2.3c0.5,0.3,1.2,0.3,1.7,0l2.5-1.4v-7.4L310.4,475.1z"/>
				<path id="XMLID_00000091718931567493900730000017030306839186417814_" class="st53" d="M311.1,485.6c-0.4,0-0.7-0.1-1-0.2
					l-4-2.3c-0.3-0.2-0.5-0.4-0.5-0.7v-7.3c0-0.2,0.2-0.4,0.4-0.4l4.4,0.1l4.2,1.3v7.8l-2.6,1.5
					C311.8,485.5,311.4,485.6,311.1,485.6z M306.1,475.2v7.1c0,0.1,0.1,0.2,0.2,0.3l4,2.3c0.4,0.2,1.1,0.2,1.5,0l2.4-1.4v-7.1
					l-3.8-1.2L306.1,475.2z"/>
			</g>
			<g id="XMLID_00000166635938681563492790000012050234419917144752_">
				<path id="XMLID_00000164472329641645363650000015502890672421615029_" class="st5" d="M335.7,475l4.5-0.1v2.7c0,0,0,4.5,0,4.7
					l0,0c0,0.2-0.1,0.4-0.4,0.5l-4,2.3c-0.5,0.3-1.2,0.3-1.7,0l-2.5-1.4l0-7.4L335.7,475z"/>
				<path id="XMLID_00000119813617379050251740000000037658822752803975_" class="st53" d="M335.1,485.6c-0.4,0-0.7-0.1-1-0.2
					l-2.6-1.5v-7.8l4.3-1.3l4.3-0.1c0.2,0,0.5,0.2,0.5,0.4v2.5c0,0,0,4.5,0,4.7c0,0.3-0.2,0.5-0.5,0.7l-4,2.3
					C335.8,485.5,335.4,485.6,335.1,485.6z M332,483.5l2.4,1.4c0.4,0.2,1.1,0.2,1.5,0l4-2.3c0.1-0.1,0.2-0.2,0.2-0.3
					c0-0.2,0-4.7,0-4.7v-2.5l-4.2,0.1l-3.8,1.2V483.5z"/>
			</g>
			<path id="XMLID_00000047744712488352566250000002761453655408792763_" class="st5" d="M335.9,458.3c-0.5-0.3-1.2-0.3-1.7,0
				l-2.5,1.5c-1.4-0.5-2.9-0.9-4.5-1.1l0-2.1c0-0.4-0.5-0.7-1.2-0.7l-5.6,0c-0.7,0-1.2,0.3-1.2,0.7l0,2.1c-1.6,0.2-3.2,0.6-4.7,1.1
				l-2.5-1.4c-0.5-0.3-1.2-0.3-1.7,0l-4,2.3c-0.5,0.3-0.5,0.7,0,1l2.5,1.4c-0.9,0.8-1.5,1.7-1.9,2.6l-3.5,0c-0.7,0-1.2,0.3-1.2,0.7
				l0,3.2c0,0.4,0.5,0.7,1.2,0.7l3.5,0c0.4,1,1,1.9,1.9,2.7l-2.5,1.5c-0.5,0.3-0.5,0.7,0,1l4,2.3c0.5,0.3,1.2,0.3,1.7,0l2.5-1.4
				c1.4,0.5,2.9,0.9,4.5,1.1l0,2c0,0.4,0.5,0.7,1.2,0.7l5.6,0c0.7,0,1.2-0.3,1.2-0.7l0-2c1.6-0.2,3.2-0.6,4.7-1.1l2.5,1.5
				c0.5,0.3,1.2,0.3,1.7,0l4-2.3c0.5-0.3,0.5-0.7,0-1l-2.5-1.5c0.9-0.8,1.5-1.7,1.9-2.6l3.5,0c0.7,0,1.2-0.3,1.2-0.7l0-3.2
				c0-0.4-0.5-0.7-1.2-0.7l-3.5,0c-0.4-1-1.1-1.9-2-2.8l2.5-1.4c0.5-0.3,0.5-0.7,0-1L335.9,458.3z M329.2,471.6c-3.4,2-8.9,2-12.3,0
				c-3.4-2-3.4-5.1,0-7.1c3.4-2,8.9-2,12.3,0C332.6,466.4,332.6,469.6,329.2,471.6z"/>
			<path id="XMLID_00000143595839751179907930000015188273209306201738_" class="st53" d="M325.7,480.4
				C325.7,480.4,325.7,480.4,325.7,480.4l-5.6,0c-0.5,0-1-0.2-1.2-0.4c-0.2-0.2-0.2-0.3-0.2-0.5l0-1.8c-1.5-0.2-2.9-0.6-4.2-1
				l-2.4,1.4c-0.6,0.3-1.4,0.3-2,0l-4-2.3c-0.3-0.2-0.5-0.4-0.5-0.7c0-0.3,0.2-0.5,0.5-0.7l2.2-1.3c-0.7-0.8-1.3-1.6-1.7-2.4l-3.4,0
				c-0.5,0-1-0.2-1.2-0.4c-0.2-0.2-0.2-0.3-0.2-0.5l0-3.2c0-0.5,0.7-1,1.5-1c0,0,0,0,0,0l3.4,0c0.4-0.8,0.9-1.6,1.6-2.3l-2.2-1.3
				c-0.3-0.2-0.5-0.4-0.5-0.7c0-0.3,0.2-0.5,0.5-0.7l4-2.3c0.6-0.3,1.4-0.3,2,0l2.4,1.4c1.4-0.5,2.9-0.8,4.4-1.1l0-1.8
				c0-0.5,0.7-1,1.5-1c0,0,0,0,0,0l5.6,0c0.5,0,1,0.2,1.2,0.4c0.2,0.2,0.2,0.3,0.2,0.5l0,1.8c1.5,0.2,2.9,0.6,4.2,1l2.4-1.4
				c0.6-0.3,1.4-0.3,2,0l4,2.3c0.3,0.2,0.5,0.4,0.5,0.7c0,0.3-0.2,0.5-0.5,0.7l-2.2,1.3c0.8,0.8,1.3,1.6,1.7,2.4l3.4,0
				c0.5,0,1,0.2,1.2,0.4c0.2,0.2,0.2,0.3,0.2,0.5l0,3.2c0,0.5-0.7,0.9-1.5,0.9c0,0,0,0,0,0l-3.4,0c-0.4,0.8-0.9,1.6-1.6,2.3l2.2,1.3
				c0.3,0.2,0.5,0.4,0.5,0.7c0,0.3-0.2,0.5-0.5,0.7l-4,2.3c-0.6,0.3-1.4,0.3-2,0l-2.4-1.4c-1.4,0.5-2.9,0.8-4.4,1.1l0,1.8
				C327.2,480,326.5,480.4,325.7,480.4z M314.4,476l0.1,0c1.4,0.5,2.9,0.8,4.4,1.1l0.2,0l0,2.3c0,0.1,0,0.1,0.1,0.2
				c0.2,0.2,0.5,0.3,0.9,0.3l5.6,0c0,0,0,0,0,0c0.6,0,0.9-0.3,1-0.4l0-2.2l0.2,0c1.7-0.2,3.2-0.6,4.7-1.1l0.1,0l2.6,1.5
				c0.4,0.2,1.1,0.2,1.5,0l4-2.3c0.1-0.1,0.2-0.2,0.2-0.3c0-0.1-0.1-0.2-0.2-0.3l-2.8-1.6l0.2-0.2c0.8-0.8,1.4-1.6,1.8-2.5l0.1-0.2
				l3.7,0c0,0,0,0,0,0c0.6,0,0.9-0.3,1-0.4l0-3.2c0-0.1,0-0.1-0.1-0.2c-0.2-0.2-0.5-0.3-0.9-0.3l-3.7,0l-0.1-0.2
				c-0.4-0.9-1-1.8-1.9-2.7l-0.3-0.2l2.8-1.6c0.1-0.1,0.2-0.2,0.2-0.3c0-0.1-0.1-0.2-0.2-0.3l-4-2.3c-0.4-0.2-1.1-0.2-1.5,0
				l-2.6,1.5l-0.1,0c-1.4-0.5-2.9-0.8-4.5-1.1l-0.2,0l0-2.3c0-0.1,0-0.1-0.1-0.2c-0.2-0.2-0.5-0.3-0.9-0.3l-5.6,0c0,0,0,0,0,0
				c-0.6,0-0.9,0.3-1,0.4l0,2.3l-0.2,0c-1.6,0.2-3.2,0.6-4.6,1.1l-0.1,0l-2.6-1.5c-0.4-0.2-1.1-0.2-1.5,0l-4,2.3
				c-0.1,0.1-0.2,0.2-0.2,0.3c0,0.1,0.1,0.2,0.2,0.3l2.8,1.6l-0.2,0.2c-0.8,0.8-1.4,1.6-1.8,2.5l-0.1,0.2l-3.7,0c0,0,0,0,0,0
				c-0.6,0-0.9,0.3-1,0.4l0,3.2c0,0.1,0,0.1,0.1,0.2c0.2,0.2,0.5,0.3,0.9,0.3l3.7,0l0.1,0.2c0.4,0.9,1,1.8,1.9,2.6l0.2,0.2l-2.8,1.6
				c-0.1,0.1-0.2,0.2-0.2,0.3c0,0.1,0.1,0.2,0.2,0.3l4,2.3c0.4,0.2,1.1,0.2,1.5,0L314.4,476z M323.1,473.3c-2.3,0-4.5-0.5-6.3-1.5
				c-1.7-1-2.7-2.3-2.7-3.8c0-1.4,0.9-2.8,2.7-3.8c3.5-2,9.1-2,12.5,0c1.7,1,2.7,2.3,2.7,3.8c0,1.4-0.9,2.8-2.7,3.8l0,0
				C327.6,472.8,325.3,473.3,323.1,473.3z M323.1,463.3c-2.2,0-4.3,0.5-6,1.4c-1.6,0.9-2.4,2.1-2.4,3.3c0,1.2,0.9,2.4,2.4,3.3
				c3.3,1.9,8.7,1.9,12,0l0,0c1.6-0.9,2.4-2.1,2.4-3.3c0-1.2-0.9-2.4-2.4-3.3C327.4,463.8,325.2,463.3,323.1,463.3z"/>
			<polygon id="XMLID_00000068649916728271235420000007724004359342718379_" class="st53" points="326.7,477.6 326.7,484.8 
				332,483.7 332,476.5 			"/>
			<polygon id="XMLID_00000030467020639208957460000003330563344834747017_" class="st53" points="335.2,477.9 335.2,485.3 
				338.4,483.7 340.1,482.6 340.3,475.2 336.2,477.6 			"/>
			<polygon id="XMLID_00000118367378719323473190000008273975580516193721_" class="st53" points="311.1,477.9 311.1,485.3 
				314.7,483.7 314.7,476.3 			"/>
			<polygon id="XMLID_00000024704971953257906890000008445865062022298289_" class="st53" points="322,463 322,470.4 318.4,471.1 
				317.2,471.7 314.8,470.1 314.2,467.7 316.3,464.6 			"/>
			<polygon id="XMLID_00000129191510690894974810000011861241073947026578_" class="st53" points="323.3,463 323.3,470.3 
				325.7,470.7 325.7,463.2 			"/>
			<path id="XMLID_00000129919119091999102930000006053384081817494175_" class="st53" d="M340.2,461.2v4.5c0,0-1,0.3-1.3-0.8
				c-0.1-0.4-1.5-2-1.5-2L340.2,461.2z"/>
			
				<rect id="XMLID_00000141445648470023417350000004125423925116656286_" x="306.6" y="470.4" class="st53" width="0.5" height="2.7"/>
			<polygon id="XMLID_00000024680965143726132220000006698790331827991969_" class="st53" points="337.5,472.9 339.5,470.4 
				339.5,474.1 			"/>
		</g>
	</g>
	<g>
		<path d="M287.5,353.3c0.3,0.2,0.7,0.3,1.1,0.3c0.6,0,1-0.3,1-0.8c0-0.4-0.2-0.7-0.9-0.9c-0.7-0.3-1.2-0.7-1.2-1.3
			c0-0.7,0.6-1.2,1.5-1.2c0.5,0,0.8,0.1,1,0.2l-0.2,0.5c-0.1-0.1-0.5-0.2-0.9-0.2c-0.6,0-0.9,0.4-0.9,0.7c0,0.4,0.3,0.6,0.9,0.9
			c0.8,0.3,1.2,0.7,1.2,1.3c0,0.7-0.5,1.3-1.6,1.3c-0.4,0-0.9-0.1-1.2-0.3L287.5,353.3z"/>
		<path d="M291.6,349.8c0,0.2-0.1,0.4-0.4,0.4c-0.2,0-0.4-0.2-0.4-0.4c0-0.2,0.2-0.4,0.4-0.4C291.4,349.4,291.6,349.6,291.6,349.8z
			 M290.9,354v-3.3h0.6v3.3H290.9z"/>
		<path d="M292.1,354.8c0.1-0.4,0.3-1.1,0.4-1.6l0.7-0.1c-0.2,0.6-0.5,1.3-0.6,1.6L292.1,354.8z"/>
		<path d="M295.4,351.8c0-0.4,0-0.8,0-1.1h0.5l0,0.6h0c0.2-0.4,0.6-0.6,1.2-0.6c0.8,0,1.4,0.7,1.4,1.7c0,1.2-0.7,1.8-1.5,1.8
			c-0.4,0-0.8-0.2-1-0.5h0v1.8h-0.6V351.8z M296,352.6c0,0.1,0,0.2,0,0.2c0.1,0.4,0.5,0.7,0.9,0.7c0.6,0,1-0.5,1-1.3
			c0-0.7-0.3-1.2-1-1.2c-0.4,0-0.8,0.3-0.9,0.7c0,0.1,0,0.2,0,0.2V352.6z"/>
		<path d="M302.2,352.3c0,1.2-0.8,1.7-1.6,1.7c-0.9,0-1.6-0.7-1.6-1.7c0-1.1,0.7-1.7,1.6-1.7C301.6,350.6,302.2,351.3,302.2,352.3z
			 M299.6,352.3c0,0.7,0.4,1.3,1,1.3c0.6,0,1-0.5,1-1.3c0-0.6-0.3-1.3-1-1.3S299.6,351.7,299.6,352.3z"/>
		<path d="M303,351.7c0-0.4,0-0.7,0-1h0.5l0,0.6h0c0.1-0.4,0.5-0.7,0.9-0.7c0.1,0,0.1,0,0.2,0v0.6c-0.1,0-0.1,0-0.2,0
			c-0.4,0-0.7,0.3-0.8,0.8c0,0.1,0,0.2,0,0.3v1.8H303V351.7z"/>
		<path d="M306.7,354v-2.8h-0.5v-0.5h0.5v-0.2c0-0.5,0.1-0.9,0.4-1.1c0.2-0.2,0.5-0.3,0.8-0.3c0.2,0,0.4,0,0.5,0.1l-0.1,0.5
			c-0.1,0-0.2-0.1-0.4-0.1c-0.5,0-0.6,0.4-0.6,1v0.2h0.8v0.5h-0.8v2.8H306.7z"/>
		<path d="M310.4,354l0-0.4h0c-0.2,0.3-0.5,0.5-1,0.5c-0.7,0-1-0.5-1-0.9c0-0.8,0.7-1.2,2-1.2v-0.1c0-0.3-0.1-0.8-0.7-0.8
			c-0.3,0-0.6,0.1-0.9,0.2l-0.1-0.4c0.3-0.2,0.7-0.3,1.1-0.3c1,0,1.2,0.7,1.2,1.3v1.2c0,0.3,0,0.6,0.1,0.8H310.4z M310.3,352.3
			c-0.7,0-1.4,0.1-1.4,0.7c0,0.4,0.3,0.6,0.6,0.6c0.4,0,0.7-0.3,0.8-0.5c0-0.1,0-0.1,0-0.2V352.3z"/>
		<path d="M312.1,350.7l0.6,1.8c0.1,0.3,0.2,0.6,0.3,0.8h0c0.1-0.3,0.2-0.5,0.3-0.8l0.6-1.8h0.6l-1.3,3.3h-0.6l-1.2-3.3H312.1z"/>
		<path d="M318,352.3c0,1.2-0.8,1.7-1.6,1.7c-0.9,0-1.6-0.7-1.6-1.7c0-1.1,0.7-1.7,1.6-1.7C317.4,350.6,318,351.3,318,352.3z
			 M315.4,352.3c0,0.7,0.4,1.3,1,1.3c0.6,0,1-0.5,1-1.3c0-0.6-0.3-1.3-1-1.3S315.4,351.7,315.4,352.3z"/>
		<path d="M318.8,351.7c0-0.4,0-0.7,0-1h0.5l0,0.6h0c0.1-0.4,0.5-0.7,0.9-0.7c0.1,0,0.1,0,0.2,0v0.6c-0.1,0-0.1,0-0.2,0
			c-0.4,0-0.7,0.3-0.8,0.8c0,0.1,0,0.2,0,0.3v1.8h-0.6V351.7z"/>
	</g>
	<g>
		<path d="M335.8,324.5V320h0.6l1.5,2.3c0.3,0.5,0.6,1,0.8,1.5l0,0c-0.1-0.6-0.1-1.2-0.1-1.9V320h0.6v4.6h-0.6l-1.5-2.3
			c-0.3-0.5-0.6-1-0.9-1.5l0,0c0,0.6,0,1.1,0,1.9v2H335.8z"/>
		<path d="M343.2,322.9c0,1.2-0.8,1.7-1.6,1.7c-0.9,0-1.6-0.7-1.6-1.7c0-1.1,0.7-1.7,1.6-1.7C342.5,321.2,343.2,321.9,343.2,322.9z
			 M340.6,322.9c0,0.7,0.4,1.3,1,1.3c0.6,0,1-0.5,1-1.3c0-0.6-0.3-1.3-1-1.3S340.6,322.3,340.6,322.9z"/>
		<path d="M343.4,325.4c0.1-0.4,0.3-1.1,0.4-1.6l0.7-0.1c-0.2,0.6-0.5,1.3-0.6,1.6L343.4,325.4z"/>
		<path d="M349.5,321.2c0,0.2,0,0.5,0,0.9v1.9c0,0.8-0.1,1.2-0.5,1.5c-0.3,0.3-0.8,0.4-1.2,0.4c-0.4,0-0.8-0.1-1.1-0.3l0.1-0.5
			c0.2,0.1,0.6,0.3,1,0.3c0.6,0,1.1-0.3,1.1-1.1V324h0c-0.2,0.3-0.5,0.5-1,0.5c-0.8,0-1.4-0.7-1.4-1.6c0-1.1,0.7-1.7,1.5-1.7
			c0.6,0,0.9,0.3,1,0.6h0l0-0.5H349.5z M348.8,322.5c0-0.1,0-0.2,0-0.3c-0.1-0.3-0.4-0.6-0.8-0.6c-0.6,0-1,0.5-1,1.2
			c0,0.6,0.3,1.2,1,1.2c0.4,0,0.7-0.2,0.8-0.6c0-0.1,0-0.2,0-0.3V322.5z"/>
		<path d="M350.4,322.3c0-0.4,0-0.7,0-1h0.5l0,0.6h0c0.1-0.4,0.5-0.7,0.9-0.7c0.1,0,0.1,0,0.2,0v0.6c-0.1,0-0.1,0-0.2,0
			c-0.4,0-0.7,0.3-0.8,0.8c0,0.1,0,0.2,0,0.3v1.8h-0.6V322.3z"/>
		<path d="M354.4,324.5l0-0.4h0c-0.2,0.3-0.5,0.5-1,0.5c-0.7,0-1-0.5-1-0.9c0-0.8,0.7-1.2,2-1.2v-0.1c0-0.3-0.1-0.8-0.7-0.8
			c-0.3,0-0.6,0.1-0.9,0.2l-0.1-0.4c0.3-0.2,0.7-0.3,1.1-0.3c1,0,1.2,0.7,1.2,1.3v1.2c0,0.3,0,0.6,0.1,0.8H354.4z M354.3,322.9
			c-0.7,0-1.4,0.1-1.4,0.7c0,0.4,0.3,0.6,0.6,0.6c0.4,0,0.7-0.3,0.8-0.5c0-0.1,0-0.1,0-0.2V322.9z"/>
		<path d="M358.2,324.4c-0.2,0.1-0.5,0.2-0.9,0.2c-1,0-1.6-0.7-1.6-1.7c0-1,0.7-1.7,1.8-1.7c0.4,0,0.7,0.1,0.8,0.2l-0.1,0.5
			c-0.1-0.1-0.4-0.2-0.7-0.2c-0.8,0-1.2,0.6-1.2,1.2c0,0.8,0.5,1.2,1.1,1.2c0.3,0,0.6-0.1,0.7-0.2L358.2,324.4z"/>
		<path d="M359.6,320.3c0,0.2-0.1,0.4-0.4,0.4c-0.2,0-0.4-0.2-0.4-0.4c0-0.2,0.2-0.4,0.4-0.4C359.4,320,359.6,320.1,359.6,320.3z
			 M358.9,324.5v-3.3h0.6v3.3H358.9z"/>
		<path d="M362.3,324.5l0-0.4h0c-0.2,0.3-0.5,0.5-1,0.5c-0.7,0-1-0.5-1-0.9c0-0.8,0.7-1.2,2-1.2v-0.1c0-0.3-0.1-0.8-0.7-0.8
			c-0.3,0-0.6,0.1-0.9,0.2l-0.1-0.4c0.3-0.2,0.7-0.3,1.1-0.3c1,0,1.2,0.7,1.2,1.3v1.2c0,0.3,0,0.6,0.1,0.8H362.3z M362.2,322.9
			c-0.7,0-1.4,0.1-1.4,0.7c0,0.4,0.3,0.6,0.6,0.6c0.4,0,0.7-0.3,0.8-0.5c0-0.1,0-0.1,0-0.2V322.9z"/>
		<path d="M363.7,323.9c0.2,0.1,0.5,0.2,0.8,0.2c0.4,0,0.6-0.2,0.6-0.5c0-0.3-0.2-0.4-0.6-0.6c-0.6-0.2-0.9-0.5-0.9-0.9
			c0-0.5,0.4-1,1.1-1c0.3,0,0.6,0.1,0.8,0.2l-0.1,0.4c-0.1-0.1-0.4-0.2-0.7-0.2c-0.4,0-0.5,0.2-0.5,0.4c0,0.3,0.2,0.4,0.6,0.6
			c0.6,0.2,0.9,0.5,0.9,1c0,0.6-0.4,1-1.2,1c-0.4,0-0.7-0.1-0.9-0.2L363.7,323.9z"/>
	</g>
	<g>
		<path d="M236.7,324.3v-4.6h0.6l1.5,2.3c0.3,0.5,0.6,1,0.8,1.5l0,0c-0.1-0.6-0.1-1.2-0.1-1.9v-1.9h0.6v4.6h-0.6l-1.5-2.3
			c-0.3-0.5-0.6-1-0.9-1.5l0,0c0,0.6,0,1.1,0,1.9v2H236.7z"/>
		<path d="M244.1,322.7c0,1.2-0.8,1.7-1.6,1.7c-0.9,0-1.6-0.7-1.6-1.7c0-1.1,0.7-1.7,1.6-1.7C243.5,321,244.1,321.7,244.1,322.7z
			 M241.5,322.7c0,0.7,0.4,1.3,1,1.3c0.6,0,1-0.5,1-1.3c0-0.6-0.3-1.3-1-1.3S241.5,322.1,241.5,322.7z"/>
		<path d="M244.3,325.2c0.1-0.4,0.3-1.1,0.4-1.6l0.7-0.1c-0.2,0.6-0.5,1.3-0.6,1.6L244.3,325.2z"/>
		<path d="M249.9,324.2c-0.2,0.1-0.5,0.2-0.9,0.2c-1,0-1.6-0.7-1.6-1.7c0-1,0.7-1.7,1.8-1.7c0.4,0,0.7,0.1,0.8,0.2l-0.1,0.5
			c-0.1-0.1-0.4-0.2-0.7-0.2c-0.8,0-1.2,0.6-1.2,1.2c0,0.8,0.5,1.2,1.1,1.2c0.3,0,0.6-0.1,0.7-0.2L249.9,324.2z"/>
		<path d="M253.4,323.4c0,0.3,0,0.6,0,0.9h-0.5l0-0.5h0c-0.2,0.3-0.5,0.6-1.1,0.6c-0.5,0-1.1-0.3-1.1-1.4V321h0.6v1.8
			c0,0.6,0.2,1,0.7,1c0.4,0,0.7-0.3,0.8-0.5c0-0.1,0.1-0.2,0.1-0.3v-2h0.6V323.4z"/>
		<path d="M254.4,321.9c0-0.3,0-0.6,0-0.9h0.5l0,0.5h0c0.2-0.3,0.5-0.6,1-0.6c0.4,0,0.8,0.3,0.9,0.7h0c0.1-0.2,0.2-0.3,0.4-0.4
			c0.2-0.1,0.4-0.2,0.7-0.2c0.4,0,1.1,0.3,1.1,1.4v1.9h-0.6v-1.9c0-0.6-0.2-1-0.7-1c-0.3,0-0.6,0.3-0.7,0.5c0,0.1,0,0.2,0,0.3v2
			h-0.6v-2c0-0.5-0.2-0.9-0.7-0.9c-0.4,0-0.6,0.3-0.7,0.6c0,0.1,0,0.2,0,0.3v2h-0.6V321.9z"/>
		<path d="M260,322.1c0-0.4,0-0.8,0-1.1h0.5l0,0.6h0c0.2-0.4,0.6-0.6,1.2-0.6c0.8,0,1.4,0.7,1.4,1.7c0,1.2-0.7,1.8-1.5,1.8
			c-0.4,0-0.8-0.2-1-0.5h0v1.8H260V322.1z M260.6,323c0,0.1,0,0.2,0,0.2c0.1,0.4,0.5,0.7,0.9,0.7c0.6,0,1-0.5,1-1.3
			c0-0.7-0.3-1.2-1-1.2c-0.4,0-0.8,0.3-0.9,0.7c0,0.1,0,0.2,0,0.2V323z"/>
		<path d="M263.9,319.5h0.6v4.8h-0.6V319.5z"/>
		<path d="M266.7,319.6l-0.8,1h-0.4l0.6-1H266.7z M265.5,324.3V321h0.6v3.3H265.5z"/>
		<path d="M268.5,319.5h0.6v4.8h-0.6V319.5z"/>
		<path d="M273.1,322.7c0,1.2-0.8,1.7-1.6,1.7c-0.9,0-1.6-0.7-1.6-1.7c0-1.1,0.7-1.7,1.6-1.7C272.5,321,273.1,321.7,273.1,322.7z
			 M270.5,322.7c0,0.7,0.4,1.3,1,1.3c0.6,0,1-0.5,1-1.3c0-0.6-0.3-1.3-1-1.3S270.5,322.1,270.5,322.7z"/>
		<path d="M273.8,323.7c0.2,0.1,0.5,0.2,0.8,0.2c0.4,0,0.6-0.2,0.6-0.5c0-0.3-0.2-0.4-0.6-0.6c-0.6-0.2-0.9-0.5-0.9-0.9
			c0-0.5,0.4-1,1.1-1c0.3,0,0.6,0.1,0.8,0.2l-0.1,0.4c-0.1-0.1-0.4-0.2-0.7-0.2c-0.4,0-0.5,0.2-0.5,0.4c0,0.3,0.2,0.4,0.6,0.6
			c0.6,0.2,0.9,0.5,0.9,1c0,0.6-0.4,1-1.2,1c-0.4,0-0.7-0.1-0.9-0.2L273.8,323.7z"/>
		<path d="M278,319.8h0.6v2.2h0c0.1-0.2,0.2-0.3,0.4-0.5l1.4-1.7h0.7l-1.7,1.9l1.8,2.6h-0.7l-1.5-2.2l-0.4,0.5v1.7H278V319.8z"/>
		<path d="M281.8,321.9c0-0.3,0-0.6,0-0.9h0.5l0,0.5h0c0.2-0.3,0.5-0.6,1-0.6c0.4,0,0.8,0.3,0.9,0.7h0c0.1-0.2,0.2-0.3,0.4-0.4
			c0.2-0.1,0.4-0.2,0.7-0.2c0.4,0,1.1,0.3,1.1,1.4v1.9h-0.6v-1.9c0-0.6-0.2-1-0.7-1c-0.3,0-0.6,0.3-0.7,0.5c0,0.1,0,0.2,0,0.3v2
			h-0.6v-2c0-0.5-0.2-0.9-0.7-0.9c-0.4,0-0.6,0.3-0.7,0.6c0,0.1,0,0.2,0,0.3v2h-0.6V321.9z"/>
		<path d="M287.3,323.7c0.2,0.1,0.5,0.2,0.8,0.2c0.4,0,0.6-0.2,0.6-0.5c0-0.3-0.2-0.4-0.6-0.6c-0.6-0.2-0.9-0.5-0.9-0.9
			c0-0.5,0.4-1,1.1-1c0.3,0,0.6,0.1,0.8,0.2l-0.1,0.4c-0.1-0.1-0.4-0.2-0.7-0.2c-0.4,0-0.5,0.2-0.5,0.4c0,0.3,0.2,0.4,0.6,0.6
			c0.6,0.2,0.9,0.5,0.9,1c0,0.6-0.4,1-1.2,1c-0.4,0-0.7-0.1-0.9-0.2L287.3,323.7z"/>
	</g>
	<path class="st54" d="M393.6,400.6l-170.4,0.4c-1.3,0-2.3-1-2.3-2.3l-0.1-25.9c0-1.3,1-2.3,2.3-2.3l172.7-0.4l0.1,28.3
		C395.9,399.5,394.8,400.6,393.6,400.6z"/>
	<g>
		<path d="M231.6,388.2c0.3,0.2,0.8,0.4,1.3,0.4c0.8,0,1.2-0.4,1.2-1c0-0.5-0.3-0.8-1.1-1.1c-0.9-0.3-1.5-0.8-1.5-1.6
			c0-0.9,0.7-1.6,1.9-1.6c0.6,0,1,0.1,1.3,0.3l-0.2,0.6c-0.2-0.1-0.6-0.3-1.1-0.3c-0.8,0-1.1,0.5-1.1,0.9c0,0.5,0.3,0.8,1.1,1.1
			c1,0.4,1.5,0.8,1.5,1.7c0,0.9-0.7,1.7-2,1.7c-0.6,0-1.2-0.2-1.5-0.4L231.6,388.2z"/>
		<path d="M236.7,383.8c0,0.3-0.2,0.5-0.5,0.5c-0.3,0-0.5-0.2-0.5-0.5c0-0.3,0.2-0.5,0.5-0.5C236.5,383.3,236.7,383.5,236.7,383.8z
			 M235.8,389.1V385h0.8v4.1H235.8z"/>
		<path d="M237.3,390.1c0.2-0.5,0.4-1.4,0.5-2l0.8-0.1c-0.2,0.7-0.6,1.7-0.8,2.1L237.3,390.1z"/>
		<path d="M241.4,386.3c0-0.5,0-1,0-1.3h0.7l0,0.7h0c0.3-0.5,0.8-0.8,1.5-0.8c1,0,1.7,0.8,1.7,2.1c0,1.5-0.9,2.2-1.9,2.2
			c-0.5,0-1-0.2-1.3-0.6h0v2.2h-0.7V386.3z M242.1,387.4c0,0.1,0,0.2,0,0.3c0.1,0.5,0.6,0.9,1.1,0.9c0.8,0,1.3-0.6,1.3-1.6
			c0-0.8-0.4-1.5-1.2-1.5c-0.5,0-1,0.4-1.1,0.9c0,0.1-0.1,0.2-0.1,0.3V387.4z"/>
		<path d="M250,387c0,1.5-1.1,2.2-2.1,2.2c-1.1,0-2-0.8-2-2.1c0-1.4,0.9-2.2,2-2.2C249.2,384.9,250,385.7,250,387z M246.7,387
			c0,0.9,0.5,1.6,1.3,1.6c0.7,0,1.3-0.7,1.3-1.6c0-0.7-0.3-1.6-1.2-1.6C247.1,385.4,246.7,386.3,246.7,387z"/>
		<path d="M250.9,386.3c0-0.5,0-0.9,0-1.3h0.7l0,0.8h0c0.2-0.6,0.6-0.9,1.1-0.9c0.1,0,0.1,0,0.2,0v0.7c-0.1,0-0.2,0-0.3,0
			c-0.5,0-0.9,0.4-1,1c0,0.1,0,0.2,0,0.3v2.2h-0.7V386.3z"/>
		<path d="M255.6,389.1v-3.6H255V385h0.6v-0.2c0-0.6,0.1-1.1,0.5-1.4c0.3-0.3,0.7-0.4,1-0.4c0.3,0,0.5,0.1,0.6,0.1l-0.1,0.6
			c-0.1-0.1-0.3-0.1-0.5-0.1c-0.6,0-0.8,0.6-0.8,1.2v0.2h1v0.6h-1v3.6H255.6z"/>
		<path d="M260.3,389.1l-0.1-0.5h0c-0.2,0.3-0.7,0.6-1.3,0.6c-0.8,0-1.3-0.6-1.3-1.2c0-1,0.9-1.5,2.5-1.5v-0.1c0-0.3-0.1-1-0.9-1
			c-0.4,0-0.8,0.1-1.1,0.3l-0.2-0.5c0.3-0.2,0.8-0.4,1.4-0.4c1.3,0,1.6,0.9,1.6,1.7v1.5c0,0.4,0,0.7,0.1,1H260.3z M260.2,387
			c-0.8,0-1.7,0.1-1.7,0.9c0,0.5,0.3,0.7,0.7,0.7c0.5,0,0.9-0.3,1-0.7c0-0.1,0-0.2,0-0.2V387z"/>
		<path d="M262.3,385l0.8,2.3c0.1,0.4,0.2,0.7,0.3,1.1h0c0.1-0.3,0.2-0.7,0.3-1.1l0.8-2.3h0.8l-1.6,4.1h-0.7l-1.6-4.1H262.3z"/>
		<path d="M269.8,387c0,1.5-1.1,2.2-2.1,2.2c-1.1,0-2-0.8-2-2.1c0-1.4,0.9-2.2,2-2.2C269,384.9,269.8,385.7,269.8,387z M266.5,387
			c0,0.9,0.5,1.6,1.3,1.6c0.7,0,1.3-0.7,1.3-1.6c0-0.7-0.3-1.6-1.2-1.6C266.9,385.4,266.5,386.3,266.5,387z"/>
		<path d="M270.7,386.3c0-0.5,0-0.9,0-1.3h0.7l0,0.8h0c0.2-0.6,0.6-0.9,1.1-0.9c0.1,0,0.1,0,0.2,0v0.7c-0.1,0-0.2,0-0.3,0
			c-0.5,0-0.9,0.4-1,1c0,0.1,0,0.2,0,0.3v2.2h-0.7V386.3z"/>
	</g>
	<text transform="matrix(1 0 0 1 360.6875 299.0942)" class="st34 st55 st56">18:30 pm</text>
	<g>
		<path class="st34" d="M366.9,391.7L366.9,391.7l-0.7,0.4l-0.1-0.4l0.9-0.5h0.5v4.2h-0.5V391.7z"/>
		<path class="st34" d="M368.9,394.2c0-0.5,0.3-0.9,0.8-1.1l0,0c-0.5-0.2-0.7-0.6-0.7-0.9c0-0.7,0.6-1.1,1.3-1.1
			c0.8,0,1.2,0.5,1.2,1c0,0.4-0.2,0.7-0.7,1v0c0.5,0.2,0.8,0.6,0.8,1.1c0,0.7-0.6,1.2-1.4,1.2C369.5,395.4,368.9,394.8,368.9,394.2z
			 M371.2,394.2c0-0.5-0.4-0.8-0.9-0.9c-0.5,0.1-0.8,0.5-0.8,0.9c0,0.4,0.3,0.8,0.8,0.8C370.9,395,371.2,394.6,371.2,394.2z
			 M369.6,392.1c0,0.4,0.3,0.6,0.8,0.8c0.4-0.1,0.6-0.4,0.6-0.8c0-0.3-0.2-0.7-0.7-0.7C369.9,391.5,369.6,391.8,369.6,392.1z"/>
		<path class="st34" d="M372.3,392.7c0-0.2,0.2-0.4,0.4-0.4s0.4,0.2,0.4,0.4c0,0.2-0.1,0.4-0.4,0.4
			C372.5,393.1,372.3,392.9,372.3,392.7z M372.3,395c0-0.2,0.2-0.4,0.4-0.4s0.4,0.2,0.4,0.4c0,0.2-0.1,0.4-0.4,0.4
			C372.5,395.4,372.3,395.2,372.3,395z"/>
		<path class="st34" d="M375.3,395.3v-1.1h-1.9v-0.4l1.9-2.7h0.6v2.6h0.6v0.4h-0.6v1.1H375.3z M375.3,393.7v-1.4c0-0.2,0-0.4,0-0.7
			h0c-0.1,0.2-0.2,0.4-0.3,0.6l-1,1.4v0H375.3z"/>
		<path class="st34" d="M379.7,393.2c0,1.4-0.5,2.2-1.4,2.2c-0.8,0-1.4-0.8-1.4-2.1c0-1.4,0.6-2.2,1.4-2.2
			C379.2,391.1,379.7,391.8,379.7,393.2z M377.4,393.2c0,1.1,0.3,1.7,0.8,1.7c0.6,0,0.9-0.7,0.9-1.7c0-1-0.3-1.7-0.8-1.7
			C377.8,391.5,377.4,392.1,377.4,393.2z"/>
		<path class="st34" d="M381.7,393.2c0-0.4,0-0.7,0-1h0.5l0,0.5h0c0.2-0.4,0.6-0.6,1.1-0.6c0.8,0,1.3,0.6,1.3,1.6
			c0,1.1-0.7,1.7-1.4,1.7c-0.4,0-0.8-0.2-1-0.5h0v1.7h-0.6V393.2z M382.3,394c0,0.1,0,0.2,0,0.2c0.1,0.4,0.4,0.7,0.8,0.7
			c0.6,0,0.9-0.5,0.9-1.2c0-0.6-0.3-1.2-0.9-1.2c-0.4,0-0.7,0.3-0.9,0.7c0,0.1,0,0.2,0,0.2V394z"/>
		<path class="st34" d="M385.4,393c0-0.3,0-0.6,0-0.8h0.5l0,0.5h0c0.2-0.3,0.5-0.6,1-0.6c0.4,0,0.7,0.3,0.9,0.6h0
			c0.1-0.2,0.2-0.3,0.3-0.4c0.2-0.1,0.4-0.2,0.7-0.2c0.4,0,1,0.3,1,1.3v1.8h-0.6v-1.8c0-0.6-0.2-1-0.7-1c-0.3,0-0.6,0.2-0.7,0.5
			c0,0.1,0,0.2,0,0.3v1.9h-0.6v-1.9c0-0.5-0.2-0.9-0.6-0.9c-0.4,0-0.6,0.3-0.7,0.6c0,0.1,0,0.2,0,0.3v1.9h-0.6V393z"/>
	</g>
</g>
</svg>
