<?xml version="1.0" encoding="utf-8"?>
<!-- Generator: Adobe Illustrator 26.3.1, SVG Export Plug-In . SVG Version: 6.00 Build 0)  -->
<svg version="1.1" id="Capa_1" xmlns="http://www.w3.org/2000/svg" xmlns:xlink="http://www.w3.org/1999/xlink" x="0px" y="0px"
	 viewBox="0 0 828.1 600" style="enable-background:new 0 0 828.1 600;" xml:space="preserve">
<style type="text/css">
	.st0{fill:#FFFFFF;stroke:#010202;stroke-width:2;}
	.st1{fill:none;stroke:#010202;stroke-width:2;}
	.st2{fill:#FEE386;fill-opacity:0.3;}
	.st3{opacity:0.8;fill:#AFDDED;fill-opacity:0.46;enable-background:new    ;}
	.st4{fill:#D50C53;fill-opacity:0.15;}
	.st5{fill:#FFFFFF;}
	.st6{fill:#FFFFFF;stroke:#010202;stroke-width:2;stroke-miterlimit:10;}
	.st7{fill:#221F20;}
	.st8{fill:#E52421;}
	.st9{fill:#121111;}
	.st10{opacity:0.8;fill:none;stroke:#8B8B8B;enable-background:new    ;}
	.st11{fill:#66C7F0;}
	.st12{fill:#221F20;fill-opacity:0.7;}
	.st13{fill:#294896;}
	.st14{fill:#219BD7;}
	.st15{fill:#DDDDDD;}
	.st16{fill:#212120;}
	.st17{fill:#878889;}
	.st18{fill:#FFFFFF;stroke:#DDDDDD;stroke-width:2;stroke-linecap:round;stroke-linejoin:round;stroke-miterlimit:10;}
	.st19{fill:#FBBC1D;}
	.st20{fill:#029CCC;}
	.st21{fill:#EFEFEF;stroke:#DDDDDD;stroke-width:2;stroke-linecap:round;stroke-linejoin:round;stroke-miterlimit:10;}
	.st22{fill:#EB576A;}
	.st23{fill:#343434;}
	.st24{fill:#39514C;}
	.st25{fill:#5FB45E;}
	.st26{fill:#5E5D5C;}
	.st27{fill:#D7D6D8;}
	.st28{fill:#FFFFFF;stroke:#000000;stroke-miterlimit:10;}
	.st29{opacity:0.35;fill:url(#SVGID_1_);}
	.st30{fill:none;stroke:#231F20;stroke-width:0.75;stroke-linejoin:round;stroke-miterlimit:10;}
	.st31{opacity:0.35;fill:url(#SVGID_00000135656388285194582350000017588406433036228282_);}
	.st32{fill:none;stroke:#231F20;stroke-linejoin:round;stroke-miterlimit:10;}
	.st33{opacity:0.4;}
	.st34{fill:#706F6F;}
	.st35{fill:#FAFAFA;}
	.st36{fill:#020203;}
	.st37{opacity:0.35;fill:url(#SVGID_00000152945398702396116850000014276106201105512605_);}
	.st38{fill:#EF7A79;fill-opacity:5.000000e-02;}
	.st39{fill:#EF7A79;}
	.st40{opacity:0.4;fill:#00A0CD;}
	.st41{opacity:0.8;fill:#009BCC;enable-background:new    ;}
	.st42{clip-path:url(#SVGID_00000093884500412946562810000008709408929822285954_);}
	.st43{opacity:0.8;fill:#019CCB;fill-opacity:0.4;enable-background:new    ;}
	.st44{enable-background:new    ;}
	.st45{fill:#FFFFFF;enable-background:new    ;}
	.st46{stroke:#FFFFFF;stroke-width:0.25;stroke-miterlimit:10;}
	.st47{fill:#EFEFEF;}
	.st48{fill:#1B1514;}
	.st49{fill:#DAE8C3;}
	
		.st50{opacity:0.8;fill:none;stroke:#595958;stroke-width:2;stroke-linecap:round;stroke-linejoin:round;stroke-miterlimit:10;stroke-opacity:0.7;enable-background:new    ;}
	.st51{fill:#595958;}
	.st52{fill:#E7207C;fill-opacity:5.000000e-02;}
	.st53{fill:#EEC6D5;}
	.st54{fill:none;stroke:#020203;stroke-opacity:0.2;}
	.st55{opacity:0.8;fill:#029CCC;enable-background:new    ;}
	.st56{fill:none;stroke:#020203;stroke-width:0.2152;stroke-linecap:round;stroke-linejoin:round;stroke-miterlimit:10;}
	.st57{fill:none;stroke:#020203;stroke-width:0.2813;stroke-linecap:round;stroke-linejoin:round;stroke-miterlimit:10;}
	.st58{fill:#049839;}
	.st59{fill:#F8E508;}
	.st60{fill:#2655A2;fill-opacity:0.8;}
	.st61{fill:#FFFFFF;stroke:#979797;stroke-width:0.4222;stroke-linecap:round;stroke-linejoin:round;stroke-miterlimit:10;}
	.st62{fill:#979797;}
	.st63{fill:#F9AF2E;}
	.st64{fill:#FFFFFF;stroke:#DDDDDD;stroke-width:0.332;stroke-linecap:round;stroke-linejoin:round;stroke-miterlimit:10;}
	.st65{fill:none;stroke:#1B1514;stroke-width:0.229;stroke-linecap:round;stroke-linejoin:round;stroke-miterlimit:10;}
	.st66{fill:#FFFFFF;stroke:#979797;stroke-width:0.154;stroke-linecap:round;stroke-linejoin:round;stroke-miterlimit:10;}
	.st67{fill:#FFFFFF;stroke:#979797;stroke-width:0.2272;stroke-linecap:round;stroke-linejoin:round;stroke-miterlimit:10;}
	.st68{font-family:'ExoSoft-Bold';}
	.st69{font-size:4.6294px;}
	.st70{fill:#F9AF2D;}
	.st71{fill:#9BC76A;}
	.st72{fill:#7B62A7;enable-background:new    ;}
	.st73{fill:none;stroke:#979797;stroke-width:0.1552;stroke-linecap:round;stroke-linejoin:round;stroke-miterlimit:10;}
	.st74{font-size:5.0006px;}
	.st75{fill:#E94079;}
</style>
<g>
	<g>
		<defs>
			
				<rect id="SVGID_00000124158938135886157100000009250914326420503442_" x="-438.3" y="131.6" transform="matrix(1 -2.162129e-03 2.162129e-03 1 -0.6497 -0.7013)" width="227.2" height="337.2"/>
		</defs>
		<clipPath id="SVGID_00000135681908026532574610000010649155409775149744_">
			<use xlink:href="#SVGID_00000124158938135886157100000009250914326420503442_"  style="overflow:visible;"/>
		</clipPath>
		<g style="clip-path:url(#SVGID_00000135681908026532574610000010649155409775149744_);">
			
				<image style="overflow:visible;" width="4000" height="2250" xlink:href="../Plantillas bot/Plantillas integracion atom-04.png"  transform="matrix(0.211 -4.562142e-04 4.533509e-04 0.2097 -635.4069 46.4636)">
			</image>
			<g>
				<defs>
					
						<rect id="SVGID_00000152261752253328277870000009556703451098567815_" x="-394.2" y="199.3" transform="matrix(1 -2.162129e-03 2.162129e-03 1 -0.5129 -0.6766)" width="161.9" height="75.2"/>
				</defs>
				<clipPath id="SVGID_00000170252486792327508350000008853878811581417150_">
					<use xlink:href="#SVGID_00000152261752253328277870000009556703451098567815_"  style="overflow:visible;"/>
				</clipPath>
				
					<g transform="matrix(1 -2.328306e-10 2.328306e-10 1 0 0)" style="clip-path:url(#SVGID_00000170252486792327508350000008853878811581417150_);">
					
						<image style="overflow:visible;" width="1366" height="768" xlink:href="37F7B09D.jpg"  transform="matrix(0.5151 -1.113753e-03 1.106763e-03 0.5119 -567.0623 6.3113)">
					</image>
				</g>
			</g>
		</g>
	</g>
</g>
<path class="st50" d="M64.8,358.1c93.8-12.8,188.1-24.8,281.9-37.8c48.1-26.5,94.3-53,143-80.2c2.5-1.8,4.9-3.1,7.4-4.9
	c11.7-6.2,22.2-12.9,33.9-18.5c0.6-0.6,1.2-1.2,1.8-1.8c1.8-1.2,3.7-1.2,5.5-2.5c51.8-30.2,100.5-58,151.1-86.9
	c22.2-26.5,42.5-53.6,66-80.8c2.5-3.7,4.3-7.4,7.6-10.2"/>
<path class="st51" d="M663.3,116.5c-3.2,0-5.8,2.6-5.8,5.8c0,4.3,5.4,9.3,5.6,9.6c0.1,0.1,0.1,0.1,0.2,0.1c0.1,0,0.1,0,0.2-0.1
	c0.2-0.2,5.6-5.3,5.6-9.6C669,119.1,666.5,116.5,663.3,116.5z M663.3,125.5c-1.8,0-3.2-1.4-3.2-3.2c0-1.8,1.5-3.2,3.2-3.2
	c1.8,0,3.2,1.4,3.2,3.2S665,125.5,663.3,125.5z"/>
<path class="st51" d="M665.5,139.5c0,1.3-1,2.3-2.3,2.3c-1.3,0-2.3-1-2.3-2.3c0-1.3,1-2.3,2.3-2.3
	C664.5,137.2,665.5,138.2,665.5,139.5z"/>
<path class="st52" d="M88,333.6c4.2,28.2,18.4,53.3,38,74.4c67.4,72.8,158.7,122,250.9,146.7c74.1,19.9,179.9-12.6,240.4-73.5
	c67.9-69,59.7-202.9,10.6-277c-66.5-100.8-151-147.8-264.7-99.2c-53.1,20.2-90.2,46.8-145.2,54.4c-47.5,6.5-106.1,65.2-123.6,113.9
	C86.9,294.6,85.1,314.8,88,333.6z"/>
<path class="st53" d="M496.8,339c-0.4,7.4,2.3,15.3,6.9,22.7c15.6,25.7,39.8,48.2,65.6,64.7c20.8,13.3,54.1,17.3,75.6,9
	c24.2-9.4,29.8-43.5,19.6-67.3c-13.7-32.5-36-53.7-72.5-54.5c-16.9-1-29.5,1.4-46.3-3c-14.5-3.8-35.3,4.1-43.4,14.2
	C498.8,329.3,497.1,334,496.8,339z"/>
<path class="st54" d="M719,232.6L719,232.6c8,15.7,11.7,33.5,9.8,53.6c-2.2,23.1-14.3,50.8-31.6,74.8c-17.3,24-39.8,44.3-63,52.6
	l0,0c-27,9.7-48.2,22.5-68.7,36.6c-6.7,4.6-13.3,9.4-20,14.2c-13.9,10-28.2,20.2-44.6,30.3l0,0l0,0
	c-51.2,34.3-101.5,46.1-150.9,40.4s-97.9-29-145.6-65l0,0c-35-26.4-63.8-68.2-77.5-112.8s-12.3-92,12.8-129.7
	c22.4-33.4,58.4-63.3,98.9-84.9C279.1,121.1,324,108,364.4,108c100.6,0,207.1,21.4,295.7,69l0,0C685.8,190.7,707.1,209.2,719,232.6z
	"/>
<path class="st55" d="M383.2,472.8c36.9-10.9,43.3-42,45.2-51.5c2-10,9.8-59.8-40.1-98.6c-47.2-36.5-119.7-43-161.3-23.1
	c-38,18.2-56,61.1-25.3,105.3C239.7,459.6,332.4,487.7,383.2,472.8z"/>
<image style="overflow:visible;enable-background:new    ;" width="1505" height="330" id="Layer_0_00000158718378806625227330000013799273936373554869_" xlink:href="37F7B0A3.png"  transform="matrix(0.3945 0 0 0.3945 75.3052 305.2883)">
</image>
<g>
	<path class="st56" d="M277.4,510.8l-10,10.4l5.1,0.8v-3.5h3.1V515h3.1l0.1-1.2c-0.1-0.9,0.6-1.6,1.5-1.4c2.2,0.6,4.7-0.1,6.3-2
		c2-2.5,2-6.3-0.2-8.6c-2.4-2.6-6.4-2.7-8.9-0.1c-1.8,1.9-2.3,4.6-1.4,6.9L264,521"/>
	<path class="st56" d="M283.7,506.8c-1.1,0-1.9-0.9-2-2c0-1.1,0.9-2,2-2c1.1,0,2,0.9,2,2C285.7,506.2,284.8,506.9,283.7,506.8z"/>
</g>
<g>
	<path class="st57" d="M192,74.9c2-0.1,4.7,1.4,6.5,3.9c2.4,3.4,2.6,7.3,0.4,8.8c-2.1,1.5-5.8,0-8.1-3.4c-2.3-3.3-2.5-7-0.6-8.7"/>
	<path class="st57" d="M193,82.6c-0.8-1.4-0.6-3,0.4-3.6c1-0.6,2.5,0.1,3.3,1.4c0.8,1.4,0.6,3-0.4,3.6
		C195.3,84.6,193.8,83.9,193,82.6z"/>
	<path class="st57" d="M141.8,61.7c-0.9-1.6-0.7-3.4,0.4-4c1.1-0.6,2.8,0.1,3.7,1.7c0.9,1.6,0.7,3.4-0.4,4S142.7,63.2,141.8,61.7z"
		/>
	<path class="st57" d="M200.6,74.4c0.7,0.6,1.4,1.4,2,2.2c3.4,4.9,3.3,10.8-0.3,13.4c-3.6,2.5-9.2,0.6-12.7-4.2
		c-2.2-3.2-3-6.8-2.2-9.7"/>
	<path class="st57" d="M148.8,59.5c0.8,2,0.6,4-0.6,4.9c-1.6,1.1-4.4,0-6.2-2.6c-1.7-2.5-2-5.6,0.1-7"/>
	<path class="st57" d="M155.6,64.1c-0.5,0.8-1.1,1.6-1.9,2.1c-3.6,2.5-9.3,0.8-12.6-3.9c-2.2-3.1-2.8-6.7-2-9.5"/>
	<path class="st57" d="M186.9,52.3c-0.3-1.9,0.5-3.6,1.7-3.8c1.3-0.2,2.6,1.1,2.9,3s-0.5,3.6-1.7,3.8
		C188.5,55.5,187.2,54.2,186.9,52.3z"/>
	<path class="st57" d="M184.2,76c0.4,1,2.9-1.4,7.1-1.8c4.3-0.4,6.3,1,7.4,0.9c1.1-0.1,3.9-1.7,3.9-2.5c0-0.8-2.5-3.9-5-5.6
		s-4.6-2.5-5.2-2.4c-0.6,0-3.8,1.7-4.6,2.4C187.1,67.6,183.9,75.3,184.2,76z"/>
	<path class="st57" d="M189.2,67.6c0,0,4.3,1.2,8.5,6.2"/>
	<path class="st57" d="M189.9,74.3c0,0,1.3,5.8,3.4,8.6"/>
	<path class="st57" d="M191.9,74.1c0,0,0.4,3.2,1.6,4.9l1.4-0.8c1-0.5,2.4,0.2,3.1,1.5c0.7,1.3,0.6,2.8-0.1,3.4l-1.6,0.9"/>
	<path class="st57" d="M195.2,84.2c0,0,2.6,3.1,5.1,1.1"/>
	<path class="st57" d="M193.5,64.8c0,0,1-3.4,0.5-7.5c-0.5-4.1-2.7-13.1-6.9-13.1s-9.1,4-9.1,10.8c0,6.8,1.6,11.2,1.6,14.5
		c0,4.2-1,8.9-3.7,7.5c-2.7-1.4-20.5-13.5-20.5-13.5s2.5,6.7,4.4,8.2c1.9,1.6,9,6.5,11,6.9c2,0.4,8.7,1.8,10,1.3
		c1.3-0.5,9.3-5.3,9.3-5.3"/>
	<path class="st57" d="M180.4,50.5c0,0,2.1,4.5,2.7,9.4c0.5,4.9,0.2,5.9,1.1,6.4c1.8,0.9,9.8-4.5,9.8-4.5"/>
	<path class="st57" d="M166.7,46.9c0.1,0.3,0.6,0.5,1.4,0.1c0.8-0.3,5.5-3.5,6-3.3c0.4,0.2,2.4,1.7,3.3,2c0.9,0.3,2.7,0.7,3.6-0.7
		c0,0,0.1-0.9-0.9-0.9c0,0-0.4,0.5-1.3,0.3c-1.9-0.3-3.6-2.6-4.7-2.5c-1.1,0-6.6,3.6-7,3.9C166.5,46.1,166.5,46.8,166.7,46.9z"/>
	<path class="st57" d="M181.8,39.1c0,0,0-1.4,0.3-2.1c0.3-0.7,3.3-3.4,3.8-4c0.5-0.6,0.9-0.3,1.2-0.2c0.3,0.2,0.3,0.6-0.1,1.2
		c-0.6,0.6-3.3,3.3-3.4,3.6c-0.1,0.3,0,2.7,0,2.7"/>
	<path class="st57" d="M179.2,46l0.7,2.3"/>
	<path class="st57" d="M178.8,44.5l-1.1-3.6"/>
	<path class="st57" d="M183.1,39.2l1.5,5.4"/>
	<path class="st57" d="M177.6,40.8c-0.1-0.3,1.1-0.9,2.5-1.4s2.8-0.6,2.8-0.3c0.1,0.3-1.1,0.9-2.5,1.4C179,41,177.7,41.1,177.6,40.8
		z"/>
	<path class="st57" d="M172.3,49.8c0,0-1.2,7.1-1.5,8.4c-0.3,1.4-1.2,3-2.8,4.1c-3.7,2.5-11,2.2-14,0.5
		c-2.3-1.4-15.1-10.3-16.7-11.3c-1.5-1-0.9-2.6-0.6-3.5c0.9-2.6,3-5.7,6.2-8.1c2.4-1.8,5-2.1,5-2.1"/>
	<path class="st57" d="M170.5,45.6c0,0,2,2,1.9,3.6c-0.1,1.6-2.6,2.8-3.5,3.2c-1.5,0.7-3.5,1.2-5.3,0.6c-1.4-0.4-3.6-1.2-7-3.8
		c-2.9-2.2-4.4-3.4-6.3-4.9c-1.3-1.1-2.8-2-2.8-4.7c0-1.5,0.8-2.5,1.7-3.2c0.8-0.6,3-2,5.2-2s3.8,0.9,6.8,3.1c2.7,2,4.2,3.4,6.2,5
		c1.4,1.1,2,1.8,2,1.8"/>
	<path class="st57" d="M171.1,56.2l7.3,4.9"/>
	<path class="st57" d="M137.5,46c0,0,5.6-3.8,13.6,0.8c10.2,5.9,10,17.3,10,17.3"/>
	<path class="st57" d="M140.6,51c0,0,9.3-2.2,13.7,9.5"/>
</g>
<circle class="st58" cx="286.2" cy="170.1" r="21.1"/>
<circle class="st59" cx="579.4" cy="49.7" r="25.4"/>
<circle class="st5" cx="419.5" cy="109.1" r="17.8"/>
<g>
	<path class="st5" d="M295.6,161.1c2.5,2.5,3.7,5.4,3.7,8.7c0,3.4-1.2,6.3-3.6,8.7s-5.3,3.6-8.7,3.6c-2.1,0-4.1-0.5-5.9-1.5
		l-6.5,1.7l1.8-6.4c-1.1-1.9-1.6-3.9-1.6-6.1c0-3.4,1.2-6.3,3.6-8.7c2.4-2.4,5.3-3.6,8.7-3.6C290.3,157.5,293.2,158.7,295.6,161.1z
		 M286.9,180c2.8,0,5.2-1,7.3-3c2-2,3-4.4,3-7.2c0-2.7-1-5.1-3.1-7.2c-2-2-4.4-3-7.2-3c-2.8,0-5.2,1-7.2,3c-2,2-3,4.4-3,7.2
		c0,2,0.5,3.8,1.6,5.4l0.2,0.4l-1,3.8l3.9-1l0.4,0.2C283.3,179.5,285.1,180,286.9,180z M292.5,172.4c0.4,0.2,0.6,0.3,0.6,0.4
		c0.1,0.2,0,0.7-0.2,1.5c-0.1,0.3-0.4,0.6-0.8,0.9c-0.5,0.3-0.8,0.5-1.2,0.5c-1,0.2-2.2-0.1-3.7-0.8c-1.8-0.8-3.5-2.3-5.2-4.6
		c-0.8-1.2-1.3-2.2-1.3-3.1c0-0.9,0.3-1.8,1-2.6c0.3-0.2,0.5-0.3,0.8-0.3c0.3,0,0.5,0,0.6,0c0.3,0,0.5,0.2,0.7,0.5l0.9,2.3
		c0.1,0.2,0.1,0.4,0,0.5c-0.2,0.3-0.3,0.6-0.5,0.8c-0.2,0.2-0.3,0.4-0.4,0.4c0,0,0,0.2,0,0.4c0.5,1,1.1,1.7,1.7,2.1
		c0.6,0.5,1.4,1,2.5,1.5c0.3,0.2,0.5,0.1,0.7,0c0.5-0.5,0.8-1,1-1.2c0.2-0.2,0.4-0.3,0.7-0.2C290.7,171.5,291.4,171.8,292.5,172.4z"
		/>
</g>
<path class="st60" d="M438.1,109.3c0,4.4-1.4,8.3-4.3,11.6c-2.9,3.3-6.5,5.3-10.7,6v-12.5h4.2l0.8-5.2h-5v-3.4c0-1.8,1-2.7,2.9-2.7
	h2.2v-4.4c-1.3-0.2-2.7-0.4-4-0.4c-1.4,0-2.6,0.3-3.6,0.8c-1,0.5-1.8,1.3-2.3,2.4c-0.6,1.1-0.9,2.3-0.9,3.7v4H413v5.2h4.5v12.5
	c-4.3-0.7-7.9-2.7-10.7-6c-2.9-3.3-4.3-7.2-4.3-11.6c0-4.9,1.8-9.2,5.2-12.6c3.5-3.5,7.7-5.2,12.6-5.2c4.9,0,9.2,1.8,12.6,5.2
	C436.4,100.1,438.1,104.4,438.1,109.3z"/>
<g id="EyWqG7.tif_00000132067884330792630140000014402883715065410737_">
	
		<image style="overflow:visible;enable-background:new    ;" width="432" height="354" id="Layer_0_00000062871824970171070520000015444951843530906001_" xlink:href="37F7B0A5.png"  transform="matrix(8.711260e-02 0 0 8.711260e-02 560.7618 32.6289)">
	</image>
</g>
<g id="uAms4n.tif_00000180333388505414821290000017452082466374593468_">
	
		<image style="overflow:visible;enable-background:new    ;" width="355" height="318" id="Layer_0_00000024697042726471977720000008718185649915379387_" xlink:href="37F7B0A7.png"  transform="matrix(0.3368 0 0 0.3368 470.3418 109.5874)">
	</image>
</g>
<g>
	<g>
		<g>
			<g>
				<g>
					<path class="st5" d="M179.8,417.1c-3.4,0-6.2-2.8-6.2-6.2V237.8c0-3.4,2.8-6.2,6.2-6.2h296c3.4,0,6.2,2.8,6.2,6.2v173.1
						c0,3.4-2.8,6.2-6.2,6.2H179.8z"/>
					<path class="st15" d="M475.8,231.8c3.3,0,6,2.7,6,6v173.1c0,3.3-2.7,6-6,6h-296c-3.3,0-6-2.7-6-6V237.8c0-3.3,2.7-6,6-6H475.8
						 M475.8,231.4h-296c-3.5,0-6.4,2.9-6.4,6.4v173.1c0,3.5,2.9,6.4,6.4,6.4h296c3.5,0,6.4-2.9,6.4-6.4V237.8
						C482.2,234.3,479.3,231.4,475.8,231.4L475.8,231.4z"/>
				</g>
			</g>
			<g>
				<path class="st16" d="M472.1,254.9H183.9c-3.5,0-6.3-2.8-6.3-6.3v-6.4c0-3.5,2.8-6.3,6.3-6.3h288.2c3.5,0,6.3,2.8,6.3,6.3v6.4
					C478.4,252.1,475.6,254.9,472.1,254.9z"/>
			</g>
			<g>
				<g>
					<g>
						<g>
							<path class="st5" d="M191.8,242.5v1.1h1v0.7h-1v1.8c0,0.3,0,0.5,0.1,0.6c0.1,0.1,0.2,0.2,0.3,0.2c0.3,0.1,0.5,0.2,0.6,0.2
								v0.6h-0.8c-0.7,0-1-0.5-1-1.4v-1.9h-0.7v-0.5l0.7-0.2l0.2-1.1H191.8z"/>
						</g>
					</g>
					<g>
						<g>
							<path class="st5" d="M193.6,244.1c0.2-0.2,0.3-0.3,0.6-0.4c0.2-0.1,0.5-0.1,0.8-0.1c0.3,0,0.5,0,0.6,0c0.1,0,0.3,0,0.4,0.1
								c0.1,0,0.2,0.1,0.3,0.1c0.1,0.1,0.2,0.2,0.2,0.3c0.1,0.2,0.2,0.5,0.2,1c0,0.7-0.4,1-1.1,1h-1.4c0,0.4,0.1,0.7,0.2,0.8
								c0.1,0.1,0.2,0.1,0.2,0.1c0.1,0,0.4,0,0.8,0c0.4,0,0.8,0,1.2-0.1v0.6c-0.4,0.1-1.1,0.2-2,0.2c-0.5,0-0.9-0.2-1-0.5
								c-0.2-0.3-0.3-0.8-0.3-1.6C193.3,244.9,193.4,244.4,193.6,244.1z M195.8,245c0-0.3,0-0.5-0.1-0.6c-0.1-0.1-0.3-0.1-0.6-0.1
								c-0.4,0-0.6,0-0.7,0.1c-0.1,0.1-0.2,0.3-0.2,0.4c0,0.2,0,0.3,0,0.5h1.3C195.7,245.4,195.8,245.3,195.8,245z"/>
						</g>
					</g>
					<g>
						<g>
							<path class="st5" d="M197.6,247.1c-0.1-0.1-0.1-0.3-0.2-0.6c0-0.2-0.1-0.6-0.1-0.9s0-0.7,0.1-1c0.1-0.3,0.2-0.5,0.3-0.6
								c0.1-0.1,0.3-0.2,0.4-0.3c0.2-0.1,0.3-0.1,0.5-0.1c0.7,0,1.3,0.1,1.8,0.2v0.6c-0.6,0-1,0-1.2,0c-0.3,0-0.4,0-0.5,0
								c0,0-0.1,0-0.2,0c-0.1,0-0.1,0-0.1,0.1c0,0-0.1,0.1-0.1,0.1c0,0.1-0.1,0.1-0.1,0.2c0,0.2-0.1,0.5-0.1,0.8
								c0,0.3,0,0.6,0.1,0.8c0.1,0.2,0.1,0.3,0.2,0.4c0.1,0.1,0.2,0.1,0.5,0.1c0.4,0,0.8,0,1.3-0.1l0.2,0v0.6
								c-0.3,0.1-0.5,0.2-0.8,0.2c-0.1,0-0.2,0-0.2,0c0,0-0.1,0-0.2,0c-0.1,0-0.2,0-0.2,0c0,0-0.1,0-0.2,0c-0.1,0-0.2,0-0.3,0
								c-0.1,0-0.2,0-0.3,0c-0.1,0-0.2-0.1-0.4-0.2C197.7,247.4,197.6,247.3,197.6,247.1z"/>
						</g>
					</g>
					<g>
						<g>
							<path class="st5" d="M203.7,244.9c0-0.4-0.2-0.6-0.5-0.6c-0.2,0-0.4,0-0.6,0.1c-0.2,0.1-0.3,0.2-0.6,0.3v3h-0.9v-4h0.7
								l0.2,0.4c0,0,0.1,0,0.2-0.1c0.1-0.1,0.2-0.1,0.3-0.2c0.1-0.1,0.2-0.1,0.4-0.2c0.2-0.1,0.3-0.1,0.5-0.1c0.4,0,0.7,0.1,0.9,0.4
								c0.2,0.3,0.3,0.6,0.3,1v2.7h-0.9V244.9z"/>
						</g>
					</g>
					<g>
						<g>
							<path class="st5" d="M205.6,247.3c-0.1-0.2-0.2-0.4-0.3-0.6c-0.1-0.2-0.1-0.6-0.1-1.1c0-0.5,0.1-0.8,0.2-1.1
								c0.1-0.3,0.3-0.5,0.6-0.6c0.3-0.1,0.6-0.2,1.1-0.2c0.7,0,1.2,0.2,1.4,0.5c0.3,0.3,0.4,0.8,0.4,1.6c0,0.8-0.1,1.3-0.4,1.6
								c-0.3,0.3-0.7,0.4-1.4,0.4c-0.4,0-0.6,0-0.9-0.1C205.9,247.6,205.7,247.4,205.6,247.3z M206.1,244.8c0,0.1-0.1,0.2-0.1,0.4
								c0,0.1,0,0.3,0,0.5c0,0.2,0,0.4,0,0.5c0,0.1,0,0.3,0.1,0.3c0,0.1,0.1,0.2,0.1,0.2c0,0.1,0.1,0.1,0.2,0.1
								c0.1,0,0.3,0.1,0.5,0.1c0.2,0,0.3,0,0.4,0c0.1,0,0.2,0,0.3-0.1c0.1,0,0.2-0.1,0.2-0.2c0.1-0.2,0.1-0.5,0.1-0.8
								c0-0.3,0-0.6,0-0.7c0-0.1,0-0.3-0.1-0.4c0-0.1-0.1-0.2-0.1-0.2c0-0.1-0.1-0.1-0.2-0.1c-0.1-0.1-0.3-0.1-0.5-0.1
								c-0.2,0-0.3,0-0.4,0c-0.1,0-0.2,0-0.2,0.1c-0.1,0-0.1,0.1-0.2,0.1C206.2,244.6,206.2,244.7,206.1,244.8z"/>
						</g>
					</g>
					<g>
						<g>
							<path class="st5" d="M212.9,244.7v0.3v2.7h-0.9V245c0-0.2,0-0.4-0.1-0.5c-0.1-0.1-0.2-0.2-0.4-0.2c-0.2,0-0.4,0-0.5,0.1
								c-0.2,0.1-0.3,0.2-0.6,0.3v3h-0.9v-4h0.7l0.2,0.5c0,0,0.1,0,0.1-0.1c0.1,0,0.1-0.1,0.1-0.1c0,0,0.1,0,0.1-0.1
								c0.1,0,0.1-0.1,0.1-0.1c0,0,0.1,0,0.1-0.1c0.1,0,0.1,0,0.2-0.1c0,0,0.1,0,0.2,0c0.1,0,0.2,0,0.4,0c0.2,0,0.4,0,0.6,0.1
								c0.2,0.1,0.3,0.2,0.4,0.4c0.5-0.4,1-0.5,1.5-0.5c0.4,0,0.7,0.1,0.9,0.4c0.2,0.3,0.3,0.6,0.3,1v2.7h-0.9V245
								c0-0.2,0-0.4-0.1-0.5c-0.1-0.1-0.2-0.2-0.4-0.2c-0.2,0-0.3,0-0.4,0C213.4,244.4,213.2,244.5,212.9,244.7z"/>
						</g>
					</g>
				</g>
				<g>
					<path class="st5" d="M192.7,250.5c-1.3,0-2.9-0.2-3.9-1.3c-0.7-0.8-1.4-1.9-1.3-4.8c0-0.9,0.1-3.8,3.9-4.1
						c0.8-0.1,2.2-0.1,4.2-0.1c2.9,0,6.2,0.1,7.3,0.1c1.9,0.1,7.7,0.3,10.5,0.7c2.3,0.3,3.8,0.8,4.4,1.6c0.5,0.7,0.7,1.7,0.7,3
						c-0.1,1.5-0.2,2.3-0.7,3.1c-0.4,0.7-1.4,1.1-2.7,1.3c-1.4,0.2-7.8,0.4-9.8,0.5C202.9,250.4,195.3,250.5,192.7,250.5
						L192.7,250.5z M195.6,240.6c-2,0-3.4,0-4.2,0.1c-3.1,0.2-3.5,2.2-3.6,3.7c-0.1,2.8,0.6,3.9,1.2,4.5c1,1.1,2.5,1.2,3.6,1.2h0.1
						c2.5,0,10.1-0.1,12.4-0.2c2.2,0,8.4-0.3,9.7-0.5c1.2-0.1,2-0.5,2.4-1.1c0.5-0.7,0.6-1.4,0.7-2.8c0-1.2-0.1-2.1-0.6-2.7
						c-0.5-0.7-1.9-1.2-4.1-1.5c-2.7-0.3-8.6-0.6-10.4-0.7C201.8,240.6,198.5,240.6,195.6,240.6z"/>
				</g>
			</g>
			<g>
				<g>
					<circle class="st17" cx="464.7" cy="245.4" r="3"/>
					<circle class="st17" cx="453.2" cy="245.4" r="3"/>
					<circle class="st17" cx="440.8" cy="245.4" r="3"/>
				</g>
			</g>
		</g>
		<g>
			<g>
				<path class="st16" d="M187.5,274.4l0.4-10.5c0-0.8,0.5-1.2,1.3-1.2h1.5c0.7,0,1.2,0.4,1.4,1.1l1.7,6.4c0.1,0.5,0.2,1,0.3,1.5
					c0,0.2,0.1,0.2,0.2,0.2c0.1,0,0.2-0.1,0.2-0.2c0.1-0.5,0.2-1,0.3-1.5l1.7-6.4c0.2-0.7,0.6-1.1,1.4-1.1h1.5
					c0.8,0,1.3,0.4,1.3,1.2l0.4,10.5c0,0.5-0.2,0.7-0.7,0.7h-0.8c-0.4,0-0.7-0.2-0.7-0.7l-0.4-9.6c0-0.2-0.1-0.3-0.2-0.3
					c-0.1,0-0.2,0.1-0.2,0.2l-2.1,7.7c-0.2,0.7-0.7,1.1-1.4,1.1h-0.9c-0.7,0-1.2-0.4-1.4-1.1l-2.1-7.7c0-0.2-0.1-0.2-0.2-0.2
					s-0.2,0.1-0.2,0.3l-0.3,9.6c0,0.4-0.3,0.7-0.7,0.7h-0.8C187.7,275.1,187.5,274.9,187.5,274.4z"/>
				<path class="st16" d="M202.8,274.3l3.4-10.7c0.2-0.6,0.6-0.9,1.3-0.9h1.5c0.7,0,1.1,0.3,1.3,0.9l3.4,10.7
					c0.2,0.5-0.1,0.8-0.6,0.8h-0.8c-0.4,0-0.7-0.2-0.8-0.6l-0.8-2.7c0-0.2-0.1-0.2-0.3-0.2h-4.1c-0.2,0-0.3,0.1-0.3,0.2l-0.8,2.7
					c-0.1,0.4-0.4,0.6-0.8,0.6h-0.8C202.8,275.1,202.6,274.8,202.8,274.3z M209.6,269.8c0.2,0,0.3-0.1,0.2-0.3l-1.2-4
					c-0.1-0.3-0.2-0.5-0.2-0.8c0-0.2-0.1-0.2-0.3-0.2h0c-0.2,0-0.3,0.1-0.3,0.2c-0.1,0.3-0.1,0.5-0.2,0.8l-1.2,4
					c-0.1,0.2,0,0.3,0.2,0.3H209.6z"/>
				<path class="st16" d="M215.3,274.4v-10.6c0-0.7,0.4-1.2,1.2-1.2c0.9-0.1,2-0.1,2.9-0.1c3,0,4.9,0.3,4.9,3.6
					c0,2.6-1.4,2.9-2.1,3.1c-0.2,0.1-0.2,0.1,0,0.2c0.6,0.3,1.1,0.5,1.5,1.8l0.9,3.1c0.1,0.5-0.1,0.8-0.6,0.8h-0.9
					c-0.4,0-0.7-0.2-0.8-0.6l-0.8-3.2c-0.3-0.8-0.7-1.1-1.4-1.1h-2.1c-0.2,0-0.3,0.1-0.3,0.3v4c0,0.5-0.2,0.7-0.7,0.7H216
					C215.5,275.1,215.3,274.9,215.3,274.4z M219.9,268.3c1.6,0,2.1-0.5,2.1-2c0-1.5-0.5-1.9-2.3-1.9c-0.6,0-1.1,0-1.7,0
					c-0.3,0-0.5,0.1-0.5,0.4v3.2c0,0.2,0.1,0.3,0.3,0.3H219.9z"/>
				<path class="st16" d="M226.8,274.4v-11c0-0.5,0.2-0.7,0.7-0.7h0.8c0.5,0,0.7,0.2,0.7,0.7v3c0,0.4-0.1,0.8-0.1,1.1
					c0,0.2,0,0.3,0.2,0.3h0.7c0.2,0,0.3-0.1,0.3-0.2l3-4.5c0.2-0.3,0.5-0.5,0.8-0.5h0.9c0.6,0,0.8,0.4,0.5,0.8l-2.8,4.2
					c-0.2,0.3-0.4,0.5-0.7,0.8c-0.1,0.1-0.1,0.3,0,0.4c0.3,0.3,0.6,0.6,0.8,0.9l2.9,4.5c0.3,0.5,0.1,0.8-0.5,0.8h-1
					c-0.4,0-0.6-0.1-0.8-0.5l-3.2-4.9c-0.1-0.1-0.2-0.2-0.3-0.2h-0.8c-0.2,0-0.3,0.1-0.2,0.3c0.1,0.3,0.1,0.6,0.1,0.9v3.7
					c0,0.5-0.2,0.7-0.7,0.7h-0.8C227,275.1,226.8,274.9,226.8,274.4z"/>
				<path class="st16" d="M237.5,272.8V265c0-1.4,1-2.3,2.7-2.3h4.8c0.4,0,0.7,0.3,0.6,0.8l0,0.3c0,0.4-0.3,0.7-0.7,0.7h-4.2
					c-0.7,0-0.9,0.3-0.9,1v1.9c0,0.2,0.1,0.3,0.3,0.3h4.1c0.5,0,0.7,0.2,0.7,0.7v0.3c0,0.5-0.2,0.7-0.7,0.7H240
					c-0.2,0-0.3,0.1-0.3,0.3v2.5c0,0.8,0.2,1,0.9,1h4.2c0.4,0,0.7,0.2,0.7,0.7l0,0.3c0,0.5-0.2,0.8-0.6,0.8h-4.8
					C238.5,275.1,237.5,274.2,237.5,272.8z"/>
				<path class="st16" d="M250.6,274.4v-9.5c0-0.2-0.1-0.3-0.3-0.3h-2.8c-0.5,0-0.7-0.2-0.7-0.7v-0.5c0-0.5,0.2-0.7,0.7-0.7h8.5
					c0.5,0,0.7,0.2,0.7,0.7v0.5c0,0.5-0.2,0.7-0.7,0.7h-2.8c-0.2,0-0.3,0.1-0.3,0.3v9.5c0,0.5-0.2,0.7-0.7,0.7h-0.9
					C250.8,275.1,250.6,274.9,250.6,274.4z"/>
				<path class="st16" d="M258.5,274.4v-11c0-0.5,0.2-0.7,0.7-0.7h0.8c0.5,0,0.7,0.2,0.7,0.7v11c0,0.5-0.2,0.7-0.7,0.7h-0.8
					C258.7,275.1,258.5,274.9,258.5,274.4z"/>
				<path class="st16" d="M263.5,274.4v-10.7c0-0.7,0.4-1.1,1.1-1.1h1.3c0.6,0,1,0.2,1.2,0.8l3.4,7.3c0.2,0.5,0.4,1,0.7,1.4
					c0.1,0.1,0.1,0.2,0.2,0.2c0.1,0,0.1-0.1,0.1-0.2c0-0.5,0-0.9,0-1.4l0-7.4c0-0.5,0.2-0.7,0.7-0.7h0.8c0.5,0,0.7,0.2,0.7,0.7v10.7
					c0,0.7-0.4,1.1-1.1,1.1h-1.3c-0.6,0-1-0.2-1.2-0.8l-3.4-7.4c-0.2-0.5-0.4-0.9-0.6-1.4c-0.1-0.1-0.1-0.2-0.2-0.2
					c-0.1,0-0.1,0.1-0.1,0.2c0,0.5,0,1,0,1.5l0,7.3c0,0.5-0.2,0.7-0.7,0.7h-0.8C263.7,275.1,263.5,274.9,263.5,274.4z"/>
				<path class="st16" d="M275.9,268.9c0-5,1.4-6.4,5.5-6.4c1,0,2,0.1,2.9,0.3c0.4,0.1,0.6,0.4,0.6,0.8l0,0.3
					c-0.1,0.4-0.3,0.7-0.8,0.6c-1-0.1-1.9-0.1-2.6-0.1c-2.4,0-3.2,0.5-3.2,4.5c0,3.3,0.5,4.4,2.2,4.4c0.9,0,1.7-0.2,2.4-0.5
					c0.1-0.1,0.2-0.2,0.2-0.3v-3.9c0-0.5,0.2-0.7,0.7-0.7h0.8c0.5,0,0.7,0.2,0.7,0.7v5.8c0,0.5-0.2,0.7-0.7,0.7h-0.3
					c-0.4,0-0.7-0.2-0.8-0.6l0-0.1c0-0.2-0.2-0.2-0.4-0.1c-0.7,0.5-1.9,0.9-3.4,0.9C277.1,275.3,275.9,273.3,275.9,268.9z"/>
			</g>
		</g>
		<g>
			<path class="st61" d="M388.6,280.7v-6.8c0-2.7,2.2-4.8,4.8-4.8h29.4c2.7,0,4.8,2.2,4.8,4.8v6.8"/>
		</g>
		<g>
			<path class="st61" d="M348.2,280.7v-6.8c0-2.7,2.2-4.8,4.8-4.8h29.4c2.7,0,4.8,2.2,4.8,4.8v6.8"/>
		</g>
		<g>
			<path class="st61" d="M428.9,280.7v-6.8c0-2.7,2.2-4.8,4.8-4.8h29.4c2.7,0,4.8,2.2,4.8,4.8v6.8"/>
		</g>
		<line class="st61" x1="187.5" y1="280.7" x2="470.1" y2="280.7"/>
		<line class="st61" x1="187.5" y1="320.9" x2="470.1" y2="320.9"/>
		<path class="st62" d="M420,277.3h-22.8c-0.4,0-0.7-0.3-0.7-0.7v-1.4c0-0.4,0.3-0.7,0.7-0.7H420c0.4,0,0.7,0.3,0.7,0.7v1.4
			C420.8,277,420.5,277.3,420,277.3z"/>
		<path class="st62" d="M381.2,277.3h-26.6c-0.4,0-0.8-0.4-0.8-0.8v-1.2c0-0.4,0.4-0.8,0.8-0.8l26.6,0c0.4,0,0.8,0.4,0.8,0.8v1.2
			C382,277,381.7,277.3,381.2,277.3z"/>
		<path class="st62" d="M457.8,277.3h-17.2c-0.4,0-0.7-0.3-0.7-0.7v-1.5c0-0.4,0.3-0.7,0.7-0.7h17.2c0.4,0,0.7,0.3,0.7,0.7v1.5
			C458.5,277,458.2,277.3,457.8,277.3z"/>
		<g>
			<g>
				<g>
					<path class="st26" d="M211.2,305v-5.3c0-0.2,0-0.4,0-0.6c0-0.1-0.1-0.2-0.2-0.2l-1.1,0.3c-0.4,0.1-0.6-0.1-0.7-0.4l0-0.2
						c-0.1-0.3,0.1-0.6,0.4-0.7l1.3-0.5c0.2-0.1,0.4-0.1,0.7-0.1h0.9c0.4,0,0.6,0.2,0.6,0.6v7.2c0,0.4-0.2,0.6-0.6,0.6h-0.7
						C211.4,305.6,211.2,305.4,211.2,305z"/>
					<path class="st26" d="M214.8,301.4c0-3.2,0.8-4.3,3.2-4.3c2.4,0,3.2,1.2,3.2,4.3c0,3.2-0.8,4.3-3.2,4.3
						C215.6,305.8,214.8,304.6,214.8,301.4z M219.4,301.4c0-2.3-0.3-2.9-1.4-2.9c-1.1,0-1.4,0.6-1.4,2.9c0,2.3,0.3,2.9,1.4,2.9
						C219.1,304.3,219.4,303.7,219.4,301.4z"/>
					<path class="st26" d="M224,305v-5.3c0-0.2,0-0.4,0-0.6c0-0.1-0.1-0.2-0.2-0.2l-1.1,0.3c-0.4,0.1-0.6-0.1-0.7-0.4l0-0.2
						c-0.1-0.3,0.1-0.6,0.4-0.7l1.3-0.5c0.2-0.1,0.4-0.1,0.7-0.1h0.9c0.4,0,0.6,0.2,0.6,0.6v7.2c0,0.4-0.2,0.6-0.6,0.6h-0.7
						C224.2,305.6,224,305.4,224,305z"/>
					<path class="st26" d="M227.6,303.5c0-1.1,0.3-2,1.2-2.2c0.1,0,0.1-0.1,0-0.1c-0.8-0.2-1-1-1-1.9c0-1.6,0.5-2.2,2.9-2.2
						c2.4,0,2.9,0.7,2.9,2.2c0,0.9-0.3,1.6-1,1.9c-0.1,0-0.1,0.1,0,0.1c1,0.2,1.2,1.1,1.2,2.2c0,1.6-0.6,2.2-3.1,2.2
						C228.2,305.8,227.6,305.1,227.6,303.5z M232.1,303.1c0-1-0.2-1.2-1.3-1.2c-1.1,0-1.4,0.3-1.4,1.2c0,0.9,0.3,1.2,1.4,1.2
						C231.8,304.3,232.1,304.1,232.1,303.1z M232,299.5c0-0.9-0.2-1.1-1.2-1.1c-1,0-1.3,0.2-1.3,1.1c0,0.9,0.2,1.1,1.3,1.1
						C231.8,300.6,232,300.4,232,299.5z"/>
					<path class="st26" d="M235.1,301.5c0-3.8,1.2-4.4,3.5-4.4c0.3,0,0.9,0,1.5,0.1c0.4,0.1,0.5,0.3,0.5,0.6v0.1
						c0,0.4-0.2,0.5-0.6,0.5c-0.4,0-0.8,0-1.3,0c-1.1,0-1.6,0.2-1.7,1.8c0,0.2,0.1,0.3,0.2,0.2c0.4-0.3,0.9-0.4,1.6-0.4
						c1.8,0,2.4,0.7,2.4,2.7c0,1.9-0.5,3-2.9,3C235.7,305.7,235.1,304.9,235.1,301.5z M239.3,302.8c0-1-0.2-1.3-1.2-1.3
						c-0.4,0-0.8,0.1-1.2,0.4c-0.1,0.1-0.1,0.2-0.1,0.4c0,1.7,0.2,2.1,1.3,2.1C239.2,304.3,239.3,303.8,239.3,302.8z"/>
				</g>
			</g>
			<g>
				<g>
					<path class="st26" d="M270.1,305.6c-0.4,0-0.5-0.3-0.5-0.6l0-0.3c0-0.4,0.2-0.6,0.6-0.5c0.6,0,1.2,0,1.7,0
						c1.2,0,1.5-0.2,1.5-1.2c0-0.8-0.2-1.2-1.3-1.2l-1,0c-0.3,0-0.5-0.2-0.5-0.5v-0.2c0-0.3,0.2-0.5,0.5-0.5h1
						c1.1,0,1.2-0.5,1.2-1.1c0-0.8-0.3-0.9-1.3-0.9c-0.6,0-1.2,0-1.7,0c-0.4,0-0.6-0.2-0.6-0.5l0-0.2c0-0.4,0.2-0.6,0.5-0.6
						c0.7-0.1,1.4-0.1,2.1-0.1c2,0,2.8,0.5,2.8,1.9c0,1.1-0.2,1.8-1.1,2.1c-0.1,0-0.1,0.1,0,0.2c1,0.2,1.3,0.9,1.3,2
						c0,1.7-0.7,2.5-2.9,2.5C271.7,305.7,270.9,305.7,270.1,305.6z"/>
					<path class="st26" d="M277,305.6c-0.4,0-0.5-0.3-0.5-0.6l0-0.3c0-0.4,0.3-0.5,0.6-0.5c0.6,0.1,1.2,0.1,1.6,0.1
						c1.3,0,1.5-0.4,1.6-1.2c0-1.1-0.5-1.2-2-1.3l-1-0.1c-0.4,0-0.6-0.3-0.6-0.7l0.2-3.1c0-0.4,0.2-0.5,0.6-0.5h3.8
						c0.4,0,0.6,0.2,0.6,0.6l0,0.3c0,0.4-0.2,0.5-0.6,0.5h-2.7c-0.1,0-0.2,0.1-0.2,0.2l-0.1,1.1c0,0.1,0.1,0.2,0.2,0.2l1,0.1
						c2,0.2,2.6,1.2,2.6,2.7c0,1.4-0.6,2.7-2.9,2.7C278.6,305.7,277.8,305.7,277,305.6z"/>
					<path class="st26" d="M284.9,305v-5.3c0-0.2,0-0.4,0-0.6c0-0.1-0.1-0.2-0.2-0.2l-1.1,0.3c-0.4,0.1-0.6-0.1-0.7-0.4l0-0.2
						c-0.1-0.3,0.1-0.6,0.4-0.7l1.3-0.5c0.2-0.1,0.4-0.1,0.7-0.1h0.9c0.4,0,0.6,0.2,0.6,0.6v7.2c0,0.4-0.2,0.6-0.6,0.6h-0.7
						C285,305.6,284.9,305.4,284.9,305z"/>
				</g>
			</g>
			<g>
				<g>
					<path class="st26" d="M316.7,305.6c-0.4,0-0.5-0.3-0.5-0.6l0-0.3c0-0.4,0.2-0.6,0.6-0.5c0.6,0,1.2,0,1.7,0
						c1.2,0,1.5-0.2,1.5-1.2c0-0.8-0.2-1.2-1.3-1.2l-1,0c-0.3,0-0.5-0.2-0.5-0.5v-0.2c0-0.3,0.2-0.5,0.5-0.5h1
						c1.1,0,1.2-0.5,1.2-1.1c0-0.8-0.3-0.9-1.3-0.9c-0.6,0-1.2,0-1.7,0c-0.4,0-0.6-0.2-0.6-0.5l0-0.2c0-0.4,0.2-0.6,0.5-0.6
						c0.7-0.1,1.4-0.1,2.1-0.1c2,0,2.8,0.5,2.8,1.9c0,1.1-0.2,1.8-1.1,2.1c-0.1,0-0.1,0.1,0,0.2c1,0.2,1.3,0.9,1.3,2
						c0,1.7-0.7,2.5-2.9,2.5C318.3,305.7,317.5,305.7,316.7,305.6z"/>
					<path class="st26" d="M323,304.7c0-0.6,0.5-1,1-1s1,0.5,1,1c0,0.6-0.5,1-1,1S323,305.2,323,304.7z"/>
					<path class="st26" d="M330.1,305V304c0-0.1-0.1-0.2-0.2-0.2h-3.1c-0.7,0-1.2-0.7-0.9-1.4l2-4.7c0.1-0.3,0.3-0.4,0.7-0.4h0.6
						c0.4,0,0.6,0.3,0.4,0.7l-1.7,4.1c-0.1,0.3,0,0.4,0.2,0.4h1.8c0.1,0,0.2-0.1,0.2-0.2v-1.7c0-0.3,0-0.4,0.1-0.7l0.1-0.5
						c0.1-0.3,0.3-0.5,0.6-0.5h0.3c0.4,0,0.6,0.2,0.6,0.6v2.8c0,0.1,0.1,0.2,0.2,0.2h0.4c0.3,0,0.4,0.2,0.4,0.5v0.2
						c0,0.3-0.1,0.5-0.4,0.5l-0.4,0.1c-0.1,0-0.2,0.1-0.2,0.2v1.1c0,0.4-0.2,0.6-0.6,0.6h-0.6C330.3,305.6,330.1,305.4,330.1,305z"
						/>
					<path class="st26" d="M334.3,305.6c-0.4,0-0.5-0.3-0.5-0.6l0-0.3c0-0.4,0.3-0.5,0.6-0.5c0.6,0.1,1.2,0.1,1.6,0.1
						c1.3,0,1.5-0.4,1.6-1.2c0-1.1-0.5-1.2-2-1.3l-1-0.1c-0.4,0-0.6-0.3-0.6-0.7l0.2-3.1c0-0.4,0.2-0.5,0.6-0.5h3.8
						c0.4,0,0.6,0.2,0.6,0.6l0,0.3c0,0.4-0.2,0.5-0.6,0.5h-2.7c-0.1,0-0.2,0.1-0.2,0.2l-0.1,1.1c0,0.1,0.1,0.2,0.2,0.2l1,0.1
						c2,0.2,2.6,1.2,2.6,2.7c0,1.4-0.6,2.7-2.9,2.7C335.8,305.7,335.1,305.7,334.3,305.6z"/>
					<path class="st26" d="M340.3,299.6c0-1.9,0.5-2.5,2.1-2.5c1.5,0,2.1,0.6,2.1,2.5c0,1.8-0.5,2.5-2.1,2.5
						C340.8,302.1,340.3,301.4,340.3,299.6z M343.1,299.6c0-1.2-0.2-1.5-0.8-1.5c-0.6,0-0.7,0.3-0.7,1.5c0,1.2,0.2,1.5,0.7,1.5
						C343,301.1,343.1,300.8,343.1,299.6z M342.6,305.1l4.6-7.6c0.1-0.2,0.2-0.3,0.5-0.3h0.3c0.4,0,0.4,0.2,0.3,0.5l-4.6,7.6
						c-0.1,0.2-0.2,0.3-0.5,0.3h-0.3C342.5,305.6,342.4,305.4,342.6,305.1z M346.3,303.2c0-1.8,0.5-2.5,2.1-2.5
						c1.5,0,2.1,0.6,2.1,2.5c0,1.9-0.5,2.5-2.1,2.5C346.9,305.7,346.3,305.1,346.3,303.2z M349.1,303.2c0-1.2-0.2-1.5-0.8-1.5
						c-0.6,0-0.7,0.2-0.7,1.5c0,1.2,0.2,1.5,0.7,1.5C349,304.7,349.1,304.5,349.1,303.2z"/>
				</g>
			</g>
			<g>
				<g>
					<path class="st26" d="M378.5,305.6c-0.4,0-0.5-0.3-0.5-0.6l0-0.3c0-0.4,0.3-0.5,0.6-0.5c0.6,0.1,1.2,0.1,1.6,0.1
						c1.3,0,1.5-0.4,1.6-1.2c0-1.1-0.5-1.2-2-1.3l-1-0.1c-0.4,0-0.6-0.3-0.6-0.7l0.2-3.1c0-0.4,0.2-0.5,0.6-0.5h3.8
						c0.4,0,0.6,0.2,0.6,0.6l0,0.3c0,0.4-0.2,0.5-0.6,0.5h-2.7c-0.1,0-0.2,0.1-0.2,0.2l-0.1,1.1c0,0.1,0.1,0.2,0.2,0.2l1,0.1
						c2,0.2,2.6,1.2,2.6,2.7c0,1.4-0.6,2.7-2.9,2.7C380.1,305.7,379.3,305.7,378.5,305.6z"/>
					<path class="st26" d="M384.9,305v-7.3c0-0.4,0.2-0.6,0.6-0.6h0.6c0.4,0,0.6,0.2,0.6,0.6l0,1.2c0,0.3,0,0.6-0.1,0.9
						c0,0.2,0.1,0.2,0.3,0.1c0.7-0.3,1.4-0.5,2.1-0.5c1.1,0,1.7,0.6,1.7,1.8v3.7c0,0.4-0.2,0.6-0.6,0.6h-0.6c-0.4,0-0.6-0.2-0.6-0.6
						v-3.3c0-0.5-0.1-0.7-0.6-0.7c-0.5,0-0.9,0.1-1.5,0.3c-0.1,0-0.2,0.1-0.2,0.2v3.5c0,0.4-0.2,0.6-0.6,0.6h-0.6
						C385.1,305.6,384.9,305.4,384.9,305z"/>
					<path class="st26" d="M398.6,305V304c0-0.1-0.1-0.2-0.2-0.2h-3.1c-0.7,0-1.2-0.7-0.9-1.4l2-4.7c0.1-0.3,0.3-0.4,0.7-0.4h0.6
						c0.4,0,0.6,0.3,0.4,0.7l-1.7,4.1c-0.1,0.3,0,0.4,0.2,0.4h1.8c0.1,0,0.2-0.1,0.2-0.2v-1.7c0-0.3,0-0.4,0.1-0.7l0.1-0.5
						c0.1-0.3,0.3-0.5,0.6-0.5h0.3c0.4,0,0.6,0.2,0.6,0.6v2.8c0,0.1,0.1,0.2,0.2,0.2h0.4c0.3,0,0.4,0.2,0.4,0.5v0.2
						c0,0.3-0.1,0.5-0.4,0.5l-0.4,0.1c-0.1,0-0.2,0.1-0.2,0.2v1.1c0,0.4-0.2,0.6-0.6,0.6h-0.6C398.8,305.6,398.6,305.4,398.6,305z"
						/>
					<path class="st26" d="M403.7,305v-5.3c0-0.2,0-0.4,0-0.6c0-0.1-0.1-0.2-0.2-0.2l-1.1,0.3c-0.4,0.1-0.6-0.1-0.7-0.4l0-0.2
						c-0.1-0.3,0.1-0.6,0.4-0.7l1.3-0.5c0.2-0.1,0.4-0.1,0.7-0.1h0.9c0.4,0,0.6,0.2,0.6,0.6v7.2c0,0.4-0.2,0.6-0.6,0.6h-0.7
						C403.9,305.6,403.7,305.4,403.7,305z"/>
					<path class="st26" d="M407.4,305v-4.8c0-0.4,0.2-0.6,0.6-0.6h0.3c0.3,0,0.5,0,0.6,0.3l0,0.1c0,0.1,0.1,0.2,0.3,0.1
						c0.7-0.4,1.5-0.6,2.1-0.6c0.6,0,1.1,0.1,1.4,0.6c0.1,0.1,0.2,0.1,0.3,0c0.7-0.5,1.3-0.6,2-0.6c1.1,0,1.7,0.6,1.7,1.7v3.9
						c0,0.4-0.2,0.6-0.6,0.6h-0.6c-0.4,0-0.6-0.2-0.6-0.6v-3.3c0-0.5-0.2-0.7-0.6-0.7c-0.3,0-0.6,0-1.2,0.3
						c-0.1,0.1-0.2,0.1-0.2,0.2c0,0.1,0,0.3,0,0.4v3.1c0,0.4-0.2,0.6-0.6,0.6h-0.5c-0.4,0-0.6-0.2-0.6-0.6v-3.3
						c0-0.5-0.2-0.7-0.6-0.7c-0.2,0-0.6,0-1.1,0.3c-0.1,0-0.2,0.1-0.2,0.2v3.5c0,0.4-0.2,0.6-0.6,0.6H408
						C407.6,305.6,407.4,305.4,407.4,305z"/>
				</g>
			</g>
			<g>
				<path class="st11" d="M252.1,304.9V300c0-0.5,0.4-0.8,0.8-0.8h1.2c0.5,0,0.8,0.4,0.8,0.8v4.9c0,0.5-0.4,0.8-0.8,0.8H253
					C252.5,305.7,252.1,305.4,252.1,304.9z"/>
				<path class="st11" d="M258.3,295.4c0.5,0,1.6,0.5,1.6,1.9c0,1.2-0.4,1.9-0.4,1.9h2.3c1.2,0,2.1,1.1,1.9,2.2l-0.5,3.1
					c-0.2,0.9-1,1.6-1.9,1.6h-0.8c-2.4,0-3.9-0.5-4.7-0.9v-5.9c0.7-0.5,1.8-1.4,1.8-2.5C257.6,295.7,257.8,295.4,258.3,295.4
					L258.3,295.4z"/>
			</g>
			<g>
				<circle class="st22" cx="368.1" cy="301.1" r="5.8"/>
				<path class="st5" d="M368,297c-0.3,0-0.6,0.3-0.6,0.6v3.9c0,0.3,0.3,0.6,0.6,0.6h2.6c0.3,0,0.6-0.3,0.6-0.6s-0.3-0.6-0.6-0.6h-2
					v-3.3C368.6,297.3,368.3,297,368,297L368,297z"/>
			</g>
			<path class="st63" d="M309.7,301.2h-3v5.1c0,0.4-0.3,0.7-0.7,0.7h-2.2c-0.4,0-0.7-0.3-0.7-0.7v-5.1h-3c-0.7,0-1-0.8-0.5-1.3
				l4.8-4.8c0.3-0.3,0.8-0.3,1,0l4.8,4.8C310.7,300.4,310.4,301.2,309.7,301.2L309.7,301.2z"/>
		</g>
		<g>
			<path class="st11" d="M187.2,347.6v-3.2c0-1.7,1.4-3.1,3.1-3.1H225c1.7,0,3.1,1.4,3.1,3.1v3.2c0,1.7-1.4,3.1-3.1,3.1h-34.7
				C188.6,350.7,187.2,349.3,187.2,347.6z"/>
			<path class="st22" d="M187.2,361.7v-3.2c0-1.7,1.4-3.1,3.1-3.1h25.3c1.7,0,3.1,1.4,3.1,3.1v3.2c0,1.7-1.4,3.1-3.1,3.1h-25.3
				C188.6,364.8,187.2,363.4,187.2,361.7z"/>
			<path class="st63" d="M187.2,375.8v-3.2c0-1.7,1.4-3.1,3.1-3.1h14.9c1.7,0,3.1,1.4,3.1,3.1v3.2c0,1.7-1.4,3.1-3.1,3.1h-14.9
				C188.6,378.9,187.2,377.6,187.2,375.8z"/>
			<path class="st20" d="M187.2,390v-3.2c0-1.7,1.4-3.1,3.1-3.1h8.2c1.7,0,3.1,1.4,3.1,3.1v3.2c0,1.7-1.4,3.1-3.1,3.1h-8.2
				C188.6,393.1,187.2,391.7,187.2,390z"/>
			<path class="st62" d="M257.1,347.7h-21.5c-0.6,0-1.1-0.5-1.1-1.1v-1.1c0-0.6,0.5-1.1,1.1-1.1h21.5c0.6,0,1.1,0.5,1.1,1.1v1.1
				C258.2,347.2,257.7,347.7,257.1,347.7z"/>
			<path class="st62" d="M249.1,361.8h-23.8c-0.6,0-1.1-0.5-1.1-1.1v-1.1c0-0.6,0.5-1.1,1.1-1.1h23.8c0.6,0,1.1,0.5,1.1,1.1v1.1
				C250.2,361.3,249.7,361.8,249.1,361.8z"/>
			<path class="st62" d="M233.4,375.1h-18.8c-0.6,0-1.1-0.5-1.1-1.1v-1.1c0-0.6,0.5-1.1,1.1-1.1h18.8c0.6,0,1.1,0.5,1.1,1.1v1.1
				C234.5,374.6,234,375.1,233.4,375.1z"/>
			<path class="st62" d="M233.4,390h-23.6c-0.6,0-1.1-0.5-1.1-1.1v-1.1c0-0.6,0.5-1.1,1.1-1.1h23.6c0.6,0,1.1,0.5,1.1,1.1v1.1
				C234.5,389.5,234,390,233.4,390z"/>
		</g>
		<g>
			<path class="st11" d="M335.7,347.7v-3.2c0-1.7,1.4-3.1,3.1-3.1h28.7c1.7,0,3.1,1.4,3.1,3.1v3.2c0,1.7-1.4,3.1-3.1,3.1h-28.7
				C337,350.8,335.7,349.4,335.7,347.7z"/>
			<path class="st22" d="M335.7,361.8v-3.2c0-1.7,1.4-3.1,3.1-3.1H365c1.7,0,3.1,1.4,3.1,3.1v3.2c0,1.7-1.4,3.1-3.1,3.1h-26.2
				C337,364.9,335.7,363.5,335.7,361.8z"/>
			<path class="st63" d="M335.7,375.9v-3.2c0-1.7,1.4-3.1,3.1-3.1h14.3c1.7,0,3.1,1.4,3.1,3.1v3.2c0,1.7-1.4,3.1-3.1,3.1h-14.3
				C337,379,335.7,377.6,335.7,375.9z"/>
			<path class="st20" d="M335.7,390v-3.2c0-1.7,1.4-3.1,3.1-3.1h9.6c1.7,0,3.1,1.4,3.1,3.1v3.2c0,1.7-1.4,3.1-3.1,3.1h-9.6
				C337,393.1,335.7,391.7,335.7,390z"/>
			<path class="st62" d="M395.8,347.8h-21.5c-0.6,0-1.1-0.5-1.1-1.1v-1.1c0-0.6,0.5-1.1,1.1-1.1h21.5c0.6,0,1.1,0.5,1.1,1.1v1.1
				C396.9,347.3,396.4,347.8,395.8,347.8z"/>
			<path class="st62" d="M395.8,361.9h-23.1c-0.6,0-1.1-0.5-1.1-1.1v-1.1c0-0.6,0.5-1.1,1.1-1.1h23.1c0.6,0,1.1,0.5,1.1,1.1v1.1
				C396.9,361.4,396.4,361.9,395.8,361.9z"/>
			<path class="st62" d="M380.1,376h-19.3c-0.6,0-1.1-0.5-1.1-1.1v-1.1c0-0.6,0.5-1.1,1.1-1.1h19.3c0.6,0,1.1,0.5,1.1,1.1v1.1
				C381.2,375.5,380.7,376,380.1,376z"/>
			<path class="st62" d="M380.1,390.1h-23.9c-0.6,0-1.1-0.5-1.1-1.1v-1.1c0-0.6,0.5-1.1,1.1-1.1h23.9c0.6,0,1.1,0.5,1.1,1.1v1.1
				C381.2,389.6,380.7,390.1,380.1,390.1z"/>
		</g>
		<g>
			<path class="st26" d="M467.4,327.2l-2-2c-0.1-0.1,0-0.4,0.2-0.4h4c0.2,0,0.3,0.2,0.2,0.4l-2,2
				C467.7,327.2,467.5,327.2,467.4,327.2z"/>
		</g>
		<g>
			<path class="st11" d="M293.7,398.9c17.5,0,31.7-14.2,31.7-31.7c0-17.5-14.2-31.7-31.7-31.7v31.7V398.9z"/>
			<path class="st63" d="M293.7,367.2l-30,10.1c-1.8-5.3-2.1-11-1-16.5l0,0c0,0,0-0.1,0-0.1c0-0.2,0.1-0.4,0.1-0.6l0,0
				c1.4-5.6,4.4-11.3,8.5-15.3L293.7,367.2z"/>
			<path class="st20" d="M271.3,344.8c2.6-2.6,5.7-4.8,9.1-6.3l0-0.1c4.1-1.8,8.8-2.8,13.3-2.8l0,31.7L271.3,344.8z"/>
			<path class="st22" d="M293.2,398.9c-0.3,0-0.5,0-0.8,0c-0.3,0-0.7,0-1-0.1c-0.3,0-0.6-0.1-0.9-0.1l0,0c-0.1,0-0.2,0-0.3,0
				c-0.1,0-0.2,0-0.3,0l0,0c-1.3-0.2-2.9-0.4-4-0.7v0c-1.4-0.4-3-0.9-4.3-1.4l0,0c-1.3-0.5-2.6-1.2-3.9-1.9h0
				c-2.1-1.2-4.1-2.7-5.9-4.4c-1.8-1.7-3.4-3.6-4.7-5.7c-1.5-2.3-2.6-4.7-3.5-7.2l30.1-10v31.7C293.6,398.9,293.4,398.9,293.2,398.9
				z"/>
		</g>
		<g>
			<path class="st11" d="M439.4,334.4c17.5,0,31.7,14.2,31.7,31.7c0,6.4-1.9,12.6-5.5,17.8L439.4,366V334.4z"/>
			<path class="st22" d="M465.6,383.9c-9.8,14.5-29.6,18.2-44,8.4c-1.7-1.1-3.2-2.4-4.7-3.9l22.5-22.3L465.6,383.9z"/>
			<path class="st63" d="M416.9,388.4c-12.3-12.4-12.3-32.5,0.2-44.8c1.4-1.4,2.8-2.6,4.4-3.7l17.9,26.2L416.9,388.4z"/>
			<path class="st20" d="M439.4,334.4c-0.5,0-1.1,0-1.6,0c-1.6,0.1-3.2,0.3-4.8,0.6l0,0c0,0,0,0,0,0c0,0,0,0,0,0l0,0
				c-1.8,0.4-3.6,0.9-5.4,1.6v0c-2.2,0.9-4.2,2-6.1,3.3l17.9,26.2V334.4z"/>
		</g>
		<path class="st20" d="M203.2,301.7l-1.9,3.2c-0.3,0.5-0.8,0.8-1.4,0.8h-10.3c-0.5,0-0.8-0.5-0.5-0.9l1.9-3.2
			c0.3-0.5,0.8-0.8,1.4-0.8h10.3C203.1,300.8,203.4,301.3,203.2,301.7z M192.3,300h8.5v-1.2c0-0.7-0.6-1.2-1.2-1.2h-4.1l-1.7-1.7
			h-4.1c-0.7,0-1.2,0.6-1.2,1.2v7.2l1.8-3.1C190.6,300.4,191.5,300,192.3,300z"/>
	</g>
	<g>
		<g>
			<g>
				<g>
					<path class="st5" d="M360.5,347.4c-2.7,0-4.9-2.2-4.9-4.9V206.4c0-2.7,2.2-4.9,4.9-4.9h232.7c2.7,0,4.9,2.2,4.9,4.9v136.1
						c0,2.7-2.2,4.9-4.9,4.9H360.5z"/>
					<path class="st15" d="M593.2,201.7c2.6,0,4.7,2.1,4.7,4.7v136.1c0,2.6-2.1,4.7-4.7,4.7H360.5c-2.6,0-4.7-2.1-4.7-4.7V206.4
						c0-2.6,2.1-4.7,4.7-4.7H593.2 M593.2,201.4H360.5c-2.8,0-5,2.3-5,5v136.1c0,2.8,2.3,5,5,5h232.7c2.8,0,5-2.3,5-5V206.4
						C598.2,203.7,596,201.4,593.2,201.4L593.2,201.4z"/>
				</g>
			</g>
			<g>
				<path class="st16" d="M590.3,219.9H363.7c-2.7,0-4.9-2.2-4.9-4.9v-5c0-2.7,2.2-4.9,4.9-4.9h226.6c2.7,0,4.9,2.2,4.9,4.9v5
					C595.3,217.7,593.1,219.9,590.3,219.9z"/>
			</g>
			<g>
				<g>
					<g>
						<g>
							<path class="st5" d="M369.9,210.2v0.9h0.8v0.6h-0.8v1.4c0,0.2,0,0.4,0.1,0.5c0.1,0.1,0.1,0.2,0.2,0.2
								c0.3,0.1,0.4,0.1,0.4,0.1v0.4H370c-0.5,0-0.8-0.4-0.8-1.1v-1.5h-0.5v-0.4l0.5-0.1l0.1-0.9H369.9z"/>
						</g>
					</g>
					<g>
						<g>
							<path class="st5" d="M371.3,211.4c0.1-0.2,0.3-0.3,0.4-0.3c0.2,0,0.4-0.1,0.6-0.1c0.2,0,0.4,0,0.5,0c0.1,0,0.2,0,0.3,0.1
								c0.1,0,0.2,0.1,0.3,0.1c0.1,0.1,0.1,0.1,0.2,0.2c0.1,0.2,0.1,0.4,0.1,0.8c0,0.5-0.3,0.8-0.9,0.8h-1.1c0,0.3,0.1,0.5,0.2,0.6
								c0.1,0.1,0.1,0.1,0.2,0.1c0.1,0,0.3,0,0.6,0c0.4,0,0.7,0,0.9-0.1v0.5c-0.3,0.1-0.9,0.2-1.6,0.2c-0.4,0-0.7-0.1-0.8-0.4
								c-0.1-0.2-0.2-0.7-0.2-1.3C371.1,212,371.2,211.6,371.3,211.4z M373.1,212.1c0-0.2,0-0.4-0.1-0.5c-0.1-0.1-0.2-0.1-0.5-0.1
								c-0.3,0-0.5,0-0.6,0.1c-0.1,0.1-0.1,0.2-0.1,0.3c0,0.1,0,0.2,0,0.4h1C373,212.4,373.1,212.3,373.1,212.1z"/>
						</g>
					</g>
					<g>
						<g>
							<path class="st5" d="M374.4,213.8c-0.1-0.1-0.1-0.3-0.1-0.5c0-0.2-0.1-0.4-0.1-0.7s0-0.6,0.1-0.8c0-0.2,0.1-0.4,0.2-0.5
								c0.1-0.1,0.2-0.2,0.3-0.2c0.1,0,0.3-0.1,0.4-0.1c0.5,0,1,0.1,1.4,0.2v0.4c-0.4,0-0.8,0-1,0c-0.2,0-0.3,0-0.4,0
								c0,0-0.1,0-0.1,0c0,0-0.1,0-0.1,0.1c0,0-0.1,0.1-0.1,0.1c0,0-0.1,0.1-0.1,0.2c0,0.2,0,0.4,0,0.7c0,0.3,0,0.5,0.1,0.6
								c0,0.1,0.1,0.2,0.2,0.3c0.1,0,0.2,0.1,0.4,0.1c0.3,0,0.7,0,1,0l0.2,0v0.5c-0.2,0.1-0.4,0.1-0.6,0.2c-0.1,0-0.1,0-0.2,0
								c0,0-0.1,0-0.2,0c-0.1,0-0.1,0-0.2,0c0,0-0.1,0-0.2,0c-0.1,0-0.2,0-0.2,0c-0.1,0-0.2,0-0.3,0c-0.1,0-0.2-0.1-0.3-0.1
								C374.6,214,374.5,213.9,374.4,213.8z"/>
						</g>
					</g>
					<g>
						<g>
							<path class="st5" d="M379.3,212.1c0-0.3-0.1-0.5-0.4-0.5c-0.2,0-0.3,0-0.5,0.1c-0.1,0-0.3,0.1-0.5,0.2v2.3h-0.7v-3.2h0.5
								l0.2,0.4c0,0,0.1,0,0.1-0.1c0.1,0,0.1-0.1,0.2-0.1c0.1,0,0.2-0.1,0.3-0.1c0.1,0,0.3-0.1,0.4-0.1c0.3,0,0.6,0.1,0.7,0.3
								c0.2,0.2,0.2,0.5,0.2,0.8v2.2h-0.7V212.1z"/>
						</g>
					</g>
					<g>
						<g>
							<path class="st5" d="M380.7,213.9c-0.1-0.1-0.2-0.3-0.2-0.5c0-0.2-0.1-0.5-0.1-0.8c0-0.4,0-0.7,0.1-0.9
								c0.1-0.2,0.2-0.4,0.4-0.5c0.2-0.1,0.5-0.1,0.9-0.1c0.5,0,0.9,0.1,1.1,0.4c0.2,0.2,0.3,0.7,0.3,1.3c0,0.6-0.1,1-0.3,1.3
								c-0.2,0.2-0.6,0.3-1.1,0.3c-0.3,0-0.5,0-0.7-0.1C381,214.1,380.8,214,380.7,213.9z M381.2,212c0,0.1,0,0.2-0.1,0.3
								c0,0.1,0,0.3,0,0.4c0,0.2,0,0.3,0,0.4c0,0.1,0,0.2,0.1,0.3c0,0.1,0.1,0.1,0.1,0.2c0,0,0.1,0.1,0.1,0.1c0.1,0,0.2,0,0.4,0
								c0.1,0,0.3,0,0.3,0c0.1,0,0.1,0,0.2-0.1c0.1,0,0.1-0.1,0.1-0.2c0.1-0.2,0.1-0.4,0.1-0.6c0-0.3,0-0.4,0-0.5
								c0-0.1,0-0.2-0.1-0.3c0-0.1-0.1-0.1-0.1-0.2c0,0-0.1-0.1-0.1-0.1c-0.1,0-0.2-0.1-0.4-0.1c-0.2,0-0.3,0-0.3,0
								c-0.1,0-0.1,0-0.2,0.1c-0.1,0-0.1,0.1-0.1,0.1C381.2,211.8,381.2,211.9,381.2,212z"/>
						</g>
					</g>
					<g>
						<g>
							<path class="st5" d="M386.5,211.9v0.2v2.1h-0.7v-2.1c0-0.2,0-0.3-0.1-0.4c-0.1-0.1-0.2-0.1-0.3-0.1c-0.2,0-0.3,0-0.4,0.1
								c-0.1,0-0.3,0.1-0.4,0.2v2.3h-0.7v-3.2h0.5l0.2,0.4c0,0,0,0,0.1-0.1c0.1,0,0.1-0.1,0.1-0.1c0,0,0,0,0.1-0.1
								c0.1,0,0.1-0.1,0.1-0.1c0,0,0.1,0,0.1,0c0,0,0.1,0,0.1,0c0,0,0.1,0,0.1,0c0.1,0,0.2,0,0.4,0c0.2,0,0.3,0,0.5,0.1
								c0.1,0.1,0.3,0.2,0.3,0.3c0.4-0.3,0.8-0.4,1.2-0.4c0.3,0,0.6,0.1,0.7,0.3c0.2,0.2,0.2,0.5,0.2,0.8v2.1h-0.7v-2.1
								c0-0.2,0-0.3-0.1-0.4c-0.1-0.1-0.2-0.1-0.3-0.1c-0.1,0-0.2,0-0.3,0C386.9,211.7,386.7,211.7,386.5,211.9z"/>
						</g>
					</g>
				</g>
				<g>
					<path class="st5" d="M370.6,216.5c-1,0-2.3-0.1-3.1-1.1c-0.5-0.6-1.1-1.5-1-3.8c0-0.7,0.1-3,3.1-3.2c0.6,0,1.7-0.1,3.3-0.1
						c2.3,0,4.9,0.1,5.7,0.1c1.5,0,6.1,0.3,8.2,0.5c1.8,0.2,3,0.6,3.4,1.3c0.4,0.6,0.6,1.3,0.5,2.4c0,1.2-0.2,1.8-0.6,2.4
						c-0.3,0.5-1.1,0.9-2.1,1c-1.1,0.1-6.1,0.4-7.7,0.4C378.6,216.4,372.7,216.5,370.6,216.5L370.6,216.5z M372.9,208.6
						c-1.6,0-2.7,0-3.3,0.1c-2.4,0.2-2.8,1.8-2.8,2.9c-0.1,2.2,0.4,3,0.9,3.6c0.8,0.8,1.9,0.9,2.9,0.9h0.1c2,0,7.9-0.1,9.8-0.1
						c1.7,0,6.6-0.3,7.7-0.4c1-0.1,1.6-0.4,1.9-0.9c0.4-0.6,0.5-1.1,0.5-2.2c0-1-0.1-1.7-0.5-2.2c-0.4-0.5-1.5-0.9-3.2-1.1
						c-2.2-0.3-6.7-0.5-8.2-0.5C377.8,208.7,375.2,208.6,372.9,208.6z"/>
				</g>
			</g>
			<g>
				<g>
					<circle class="st17" cx="584.5" cy="212.5" r="2.4"/>
					<circle class="st17" cx="575.5" cy="212.5" r="2.4"/>
					<circle class="st17" cx="565.7" cy="212.5" r="2.4"/>
				</g>
			</g>
		</g>
		<g>
			<g>
				<path class="st64" d="M416.6,338.9h-46.9c-1.9,0-3.5-1.6-3.5-3.5v-3.6c0-1.9,1.6-3.5,3.5-3.5h46.9c1.9,0,3.5,1.6,3.5,3.5v3.6
					C420.2,337.4,418.6,338.9,416.6,338.9z"/>
			</g>
		</g>
		<g>
			<g>
				<path class="st64" d="M472.4,338.9h-46.9c-1.9,0-3.5-1.6-3.5-3.5v-3.6c0-1.9,1.6-3.5,3.5-3.5h46.9c1.9,0,3.5,1.6,3.5,3.5v3.6
					C475.9,337.4,474.4,338.9,472.4,338.9z"/>
			</g>
		</g>
		<g>
			<g>
				<path class="st64" d="M528.1,338.9h-46.9c-1.9,0-3.5-1.6-3.5-3.5v-3.6c0-1.9,1.6-3.5,3.5-3.5h46.9c1.9,0,3.5,1.6,3.5,3.5v3.6
					C531.7,337.4,530.1,338.9,528.1,338.9z"/>
			</g>
		</g>
		<g>
			<g>
				<path class="st64" d="M583.8,338.9h-46.9c-1.9,0-3.5-1.6-3.5-3.5v-3.6c0-1.9,1.6-3.5,3.5-3.5h46.9c1.9,0,3.5,1.6,3.5,3.5v3.6
					C587.3,337.4,585.7,338.9,583.8,338.9z"/>
			</g>
		</g>
		<g>
			<path class="st17" d="M374.5,336.4c-0.1,0-0.1,0-0.2-0.1l-0.8-0.8c-0.1-0.1-0.2-0.2-0.2-0.4c0-0.9,0-1.5,0-1.7l-1.5-1.5
				c-0.1-0.1-0.2-0.4-0.1-0.6c0.1-0.2,0.3-0.3,0.5-0.3h3.8c0.2,0,0.4,0.1,0.5,0.3c0.1,0.2,0,0.4-0.1,0.6l-1.5,1.5c0,0.4,0,1.8,0,2.6
				c0,0.1-0.1,0.2-0.2,0.2C374.6,336.4,374.5,336.4,374.5,336.4z M373.7,333.1c0.1,0.1,0.1,0.1,0.1,2l0.4,0.4c0-2.2,0-2.3,0.1-2.4
				l1.6-1.6l-3.8,0L373.7,333.1z"/>
		</g>
		<g>
			<path class="st17" d="M483.2,332.5c0-0.9,0.2-1.2,1-1.2c0.7,0,1,0.3,1,1.2c0,0.9-0.2,1.2-1,1.2
				C483.4,333.7,483.2,333.4,483.2,332.5z M484.5,332.5c0-0.6-0.1-0.7-0.4-0.7c-0.3,0-0.3,0.1-0.3,0.7c0,0.6,0.1,0.7,0.3,0.7
				C484.4,333.2,484.5,333.1,484.5,332.5z M484.2,335.1l2.1-3.5c0.1-0.1,0.1-0.1,0.2-0.1h0.1c0.2,0,0.2,0.1,0.1,0.2l-2.1,3.5
				c-0.1,0.1-0.1,0.1-0.2,0.1h-0.1C484.2,335.3,484.2,335.3,484.2,335.1z M486,334.3c0-0.9,0.2-1.2,1-1.2c0.7,0,1,0.3,1,1.2
				c0,0.9-0.2,1.2-1,1.2C486.2,335.4,486,335.1,486,334.3z M487.3,334.3c0-0.6-0.1-0.7-0.4-0.7c-0.3,0-0.3,0.1-0.3,0.7
				c0,0.6,0.1,0.7,0.3,0.7C487.2,334.9,487.3,334.8,487.3,334.3z"/>
		</g>
		<g>
			<g>
				<path class="st22" d="M583.4,314.1h-46.1c-2.1,0-3.8-1.7-3.8-3.8v-19.7c0-2.1,1.7-3.8,3.8-3.8h46.1c2.1,0,3.8,1.7,3.8,3.8v19.7
					C587.2,312.4,585.5,314.1,583.4,314.1z"/>
			</g>
		</g>
		<g>
			<g>
				<path class="st5" d="M576.3,303.3l1.9-5.5c0.1-0.2,0.1-0.4,0.2-0.5c0.1-0.1,0-0.3-0.1-0.3h-3c-0.4,0-0.6-0.2-0.6-0.6l0-0.4
					c0-0.4,0.2-0.6,0.6-0.6h4.5c0.6,0,0.9,0.4,0.8,1l-2.4,7c-0.1,0.3-0.3,0.5-0.7,0.5h-0.7C576.4,304,576.2,303.7,576.3,303.3z"/>
			</g>
		</g>
		<g>
			<path class="st22" d="M583.4,274.8h-46.1c-2.1,0-3.8-1.7-3.8-3.8v-19.7c0-2.1,1.7-3.8,3.8-3.8h46.1c2.1,0,3.8,1.7,3.8,3.8V271
				C587.2,273.1,585.5,274.8,583.4,274.8z"/>
		</g>
		<g>
			<g>
				<g>
					<path class="st5" d="M551.2,256.6c-0.2-0.2-0.4-0.3-0.7-0.3h-1v-0.7c0-0.3-0.1-0.6-0.4-0.8c-0.2-0.2-0.5-0.4-0.9-0.4h-0.5
						c-0.3,0-0.6,0.1-0.8,0.4c-0.2,0.2-0.4,0.5-0.4,0.8v0.7h-2.9v-0.7c0-0.3-0.1-0.6-0.4-0.8c-0.2-0.2-0.5-0.4-0.8-0.4h-0.5
						c-0.3,0-0.6,0.1-0.8,0.4c-0.2,0.2-0.4,0.5-0.4,0.8v0.7h-1c-0.3,0-0.5,0.1-0.7,0.3c-0.2,0.2-0.3,0.4-0.3,0.7v9.6
						c0,0.3,0.1,0.5,0.3,0.7c0.2,0.2,0.4,0.3,0.7,0.3h10.6c0.3,0,0.5-0.1,0.7-0.3c0.2-0.2,0.3-0.4,0.3-0.7v-9.6
						C551.5,257,551.4,256.8,551.2,256.6z M547.6,255.6c0-0.1,0-0.1,0.1-0.2c0,0,0.1-0.1,0.2-0.1h0.5c0.1,0,0.1,0,0.2,0.1
						c0,0,0.1,0.1,0.1,0.2v2.2c0,0.1,0,0.1-0.1,0.2c0,0-0.1,0.1-0.2,0.1h-0.5c-0.1,0-0.1,0-0.2-0.1c0,0-0.1-0.1-0.1-0.2V255.6z
						 M541.8,255.6c0-0.1,0-0.1,0.1-0.2c0,0,0.1-0.1,0.2-0.1h0.5c0.1,0,0.1,0,0.2,0.1c0,0,0.1,0.1,0.1,0.2v2.2c0,0.1,0,0.1-0.1,0.2
						c0,0-0.1,0.1-0.2,0.1h-0.5c-0.1,0-0.1,0-0.2-0.1c0,0-0.1-0.1-0.1-0.2V255.6z M550.5,266.9h-10.6v-7.7h10.6V266.9z"/>
				</g>
			</g>
			<g>
				<g>
					<path class="st5" d="M547.3,260.9c-0.2-0.2-0.4-0.2-0.6,0l0,0l-3.8,3.8c0,0,0,0,0,0c-0.2,0.2-0.2,0.4,0,0.6
						c0.2,0.2,0.4,0.2,0.6,0l0,0l3.8-3.8c0,0,0,0,0,0C547.5,261.3,547.5,261,547.3,260.9z"/>
				</g>
				<g>
					<path class="st5" d="M547.3,265.3c0.2-0.2,0.2-0.4,0-0.6l0,0l-3.8-3.8c0,0,0,0,0,0c-0.2-0.2-0.4-0.2-0.6,0
						c-0.2,0.2-0.2,0.4,0,0.6l0,0l3.8,3.8c0,0,0,0,0,0C546.9,265.4,547.2,265.4,547.3,265.3z"/>
				</g>
			</g>
		</g>
		<g>
			<g>
				<path class="st5" d="M567.4,264.9c-0.4,0-0.5-0.3-0.5-0.6l0-0.3c0-0.4,0.3-0.5,0.6-0.5c0.6,0.1,1.2,0.1,1.6,0.1
					c1.3,0,1.5-0.4,1.6-1.2c0-1.1-0.5-1.2-2-1.3l-1-0.1c-0.4,0-0.6-0.3-0.6-0.7l0.2-3.2c0-0.4,0.2-0.6,0.6-0.6h3.8
					c0.4,0,0.6,0.2,0.6,0.6l0,0.3c0,0.4-0.2,0.6-0.6,0.6h-2.7c-0.2,0-0.2,0.1-0.2,0.2l-0.1,1.1c0,0.1,0.1,0.2,0.2,0.2l1,0.1
					c2.1,0.2,2.7,1.2,2.7,2.8c0,1.5-0.6,2.7-3,2.7C569.1,265.1,568.3,265,567.4,264.9z"/>
				<path class="st5" d="M573.8,262.8c0-1.1,0.3-2,1.3-2.2c0.1,0,0.1-0.1,0-0.1c-0.8-0.2-1.1-1-1.1-1.9c0-1.6,0.6-2.3,3-2.3
					c2.4,0,3,0.7,3,2.3c0,0.9-0.3,1.7-1.1,1.9c-0.1,0-0.1,0.1,0,0.1c1,0.2,1.3,1.1,1.3,2.2c0,1.6-0.6,2.2-3.2,2.3
					C574.5,265.1,573.8,264.4,573.8,262.8z M578.4,262.4c0-1-0.2-1.3-1.4-1.3c-1.2,0-1.4,0.3-1.4,1.3c0,0.9,0.3,1.2,1.4,1.2
					C578.1,263.6,578.4,263.4,578.4,262.4z M578.3,258.8c0-0.9-0.2-1.1-1.3-1.1c-1,0-1.3,0.2-1.3,1.1c0,0.9,0.3,1.1,1.3,1.1
					C578.1,259.9,578.3,259.6,578.3,258.8z"/>
			</g>
		</g>
		<g>
			<g>
				<path class="st47" d="M481.6,274.6c-2,0-3.6-1.6-3.6-3.6v-19.7c0-2,1.6-3.6,3.6-3.6h46.1c2,0,3.6,1.6,3.6,3.6V271
					c0,2-1.6,3.6-3.6,3.6H481.6z"/>
				<path class="st15" d="M527.8,247.8c1.9,0,3.4,1.5,3.4,3.4V271c0,1.9-1.5,3.4-3.4,3.4h-46.1c-1.9,0-3.4-1.5-3.4-3.4v-19.7
					c0-1.9,1.5-3.4,3.4-3.4H527.8 M527.8,247.5h-46.1c-2.1,0-3.8,1.7-3.8,3.8V271c0,2.1,1.7,3.8,3.8,3.8h46.1c2.1,0,3.8-1.7,3.8-3.8
					v-19.7C531.5,249.2,529.8,247.5,527.8,247.5L527.8,247.5z"/>
			</g>
		</g>
		<g>
			<g>
				<path class="st26" d="M496.5,259.1l-3.8-3.8c-0.1-0.1-0.2-0.1-0.3-0.1s-0.2,0-0.3,0.1c-0.1,0.1-0.1,0.2-0.1,0.3v1.9h-1.7
					c-3.5,0-5.7,1-6.5,3c-0.3,0.7-0.4,1.5-0.4,2.5c0,0.8,0.3,1.9,0.9,3.3c0,0,0,0.1,0.1,0.2c0,0.1,0.1,0.2,0.1,0.2
					c0,0.1,0.1,0.1,0.1,0.2c0.1,0.1,0.1,0.1,0.2,0.1c0.1,0,0.1,0,0.2-0.1c0,0,0.1-0.1,0.1-0.2c0,0,0-0.1,0-0.2c0-0.1,0-0.1,0-0.2
					c0-0.3,0-0.6,0-0.9c0-0.5,0-0.9,0.1-1.3c0.1-0.4,0.2-0.7,0.4-1c0.2-0.3,0.4-0.5,0.6-0.7c0.2-0.2,0.5-0.4,0.8-0.5
					c0.3-0.1,0.6-0.2,1-0.3c0.4-0.1,0.8-0.1,1.1-0.2c0.4,0,0.8,0,1.3,0h1.7v1.9c0,0.1,0,0.2,0.1,0.3c0.1,0.1,0.2,0.1,0.3,0.1
					c0.1,0,0.2,0,0.3-0.1l3.8-3.8c0.1-0.1,0.1-0.2,0.1-0.3C496.7,259.3,496.6,259.2,496.5,259.1z"/>
			</g>
		</g>
		<g>
			<g>
				<path class="st63" d="M527.7,314.1h-46.1c-2.1,0-3.8-1.7-3.8-3.8v-19.7c0-2.1,1.7-3.8,3.8-3.8h46.1c2.1,0,3.8,1.7,3.8,3.8v19.7
					C531.5,312.4,529.8,314.1,527.7,314.1z"/>
			</g>
		</g>
		<g>
			<g>
				<path class="st5" d="M506.9,303.4V298c0-0.2,0-0.4,0-0.7c0-0.1-0.1-0.2-0.2-0.2l-1.1,0.3c-0.4,0.1-0.6-0.1-0.7-0.4l0-0.2
					c-0.1-0.3,0.1-0.6,0.4-0.7l1.3-0.5c0.2-0.1,0.4-0.1,0.7-0.1h0.9c0.4,0,0.6,0.2,0.6,0.6v7.3c0,0.4-0.2,0.6-0.6,0.6h-0.7
					C507.1,304,506.9,303.8,506.9,303.4z"/>
				<path class="st5" d="M510.5,299.7c0-3.2,0.8-4.4,3.3-4.4c2.4,0,3.3,1.2,3.3,4.4s-0.8,4.4-3.3,4.4
					C511.3,304.1,510.5,303,510.5,299.7z M515.2,299.7c0-2.3-0.3-2.9-1.4-2.9c-1.1,0-1.4,0.6-1.4,2.9c0,2.3,0.3,2.9,1.4,2.9
					C514.9,302.7,515.2,302.1,515.2,299.7z"/>
				<path class="st5" d="M518.2,303.4v-0.5c0-0.3,0.1-0.5,0.3-0.8l2.1-2.2c1-1,1.5-1.8,1.5-2.4c0-0.5-0.4-0.6-1.2-0.6
					c-0.7,0-1.2,0-2,0.1c-0.4,0-0.6-0.2-0.6-0.5l0-0.3c0-0.4,0.2-0.6,0.7-0.7c0.8-0.1,1.5-0.2,2.2-0.2c1.7,0,2.8,0.4,2.8,2
					c0,1-0.3,1.6-1.4,2.8l-1.8,2c-0.1,0.2-0.1,0.2,0.1,0.2c0.3,0,0.6,0,0.9,0h1.9c0.4,0,0.6,0.2,0.6,0.6v0.5c0,0.4-0.2,0.6-0.6,0.6
					h-4.9C518.4,304,518.2,303.8,518.2,303.4z"/>
			</g>
		</g>
		<g>
			<path class="st22" d="M472.1,274.8H426c-2.1,0-3.8-1.7-3.8-3.8v-19.7c0-2.1,1.7-3.8,3.8-3.8h46.1c2.1,0,3.8,1.7,3.8,3.8V271
				C475.9,273.1,474.2,274.8,472.1,274.8z"/>
		</g>
		<g>
			<g>
				<path class="st5" d="M456.1,264.9c-0.4,0-0.5-0.3-0.5-0.6l0-0.3c0-0.4,0.3-0.5,0.6-0.5c0.6,0.1,1.2,0.1,1.6,0.1
					c1.3,0,1.5-0.4,1.6-1.2c0-1.1-0.5-1.2-2-1.3l-1-0.1c-0.4,0-0.6-0.3-0.6-0.7l0.2-3.2c0-0.4,0.2-0.6,0.6-0.6h3.8
					c0.4,0,0.6,0.2,0.6,0.6l0,0.3c0,0.4-0.2,0.6-0.6,0.6h-2.7c-0.2,0-0.2,0.1-0.2,0.2l-0.1,1.1c0,0.1,0.1,0.2,0.2,0.2l1,0.1
					c2.1,0.2,2.7,1.2,2.7,2.8c0,1.5-0.6,2.7-3,2.7C457.7,265.1,456.9,265,456.1,264.9z"/>
				<path class="st5" d="M462.6,264.3v-7.4c0-0.4,0.2-0.6,0.6-0.6h0.6c0.4,0,0.6,0.2,0.6,0.6l0,1.3c0,0.3,0,0.6-0.1,0.9
					c0,0.2,0.1,0.2,0.3,0.1c0.7-0.3,1.4-0.5,2.1-0.5c1.1,0,1.8,0.6,1.8,1.9v3.8c0,0.4-0.2,0.6-0.6,0.6h-0.6c-0.4,0-0.6-0.2-0.6-0.6
					v-3.4c0-0.6-0.1-0.7-0.6-0.7c-0.5,0-0.9,0.1-1.5,0.3c-0.1,0-0.2,0.1-0.2,0.2v3.5c0,0.4-0.2,0.6-0.6,0.6h-0.6
					C462.8,264.9,462.6,264.7,462.6,264.3z"/>
			</g>
		</g>
		<g>
			<g>
				<g>
					<path class="st20" d="M472,314.1h-46.1c-2.1,0-3.8-1.7-3.8-3.8v-19.7c0-2.1,1.7-3.8,3.8-3.8H472c2.1,0,3.8,1.7,3.8,3.8v19.7
						C475.8,312.4,474.1,314.1,472,314.1z"/>
				</g>
			</g>
		</g>
		<g>
			<g>
				<path class="st5" d="M466,303.4v-1.1c0-0.1-0.1-0.2-0.2-0.2h-3.1c-0.7,0-1.2-0.7-0.9-1.4l2-4.8c0.1-0.3,0.3-0.4,0.7-0.4h0.6
					c0.4,0,0.6,0.3,0.5,0.7l-1.8,4.2c-0.1,0.3,0,0.4,0.3,0.4h1.8c0.1,0,0.2-0.1,0.2-0.2v-1.7c0-0.3,0-0.4,0.1-0.7l0.1-0.5
					c0.1-0.3,0.3-0.5,0.6-0.5h0.3c0.4,0,0.6,0.2,0.6,0.6v2.9c0,0.1,0.1,0.2,0.2,0.2h0.5c0.3,0,0.4,0.2,0.4,0.5v0.2
					c0,0.3-0.1,0.5-0.4,0.5l-0.4,0.1c-0.1,0-0.2,0.1-0.2,0.2v1.1c0,0.4-0.2,0.6-0.6,0.6h-0.6C466.2,304,466,303.8,466,303.4z"/>
			</g>
		</g>
		<g>
			<g>
				<g>
					<path class="st47" d="M370.3,274.6c-2,0-3.6-1.6-3.6-3.6v-19.7c0-2,1.6-3.6,3.6-3.6h46.1c2,0,3.6,1.6,3.6,3.6V271
						c0,2-1.6,3.6-3.6,3.6H370.3z"/>
					<path class="st15" d="M416.4,247.8c1.9,0,3.4,1.5,3.4,3.4V271c0,1.9-1.5,3.4-3.4,3.4h-46.1c-1.9,0-3.4-1.5-3.4-3.4v-19.7
						c0-1.9,1.5-3.4,3.4-3.4H416.4 M416.4,247.5h-46.1c-2.1,0-3.8,1.7-3.8,3.8V271c0,2.1,1.7,3.8,3.8,3.8h46.1
						c2.1,0,3.8-1.7,3.8-3.8v-19.7C420.2,249.2,418.5,247.5,416.4,247.5L416.4,247.5z"/>
				</g>
			</g>
		</g>
		<g>
			<path class="st26" d="M406.6,264.3v-0.5c0-0.3,0.1-0.5,0.3-0.8l2.1-2.2c1-1,1.5-1.8,1.5-2.4c0-0.5-0.4-0.6-1.2-0.6
				c-0.7,0-1.2,0-2,0.1c-0.4,0-0.6-0.2-0.6-0.5l0-0.3c0-0.4,0.2-0.6,0.7-0.7c0.8-0.1,1.5-0.2,2.2-0.2c1.7,0,2.8,0.4,2.8,2
				c0,1-0.3,1.6-1.4,2.8l-1.8,2c-0.1,0.2-0.1,0.2,0.1,0.2c0.3,0,0.6,0,0.9,0h1.9c0.4,0,0.6,0.2,0.6,0.6v0.5c0,0.4-0.2,0.6-0.6,0.6
				h-4.9C406.8,264.9,406.6,264.7,406.6,264.3z"/>
		</g>
		<g>
			<g>
				<path class="st26" d="M380.2,260.7l-4.5-4.5c-0.1-0.1-0.2-0.2-0.4-0.2c-0.2,0-0.3,0.1-0.4,0.2c-0.1,0.1-0.2,0.2-0.2,0.4v2.2h-2
					c-0.1,0-0.2,0-0.3,0c-0.4,0-0.7,0.3-0.7,0.7v3c0,0.4,0.3,0.8,0.8,0.7c0.1,0,0.2,0,0.3,0h2v2.2c0,0.2,0.1,0.3,0.2,0.4
					c0.1,0.1,0.2,0.2,0.4,0.2c0.2,0,0.3-0.1,0.4-0.2l4.5-4.5c0.1-0.1,0.2-0.2,0.2-0.4C380.4,261,380.3,260.9,380.2,260.7z"/>
			</g>
			<path class="st5" d="M381.1,254.4h-1.8c0,0,0,0,0,0L381.1,254.4C381.1,254.4,381.1,254.4,381.1,254.4z"/>
			<path class="st5" d="M379.2,267.9h1.8c0,0,0,0,0,0L379.2,267.9C379.2,267.9,379.2,267.9,379.2,267.9z"/>
			<path class="st26" d="M381.4,254.4h-2.2c-0.5,0-0.9,0.4-0.9,0.9c0,0.5,0.4,0.9,0.9,0.9h2.2c0.3,0,0.6,0.3,0.6,0.6v8.9
				c0,0.3-0.3,0.6-0.6,0.6h-2.2c-0.5,0-0.9,0.4-0.9,0.9c0,0.5,0.4,0.9,0.9,0.9h2.2c1.3,0,2.3-1,2.3-2.3v-8.9
				C383.7,255.4,382.7,254.4,381.4,254.4z"/>
		</g>
		<g>
			<g>
				<path class="st11" d="M416.4,314.1h-46.1c-2.1,0-3.8-1.7-3.8-3.8v-19.7c0-2.1,1.7-3.8,3.8-3.8h46.1c2.1,0,3.8,1.7,3.8,3.8v19.7
					C420.2,312.4,418.5,314.1,416.4,314.1z"/>
			</g>
		</g>
		<g>
			<g>
				<path class="st5" d="M399,301.9c0-1.1,0.3-2,1.3-2.2c0.1,0,0.1-0.1,0-0.1c-0.8-0.2-1.1-1-1.1-1.9c0-1.6,0.6-2.3,3-2.3
					c2.4,0,3,0.7,3,2.3c0,0.9-0.3,1.7-1.1,1.9c-0.1,0-0.1,0.1,0,0.1c1,0.2,1.3,1.1,1.3,2.2c0,1.6-0.6,2.2-3.2,2.3
					C399.6,304.2,399,303.5,399,301.9z M403.5,301.5c0-1-0.2-1.3-1.4-1.3c-1.2,0-1.4,0.3-1.4,1.3c0,0.9,0.3,1.2,1.4,1.2
					C403.3,302.7,403.5,302.4,403.5,301.5z M403.4,297.8c0-0.9-0.2-1.1-1.3-1.1c-1,0-1.3,0.2-1.3,1.1c0,0.9,0.3,1.1,1.3,1.1
					C403.2,298.9,403.4,298.7,403.4,297.8z"/>
				<path class="st5" d="M407.3,304c-0.4-0.1-0.5-0.3-0.5-0.7l0-0.1c0-0.4,0.2-0.5,0.6-0.5c0.4,0,0.8,0,1.5,0c1.2,0,1.6-0.4,1.7-1.9
					c0-0.2-0.1-0.3-0.3-0.2c-0.4,0.3-0.9,0.4-1.6,0.4c-1.8,0-2.4-1.2-2.4-2.7c0-2.1,0.7-3,3-3c2.6,0,3.1,0.9,3.1,4.3
					c0,3.8-1,4.5-3.5,4.5C408.6,304.1,408,304.1,407.3,304z M410.6,299.3c0.1-0.1,0.1-0.1,0.1-0.3c0-1.9-0.1-2.3-1.3-2.3
					c-1.1,0-1.2,0.5-1.2,1.6c0,1,0.2,1.4,1.2,1.4C409.8,299.7,410.1,299.6,410.6,299.3z"/>
			</g>
		</g>
		<g>
			<g>
				<path class="st17" d="M432.3,336.4h-5c-0.1,0-0.3-0.1-0.3-0.3v-5c0-0.1,0.1-0.3,0.3-0.3c0.1,0,0.3,0.1,0.3,0.3v4.7h4.7
					c0.1,0,0.3,0.1,0.3,0.3S432.5,336.4,432.3,336.4z"/>
			</g>
			<g>
				<path class="st17" d="M428.8,335.3h-0.3c-0.1,0-0.3-0.1-0.3-0.3V333c0-0.1,0.1-0.3,0.3-0.3h0.3c0.1,0,0.3,0.1,0.3,0.3v2.1
					C429.1,335.2,429,335.3,428.8,335.3z"/>
			</g>
			<g>
				<path class="st17" d="M430.2,335.3h-0.3c-0.1,0-0.3-0.1-0.3-0.3v-2.9c0-0.1,0.1-0.3,0.3-0.3h0.3c0.1,0,0.3,0.1,0.3,0.3v2.9
					C430.4,335.2,430.3,335.3,430.2,335.3z"/>
			</g>
			<g>
				<path class="st17" d="M431.5,335.3h-0.3c-0.1,0-0.3-0.1-0.3-0.3v-3.6c0-0.1,0.1-0.3,0.3-0.3h0.3c0.1,0,0.3,0.1,0.3,0.3v3.6
					C431.8,335.2,431.6,335.3,431.5,335.3z"/>
			</g>
		</g>
		<g>
			<g>
				<path class="st17" d="M542.8,336.3h-4.3c-0.1,0-0.3-0.1-0.3-0.3v-5.3c0-0.1,0.1-0.3,0.3-0.3h3.6c0.1,0,0.1,0,0.2,0.1l0.7,0.7
					c0.1,0,0.1,0.1,0.1,0.2v4.7C543.1,336.2,543,336.3,542.8,336.3z M538.8,335.8h3.7v-4.3L542,331h-3.2V335.8z"/>
			</g>
			<g>
				<g>
					<path class="st17" d="M541.6,332.5c-0.1-0.1-0.2-0.1-0.2,0l0,0l-1.5,1.5c0,0,0,0,0,0c-0.1,0.1-0.1,0.2,0,0.2
						c0.1,0.1,0.2,0.1,0.2,0l0,0l1.5-1.5c0,0,0,0,0,0C541.6,332.7,541.6,332.6,541.6,332.5z"/>
				</g>
				<g>
					<path class="st17" d="M541.6,334.2c0.1-0.1,0.1-0.2,0-0.2l0,0l-1.5-1.5c0,0,0,0,0,0c-0.1-0.1-0.2-0.1-0.2,0
						c-0.1,0.1-0.1,0.2,0,0.2l0,0l1.5,1.5c0,0,0,0,0,0C541.4,334.3,541.5,334.3,541.6,334.2z"/>
				</g>
			</g>
		</g>
		<path class="st17" d="M410.5,334.8h-25.6c-0.5,0-0.9-0.4-0.9-0.9v-0.9c0-0.5,0.4-0.9,0.9-0.9h25.6c0.5,0,0.9,0.4,0.9,0.9v0.9
			C411.4,334.4,411,334.8,410.5,334.8z"/>
		<path class="st17" d="M467.5,334.8h-23.8c-0.5,0-0.9-0.4-0.9-0.9v-0.9c0-0.5,0.4-0.9,0.9-0.9h23.8c0.5,0,0.9,0.4,0.9,0.9v0.9
			C468.3,334.4,467.9,334.8,467.5,334.8z"/>
		<path class="st17" d="M522.3,334.8h-22.7c-0.5,0-0.9-0.4-0.9-0.9v-0.9c0-0.5,0.4-0.9,0.9-0.9h22.7c0.5,0,0.9,0.4,0.9,0.9v0.9
			C523.1,334.4,522.7,334.8,522.3,334.8z"/>
		<path class="st17" d="M574.5,334.8h-20.2c-0.5,0-0.9-0.4-0.9-0.9v-0.9c0-0.5,0.4-0.9,0.9-0.9h20.2c0.5,0,0.9,0.4,0.9,0.9v0.9
			C575.3,334.4,574.9,334.8,574.5,334.8z"/>
		<g>
			<g>
				<path class="st64" d="M589.9,233.7h-41.6c-1.7,0-3-1.4-3-3v-3.1c0-1.7,1.4-3,3-3h41.6c1.7,0,3,1.4,3,3v3.1
					C592.9,232.3,591.6,233.7,589.9,233.7z"/>
			</g>
		</g>
		<g>
			<g>
				<path class="st16" d="M369.4,235l-2.5-8.3c-0.1-0.4,0.1-0.6,0.5-0.6h0.7c0.3,0,0.5,0.2,0.6,0.5l1.9,6.9c0.1,0.3,0.1,0.6,0.2,0.9
					c0,0.1,0.1,0.2,0.2,0.2c0.1,0,0.2-0.1,0.2-0.2c0.1-0.3,0.1-0.6,0.2-0.9l1.8-6.9c0.1-0.3,0.3-0.5,0.6-0.5h0.7
					c0.4,0,0.6,0.2,0.5,0.6l-2.5,8.3c-0.2,0.6-0.5,0.8-1.1,0.8h-0.9C369.9,235.8,369.6,235.5,369.4,235z"/>
				<path class="st16" d="M376.4,234v-6.1c0-1.1,0.8-1.8,2.1-1.8h3.8c0.3,0,0.5,0.3,0.5,0.6l0,0.3c0,0.3-0.2,0.5-0.6,0.5h-3.3
					c-0.5,0-0.7,0.2-0.7,0.8v1.5c0,0.1,0.1,0.2,0.2,0.2h3.2c0.4,0,0.6,0.2,0.6,0.6v0.3c0,0.4-0.2,0.6-0.6,0.6h-3.2
					c-0.1,0-0.2,0.1-0.2,0.2v2c0,0.6,0.2,0.8,0.7,0.8h3.3c0.3,0,0.6,0.2,0.6,0.5l0,0.3c0,0.4-0.2,0.6-0.5,0.6h-3.8
					C377.2,235.8,376.4,235.1,376.4,234z"/>
				<path class="st16" d="M384.5,235.3v-8.4c0-0.5,0.3-0.8,0.8-0.8h1c0.5,0,0.8,0.2,1,0.6l2.6,5.8c0.2,0.4,0.3,0.8,0.5,1.1
					c0,0.1,0.1,0.1,0.1,0.1c0.1,0,0.1-0.1,0.1-0.2c0-0.4,0-0.7,0-1.1l0-5.8c0-0.4,0.2-0.6,0.6-0.6h0.6c0.4,0,0.6,0.2,0.6,0.6v8.4
					c0,0.5-0.3,0.8-0.8,0.8h-1c-0.5,0-0.8-0.2-1-0.6l-2.7-5.8c-0.2-0.4-0.3-0.7-0.5-1.1c0-0.1-0.1-0.1-0.1-0.1
					c-0.1,0-0.1,0.1-0.1,0.2c0,0.4,0,0.8,0,1.2l0,5.8c0,0.4-0.2,0.6-0.6,0.6h-0.6C384.7,235.8,384.5,235.6,384.5,235.3z"/>
				<path class="st16" d="M396.9,235.3v-7.5c0-0.1-0.1-0.2-0.2-0.2h-2.2c-0.4,0-0.6-0.2-0.6-0.6v-0.4c0-0.4,0.2-0.6,0.6-0.6h6.7
					c0.4,0,0.6,0.2,0.6,0.6v0.4c0,0.4-0.2,0.6-0.6,0.6h-2.2c-0.1,0-0.2,0.1-0.2,0.2v7.5c0,0.4-0.2,0.6-0.6,0.6h-0.7
					C397.1,235.8,396.9,235.6,396.9,235.3z"/>
				<path class="st16" d="M401.4,235.2l2.7-8.4c0.2-0.5,0.5-0.7,1-0.7h1.2c0.5,0,0.8,0.2,1,0.7l2.7,8.4c0.1,0.4-0.1,0.6-0.5,0.6
					h-0.7c-0.3,0-0.5-0.1-0.6-0.5l-0.6-2.1c0-0.1-0.1-0.2-0.2-0.2H404c-0.1,0-0.2,0.1-0.2,0.2l-0.6,2.1c-0.1,0.3-0.3,0.5-0.6,0.5
					h-0.7C401.5,235.8,401.3,235.6,401.4,235.2z M406.8,231.6c0.2,0,0.2-0.1,0.2-0.3l-0.9-3.1c-0.1-0.2-0.1-0.4-0.2-0.6
					c0-0.1-0.1-0.2-0.2-0.2h0c-0.1,0-0.2,0.1-0.2,0.2c-0.1,0.2-0.1,0.4-0.2,0.6l-0.9,3.1c0,0.1,0,0.3,0.2,0.3H406.8z"/>
				<path class="st16" d="M411.5,235.8c-0.4-0.1-0.5-0.3-0.5-0.6l0-0.2c0-0.3,0.2-0.5,0.6-0.5c1.4,0,2,0,2.6,0
					c1.3,0,1.6-0.4,1.6-1.2c0-0.7-0.3-1.1-1-1.3l-2-0.6c-1.5-0.5-2-1.5-2-2.8c0-2,1-2.6,3.4-2.6c0.8,0,1.7,0,2.6,0.2
					c0.3,0.1,0.5,0.3,0.5,0.6l0,0.2c0,0.3-0.2,0.5-0.6,0.5c-0.7,0-1.6,0-2.4,0c-1.2,0-1.6,0.2-1.6,1.1c0,0.7,0.3,1.1,1.1,1.3
					l1.9,0.6c1.5,0.5,2,1.6,2,2.8c0,2-1,2.7-3.5,2.7C413.6,236,412.6,236,411.5,235.8z"/>
			</g>
		</g>
		<path class="st17" d="M540,232.1c-0.1,0-0.1,0-0.2-0.1l-0.8-0.8c-0.1-0.1-0.2-0.2-0.2-0.4c0-0.9,0-1.5,0-1.7l-1.5-1.5
			c-0.1-0.1-0.2-0.4-0.1-0.6c0.1-0.2,0.3-0.3,0.5-0.3h3.8c0.2,0,0.4,0.1,0.5,0.3c0.1,0.2,0,0.4-0.1,0.6l-1.5,1.5c0,0.4,0,1.8,0,2.6
			c0,0.1-0.1,0.2-0.2,0.2C540.1,232.1,540.1,232.1,540,232.1z"/>
		<g>
			<path class="st26" d="M511,260.8c0-3.9,1.2-4.5,3.5-4.5c0.3,0,0.9,0,1.5,0.1c0.4,0.1,0.5,0.3,0.5,0.6v0.1c0,0.4-0.3,0.6-0.6,0.5
				c-0.4,0-0.8,0-1.4,0c-1.1,0-1.6,0.2-1.7,1.9c0,0.2,0.1,0.3,0.2,0.2c0.4-0.3,0.9-0.4,1.6-0.4c1.9,0,2.4,0.8,2.4,2.7c0,2-0.5,3-3,3
				C511.7,265.1,511,264.2,511,260.8z M515.4,262.1c0-1-0.2-1.4-1.2-1.4c-0.4,0-0.8,0.1-1.2,0.4c-0.1,0.1-0.1,0.2-0.1,0.4
				c0,1.8,0.2,2.2,1.3,2.2C515.3,263.6,515.4,263.1,515.4,262.1z"/>
			<path class="st26" d="M518.2,264.3v-0.5c0-0.3,0.1-0.5,0.3-0.8l2.1-2.2c1-1,1.5-1.8,1.5-2.4c0-0.5-0.4-0.6-1.2-0.6
				c-0.7,0-1.2,0-2,0.1c-0.4,0-0.6-0.2-0.6-0.5l0-0.3c0-0.4,0.2-0.6,0.7-0.7c0.8-0.1,1.5-0.2,2.2-0.2c1.7,0,2.8,0.4,2.8,2
				c0,1-0.3,1.6-1.4,2.8l-1.8,2c-0.1,0.2-0.1,0.2,0.1,0.2c0.3,0,0.6,0,0.9,0h1.9c0.4,0,0.6,0.2,0.6,0.6v0.5c0,0.4-0.2,0.6-0.6,0.6
				h-4.9C518.4,264.9,518.2,264.7,518.2,264.3z"/>
		</g>
		<g>
			<path class="st5" d="M539.2,295.7v5.7c0,0.5,0.4,1,1,1h1.4c0.5,0,1-0.4,1-1v-5.7c0-0.5-0.4-1-1-1h-1.4
				C539.7,294.7,539.2,295.1,539.2,295.7z"/>
			<path class="st5" d="M546.4,306.8c0.6,0,1.8-0.6,1.8-2.2c0-1.4-0.4-2.2-0.4-2.2h2.6c1.4,0,2.4-1.3,2.2-2.6L552,296
				c-0.2-1.1-1.1-1.9-2.2-1.9h-0.9c-2.8,0-4.6,0.6-5.5,1v6.9c0.8,0.6,2.1,1.6,2.1,3C545.6,306.5,545.8,306.8,546.4,306.8
				L546.4,306.8z"/>
		</g>
		<path class="st5" d="M488.2,305.3v0.9c0,0.5-0.4,0.8-0.8,0.8h-0.8c-0.5,0-0.8-0.4-0.8-0.8v-0.9c-0.6-0.1-1.1-0.3-1.6-0.6
			c-0.3-0.2-0.4-0.7-0.1-0.9l0.9-0.9c0.2-0.2,0.5-0.2,0.7-0.1c0.2,0.1,0.3,0.1,0.5,0.1h1.7c0.2,0,0.4-0.2,0.4-0.4
			c0-0.2-0.1-0.4-0.3-0.4l-2.6-0.7c-1.1-0.3-2.1-1.3-2.2-2.5c-0.2-1.7,1-3.1,2.5-3.2v-0.9c0-0.5,0.4-0.8,0.8-0.8h0.8
			c0.5,0,0.8,0.4,0.8,0.8v0.9c0.6,0.1,1.1,0.3,1.6,0.6c0.3,0.2,0.4,0.7,0.1,0.9L489,298c-0.2,0.2-0.5,0.2-0.7,0.1
			c-0.2-0.1-0.3-0.1-0.5-0.1h-1.7c-0.2,0-0.4,0.2-0.4,0.4c0,0.2,0.1,0.4,0.3,0.4l2.6,0.7c1.1,0.3,2.1,1.3,2.2,2.5
			C490.9,303.7,489.8,305.1,488.2,305.3L488.2,305.3z"/>
		<path class="st5" d="M385.9,300.2l-1.8,3.1c-0.3,0.5-0.8,0.8-1.4,0.8h-10.1c-0.5,0-0.8-0.5-0.5-0.9l1.8-3.1
			c0.3-0.5,0.8-0.8,1.4-0.8h10.1C385.9,299.2,386.2,299.7,385.9,300.2z M375.4,298.4h8.2v-1.2c0-0.7-0.5-1.2-1.2-1.2h-4l-1.6-1.6h-4
			c-0.7,0-1.2,0.5-1.2,1.2v7l1.7-3C373.7,298.9,374.5,298.4,375.4,298.4z"/>
		<path class="st5" d="M432.1,303.8c0,0.9-0.8,1.7-1.7,1.7c-0.9,0-1.7-0.8-1.7-1.7c0-0.6,0.3-1.2,0.8-1.5v-2.8
			c0-0.5,0.4-0.8,0.8-0.8s0.8,0.4,0.8,0.8v2.8C431.8,302.7,432.1,303.2,432.1,303.8z M433,301.6c0.5,0.6,0.8,1.4,0.8,2.2
			c0,1.9-1.5,3.4-3.4,3.4c0,0,0,0,0,0c-1.8,0-3.4-1.5-3.3-3.4c0-0.8,0.3-1.6,0.8-2.2v-5.3c0-1.4,1.1-2.5,2.5-2.5
			c1.4,0,2.5,1.1,2.5,2.5V301.6z M432.5,303.8c0-0.9-0.5-1.4-0.8-1.7v-5.8c0-0.7-0.6-1.3-1.3-1.3c-0.7,0-1.3,0.6-1.3,1.3v5.8
			c-0.3,0.4-0.8,0.8-0.8,1.7c0,1.2,0.9,2.1,2.1,2.1l0,0C431.6,305.9,432.5,305,432.5,303.8z"/>
		<g>
			<circle class="st5" cx="434.5" cy="261.1" r="6.8"/>
			<path class="st22" d="M434.5,256.4c-0.4,0-0.7,0.3-0.7,0.7v4.6c0,0.4,0.3,0.7,0.7,0.7h3.1c0.4,0,0.7-0.3,0.7-0.7
				c0-0.4-0.3-0.7-0.7-0.7h-2.4v-3.9C435.2,256.7,434.9,256.4,434.5,256.4L434.5,256.4z"/>
		</g>
	</g>
</g>
<g>
	<path class="st5" d="M530.6,345.4l-53.1-30.8c-1-0.6-1.9-0.7-2.7-0.2l-6.5,3.3c0,0-0.1,0-0.1,0c-0.8,0.4-1.2,1.3-1.2,2.5
		l-0.3,118.1c0,2.1,1.4,4.5,3.1,5.5l53.1,30.8c0.6,0.3,1.1,0.5,1.6,0.5c0.4,0,0.8-0.1,1.1-0.3c0.1,0,0.1-0.1,0.2-0.2l6.4-3.2
		c0.7-0.4,1.1-1.3,1.1-2.4l0.3-118.1C533.8,348.9,532.4,346.5,530.6,345.4z"/>
	<path class="st65" d="M523.7,349.2l-53.6-31.1c-1.6-0.9-2.8-0.2-2.8,1.6L467,438.7c0,1.8,1.2,4,2.8,4.9l53.6,31.1
		c1.6,0.9,2.8,0.2,2.8-1.6l0.3-118.9C526.5,352.3,525.3,350.1,523.7,349.2z M520.5,454.3c0,1.5-1,2.1-2.3,1.3l-44.1-25.6
		c-1.3-0.7-2.3-2.6-2.3-4l0.3-97.9c0-1.5,1-2.1,2.3-1.3l44.1,25.6c1.3,0.7,2.3,2.6,2.3,4L520.5,454.3z"/>
	<path class="st65" d="M497.1,448.7c0.7,1.2,1.1,2.6,1.1,3.7c0,2.4-1.7,3.4-3.8,2.1s-3.8-4.1-3.8-6.5s1.7-3.4,3.8-2.1
		C495.5,446.4,496.4,447.4,497.1,448.7z"/>
	<path class="st65" d="M523,474.5c0.6,0.3,1.1,0.5,1.6,0.5c0.4,0,0.8-0.1,1.1-0.3c0.1,0,0.1-0.1,0.2-0.2l6.4-3.2
		c0.7-0.4,1.1-1.3,1.1-2.4l0.3-118.1c0-2.1-1.4-4.5-3.1-5.5l-53.1-30.8c-1-0.6-1.9-0.7-2.7-0.2l-6.5,3.3c0,0-0.1,0-0.1,0
		c-0.8,0.4-1.2,1.3-1.2,2.5"/>
	<g>
		<g>
			<g>
				<path class="st16" d="M514.4,363.3l-35.8-21.6c-2.8-1.7-5.1-5.3-5.1-8.1v0c0-2.8,2.3-3.7,5.1-2l35.8,21.6
					c2.8,1.7,5.1,5.3,5.1,8.1v0C519.5,364.1,517.2,365,514.4,363.3z"/>
			</g>
			<g>
				<g>
					<g>
						<g>
							<path class="st5" d="M478.7,335.4v0.5l0.5,0.3v0.3l-0.5-0.3v0.8c0,0.1,0,0.2,0,0.3c0,0.1,0.1,0.1,0.1,0.2
								c0.2,0.1,0.3,0.2,0.3,0.2v0.3l-0.4-0.2c-0.3-0.2-0.5-0.5-0.5-1V336l-0.3-0.2v-0.3l0.3,0.1l0.1-0.5L478.7,335.4z"/>
						</g>
					</g>
					<g>
						<g>
							<path class="st5" d="M479.6,336.6c0.1-0.1,0.2-0.1,0.3,0c0.1,0,0.2,0.1,0.4,0.2c0.1,0.1,0.2,0.1,0.3,0.2
								c0.1,0,0.1,0.1,0.2,0.1c0.1,0.1,0.1,0.1,0.2,0.2c0,0.1,0.1,0.1,0.1,0.2c0.1,0.1,0.1,0.3,0.1,0.5c0,0.3-0.2,0.4-0.5,0.2
								l-0.7-0.4c0,0.2,0,0.3,0.1,0.4c0,0.1,0.1,0.1,0.1,0.1c0,0,0.2,0.1,0.4,0.2c0.2,0.1,0.4,0.2,0.6,0.3v0.3
								c-0.2-0.1-0.5-0.2-1-0.5c-0.2-0.1-0.4-0.3-0.5-0.5c-0.1-0.2-0.1-0.5-0.1-0.8S479.5,336.7,479.6,336.6z M480.7,337.7
								c0-0.1,0-0.2-0.1-0.3c0-0.1-0.1-0.1-0.3-0.2c-0.2-0.1-0.3-0.2-0.3-0.1c-0.1,0-0.1,0.1-0.1,0.1c0,0.1,0,0.1,0,0.2l0.6,0.4
								C480.6,337.8,480.7,337.8,480.7,337.7z"/>
						</g>
					</g>
					<g>
						<g>
							<path class="st5" d="M481.5,339.2c0-0.1-0.1-0.2-0.1-0.3c0-0.1,0-0.3,0-0.5c0-0.2,0-0.3,0-0.4c0-0.1,0.1-0.2,0.1-0.2
								c0.1,0,0.1,0,0.2,0c0.1,0,0.2,0.1,0.3,0.1c0.3,0.2,0.6,0.4,0.9,0.6v0.3c-0.3-0.2-0.5-0.3-0.6-0.4c-0.1-0.1-0.2-0.1-0.2-0.1
								c0,0,0,0-0.1,0c0,0-0.1,0-0.1,0c0,0,0,0,0,0c0,0,0,0,0,0.1c0,0.1,0,0.2,0,0.4c0,0.2,0,0.3,0,0.4c0,0.1,0.1,0.2,0.1,0.2
								c0,0.1,0.1,0.1,0.2,0.2c0.2,0.1,0.4,0.2,0.6,0.4l0.1,0.1v0.3c-0.1,0-0.3-0.1-0.4-0.1c0,0-0.1,0-0.1-0.1c0,0-0.1,0-0.1-0.1
								c0,0-0.1,0-0.1-0.1c0,0-0.1,0-0.1-0.1c-0.1,0-0.1-0.1-0.1-0.1c0,0-0.1-0.1-0.2-0.1c-0.1-0.1-0.1-0.1-0.2-0.2
								C481.6,339.4,481.5,339.3,481.5,339.2z"/>
						</g>
					</g>
					<g>
						<g>
							<path class="st5" d="M484.4,339.9c0-0.2-0.1-0.3-0.3-0.4c-0.1-0.1-0.2-0.1-0.3-0.1c-0.1,0-0.2,0-0.3,0v1.4l-0.4-0.3v-1.9
								l0.3,0.2l0.1,0.3c0,0,0,0,0.1,0c0,0,0.1,0,0.1,0c0,0,0.1,0,0.2,0c0.1,0,0.2,0.1,0.2,0.1c0.2,0.1,0.3,0.3,0.4,0.5
								c0.1,0.2,0.1,0.4,0.1,0.6v1.3l-0.4-0.3V339.9z"/>
						</g>
					</g>
					<g>
						<g>
							<path class="st5" d="M485.3,341.6c-0.1-0.1-0.1-0.2-0.1-0.4c0-0.1,0-0.3,0-0.5c0-0.2,0-0.4,0.1-0.5c0.1-0.1,0.1-0.2,0.3-0.1
								c0.1,0,0.3,0.1,0.5,0.2c0.3,0.2,0.6,0.4,0.7,0.6c0.1,0.2,0.2,0.5,0.2,0.9c0,0.4-0.1,0.6-0.2,0.7c-0.1,0.1-0.4,0-0.7-0.2
								c-0.2-0.1-0.3-0.2-0.4-0.3C485.5,341.8,485.4,341.7,485.3,341.6z M485.6,340.6c0,0,0,0.1,0,0.2c0,0.1,0,0.1,0,0.2
								c0,0.1,0,0.2,0,0.3c0,0.1,0,0.1,0,0.2c0,0.1,0,0.1,0.1,0.1c0,0,0.1,0.1,0.1,0.1c0.1,0.1,0.1,0.1,0.2,0.2
								c0.1,0.1,0.2,0.1,0.2,0.1c0,0,0.1,0,0.1,0c0,0,0.1,0,0.1,0c0-0.1,0.1-0.2,0.1-0.3s0-0.3,0-0.3c0-0.1,0-0.1,0-0.2
								c0-0.1,0-0.1-0.1-0.1c0,0,0-0.1-0.1-0.1c-0.1-0.1-0.1-0.1-0.2-0.2c-0.1-0.1-0.2-0.1-0.2-0.1c0,0-0.1,0-0.1,0
								C485.7,340.5,485.6,340.5,485.6,340.6C485.6,340.5,485.6,340.5,485.6,340.6z"/>
						</g>
					</g>
					<g>
						<g>
							<path class="st5" d="M488.8,342.5v0.1v1.3l-0.4-0.3v-1.3c0-0.1,0-0.2-0.1-0.3c0-0.1-0.1-0.1-0.2-0.2
								c-0.1-0.1-0.2-0.1-0.2-0.1c-0.1,0-0.2,0-0.3,0v1.4l-0.4-0.3V341l0.3,0.2l0.1,0.3c0,0,0,0,0.1,0c0,0,0.1,0,0.1,0
								c0,0,0,0,0.1,0c0,0,0.1,0,0.1,0c0,0,0,0,0.1,0c0,0,0.1,0,0.1,0c0,0,0,0,0.1,0c0,0,0.1,0.1,0.2,0.1c0.1,0.1,0.2,0.1,0.3,0.2
								c0.1,0.1,0.2,0.2,0.2,0.3c0.2,0,0.5,0,0.7,0.2c0.2,0.1,0.3,0.3,0.4,0.4c0.1,0.2,0.1,0.4,0.1,0.6v1.3l-0.4-0.3v-1.3
								c0-0.1,0-0.2-0.1-0.3c0-0.1-0.1-0.1-0.2-0.2c-0.1,0-0.1-0.1-0.2-0.1C489,342.5,488.9,342.5,488.8,342.5z"/>
						</g>
					</g>
				</g>
				<g>
					<path class="st5" d="M479.2,339.4c-0.6-0.4-1.4-0.9-1.9-1.8c-0.3-0.6-0.6-1.3-0.6-2.7c0-0.4,0-1.8,1.9-0.8
						c0.4,0.2,1.1,0.6,2,1.2c1.4,0.8,3,1.8,3.5,2.1c0.9,0.6,3.7,2.4,5,3.3c1.1,0.8,1.8,1.5,2.1,2c0.2,0.5,0.3,1,0.3,1.6
						c0,0.7-0.1,1-0.4,1.2c-0.2,0.2-0.6,0.1-1.3-0.2c-0.7-0.3-3.7-2-4.7-2.6C484,342.3,480.4,340.2,479.2,339.4L479.2,339.4z
						 M480.6,335.5c-0.9-0.6-1.6-1-2-1.2c-1.5-0.8-1.7,0.1-1.7,0.7c0,1.3,0.3,2,0.6,2.5c0.5,0.8,1.2,1.3,1.7,1.6l0,0
						c1.2,0.7,4.8,2.8,5.9,3.5c1,0.6,4,2.3,4.6,2.6c0.6,0.3,1,0.3,1.1,0.2c0.2-0.2,0.3-0.5,0.3-1.2c0-0.6-0.1-1-0.3-1.5
						c-0.2-0.5-0.9-1.1-1.9-1.9c-1.3-0.9-4.1-2.8-5-3.3C483.5,337.3,481.9,336.3,480.6,335.5z"/>
				</g>
			</g>
		</g>
		<g>
			<path class="st66" d="M489.4,354.9v-2.5c0-1,0.8-1.3,1.8-0.7l10.7,6.5c1,0.6,1.8,1.9,1.8,2.8v2.5"/>
		</g>
		<g>
			<path class="st66" d="M474.6,346v-2.5c0-1,0.8-1.3,1.8-0.7l10.7,6.5c1,0.6,1.8,1.9,1.8,2.8v2.5"/>
		</g>
		<g>
			<path class="st66" d="M504.1,363.7v-2.5c0-1,0.8-1.3,1.8-0.7l10.7,6.5c1,0.6,1.8,1.9,1.8,2.8v2.5"/>
		</g>
		<line class="st66" x1="473.5" y1="345.3" x2="519.5" y2="373"/>
		<line class="st67" x1="474.4" y1="365.6" x2="519.2" y2="392.6"/>
		<path class="st62" d="M500.7,360.5l-8-4.8c-0.2-0.1-0.4-0.4-0.4-0.7v-0.2c0-0.2,0.2-0.3,0.4-0.2l8,4.8c0.2,0.1,0.4,0.4,0.4,0.7
			v0.2C501.1,360.5,500.9,360.6,500.7,360.5z"/>
		<path class="st62" d="M486.5,351.9l-9.4-5.7c-0.2-0.1-0.4-0.5-0.4-0.7v-0.2c0-0.2,0.2-0.3,0.4-0.2l9.4,5.7
			c0.2,0.1,0.4,0.5,0.4,0.7v0.2C487,352,486.8,352.1,486.5,351.9z"/>
		<path class="st62" d="M514.5,368.8l-6-3.6c-0.2-0.1-0.4-0.4-0.4-0.6v-0.3c0-0.2,0.2-0.3,0.4-0.1l6,3.6c0.2,0.1,0.4,0.4,0.4,0.6
			v0.3C514.9,368.8,514.7,368.9,514.5,368.8z"/>
		<g>
			<g>
				<g>
					<text transform="matrix(0.9993 0.6022 0 1 479.3893 356.7097)" class="st26 st68 st69">10186</text>
				</g>
				<path class="st11" d="M476.1,355.3l-0.2-0.1c-0.7-0.4-1.2-1.3-1.2-2v-2.1c0-0.7,0.5-0.9,1.2-0.5l0.2,0.1c0.7,0.4,1.2,1.3,1.2,2
					v2.1C477.3,355.5,476.8,355.7,476.1,355.3z"/>
			</g>
			<g>
				<g>
					<text transform="matrix(0.9993 0.6022 0 1 504.123 371.6136)" class="st26 st68 st69">351</text>
				</g>
				<path class="st22" d="M500.8,370.2l-0.2-0.1c-0.7-0.4-1.2-1.3-1.2-2v-2.1c0-0.7,0.5-0.9,1.2-0.5l0.2,0.1c0.7,0.4,1.2,1.3,1.2,2
					v2.1C502.1,370.4,501.5,370.6,500.8,370.2z"/>
			</g>
			<path class="st70" d="M476.2,362.8l-0.2-0.1c-0.7-0.4-1.2-1.3-1.2-2v-2.1c0-0.7,0.5-0.9,1.2-0.5l0.2,0.1c0.7,0.4,1.2,1.3,1.2,2
				v2.1C477.5,363,476.9,363.2,476.2,362.8z"/>
			<path class="st20" d="M500.6,377.5l-0.2-0.1c-0.7-0.4-1.2-1.3-1.2-2v-2.1c0-0.7,0.5-0.9,1.2-0.5l0.2,0.1c0.7,0.4,1.2,1.3,1.2,2
				v2.1C501.8,377.6,501.2,377.9,500.6,377.5z"/>
			<g>
				<text transform="matrix(0.9993 0.6022 0 1 479.6085 364.2258)" class="st26 st68 st69">10.45%</text>
			</g>
			<g>
				<text transform="matrix(0.9993 0.6022 0 1 504.0803 378.972)" class="st26 st68 st69">15 min.</text>
			</g>
		</g>
		<g>
			<g>
				<path class="st11" d="M498,395.2c6.2,3.6,10.6,14.3,9.8,23.9c-0.3,3.5-1.3,6.5-2.8,8.7l-8.5-15.2L498,395.2z"/>
				<path class="st20" d="M505,427.8c-4.2,6-11.4,4-16.1-4.4c-0.5-1-1-2-1.5-3.1l9-7.7L505,427.8z"/>
				<path class="st71" d="M498,395.2c-0.2-0.1-0.4-0.2-0.6-0.3c-0.6-0.3-1.2-0.5-1.7-0.6v0c0,0,0,0,0,0c0,0,0,0,0,0v0
					c-0.7-0.2-1.3-0.2-2-0.2v0c-0.8,0-1.6,0.2-2.3,0.5l5.1,18.1L498,395.2z"/>
				<path class="st70" d="M488.8,396.5c-1.3,1.5-2.3,3.5-2.9,5.9l0,0C486.5,400.1,487.5,397.9,488.8,396.5z"/>
				<path class="st72" d="M491.4,394.5c-0.6,0.3-1.2,0.6-1.7,1.1c0,0,0,0,0,0l6.9,16.8L491.4,394.5z"/>
				<path class="st70" d="M496.5,412.5l-10.2-11.7c0.7-2.1,1.9-3.9,3.3-5.2L496.5,412.5z"/>
				<polygon class="st70" points="496.5,412.6 496.5,412.6 496.5,412.5 496.5,412.6 				"/>
				<path class="st22" d="M496.5,412.5L496.5,412.5l-9,7.8c-0.2-0.5-0.4-1.1-0.6-1.6c-0.9-2.7-1.5-5.8-1.7-8.6l0,0
					c0-0.2,0-0.3,0-0.5c0-0.1,0-0.1,0-0.2c0-0.2,0-0.5,0-0.7c0,0,0-0.1,0-0.1c0-0.3,0-0.5,0-0.8c0,0,0,0,0-0.1c0-0.3,0-0.5,0-0.8
					c0,0,0-0.1,0-0.1c0-0.5,0.1-1.1,0.1-1.6c0,0,0-0.1,0-0.1c0.1-0.5,0.1-1,0.2-1.5c0-0.1,0-0.1,0-0.2c0-0.2,0.1-0.4,0.1-0.6
					c0,0,0-0.1,0-0.1c0-0.2,0.1-0.4,0.2-0.6c0-0.1,0-0.2,0.1-0.2c0-0.1,0.1-0.3,0.1-0.4c0-0.1,0-0.2,0.1-0.2
					c0.1-0.2,0.1-0.3,0.2-0.5L496.5,412.5L496.5,412.5z"/>
			</g>
			<polyline class="st73" points="503.4,409.7 507.1,408 508.3,408.7 			"/>
			<g>
				<ellipse transform="matrix(0.979 -0.204 0.204 0.979 -73.7411 109.961)" class="st5" cx="496.6" cy="412.7" rx="5" ry="8.7"/>
			</g>
			<g>
				<text transform="matrix(0.6438 0.3708 -8.462028e-02 0.9964 492.4294 412.0562)" class="st26 st68 st74">4837</text>
			</g>
			<path class="st62" d="M480.6,413.1l-6.7-3.9c-0.3-0.2-0.4-0.6-0.4-1l0,0c0-0.4,0.3-0.6,0.5-0.5l6.7,3.9c0.3,0.2,0.4,0.6,0.4,1
				l0,0C481.1,413,480.9,413.2,480.6,413.1z"/>
			<path class="st62" d="M510.6,441.9l-5.2-3c-0.3-0.2-0.4-0.6-0.4-1l0,0c0-0.4,0.3-0.6,0.5-0.5l5.2,3c0.3,0.2,0.4,0.6,0.4,1v0
				C511.1,441.8,510.8,442,510.6,441.9z"/>
			<path class="st62" d="M517.8,414.9l-8.4-4.9c-0.3-0.2-0.4-0.6-0.4-1l0,0c0-0.4,0.3-0.6,0.5-0.5l8.4,4.9c0.3,0.2,0.4,0.6,0.4,1
				l0,0C518.3,414.8,518,415.1,517.8,414.9z"/>
			<path class="st62" d="M482.8,391.1l-6.3-3.6c-0.3-0.2-0.4-0.6-0.4-1l0,0c0-0.4,0.3-0.6,0.5-0.5l6.3,3.6c0.3,0.2,0.4,0.6,0.4,1
				l0,0C483.3,391.1,483.1,391.3,482.8,391.1z"/>
			<path class="st62" d="M485.2,383.5l-5.2-3c-0.3-0.2-0.4-0.6-0.4-1l0,0c0-0.4,0.3-0.6,0.5-0.5l5.2,3c0.3,0.2,0.4,0.6,0.4,1v0
				C485.7,383.4,485.4,383.7,485.2,383.5z"/>
			<path class="st62" d="M507.2,396.2l-6.6-3.8c-0.3-0.2-0.4-0.6-0.4-1l0,0c0-0.4,0.3-0.6,0.5-0.5l6.6,3.8c0.3,0.2,0.4,0.6,0.4,1
				l0,0C507.7,396.1,507.5,396.3,507.2,396.2z"/>
			<polyline class="st73" points="498.3,427.6 500.1,435.1 504.2,437.4 			"/>
			<polyline class="st73" points="481.6,412.9 482.9,413.6 487.5,411.1 			"/>
			<polyline class="st73" points="483.9,391 486.4,392.4 489.2,399.8 			"/>
			<polyline class="st73" points="486.5,383.5 488.6,384.7 491.2,396.6 			"/>
			<polyline class="st73" points="499.5,391 496.1,389 494.5,396.4 			"/>
		</g>
	</g>
</g>
<g>
	<circle class="st75" cx="534.4" cy="394.7" r="17.8"/>
	<g>
		<path class="st5" d="M542.6,390.8c0,0.6,0,1.8,0,3.3c0,1.6,0,2.7,0,3.3c-0.1,1.5-0.5,2.6-1.3,3.4s-1.9,1.2-3.4,1.3
			c-0.6,0-1.8,0.1-3.3,0.1c-1.6,0-2.7,0-3.3-0.1c-1.5-0.1-2.6-0.5-3.4-1.3c-0.3-0.3-0.6-0.6-0.8-1c-0.2-0.4-0.3-0.8-0.4-1.1
			s-0.1-0.8-0.1-1.3c-0.1-0.6-0.1-1.8-0.1-3.3c0-1.6,0-2.7,0.1-3.4c0.1-1.5,0.5-2.6,1.3-3.4c0.8-0.8,1.9-1.3,3.4-1.3
			c0.6,0,1.8,0,3.3,0c1.6,0,2.7,0,3.3,0c1.5,0.1,2.6,0.5,3.4,1.3C542.1,388.2,542.5,389.3,542.6,390.8z M540.8,399
			c0.1-0.2,0.1-0.5,0.2-0.7c0-0.3,0.1-0.7,0.1-1.1c0-0.4,0-0.8,0-1c0-0.3,0-0.6,0-1.1s0-0.7,0-0.8s0-0.3,0-0.8c0-0.5,0-0.8,0-1.1
			c0-0.3,0-0.6,0-1c0-0.4-0.1-0.8-0.1-1.1c-0.1-0.3-0.1-0.6-0.2-0.7c-0.3-0.7-0.8-1.3-1.6-1.6c-0.2-0.1-0.5-0.1-0.7-0.2
			c-0.3,0-0.7-0.1-1.1-0.1c-0.4,0-0.8,0-1,0c-0.3,0-0.6,0-1.1,0c-0.5,0-0.8,0-0.8,0c-0.1,0-0.3,0-0.8,0s-0.9,0-1.1,0s-0.6,0-1,0
			c-0.4,0-0.8,0.1-1.1,0.1c-0.3,0.1-0.6,0.1-0.7,0.2c-0.7,0.3-1.3,0.8-1.6,1.6c-0.1,0.2-0.1,0.5-0.2,0.7c-0.1,0.3-0.1,0.7-0.1,1.1
			c0,0.4,0,0.8,0,1c0,0.3,0,0.6,0,1.1c0,0.5,0,0.8,0,0.8c0,0.1,0,0.3,0,0.7s0,0.6,0,0.9c0,0.2,0,0.5,0,0.9c0,0.4,0,0.7,0.1,0.9
			s0.1,0.5,0.1,0.8c0,0.3,0.1,0.5,0.1,0.6c0.3,0.7,0.8,1.3,1.6,1.6c0.2,0.1,0.5,0.1,0.7,0.2c0.3,0.1,0.7,0.1,1.1,0.1
			c0.4,0,0.8,0,1,0s0.6,0,1.1,0c0.5,0,0.8,0,0.8,0c0.1,0,0.4,0,0.8,0s0.8,0,1.1,0c0.3,0,0.6,0,1,0c0.4,0,0.8-0.1,1.1-0.1
			c0.3,0,0.6-0.1,0.7-0.2C540,400.2,540.5,399.7,540.8,399z M531.5,391.2c0.8-0.8,1.8-1.2,3-1.2s2.1,0.4,3,1.2s1.2,1.8,1.2,3
			s-0.4,2.1-1.2,3c-0.8,0.8-1.8,1.2-3,1.2s-2.1-0.4-3-1.2c-0.8-0.8-1.2-1.8-1.2-3S530.7,392,531.5,391.2z M532.5,396.1
			c0.5,0.5,1.2,0.8,1.9,0.8s1.4-0.3,1.9-0.8c0.5-0.5,0.8-1.2,0.8-1.9c0-0.7-0.3-1.4-0.8-1.9c-0.5-0.5-1.2-0.8-1.9-0.8
			s-1.4,0.3-1.9,0.8c-0.5,0.5-0.8,1.2-0.8,1.9C531.7,394.9,532,395.5,532.5,396.1z M539.5,389.1c0.2,0.2,0.3,0.4,0.3,0.7
			c0,0.3-0.1,0.5-0.3,0.7c-0.2,0.2-0.4,0.3-0.7,0.3c-0.3,0-0.5-0.1-0.7-0.3c-0.2-0.2-0.3-0.4-0.3-0.7c0-0.3,0.1-0.5,0.3-0.7
			c0.2-0.2,0.4-0.3,0.7-0.3C539.1,388.8,539.3,388.9,539.5,389.1z"/>
	</g>
</g>
<g>
	<path class="st36" d="M384.7,542.5c-1-0.4-2.2-0.2-3.3,0.7c-1,0.8-1.9,2-2.5,3.4c-0.7,1.4-1,2.9-1,4.2c0.1,1.5,0.6,2.6,1.6,3.1
		c0.3,0.1,0.6,0.2,1,0.2c1.8,0,3.8-1.8,5-4.4c0.7-1.4,0.9-3,0.9-4.3C386.3,544.1,385.7,543,384.7,542.5z M384.8,549.5
		c-1,2.3-2.8,3.9-4.3,3.9c-0.3,0-0.5-0.1-0.7-0.1c-0.7-0.3-1.1-1.1-1.1-2.4c0-1.2,0.3-2.6,0.9-3.9c0.6-1.3,1.4-2.4,2.3-3.2
		c0.5-0.4,1.1-0.7,1.8-0.7c0.2,0,0.5,0,0.7,0.1c0.9,0.4,1.2,1.5,1.3,2.3l0,0C385.7,546.8,385.4,548.2,384.8,549.5z"/>
	<path class="st36" d="M383.5,545.7C383.5,545.7,383.5,545.7,383.5,545.7c-0.1-0.1-0.2-0.1-0.4-0.1c-0.7,0-1.5,0.8-2,1.9
		c-0.5,1-0.6,2-0.3,2.6c0.1,0.3,0.3,0.5,0.5,0.5c0.1,0,0.2,0.1,0.4,0.1c0.3,0,0.6-0.1,0.9-0.4c0.5-0.4,0.9-0.9,1.2-1.6
		c0.4-0.9,0.5-1.9,0.3-2.5C383.9,546,383.7,545.8,383.5,545.7z M383.1,548.5c-0.2,0.5-0.6,1-0.9,1.3c-0.2,0.2-0.5,0.3-0.5,0.2
		c-0.1-0.1-0.3-0.9,0.3-2.1c0.4-1,1-1.4,1.3-1.4c0,0,0.1,0,0.1,0s0.1,0.1,0.1,0.2C383.4,546.9,383.4,547.6,383.1,548.5z"/>
	<path class="st36" d="M371,542.8c0-0.7-0.3-1.2-0.8-1.5c-0.5-0.3-1-0.3-1.5,0c-1.9,1-4,1.7-5.8,2c-1.5,0.3-2.7,0.3-3.5,0.3h-0.4
		c-0.5,0-0.9,0-1.1,0.1c-0.1,0-0.2,0.1-0.3,0.3c-1.7,2.2-1.9,2.8-1.9,3.1c0,0.3,0.1,0.5,0.4,0.7c0.8,0.6,3.6,1.3,6.4,1.3
		c1.2,0,2.3-0.1,3.5-0.3l0,0c5.3-1.1,5.1-4.6,5.1-5.8L371,542.8z M358.1,544.4C358.1,544.5,358,544.5,358.1,544.4l-0.2-0.3
		L358.1,544.4z M365.7,548c-1.1,0.2-2.2,0.3-3.3,0.3c-3,0-5.5-0.7-6-1.1c-0.1-0.1-0.1-0.1-0.1-0.1c0-0.1,0.1-0.5,1.7-2.6l0,0
		c0.1-0.1,0.5-0.1,0.9-0.1h0.3c0.8,0,2.1-0.1,3.6-0.3c2-0.3,4.1-1,6.1-2c0.3-0.1,0.5-0.1,0.8,0c0.3,0.1,0.4,0.5,0.4,0.8v0.2
		c0,0,0,0,0,0.1C370.2,544.1,370.4,547,365.7,548z"/>
	<path class="st36" d="M431.4,504.3c-0.9-0.5-4.6-2.2-6.6-3c-2.3-0.8-4.7-0.7-6.4,0.3c-1.1,0.6-21.8,12.5-23.7,13.6
		c-1.8,1-2.5,1.9-3.1,3.3c-0.2,0.3-0.5,0.9-0.8,1.6c-0.4,0.8-0.9,1.7-1.4,2.7c-0.4,0.7-0.7,1.4-1.1,2.1c-0.8,1.5-1.5,3-1.9,3.7
		c-0.8,1.6-0.3,2.4,0.1,2.8c0.3,0.3,0.6,0.4,1,0.4c0.3,0,0.7-0.1,1.1-0.3c0.1,0,0.6-0.3,1.5-0.9c6.4-3.6,11.9-6.7,16.5-9.3v10.8
		c0,0.2,0.2,0.4,0.4,0.4c0.2,0,0.4-0.2,0.4-0.4v-11.1c0-0.1,0-0.1,0-0.1c19.9-11.2,23.8-13.3,24.1-13.5l0,0c0.9-0.5,1.1-1.1,1.1-1.5
		C432.5,505.1,431.8,504.5,431.4,504.3z M431,506.7c-0.8,0.4-15.1,8.4-41.4,23.2c-0.9,0.5-1.5,0.8-1.5,0.9c-0.2,0.1-0.5,0.2-0.7,0.2
		c-0.1,0-0.3,0-0.5-0.2c-0.3-0.3-0.3-1,0.1-1.9c0.3-0.7,1.1-2.2,1.9-3.7c0.4-0.7,0.7-1.4,1.1-2.1c0.5-1,1-1.9,1.4-2.7
		c0.4-0.7,0.7-1.3,0.8-1.6c0.6-1.2,1.2-2,2.8-3c1.9-1.1,22.6-13,23.7-13.6c0.8-0.5,1.9-0.7,3-0.7c0.9,0,1.9,0.2,2.8,0.5
		c2,0.7,5.6,2.4,6.5,2.9c0.3,0.1,0.7,0.5,0.6,1C431.7,506.2,431.5,506.5,431,506.7z"/>
	<path class="st36" d="M441.4,497.4c0-0.1-0.1-0.2-0.2-0.3c-0.2-0.1-19.4-11.5-20.9-12.3c-1.8-1-3.1-1.1-5.4-0.3l-0.4,0.1
		c0,0,0,0-0.1,0c-1.3,0.5-3.4,1.2-5.4,1.2c-0.7-0.3-5.6-2.2-9.7-2.3c0,0,0,0,0,0h0c0,0-0.1,0-0.1,0h0c-1.9,0.1-3.9,0.5-5.5,1.3
		c-1.2,0.7-10,5.8-17.1,9.9l-3,1.7c-2,1.2-3.5,2-4.1,2.3c-1.8,1-2.8,2-3.1,2.5c-0.1,0-0.1,0.1-0.1,0.1l-9.7,12.9
		c-0.1,0-0.1,0-0.2,0.1c-0.7,0.4-15.9,9.3-16.9,10.9c0,0,0,0,0,0c-0.1,0.1-0.1,0.2-0.1,0.3l0,0l0,0l0,0l0,0
		c-0.1,0.2-0.1,0.5-0.2,0.7c-0.1,0.1-0.1,0.3-0.1,0.5c-0.5,1.5-0.9,2.7-0.9,3c0,0.1,0,0.1,0,0.2c0,0,0,0.1,0,0.1l-0.1,0.5
		c-0.2,1.5-0.5,3.7-0.6,5c0,0,0,0,0,0.1s0,0.1,0,0.1v0c0,0,0,0,0,0c0,1.8,0.2,3.6,0.6,5.2c1,4.2,4.7,7.1,8.5,9.7
		c0.7,0.5,7.5,5,16.4,5c7.2,0,10.4-1.9,11.5-2.9c0.4,0.5,0.8,0.8,0.8,0.8l2.5,2c0,0,0,0,0,0c0.1,0.1,0.2,0.1,0.3,0.2l0.2,0.1
		c0,0,0,0,0.1,0c0,0,0.1,0,0.1,0c0.4,0.2,0.8,0.3,1.2,0.3c2.3,0,5.1-2.4,6.8-6.1c1.2-2.7,1.6-5.6,0.9-7.6l1.7,0.9c0.1,0,0.1,0,0.2,0
		c0.1,0,0.1,0,0.2-0.1c0,0,0,0,0,0l29.3-16.9c0.4,0.7,0.9,1,0.9,1l2.5,2c0,0,0,0,0,0c0.1,0.1,0.2,0.1,0.3,0.2l0.2,0.1c0,0,0,0,0.1,0
		c0,0,0.1,0,0.1,0c0.4,0.2,0.8,0.3,1.2,0.3c2.3,0,5.1-2.4,6.8-6.1c1.2-2.7,1.6-5.6,0.9-7.6l1.7,0.9c0,0,0,0,0,0l0,0h0c0,0,0,0,0.1,0
		h0h0l0,0c0,0,0,0,0.1,0h0c0,0,0.1,0,0.1,0l0,0l0,0c1-0.6,4.5-2.8,5.6-3.8c1.3-1.2,3.7-6.5,3.7-10.6
		C443.4,500.1,442,498.2,441.4,497.4z M408.8,486.6l22,12.7c-1.2-0.4-4.9-1.4-7.7-2c0,0,0,0,0,0L401,484.5
		C404.6,484.9,408.5,486.5,408.8,486.6z M357.2,514.9l9.4-12.5c5,6.7,23.3,13.9,24.3,14.2l-7.7,13.2
		C367.3,524.3,359.6,517.4,357.2,514.9z M339.2,528.9c0.1,0.6,0.3,1.2,0.5,1.8c0.3,0.7,0.5,1.2,0.7,1.5c0,0,0.1,0.1,0.1,0.1
		c-0.1,0.3-0.1,0.9-0.2,1.5l0,0c-0.4-0.6-1-2.4-1.3-3.6l0-0.2c0,0,0-0.1,0-0.1C339,529.6,339.1,529.3,339.2,528.9z M339.6,534.3
		c0.1,0.4-0.3,2.1-0.5,2.5c0,0,0,0-0.1,0c-0.1-0.1-0.5-0.5-0.9-1c0.1-1,0.3-2.4,0.4-3.7C338.9,532.9,339.3,533.8,339.6,534.3z
		 M375.1,552.3C375.1,552.3,375.1,552.3,375.1,552.3c0.1-3.8,1.2-7.4,3.3-10.2c0.9-1.3,2-2.3,3.1-2.9l2.1,1c-0.7,0.2-1.4,0.5-2.1,1
		c-1.5,1.1-2.9,2.9-3.8,5c-0.9,2.1-1.4,4.3-1.2,6.1c0,0.5,0.1,0.9,0.3,1.3l-0.9-0.7C375.8,553.1,375.4,552.8,375.1,552.3z
		 M385.6,540.4C385.6,540.4,385.6,540.4,385.6,540.4L385.6,540.4L385.6,540.4c-0.2-0.1-0.3-0.1-0.5-0.1c0,0-0.1-0.1-0.1-0.1
		l-2.8-1.3c0.7-0.3,1.5-0.5,2.2-0.5c1.1,0,2.1,0.3,2.9,1.1c0.7,0.7,1.3,1.8,1.5,3.2l-2-1C386.6,541,386.1,540.6,385.6,540.4z
		 M385.8,549.9c-1.7,3.9-4.9,6.4-7,5.5c0,0,0,0-0.1,0l-0.2-0.1c-0.8-0.5-1.3-1.5-1.4-2.9c-0.2-1.7,0.2-3.8,1.1-5.7
		c0.9-1.9,2.1-3.6,3.6-4.7c0.9-0.7,1.8-1,2.5-1c0.3,0,0.6,0.1,0.9,0.2h0c0,0,0.1,0,0.1,0c0.6,0.3,1,0.8,1.3,1.5
		C387.3,544.5,387,547.3,385.8,549.9z M419.4,526c0-0.1-0.1-0.1-0.1-0.1c0.4-5.9,3.1-10.8,6.8-12.6l1.9,0.9c-0.7,0.2-1.4,0.5-2.1,1
		c-1.5,1.1-2.9,2.9-3.8,5c-0.9,2.1-1.4,4.3-1.2,6.1c0,0.5,0.1,0.9,0.3,1.3l-0.9-0.7C420.3,527,419.7,526.6,419.4,526z M430.1,514.3
		C430.1,514.3,430.1,514.3,430.1,514.3L430.1,514.3L430.1,514.3c-0.2-0.1-0.3-0.1-0.5-0.1c0,0-0.1-0.1-0.1-0.1l-2.4-1.2
		c0.1,0,0.3-0.1,0.4-0.1c1.5-0.3,2.7-0.2,3.7,0.5c1.2,0.8,1.8,2.1,2.1,3.1l-1.9-0.9C431.1,515,430.6,514.6,430.1,514.3z
		 M430.3,523.9c-1.7,3.9-4.9,6.4-7,5.5c0,0,0,0-0.1,0l-0.2-0.1c-0.8-0.5-1.3-1.5-1.4-2.9c-0.2-1.7,0.2-3.8,1.1-5.7
		c0.9-1.9,2.1-3.6,3.6-4.7c0.9-0.7,1.8-1,2.5-1c0.3,0,0.6,0.1,0.9,0.2h0c0,0,0.1,0,0.1,0c0.6,0.3,1,0.8,1.3,1.5
		C431.8,518.4,431.5,521.2,430.3,523.9z M439.1,513.1c-0.9,0.9-3.7,2.6-5,3.4c-0.3-1.1-1-2.9-2.5-3.9c-1.2-0.8-2.6-1-4.3-0.6
		c-4.8,1.2-8.4,6.9-8.9,13.9l-28.7,16.6c-0.3-1.7-0.9-3-1.8-3.8s-2.1-1.3-3.4-1.3c-2.3,0-4.8,1.6-6.8,4.2c-2.1,2.8-3.3,6.5-3.4,10.4
		c-0.6,0.6-3.5,3-11.3,3c-8.7,0-15.3-4.4-16-4.9c-2.9-1.9-5.6-4.1-7.2-6.8c1.7,2.5,6.1,5.7,11.1,8c0.2,0.1,0.5,0.2,1,0.2
		c0.1,0,0.3,0,0.5-0.1c0.4-0.1,0.7-0.4,0.9-0.8l0,0c0.4-0.8,0.7-1.8,0.5-2.5c-0.1-0.3-0.3-0.6-0.7-0.7c-8.5-3.5-11.9-7.6-12.2-8.1
		c0-0.1-0.1-0.1-0.1-0.1c-0.3-0.3-0.7-0.4-1.1-0.1c-0.6,0.4-0.7,2-0.5,2.9c-0.1-0.4-0.3-0.7-0.3-1.1c-0.3-1.2-0.5-2.6-0.6-3.9
		c0.2,0.2,0.4,0.4,0.5,0.5c0.1,0.1,0.3,0.1,0.3,0.1c0.2,0,0.5-0.1,0.6-0.3l0,0c0.1-0.1,0.1-0.2,0.2-0.4c0,0,0,0,0,0.1
		c0.1,1.4,1.1,2.6,3.8,4.6c2,1.4,5.2,3.3,7.8,4.4l0.1,0c0.5,0.2,1.3,0.5,2,0.5c0.7,0,1.3-0.3,1.7-0.7c0.4-0.5,1.7-2.3,2.3-3.1
		c1.1,0.1,2.3,0.1,3.3,0c8.1-1.1,21.5-10.7,21.6-10.8c0.2-0.1,0.2-0.4,0.1-0.5c-0.1-0.2-0.4-0.2-0.5-0.1
		c-0.1,0.1-13.3,9.5-21.3,10.6c-1,0.1-2.1,0.1-3.3,0c0,0-0.1,0-0.1,0c-5.5-0.7-11.9-4.1-14.8-7.6c-0.6-0.7-1-1.4-1.4-2
		c0,0,0-0.1-0.1-0.1c0,0-0.1-0.1-0.1-0.2c-0.2-0.4-0.4-0.8-0.5-1.2c-0.4-1.1-0.8-2.9-0.3-4.8c0.6-0.9,7.7-5.4,16.3-10.5
		c2.3,2.4,10.1,9.5,26.5,15.3c0.3,0.1,0.7,0,0.9-0.3l7.7-13.3c0.1-0.2,0.1-0.4,0.1-0.6c-0.1-0.2-0.2-0.4-0.5-0.5
		c-0.6-0.2-19.4-7.6-24.1-14.1c0.4-0.4,1.2-1.3,2.8-2.2c0.6-0.3,2-1.2,4.1-2.3l3-1.7c6.7-3.9,15.8-9.2,17-9.9
		c1.5-0.7,3.4-1.2,5.2-1.3l23.4,13.6c0.1,0.1,0.1,0.1,0.3,0.1c3.3,0.7,7.7,2,7.9,2.1h0c0.4,0.1,0.7-0.1,0.9-0.4
		c0.1-0.3,0-0.7-0.3-0.9l-21.2-12.3c1.7-0.2,3.3-0.8,4.4-1.2l0.4-0.1c2.1-0.7,3.2-0.7,4.8,0.2c1.3,0.8,16.9,10,20.3,12
		c-1.6,0.9-5.2,3-6.5,3.6c-1.3,0.6-3.6-0.1-5.5-0.6c-0.2-0.1-0.4-0.1-0.7-0.2c-0.4-0.1-0.9-0.2-1.3-0.3c-2.1-0.5-5.4-1.3-7.9,0
		c-2.3,1.2-26.6,15.2-26.8,15.3c-0.2,0.1-0.3,0.3-0.1,0.5c0.1,0.2,0.3,0.2,0.5,0.1c0.2-0.1,24.5-14.2,26.7-15.3
		c2.2-1.1,5.3-0.4,7.3,0.1c0.4,0.1,0.8,0.2,1.3,0.3c0.2,0.1,0.4,0.1,0.7,0.2c2,0.6,4.5,1.3,6,0.6c1.4-0.7,5.4-2.9,6.8-3.8
		c0.6,0.7,1.8,2.5,1.8,5.1C442.6,506.9,440.3,512,439.1,513.1z M340.1,539.8c0.2,0.3,3.5,4.7,12.6,8.4c0.2,0.1,0.2,0.2,0.3,0.3v0
		c0.2,0.5-0.2,1.4-0.4,1.9c-0.1,0.2-0.3,0.4-0.4,0.4c-0.1,0-0.2,0-0.3,0c-0.3,0-0.5-0.1-0.6-0.2c-5.4-2.5-10.1-6-11.2-8.5
		C339.7,541.6,339.8,540,340.1,539.8z M340.1,539.8l0.1-0.4L340.1,539.8C340.1,539.8,340.1,539.8,340.1,539.8z M340.7,536.8
		c0-0.5,0.2-2.3,0.4-3.5c0.3,0.4,0.6,0.9,0.9,1.3c2.8,3.5,9.1,7,14.7,7.8c-0.6,0.9-1.7,2.4-2,2.7c-0.3,0.3-0.6,0.5-1.1,0.5
		c-0.6,0-1.3-0.3-1.7-0.5l-0.1,0c-2.5-1.1-5.7-3-7.7-4.4C341.7,539,340.7,537.9,340.7,536.8z M431.1,499.4L431.1,499.4L431.1,499.4
		L431.1,499.4z"/>
	<path class="st36" d="M421,502.8c-0.2-0.1-0.5-0.1-0.7,0l-13.2,7.5c-0.2,0.1-0.4,0.4-0.4,0.7l-0.2,7.7c0,0.2,0.1,0.5,0.3,0.7
		c0,0,0,0,0.1,0c0.1,0,0.2,0.1,0.4,0.1c0.1,0,0.2,0,0.4-0.1l13.6-7.7l0,0c0.2-0.2,0.3-0.4,0.3-0.7l-0.2-7.4
		C421.4,503.2,421.2,502.9,421,502.8z M420.7,510.9l-13.5,7.7h0l0,0l0.1-7.7l13.2-7.5l0,0L420.7,510.9
		C420.7,510.9,420.7,510.9,420.7,510.9z"/>
	<path class="st36" d="M428.3,504.1c-1.2-0.8-4.2-1.5-5.2-1.8c-0.1,0-0.2-0.1-0.2-0.1c-0.2-0.1-0.5-0.1-0.7,0.1
		c-0.2,0.1-0.3,0.4-0.3,0.6l0.1,6.7c0,0.2,0.1,0.5,0.3,0.6c0,0,0,0,0.1,0c0.1,0,0.2,0.1,0.4,0.1c0.1,0,0.1,0,0.2,0
		c0.1,0,0.1,0,0.2,0c0.2-0.1,4.2-2.2,5-2.6l0,0c0.8-0.5,1.3-1.2,1.3-1.9C429.4,505.5,429.2,504.7,428.3,504.1z M427.6,507.2
		c-0.7,0.4-4.3,2.3-4.8,2.6c0,0-0.1,0-0.1,0l0,0l-0.1-6.7c0,0,0.1,0,0.3,0.1c2.5,0.6,4.2,1.2,4.9,1.7c0.5,0.3,0.8,0.7,0.8,1.1
		C428.6,506.4,428.2,506.9,427.6,507.2z"/>
	<path class="st36" d="M405.8,511.5L405.8,511.5c-0.3-0.2-0.6-0.2-0.8,0l-9.3,5.2c-0.1,0-1.8,0.9-2.7,2.5c-0.1,0.1-4.6,8.8-4.7,9.1
		c-0.1,0.3,0,0.7,0.3,0.9c0.1,0.1,0.3,0.1,0.5,0.1c0.1,0,0.3-0.1,0.4-0.1l16-8.8c0,0,0,0,0.1,0c0.2-0.2,0.3-0.4,0.3-0.6l0.3-7.5
		C406.2,511.9,406.1,511.7,405.8,511.5z M405.1,519.6L405.1,519.6L405.1,519.6L405.1,519.6z M405.1,519.6
		C405.1,519.6,405.1,519.7,405.1,519.6l-16,8.8c0.3-0.6,2.9-5.7,4.6-8.9c0.7-1.3,2.3-2.1,2.3-2.2l9.3-5.2l0,0L405.1,519.6z"/>
	<path class="st36" d="M429.2,516.5c-1-0.4-2.2-0.2-3.3,0.7c-1,0.8-1.9,2-2.5,3.4c-0.7,1.4-1,2.9-1,4.2c0.1,1.5,0.6,2.6,1.6,3.1
		c0.3,0.1,0.6,0.2,1,0.2c1.8,0,3.8-1.8,5-4.4c0.7-1.4,0.9-3,0.9-4.3C430.8,518,430.2,516.9,429.2,516.5z M429.3,523.4
		c-1,2.3-2.8,4-4.3,4c-0.3,0-0.5-0.1-0.7-0.1c-0.7-0.3-1.1-1.1-1.1-2.4c0-1.2,0.3-2.6,0.9-3.9c0.6-1.3,1.4-2.4,2.3-3.2
		c0.5-0.4,1.1-0.7,1.8-0.7c0.2,0,0.5,0,0.7,0.1c0.9,0.4,1.2,1.5,1.3,2.3l0,0C430.2,520.7,429.9,522.1,429.3,523.4z"/>
	<path class="st36" d="M428,519.6C428,519.6,428,519.6,428,519.6c-0.1-0.1-0.2-0.1-0.4-0.1c-0.7,0-1.5,0.8-2,1.9
		c-0.5,1-0.6,2-0.3,2.6c0.1,0.3,0.3,0.5,0.5,0.5c0.1,0,0.2,0.1,0.4,0.1c0.3,0,0.6-0.1,0.9-0.4c0.5-0.4,0.9-0.9,1.2-1.6
		c0.4-0.9,0.5-1.9,0.3-2.5C428.4,520,428.2,519.7,428,519.6z M427.5,522.4c-0.2,0.5-0.6,1-0.9,1.3c-0.2,0.2-0.5,0.3-0.5,0.2
		c-0.1-0.1-0.3-0.9,0.3-2.1c0.4-1,1-1.4,1.3-1.4c0,0,0.1,0,0.1,0s0.1,0.1,0.1,0.2C427.9,520.9,427.9,521.6,427.5,522.4z"/>
</g>
</svg>
